<svg width="35" height="35" viewBox="0 0 35 35" fill="none" xmlns="http://www.w3.org/2000/svg">
<g clip-path="url(#clip0_441_30)">
<path d="M27.3483 12.1724H7.65081C7.65081 12.1724 6.39081 16.5914 6.34378 22.9772C6.34269 23.0946 6.37002 23.2105 6.42344 23.3151C6.47686 23.4197 6.55479 23.5098 6.65058 23.5777C7.64945 24.285 11.109 26.3737 17.4996 26.6881C23.8902 26.3737 27.3498 24.285 28.3487 23.5777C28.4444 23.5098 28.5223 23.4197 28.5758 23.3151C28.6292 23.2105 28.6565 23.0946 28.6555 22.9772C28.6082 16.5914 27.3483 12.1724 27.3483 12.1724Z" fill="#685E67"/>
<path d="M28.6557 22.9772C28.6568 23.0947 28.6296 23.2106 28.5763 23.3152C28.5229 23.4198 28.4451 23.5099 28.3493 23.5779C27.9853 23.8356 27.2951 24.2765 26.2557 24.7484C26.4366 24.5948 26.5409 24.3646 26.5388 24.1188C26.4937 17.6801 25.3754 12.9379 25.1846 12.1724H27.3486C27.3486 12.1724 28.6085 16.5914 28.6557 22.9772Z" fill="#554E55"/>
<path d="M28.1342 16.1294L17.9553 19.4956C17.6595 19.5935 17.3399 19.5935 17.0441 19.4956L6.86523 16.1294C7.23 13.6491 7.65116 12.1724 7.65116 12.1724H27.3482C27.3482 12.1724 27.7693 13.6491 28.1342 16.1294Z" fill="#554E55"/>
<path d="M17.044 5.26873L0.498084 10.7404C-0.166028 10.9601 -0.166028 11.8995 0.498084 12.1191L17.044 17.5908C17.3401 17.6887 17.6598 17.6887 17.9558 17.5908L34.5017 12.1191C35.1659 11.8995 35.1659 10.96 34.5017 10.7404L17.9558 5.26873C17.6598 5.17084 17.3401 5.17084 17.044 5.26873Z" fill="#918291"/>
<path d="M34.5018 12.119L17.9554 17.5908C17.6596 17.6887 17.3401 17.6887 17.0442 17.5908L14.5449 16.7641C14.7428 16.7796 14.9428 16.7556 15.1336 16.6922L33.2392 10.7049C33.3899 10.6556 33.4814 10.5415 33.5131 10.4133L34.5018 10.7401C35.1659 10.9598 35.1659 11.8993 34.5018 12.119Z" fill="#7A6E79"/>
<path d="M19.3504 10.5883C19.3504 11.2895 18.5189 11.5676 17.4931 11.5676C16.4673 11.5676 15.6357 11.2895 15.6357 10.5883C15.6357 9.88708 16.4673 9.3186 17.4931 9.3186C18.5189 9.3186 19.3504 9.88708 19.3504 10.5883Z" fill="#685E67"/>
<path d="M19.3506 10.5879C19.3506 11.2893 18.5189 11.5675 17.4929 11.5675C17.3942 11.5675 17.2956 11.5647 17.1971 11.559C17.5992 11.4062 17.8548 11.147 17.8548 10.7583C17.8548 10.1675 17.2654 9.67167 16.4668 9.52941C16.7605 9.39632 17.1133 9.31812 17.4929 9.31812C18.5189 9.31818 19.3506 9.88721 19.3506 10.5879Z" fill="#554E55"/>
<path d="M9.78693 20.094C9.71757 20.094 9.64889 20.0803 9.58481 20.0538C9.52073 20.0273 9.4625 19.9884 9.41346 19.9393C9.36441 19.8903 9.32551 19.832 9.29897 19.768C9.27243 19.7039 9.25878 19.6352 9.25879 19.5658V15.1909C9.25879 15.1037 9.28041 15.0178 9.32172 14.9409C9.36303 14.864 9.42274 14.7986 9.49552 14.7505L15.5975 10.7126C15.8406 10.5515 16.1683 10.6183 16.3294 10.8616C16.4067 10.9784 16.4344 11.1211 16.4064 11.2584C16.3785 11.3956 16.2972 11.5162 16.1804 11.5935L10.3151 15.4748V19.5659C10.3151 19.706 10.2594 19.8403 10.1604 19.9393C10.0613 20.0384 9.927 20.094 9.78693 20.094Z" fill="#433F43"/>
<path d="M9.41438 18.8833C8.90906 19.9719 8.0664 22.6653 8.04199 28.5503C8.04174 28.6287 8.06763 28.7048 8.11554 28.7668C8.16346 28.8288 8.23067 28.873 8.30654 28.8924C8.60056 28.9682 9.12235 29.0712 9.78728 29.0712C10.4522 29.0712 10.9741 28.9682 11.268 28.8924C11.3439 28.873 11.4111 28.8288 11.459 28.7668C11.5069 28.7048 11.5328 28.6287 11.5326 28.5503C11.5082 22.6653 10.6655 19.9719 10.1602 18.8833H9.41438Z" fill="#FDD330"/>
<path d="M11.5319 28.5506C11.5321 28.6287 11.5062 28.7048 11.4584 28.7666C11.4106 28.8284 11.3435 28.8726 11.2678 28.8921C10.9953 28.9625 10.5284 29.0555 9.93406 29.0689C9.975 29.036 10.008 28.9943 10.0305 28.9468C10.0531 28.8994 10.0647 28.8475 10.0644 28.795C10.0447 24.0443 9.49185 21.3732 9.01367 19.9478C9.15593 19.4887 9.29395 19.1408 9.41364 18.8831H10.1594C10.665 19.9717 11.5079 22.6654 11.5319 28.5506Z" fill="#E7B729"/>
<path d="M9.78708 20.2785C10.5977 20.2785 11.2548 19.6214 11.2548 18.8108C11.2548 18.0001 10.5977 17.343 9.78708 17.343C8.97647 17.343 8.31934 18.0001 8.31934 18.8108C8.31934 19.6214 8.97647 20.2785 9.78708 20.2785Z" fill="#FDDD45"/>
<path d="M34.3078 23.4836C35.0072 23.229 35.2102 22.0225 34.7611 20.7887C34.3121 19.555 33.381 18.7612 32.6817 19.0158L15.4453 25.2893L17.0714 29.7572L34.3078 23.4836Z" fill="#F2EFF2"/>
<path d="M34.7606 20.7884C35.2097 22.0225 35.0073 23.2286 34.3077 23.4833L17.0711 29.7569L16.4619 28.0833L33.3452 21.9383C34.0215 21.6921 34.2333 20.5569 33.8417 19.3677C34.2077 19.6894 34.5416 20.1869 34.7606 20.7884Z" fill="#E1DDE1"/>
<path d="M17.0713 29.7581C17.7707 29.5035 17.9737 28.297 17.5246 27.0632C17.0756 25.8295 16.1446 25.0357 15.4451 25.2903C14.7457 25.5448 14.5427 26.7514 14.9918 27.9851C15.4408 29.2189 16.3719 30.0126 17.0713 29.7581Z" fill="#B5ADB6"/>
<path d="M17.0709 29.757C16.7448 29.876 16.3673 29.7661 16.0132 29.4901C16.4709 29.1802 16.5794 28.2753 16.2435 27.3513C15.9484 26.54 15.4005 25.9612 14.8984 25.8696C15.0146 25.5851 15.1992 25.3788 15.4449 25.2893C16.1442 25.0344 17.0759 25.8281 17.5245 27.0619C17.9737 28.2957 17.7709 29.5027 17.0709 29.757Z" fill="#A69CA7"/>
<path d="M25.2355 26.7857C25.935 26.5311 26.1379 25.3246 25.6889 24.0908C25.2398 22.8571 24.3088 22.0633 23.6094 22.3178L26.0089 21.4445C26.7083 21.1899 27.6393 21.9837 28.0883 23.2175C28.5374 24.4512 28.3344 25.6577 27.635 25.9123C27.635 25.9123 29.9392 25.5808 30.8751 27.3609C30.9736 27.5484 30.8809 27.7801 30.6819 27.8525L28.258 28.7347C28.0752 28.8013 27.8727 28.7073 27.8068 28.5243C27.5474 27.804 26.7858 26.2214 25.2355 26.7857Z" fill="#FC9744"/>
<path d="M28.2519 23.7922C28.4608 24.8066 28.2238 25.6978 27.6348 25.9121L25.2354 26.7855C25.825 26.5709 26.062 25.6798 25.8524 24.6656L28.2519 23.7922Z" fill="#FB7722"/>
</g>
<defs>
<clipPath id="clip0_441_30">
<rect width="35" height="35" fill="white"/>
</clipPath>
</defs>
</svg>
