<svg width="55" height="56" viewBox="0 0 55 56" fill="none" xmlns="http://www.w3.org/2000/svg">
<path opacity="0.1" d="M3.20833 51.7051C2.86916 52.0901 3.14416 52.7043 3.66666 52.7226C7.05833 52.8968 10.4775 52.1359 13.5483 50.6326C17.6 53.1443 22.385 54.5834 27.5 54.5834C42.185 54.5834 54.0833 42.6851 54.0833 28.0001C54.0833 13.3151 42.185 1.41675 27.5 1.41675C12.815 1.41675 0.916664 13.3151 0.916664 28.0001C0.916664 34.3618 3.14416 40.1918 6.875 44.7659C6.12333 47.3418 4.84916 49.7984 3.20833 51.7051Z" fill="white"/>
<path d="M12 20.6667C12 14.0394 17.6714 8.66675 24.6667 8.66675L26 9.33341V11.3334H24.6667C19.144 11.3334 14.6667 15.5121 14.6667 20.6667V22.0001H12V20.6667ZM44 20.6667C44 14.0394 38.3287 8.66675 31.3334 8.66675L30 9.33341V11.3334H31.3334C36.856 11.3334 41.3334 15.5121 41.3334 20.6667V22.0001H44V20.6667Z" fill="#ADBFC4"/>
<path d="M14.6667 42V46C14.6667 46.3536 14.8072 46.6928 15.0572 46.9428C15.3073 47.1929 15.6464 47.3333 16 47.3333H20V42H14.6667ZM41.3334 42V46C41.3334 46.3536 41.1929 46.6928 40.9428 46.9428C40.6928 47.1929 40.3537 47.3333 40 47.3333H36V42H41.3334Z" fill="#CED7DD"/>
<path d="M18.6667 44.5268C18.1214 44.6818 17.5475 44.7082 16.9902 44.6039C16.433 44.4995 15.9075 44.2673 15.4552 43.9255C15.0029 43.5837 14.6361 43.1416 14.3836 42.634C14.1311 42.1264 13.9998 41.5671 14 41.0002C14 38.9735 15.64 37.3335 17.6667 37.3335C18.8067 37.3335 19.82 37.8468 20.4867 38.6602L18.6667 44.5268ZM35.5134 38.6602C36.18 37.8468 37.1934 37.3335 38.3334 37.3335C40.36 37.3335 42 38.9735 42 41.0002C42.0003 41.5671 41.869 42.1264 41.6165 42.634C41.364 43.1416 40.9972 43.5837 40.5449 43.9255C40.0925 44.2673 39.5671 44.4995 39.0098 44.6039C38.4526 44.7082 37.8787 44.6818 37.3334 44.5268L35.5134 38.6602Z" fill="#B3C1C9"/>
<path d="M24.6667 33.3335H31.3334V38.0002H24.6667V33.3335Z" fill="#CED7DD"/>
<path d="M33.3334 16.6667C37.3867 16.6667 40.6667 19.9467 40.6667 24.0001L41.3334 25.3334L40.6667 26.6667C40.6667 30.7201 37.3867 34.0001 33.3334 34.0001H22.6667C18.6134 34.0001 15.3334 30.7201 15.3334 26.6667L14.6667 25.3334L15.3334 24.0001C15.3334 19.9467 18.6134 16.6667 22.6667 16.6667H33.3334Z" fill="#E4EAEF"/>
<path d="M33.3334 20.6667H22.6667C20.0894 20.6667 18 22.7561 18 25.3334C18 27.9107 20.0894 30.0001 22.6667 30.0001H33.3334C35.9107 30.0001 38 27.9107 38 25.3334C38 22.7561 35.9107 20.6667 33.3334 20.6667Z" fill="#203B51"/>
<path d="M24 37.3335H32C34.9434 37.3335 37.3334 39.7235 37.3334 42.6668V46.0002C37.3334 46.3538 37.1929 46.6929 36.9428 46.943C36.6928 47.193 36.3537 47.3335 36 47.3335H20C19.6464 47.3335 19.3073 47.193 19.0572 46.943C18.8072 46.6929 18.6667 46.3538 18.6667 46.0002V42.6668C18.6667 39.7235 21.0567 37.3335 24 37.3335Z" fill="#E4EAEF"/>
<path d="M32.08 19.7775C32.6474 19.0088 33.3314 17.8408 33.3334 16.6728C33.3339 16.3185 33.1938 15.9784 32.9438 15.7273C32.6938 15.4762 32.3544 15.3346 32 15.3335H23.9994C23.645 15.3346 23.3056 15.4762 23.0556 15.7273C22.8056 15.9784 22.6655 16.3185 22.666 16.6728C22.668 17.8415 23.352 19.0095 23.9194 19.7775C24.1262 20.055 24.3954 20.28 24.7051 20.4345C25.0149 20.589 25.3566 20.6686 25.7027 20.6668H30.296C30.998 20.6668 31.6634 20.3422 32.08 19.7775Z" fill="#CED7DD"/>
<path d="M22.6667 26.6667C23.4031 26.6667 24 26.0697 24 25.3333C24 24.597 23.4031 24 22.6667 24C21.9303 24 21.3334 24.597 21.3334 25.3333C21.3334 26.0697 21.9303 26.6667 22.6667 26.6667Z" fill="url(#paint0_radial_153_8916)"/>
<path d="M33.3334 26.6667C34.0698 26.6667 34.6667 26.0697 34.6667 25.3333C34.6667 24.597 34.0698 24 33.3334 24C32.597 24 32 24.597 32 25.3333C32 26.0697 32.597 26.6667 33.3334 26.6667Z" fill="url(#paint1_linear_153_8916)"/>
<path d="M24.6667 8.66675H31.3334V11.3334C31.3334 11.5102 31.2631 11.6798 31.1381 11.8048C31.0131 11.9298 30.8435 12.0001 30.6667 12.0001H25.3334C25.1566 12.0001 24.987 11.9298 24.862 11.8048C24.7369 11.6798 24.6667 11.5102 24.6667 11.3334V8.66675Z" fill="#BDCCD1"/>
<path d="M41.3334 34.6667H37.3334V33.3334H41.3334C41.5102 33.3334 41.6798 33.2632 41.8048 33.1382C41.9298 33.0131 42 32.8436 42 32.6667V28.6667H43.3334V32.6667C43.3334 33.7694 42.436 34.6667 41.3334 34.6667Z" fill="#CED7DD"/>
<path d="M44 30.0001H41.3334C41.1566 30.0001 40.987 29.9298 40.862 29.8048C40.7369 29.6798 40.6667 29.5102 40.6667 29.3334V21.3334C40.6667 21.1566 40.7369 20.987 40.862 20.862C40.987 20.737 41.1566 20.6667 41.3334 20.6667H44C45.104 20.6667 46 21.5627 46 22.6667V28.0001C46 29.1041 45.104 30.0001 44 30.0001Z" fill="#BDCCD1"/>
<path d="M36 32.6667H38C38.1769 32.6667 38.3464 32.737 38.4714 32.862C38.5965 32.987 38.6667 33.1566 38.6667 33.3334V34.6667C38.6667 34.8436 38.5965 35.0131 38.4714 35.1382C38.3464 35.2632 38.1769 35.3334 38 35.3334H36C35.6464 35.3334 35.3073 35.1929 35.0572 34.9429C34.8072 34.6928 34.6667 34.3537 34.6667 34.0001C34.6667 33.6465 34.8072 33.3073 35.0572 33.0573C35.3073 32.8072 35.6464 32.6667 36 32.6667Z" fill="#122359"/>
<path d="M12 20.6667H14.6667C14.8435 20.6667 15.0131 20.737 15.1381 20.862C15.2631 20.987 15.3334 21.1566 15.3334 21.3334V29.3334C15.3334 29.5102 15.2631 29.6798 15.1381 29.8048C15.0131 29.9298 14.8435 30.0001 14.6667 30.0001H12C10.896 30.0001 10 29.1041 10 28.0001V22.6667C10 21.5627 10.896 20.6667 12 20.6667Z" fill="#BDCCD1"/>
<defs>
<radialGradient id="paint0_radial_153_8916" cx="0" cy="0" r="1" gradientUnits="userSpaceOnUse" gradientTransform="translate(22.6667 25.3333) rotate(90) scale(1.33333)">
<stop stop-color="#8844E6"/>
<stop offset="1" stop-color="#4E35E5"/>
</radialGradient>
<linearGradient id="paint1_linear_153_8916" x1="33.3334" y1="24" x2="33.3334" y2="26.6667" gradientUnits="userSpaceOnUse">
<stop stop-color="#8643E6"/>
<stop offset="1" stop-color="#4E35E5"/>
</linearGradient>
</defs>
</svg>
