<svg width="30" height="30" viewBox="0 0 30 30" fill="none" xmlns="http://www.w3.org/2000/svg">
<circle opacity="0.03" cx="15" cy="15" r="15" fill="white"/>
<g clip-path="url(#clip0_153_9277)">
<path d="M20.2192 14.7674L9.42005 8.04184C9.29215 7.9616 9.12341 8.00023 9.04317 8.12815C9.01808 8.16814 9.00378 8.21394 9.00165 8.2611C8.99951 8.30826 9.00963 8.35516 9.03101 8.39725L12.3328 14.9995L9.02964 21.6028C8.96126 21.7374 9.01496 21.902 9.14958 21.9704C9.19166 21.9918 9.23857 22.0019 9.28573 21.9997C9.33289 21.9976 9.37869 21.9833 9.41868 21.9582L20.2178 15.2327C20.3461 15.1532 20.3857 14.9846 20.3062 14.8563C20.2839 14.8204 20.2537 14.7901 20.2178 14.7679L20.2192 14.7674Z" fill="white"/>
</g>
<defs>
<clipPath id="clip0_153_9277">
<rect width="14" height="14" fill="white" transform="translate(8 8)"/>
</clipPath>
</defs>
</svg>
