<svg width="26" height="26" viewBox="0 0 26 26" fill="none" xmlns="http://www.w3.org/2000/svg">
<g clip-path="url(#clip0_174_13740)">
<path fill-rule="evenodd" clip-rule="evenodd" d="M12.9927 0.625733C19.8429 0.623296 25.376 6.15398 25.376 12.9993C25.376 19.847 19.8421 25.3769 12.9927 25.3745C6.14818 25.3729 0.610184 19.8267 0.623184 12.9871C0.636997 6.14423 6.15712 0.626546 12.9927 0.625733ZM23.7672 13.0034C23.7713 7.06967 18.9556 2.24423 13.0227 2.23367C7.07362 2.22311 2.249 7.03067 2.23193 12.983C2.2165 18.9216 7.04762 23.7633 12.9894 23.7657C18.9394 23.769 23.764 18.9517 23.7672 13.0034Z" fill="#0C0C0C"/>
<path fill-rule="evenodd" clip-rule="evenodd" d="M14.5437 7.42383C14.9776 7.45795 15.2376 7.60502 15.3725 7.92108C15.5049 8.23552 15.457 8.5337 15.2246 8.78477C14.9386 9.09108 14.6396 9.38439 14.3487 9.68339C13.4002 10.6535 12.4523 11.6241 11.505 12.5954C11.4221 12.6799 11.3206 12.7579 11.2783 12.8595C11.2394 12.9617 11.2391 13.0747 11.2775 13.1771C11.3197 13.2795 11.4213 13.3608 11.5034 13.4436C12.7237 14.6973 13.9449 15.951 15.1694 17.2015C15.4156 17.4525 15.509 17.7418 15.3952 18.0733C15.2937 18.3739 15.0702 18.5543 14.7534 18.6046C14.633 18.6271 14.509 18.6192 14.3925 18.5816C14.276 18.544 14.1708 18.4779 14.0863 18.3893C12.7514 17.0235 11.4042 15.6691 10.0945 14.2813C9.39819 13.5436 9.41118 12.467 10.1132 11.7301C11.422 10.3634 12.7451 9.01056 14.0822 7.67164C14.2196 7.53514 14.4373 7.47908 14.5437 7.42383Z" fill="#0C0C0C"/>
</g>
<defs>
<clipPath id="clip0_174_13740">
<rect width="26" height="26" fill="white"/>
</clipPath>
</defs>
</svg>
