<svg width="35" height="35" viewBox="0 0 35 35" fill="none" xmlns="http://www.w3.org/2000/svg">
<path d="M32.7912 30.2287L29.0417 25.6662C28.9337 25.5377 28.8052 25.4712 28.6667 25.4712H5.33465C5.19565 25.4712 5.06715 25.5377 4.95915 25.6662L1.20915 30.2287C0.792653 30.7382 1.03965 31.7357 1.58515 31.7357H15.7922C15.9752 31.7357 16.1532 31.6627 16.2727 31.5237C16.3615 31.4172 16.4729 31.3317 16.5988 31.2735C16.7247 31.2153 16.862 31.1858 17.0007 31.1872C17.3977 31.1872 17.6182 31.3437 17.7377 31.4892C17.8642 31.6432 18.0477 31.7357 18.2467 31.7357H32.4157C32.9607 31.7357 33.2082 30.7382 32.7912 30.2287Z" fill="#DBA660"/>
<path d="M32.7907 30.2287L29.0412 25.6662C28.9332 25.5377 28.8047 25.4712 28.6662 25.4712L28.7537 26.0402C23.8897 30.1172 10.5012 31.2897 1.01367 31.0167C1.05817 31.3982 1.26867 31.7357 1.58517 31.7357H15.7922C15.9752 31.7357 16.1532 31.6627 16.2727 31.5237C16.3614 31.4172 16.4728 31.3318 16.5986 31.2736C16.7244 31.2154 16.8616 31.1859 17.0002 31.1872C17.3972 31.1872 17.6177 31.3437 17.7372 31.4892C17.8637 31.6432 18.0472 31.7357 18.2462 31.7357H32.4152C32.9602 31.7357 33.2077 30.7382 32.7907 30.2287Z" fill="#BF7D5A"/>
<path d="M26.8595 21.416L17.001 25.4845V30.2205C17.745 29.438 21.6155 27.3405 27.7995 28.7455C28.8235 28.9775 30.613 30.128 31.3615 29.5035C31.3615 29.5035 27.028 23.6625 26.8595 21.416Z" fill="#B0B8CF"/>
<path d="M31.3615 29.5031C30.323 29.7181 28.079 28.4831 28.079 28.4831C20.6505 24.4041 17.001 30.2211 17.001 30.2211C17.1035 30.4016 17.225 30.6001 17.3385 30.7796C17.517 31.0616 17.903 31.0961 18.1405 30.8621C20.497 28.5426 25.704 29.3841 27.3465 30.0141C29.0965 30.6851 32.186 30.6041 32.186 30.6041L31.3615 29.5031Z" fill="#9EA9C9"/>
<path d="M26.8595 19.3604L17.001 25.4844V30.2204C17.868 29.1274 22.706 23.6954 30.78 26.8469C30.78 26.8469 27.0275 21.5714 26.8595 19.3604Z" fill="#C9CEE2"/>
<path d="M26.907 18.52C23.359 19.035 19.978 19.182 17.001 23.398V30.221C17.868 29.083 22.706 22.0585 30.78 24.791C30.78 24.791 27.075 20.7235 26.907 18.521V18.52Z" fill="#E3E7F0"/>
<path d="M7.14165 21.416L17.0006 25.4845V30.2205C16.2566 29.438 12.3856 27.3405 6.20215 28.7455C5.17815 28.9775 3.38865 30.128 2.63965 29.5035C2.63965 29.5035 6.97365 23.6625 7.14165 21.416Z" fill="#C9CEE2"/>
<path d="M5.92243 28.4832C5.92243 28.4832 3.67843 29.7182 2.63943 29.5032L1.81543 30.6042C1.81543 30.6042 4.90443 30.6852 6.65443 30.0142C8.29693 29.3842 13.5044 28.5427 15.8604 30.8622C16.0984 31.0962 16.4844 31.0622 16.6624 30.7797C16.7764 30.5997 16.8974 30.4017 17.0004 30.2212C17.0004 30.2212 13.3509 24.4042 5.92243 28.4842V28.4832Z" fill="#9EA9C9"/>
<path d="M7.1412 19.3604L17.0002 25.4844V30.2204C16.1327 29.1274 11.2947 23.6954 3.2207 26.8469C3.2207 26.8469 6.9732 21.5714 7.1412 19.3604Z" fill="#B0B8CF"/>
<path d="M7.0947 18.52C10.6427 19.035 14.0232 19.182 17.0007 23.3975V30.2205C16.1332 29.083 11.2952 22.058 3.2207 24.7905C3.2207 24.7905 6.9257 20.723 7.0942 18.5205L7.0947 18.52Z" fill="#C9CEE2"/>
<path d="M16.8572 10.9956C17.2037 10.9956 17.4842 10.7146 17.4842 10.3681V7.87358C17.4842 7.70729 17.4181 7.54781 17.3005 7.43023C17.1829 7.31264 17.0234 7.24658 16.8572 7.24658C16.6909 7.24658 16.5314 7.31264 16.4138 7.43023C16.2962 7.54781 16.2302 7.70729 16.2302 7.87358V10.3686C16.2302 10.7146 16.5107 10.9956 16.8572 10.9956ZM23.9362 16.6401C24.1097 16.9401 24.4932 17.0426 24.7927 16.8696L26.9532 15.6221C27.0245 15.5809 27.087 15.5261 27.1371 15.4608C27.1872 15.3955 27.224 15.3209 27.2453 15.2414C27.2666 15.1618 27.272 15.0789 27.2613 14.9972C27.2505 14.9156 27.2238 14.8369 27.1827 14.7656C27.1415 14.6943 27.0867 14.6318 27.0214 14.5816C26.956 14.5315 26.8815 14.4948 26.8019 14.4734C26.7224 14.4521 26.6395 14.4467 26.5578 14.4574C26.4762 14.4682 26.3975 14.4949 26.3262 14.5361L24.1662 15.7836C24.0948 15.8247 24.0323 15.8795 23.9821 15.9448C23.9319 16.0101 23.8951 16.0847 23.8737 16.1642C23.8524 16.2437 23.8469 16.3267 23.8576 16.4083C23.8683 16.49 23.895 16.5687 23.9362 16.6401ZM21.1437 12.5081C21.4437 12.6811 21.8272 12.5781 22.0002 12.2781L23.2477 10.1181C23.2888 10.0468 23.3155 9.96806 23.3263 9.88642C23.337 9.80479 23.3316 9.72183 23.3103 9.6423C23.289 9.56277 23.2522 9.48821 23.2021 9.42289C23.152 9.35756 23.0895 9.30275 23.0182 9.26158C22.9468 9.22041 22.8681 9.19369 22.7865 9.18294C22.7049 9.1722 22.6219 9.17763 22.5424 9.19895C22.4628 9.22026 22.3883 9.25702 22.323 9.30715C22.2576 9.35727 22.2028 9.41977 22.1617 9.49108L20.9142 11.6511C20.7412 11.9511 20.8442 12.3346 21.1437 12.5081ZM12.5332 12.5081C12.8332 12.3346 12.9362 11.9511 12.7632 11.6511L11.5157 9.49108C11.4325 9.347 11.2955 9.24186 11.1349 9.19877C10.9742 9.15568 10.803 9.17819 10.6589 9.26133C10.5148 9.34448 10.4097 9.48145 10.3666 9.64212C10.3235 9.8028 10.346 9.974 10.4292 10.1181L11.6767 12.2781C11.8497 12.5781 12.2332 12.6811 12.5332 12.5081ZM9.74066 16.6401C9.91366 16.3401 9.81066 15.9566 9.51066 15.7836L7.35066 14.5361C7.27935 14.4949 7.20063 14.4682 7.119 14.4574C7.03736 14.4467 6.95441 14.4521 6.87488 14.4734C6.79534 14.4948 6.72079 14.5315 6.65546 14.5816C6.59014 14.6318 6.53533 14.6943 6.49416 14.7656C6.45299 14.8369 6.42627 14.9156 6.41552 14.9972C6.40477 15.0789 6.41021 15.1618 6.43152 15.2414C6.45283 15.3209 6.4896 15.3955 6.53972 15.4608C6.58985 15.5261 6.65235 15.5809 6.72366 15.6221L8.88366 16.8696C9.18366 17.0426 9.56766 16.9401 9.74066 16.6401Z" fill="#FFD06C"/>
<path d="M16.8571 7.24658C16.7446 7.24658 16.6441 7.28408 16.5531 7.33658C16.7426 7.44408 16.8761 7.64008 16.8761 7.87358V10.3686C16.8761 10.6021 16.7426 10.7976 16.5531 10.9056C16.6441 10.9576 16.7446 10.9956 16.8571 10.9956C17.2036 10.9956 17.4841 10.7146 17.4841 10.3681V7.87358C17.4841 7.52708 17.2036 7.24658 16.8571 7.24658ZM27.1826 14.7656C27.1415 14.6943 27.0867 14.6318 27.0213 14.5816C26.956 14.5315 26.8815 14.4948 26.8019 14.4734C26.7224 14.4521 26.6394 14.4467 26.5578 14.4574C26.4762 14.4682 26.3974 14.4949 26.3261 14.5361L26.3241 14.5371C26.4236 14.5906 26.5141 14.6611 26.5741 14.7656C26.7476 15.0656 26.6451 15.4491 26.3451 15.6221L24.1866 16.8681C24.3716 16.9681 24.5976 16.9821 24.7926 16.8696L26.9531 15.6221C27.2531 15.4491 27.3561 15.0656 27.1831 14.7656H27.1826ZM23.0181 9.26108C22.8226 9.14858 22.5961 9.16308 22.4111 9.26258C22.7096 9.43608 22.8121 9.81858 22.6391 10.1176L21.3916 12.2786C21.3316 12.3826 21.2411 12.4536 21.1416 12.5066C21.1426 12.5066 21.1431 12.5076 21.1436 12.5081C21.4436 12.6811 21.8271 12.5781 22.0001 12.2781L23.2476 10.1181C23.4206 9.81808 23.3181 9.43458 23.0181 9.26108ZM11.5156 9.49058C11.4745 9.41921 11.4196 9.35665 11.3543 9.30648C11.2889 9.25631 11.2143 9.21952 11.1347 9.1982C11.0551 9.17689 10.9721 9.17147 10.8904 9.18226C10.8087 9.19305 10.73 9.21983 10.6586 9.26108L10.6576 9.26258C10.7566 9.31558 10.8466 9.38658 10.9071 9.49058L12.1546 11.6511C12.2376 11.7947 12.2601 11.9654 12.2174 12.1257C12.1747 12.286 12.0701 12.4228 11.9266 12.5061C12.1116 12.6061 12.3381 12.6211 12.5331 12.5081C12.8331 12.3346 12.9356 11.9511 12.7631 11.6511L11.5156 9.49058ZM9.51064 15.7831L7.35064 14.5361C7.15564 14.4231 6.92914 14.4376 6.74414 14.5371L8.90264 15.7836C9.20264 15.9566 9.30564 16.3401 9.13264 16.6401C9.07164 16.7451 8.98114 16.8151 8.88214 16.8681L8.88414 16.8696C9.02815 16.9527 9.1993 16.9753 9.35992 16.9322C9.52055 16.8892 9.65749 16.7841 9.74064 16.6401C9.82379 16.4961 9.84632 16.3249 9.80328 16.1643C9.76024 16.0037 9.65515 15.8667 9.51114 15.7836L9.51064 15.7831Z" fill="#FEBC1F"/>
<path d="M29.4402 9.53321C28.7437 9.33321 28.2702 8.89271 28.0217 8.21171C28.0109 8.18091 27.9905 8.15438 27.9636 8.13598C27.9366 8.11759 27.9045 8.1083 27.8719 8.10947C27.8392 8.11065 27.8078 8.12222 27.7823 8.1425C27.7567 8.16278 27.7383 8.19071 27.7297 8.22221C27.5297 8.91871 27.0887 9.39121 26.4082 9.64021C26.3774 9.65097 26.3508 9.6713 26.3324 9.69823C26.314 9.72516 26.3046 9.75727 26.3058 9.78989C26.3069 9.8225 26.3184 9.85391 26.3386 9.87951C26.3589 9.90511 26.3867 9.92358 26.4182 9.93221C27.1152 10.1322 27.5882 10.5727 27.8372 11.2537C27.8887 11.3952 28.0872 11.3882 28.1292 11.2432C28.3292 10.5467 28.7697 10.0742 29.4507 9.82521C29.4815 9.8144 29.508 9.79402 29.5264 9.76706C29.5448 9.7401 29.5541 9.70796 29.5529 9.67534C29.5518 9.64272 29.5402 9.61134 29.5199 9.58576C29.4996 9.56019 29.4717 9.54178 29.4402 9.53321Z" fill="#986FF9"/>
<path d="M29.4505 9.82499C29.4813 9.81418 29.5079 9.79381 29.5263 9.76684C29.5446 9.73988 29.5539 9.70774 29.5528 9.67512C29.5516 9.64251 29.54 9.61112 29.5197 9.58555C29.4995 9.55997 29.4715 9.54156 29.44 9.53299C28.976 9.39949 28.612 9.15899 28.3465 8.81299C28.4625 9.45949 28.3815 10.243 27.6445 10.848C27.7185 10.9725 27.783 11.107 27.837 11.253C27.8467 11.2804 27.8641 11.3044 27.8871 11.3222C27.91 11.3401 27.9376 11.3509 27.9665 11.3536C27.9955 11.3562 28.0246 11.3505 28.0503 11.3371C28.0761 11.3237 28.0975 11.3032 28.112 11.278C28.1385 11.1925 28.168 11.1095 28.201 11.0295C28.426 10.4495 28.8415 10.0475 29.4505 9.82499Z" fill="#7E5AF2"/>
<path d="M22.0457 5.42405C21.3492 5.22405 20.8762 4.78305 20.6272 4.10255C20.6164 4.07174 20.5961 4.04518 20.5692 4.02675C20.5422 4.00831 20.5101 3.99897 20.4775 4.00009C20.4449 4.00121 20.4135 4.01272 20.3879 4.03296C20.3623 4.05319 20.3438 4.08108 20.3352 4.11255C20.1352 4.80955 19.6942 5.28255 19.0137 5.53105C18.9829 5.54181 18.9563 5.56214 18.9379 5.58907C18.9194 5.616 18.9101 5.64812 18.9112 5.68073C18.9123 5.71335 18.9239 5.74475 18.9441 5.77035C18.9643 5.79596 18.9922 5.81442 19.0237 5.82305C19.7207 6.02305 20.1937 6.46355 20.4427 7.14405C20.4942 7.28555 20.6927 7.27905 20.7347 7.13405C20.9347 6.43755 21.3752 5.96505 22.0562 5.71605C22.087 5.70529 22.1136 5.68496 22.132 5.65803C22.1504 5.6311 22.1598 5.59899 22.1586 5.56637C22.1575 5.53376 22.146 5.50235 22.1258 5.47675C22.1055 5.45114 22.0772 5.43268 22.0457 5.42405Z" fill="#FA5F7F"/>
<path d="M22.057 5.7161C22.0878 5.70534 22.1143 5.68501 22.1328 5.65808C22.1512 5.63115 22.1606 5.59904 22.1594 5.56642C22.1583 5.53381 22.1468 5.5024 22.1266 5.4768C22.1063 5.45119 22.0784 5.43273 22.047 5.4241C21.5825 5.2906 21.2185 5.0501 20.953 4.7041C21.069 5.3506 20.988 6.1341 20.251 6.7391C20.3255 6.8636 20.39 6.9981 20.4435 7.1441C20.4532 7.17149 20.4706 7.19552 20.4935 7.21334C20.5165 7.23116 20.544 7.24203 20.573 7.24467C20.6019 7.2473 20.631 7.24158 20.6568 7.22818C20.6826 7.21479 20.704 7.19429 20.7185 7.1691C20.745 7.0831 20.7745 7.0001 20.808 6.9206C21.0325 6.3406 21.448 5.9386 22.057 5.7156V5.7161Z" fill="#F34B58"/>
<path d="M14.6524 5.42405C13.9554 5.22405 13.4824 4.78305 13.2334 4.10255C13.2227 4.07174 13.2023 4.04518 13.1754 4.02675C13.1485 4.00831 13.1163 3.99897 13.0837 4.00009C13.0511 4.00121 13.0197 4.01272 12.9941 4.03296C12.9685 4.05319 12.95 4.08108 12.9414 4.11255C12.7414 4.80955 12.3009 5.28255 11.6199 5.53105C11.5891 5.54186 11.5626 5.56223 11.5442 5.5892C11.5258 5.61616 11.5165 5.6483 11.5177 5.68092C11.5188 5.71353 11.5304 5.74492 11.5507 5.77049C11.571 5.79607 11.5989 5.81448 11.6304 5.82305C12.3269 6.02305 12.8004 6.46355 13.0489 7.14405C13.1009 7.28555 13.2994 7.27905 13.3409 7.13405C13.5409 6.43755 13.9819 5.96505 14.6624 5.71605C14.6932 5.70529 14.7198 5.68496 14.7382 5.65803C14.7566 5.6311 14.766 5.59899 14.7649 5.56637C14.7638 5.53376 14.7522 5.50235 14.732 5.47675C14.7118 5.45114 14.6839 5.43268 14.6524 5.42405Z" fill="#5094FF"/>
<path d="M14.6624 5.7161C14.6933 5.70534 14.7198 5.68501 14.7382 5.65808C14.7567 5.63115 14.766 5.59904 14.7649 5.56642C14.7638 5.53381 14.7523 5.5024 14.732 5.4768C14.7118 5.45119 14.6839 5.43273 14.6524 5.4241C14.1884 5.2906 13.8239 5.0501 13.5589 4.7041C13.6749 5.3506 13.5939 6.1341 12.8564 6.7391C12.9309 6.8636 12.9954 6.9981 13.0489 7.1441C13.0586 7.17162 13.0759 7.19579 13.0989 7.21371C13.1219 7.23164 13.1496 7.24257 13.1787 7.24521C13.2077 7.24784 13.2369 7.24207 13.2627 7.22858C13.2886 7.21508 13.31 7.19444 13.3244 7.1691C13.3504 7.0831 13.3804 7.0001 13.4134 6.9206C13.6384 6.3406 14.0539 5.9386 14.6624 5.7156V5.7161Z" fill="#497BFE"/>
<path d="M7.25857 9.8845C6.56207 9.6845 6.08857 9.2435 5.84007 8.563C5.82931 8.53219 5.80898 8.50563 5.78206 8.4872C5.75513 8.46876 5.72301 8.45942 5.69039 8.46054C5.65778 8.46166 5.62638 8.47317 5.60077 8.49341C5.57517 8.51364 5.5567 8.54153 5.54807 8.573C5.34807 9.27 4.90707 9.7425 4.22657 9.9915C4.19577 10.0023 4.1692 10.0226 4.15077 10.0495C4.13234 10.0764 4.123 10.1086 4.12411 10.1412C4.12523 10.1738 4.13675 10.2052 4.15698 10.2308C4.17721 10.2564 4.2051 10.2749 4.23657 10.2835C4.93357 10.4835 5.40657 10.924 5.65558 11.6045C5.70707 11.746 5.90557 11.7395 5.94757 11.5945C6.14757 10.898 6.58807 10.4255 7.26907 10.1765C7.29987 10.1657 7.32641 10.1453 7.3448 10.1184C7.36319 10.0914 7.37248 10.0593 7.37131 10.0266C7.37014 9.99402 7.35856 9.96263 7.33828 9.93706C7.318 9.91149 7.29007 9.89307 7.25857 9.8845Z" fill="#78E75A"/>
<path d="M7.26889 10.1766C7.29969 10.1657 7.32622 10.1454 7.34461 10.1184C7.36301 10.0914 7.3723 10.0593 7.37112 10.0267C7.36995 9.99407 7.35838 9.96268 7.3381 9.93711C7.31781 9.91153 7.28988 9.89312 7.25839 9.88455C6.79439 9.75105 6.43039 9.51055 6.16489 9.16455C6.28089 9.81105 6.19989 10.5946 5.46289 11.1996C5.53689 11.3236 5.60139 11.4586 5.65539 11.6046C5.6651 11.6319 5.68247 11.656 5.70542 11.6738C5.72837 11.6916 5.75595 11.7025 5.78488 11.7051C5.81382 11.7077 5.84291 11.702 5.8687 11.6886C5.89449 11.6752 5.9159 11.6547 5.93039 11.6296C5.95689 11.5436 5.98639 11.4606 6.01939 11.3811C6.24439 10.8011 6.65989 10.3991 7.26889 10.1761V10.1766Z" fill="#72D561"/>
<path d="M19.188 16.6379C18.1045 16.3269 17.369 15.6419 16.982 14.5829C16.9652 14.5349 16.9335 14.4935 16.8915 14.4648C16.8495 14.4361 16.7994 14.4217 16.7486 14.4235C16.6978 14.4253 16.6489 14.4434 16.6091 14.4751C16.5693 14.5067 16.5407 14.5503 16.5275 14.5994C16.216 15.6824 15.531 16.4174 14.4725 16.8044C14.4246 16.8212 14.3834 16.8529 14.3549 16.8948C14.3263 16.9367 14.3118 16.9866 14.3136 17.0373C14.3154 17.088 14.3333 17.1367 14.3648 17.1765C14.3962 17.2163 14.4396 17.245 14.4884 17.2584C15.5719 17.5704 16.3075 18.2549 16.695 19.3134C16.775 19.5334 17.084 19.5229 17.149 19.2974C17.4605 18.2144 18.1455 17.4794 19.204 17.0924C19.2518 17.0756 19.293 17.0439 19.3215 17.002C19.3501 16.9601 19.3646 16.9102 19.3628 16.8595C19.361 16.8088 19.3431 16.7601 19.3116 16.7203C19.2802 16.6805 19.2368 16.6513 19.188 16.6379Z" fill="#FFD06C"/>
<path d="M19.204 17.0926C19.2518 17.0757 19.293 17.044 19.3216 17.0022C19.3502 16.9603 19.3646 16.9103 19.3628 16.8597C19.361 16.809 19.3431 16.7602 19.3117 16.7204C19.2802 16.6807 19.2369 16.652 19.188 16.6386C18.4665 16.4311 17.9005 16.0571 17.4875 15.5186C17.668 16.5241 17.542 17.7431 16.3955 18.6836C16.515 18.8837 16.6152 19.0946 16.695 19.3136C16.768 19.5136 17.027 19.5211 17.123 19.3531C17.164 19.2191 17.21 19.0896 17.2615 18.9661C17.6105 18.0636 18.2575 17.4386 19.204 17.0926Z" fill="#FEBC1F"/>
<path d="M24.3772 19.9183C22.8122 20.3843 21.3207 20.9063 19.9102 21.7413C21.1102 20.6238 22.7587 20.0398 24.3772 19.9188V19.9183ZM7.56568 19.6663C6.71068 22.1228 6.06518 22.8583 5.97168 23.0353L6.13718 22.8733C7.52618 21.5118 7.62118 19.5258 7.64218 19.4473L7.56568 19.6663Z" fill="white"/>
</svg>
