<svg width="35" height="35" viewBox="0 0 35 35" fill="none" xmlns="http://www.w3.org/2000/svg">
<path fill-rule="evenodd" clip-rule="evenodd" d="M5 31.1633H25.0322V9.38477H5V31.1633Z" fill="#C6CBD6"/>
<path fill-rule="evenodd" clip-rule="evenodd" d="M5 3.3667H25.0322V9.38478H5V3.3667ZM7.26738 4.24768C7.66994 4.24768 7.99637 4.57406 7.99637 4.97669C7.99637 5.37925 7.66994 5.70569 7.26738 5.70569C6.86474 5.70569 6.53837 5.37925 6.53837 4.97669C6.53837 4.57406 6.86474 4.24768 7.26738 4.24768ZM22.7648 4.24768C23.1673 4.24768 23.4937 4.57406 23.4937 4.97669C23.4937 5.37925 23.1673 5.70569 22.7648 5.70569C22.3621 5.70569 22.0358 5.37925 22.0358 4.97669C22.0358 4.57406 22.3621 4.24768 22.7648 4.24768ZM20.1818 4.24768C20.5845 4.24768 20.9108 4.57406 20.9108 4.97669C20.9108 5.37925 20.5845 5.70569 20.1818 5.70569C19.7793 5.70569 19.4528 5.37925 19.4528 4.97669C19.4528 4.57406 19.7793 4.24768 20.1818 4.24768ZM17.599 4.24768C18.0015 4.24768 18.328 4.57406 18.328 4.97669C18.328 5.37925 18.0015 5.70569 17.599 5.70569C17.1964 5.70569 16.8699 5.37925 16.8699 4.97669C16.8699 4.57406 17.1964 4.24768 17.599 4.24768ZM15.0161 4.24768C15.4186 4.24768 15.7451 4.57406 15.7451 4.97669C15.7451 5.37925 15.4186 5.70569 15.0161 5.70569C14.6134 5.70569 14.2871 5.37925 14.2871 4.97669C14.2871 4.57406 14.6134 4.24768 15.0161 4.24768ZM12.4331 4.24768C12.8358 4.24768 13.1621 4.57406 13.1621 4.97669C13.1621 5.37925 12.8358 5.70569 12.4331 5.70569C12.0306 5.70569 11.7042 5.37925 11.7042 4.97669C11.7042 4.57406 12.0306 4.24768 12.4331 4.24768ZM9.85025 4.24768C10.2529 4.24768 10.5793 4.57406 10.5793 4.97669C10.5793 5.37925 10.2529 5.70569 9.85025 5.70569C9.44768 5.70569 9.12124 5.37925 9.12124 4.97669C9.12124 4.57406 9.44768 4.24768 9.85025 4.24768Z" fill="#FF576B"/>
<path fill-rule="evenodd" clip-rule="evenodd" d="M5 30.2625H25.0322V9.38477H5V30.2625Z" fill="#ECF0F1"/>
<path fill-rule="evenodd" clip-rule="evenodd" d="M5 9.9872H25.0322V9.38477H5V9.9872Z" fill="#C6CBD6"/>
<path fill-rule="evenodd" clip-rule="evenodd" d="M5 3.3667H25.0322V3.81404H5V3.3667Z" fill="#FF8795"/>
<path d="M9.11085 11.0317C9.56623 11.0317 9.97882 11.2167 10.2777 11.5155L10.2788 11.5167C10.5777 11.8156 10.7627 12.2284 10.7627 12.6835C10.7627 13.1396 10.5777 13.5527 10.2788 13.8515C9.97992 14.1504 9.56692 14.3354 9.11085 14.3354C8.65486 14.3354 8.24177 14.1504 7.94294 13.8516C7.64397 13.5527 7.45898 13.1396 7.45898 12.6835C7.45898 12.2275 7.64397 11.8144 7.94294 11.5155C8.24177 11.2167 8.65486 11.0317 9.11085 11.0317ZM9.88671 11.9077C9.68851 11.7097 9.41404 11.5872 9.11085 11.5872C8.80808 11.5872 8.53381 11.71 8.33561 11.9082C8.13719 12.1066 8.0145 12.3808 8.0145 12.6835C8.0145 12.9863 8.13719 13.2605 8.33561 13.4589C8.53381 13.6571 8.80808 13.7799 9.11085 13.7799C9.41369 13.7799 9.68775 13.6572 9.88615 13.4588C10.0844 13.2606 10.2072 12.9863 10.2072 12.6835C10.2072 12.3803 10.0847 12.1059 9.88671 11.9077Z" fill="#FF576B"/>
<path fill-rule="evenodd" clip-rule="evenodd" d="M12.0264 11.7046H22.2953V12.2045H12.0264V11.7046ZM12.0264 13.1627H17.4521V13.6626H12.0264V13.1627Z" fill="#2A68A6"/>
<path d="M9.11085 15.8008C9.56623 15.8008 9.97882 15.9858 10.2777 16.2846L10.2788 16.2857C10.5777 16.5846 10.7627 16.9974 10.7627 17.4526C10.7627 17.9086 10.5777 18.3217 10.2788 18.6206C9.97992 18.9195 9.56692 19.1045 9.11085 19.1045C8.65486 19.1045 8.24177 18.9195 7.94294 18.6206C7.64397 18.3217 7.45898 17.9086 7.45898 17.4526C7.45898 16.9965 7.64397 16.5835 7.94294 16.2846C8.24177 15.9858 8.65486 15.8008 9.11085 15.8008ZM9.88671 16.6767C9.68851 16.4787 9.41404 16.3562 9.11085 16.3562C8.80808 16.3562 8.53381 16.4791 8.33561 16.6773C8.13719 16.8757 8.0145 17.1498 8.0145 17.4526C8.0145 17.7554 8.13719 18.0295 8.33561 18.2279C8.53381 18.4262 8.80808 18.549 9.11085 18.549C9.41369 18.549 9.68775 18.4262 9.88615 18.2279C10.0844 18.0296 10.2072 17.7554 10.2072 17.4526C10.2072 17.1494 10.0847 16.875 9.88671 16.6767ZM9.11085 20.5697C9.56623 20.5697 9.97882 20.7546 10.2777 21.0535L10.2788 21.0546C10.5777 21.3535 10.7627 21.7663 10.7627 22.2214C10.7627 22.6775 10.5777 23.0906 10.2788 23.3894C9.97992 23.6883 9.56692 23.8734 9.11085 23.8734C8.65486 23.8734 8.24177 23.6883 7.94294 23.3895C7.64397 23.0906 7.45898 22.6775 7.45898 22.2214C7.45898 21.7654 7.64397 21.3524 7.94294 21.0535C8.24177 20.7546 8.65486 20.5697 9.11085 20.5697ZM9.88671 21.4456C9.68851 21.2476 9.41404 21.1251 9.11085 21.1251C8.80808 21.1251 8.53381 21.2479 8.33561 21.4461C8.13719 21.6445 8.0145 21.9187 8.0145 22.2214C8.0145 22.5242 8.13719 22.7984 8.33561 22.9968C8.53381 23.195 8.80808 23.3179 9.11085 23.3179C9.41369 23.3179 9.68775 23.1951 9.88615 22.9968C10.0844 22.7985 10.2072 22.5242 10.2072 22.2214C10.2072 21.9183 10.0847 21.6439 9.88671 21.4456ZM9.11085 25.3385C9.56623 25.3385 9.97882 25.5235 10.2777 25.8223L10.2788 25.8234C10.5777 26.1223 10.7627 26.5351 10.7627 26.9903C10.7627 27.4464 10.5777 27.8595 10.2788 28.1583C9.97992 28.4572 9.56692 28.6422 9.11085 28.6422C8.65486 28.6422 8.24177 28.4572 7.94294 28.1584C7.64397 27.8595 7.45898 27.4464 7.45898 26.9903C7.45898 26.5342 7.64397 26.1213 7.94294 25.8223C8.24177 25.5235 8.65486 25.3385 9.11085 25.3385ZM9.88671 26.2144C9.68851 26.0165 9.41404 25.894 9.11085 25.894C8.80808 25.894 8.53381 26.0168 8.33561 26.215C8.13719 26.4134 8.0145 26.6875 8.0145 26.9903C8.0145 27.2931 8.13719 27.5673 8.33561 27.7657C8.53381 27.9639 8.80808 28.0867 9.11085 28.0867C9.41369 28.0867 9.68775 27.964 9.88615 27.7656C10.0844 27.5673 10.2072 27.2931 10.2072 26.9903C10.2072 26.6871 10.0847 26.4127 9.88671 26.2144Z" fill="#FF576B"/>
<path d="M8.43073 12.3966C8.34326 12.2715 8.37384 12.0989 8.49904 12.0115C8.62423 11.924 8.79668 11.9546 8.88417 12.0798L9.27546 12.6386L10.8452 11.5C10.9692 11.4102 11.1427 11.4378 11.2324 11.5618C11.3223 11.6858 11.2947 11.8592 11.1706 11.949L9.37331 13.2527L9.3729 13.2522L9.36895 13.2549C9.24382 13.3424 9.0713 13.3118 8.98381 13.1866L8.43073 12.3966ZM8.43073 22.1184C8.34326 21.9932 8.37384 21.8208 8.49904 21.7333C8.62423 21.6458 8.79668 21.6765 8.88417 21.8016L9.27546 22.3604L10.8452 21.2218C10.9692 21.132 11.1427 21.1596 11.2324 21.2836C11.3223 21.4076 11.2947 21.581 11.1706 21.6709L9.37331 22.9745L9.3729 22.974L9.36895 22.9768C9.24382 23.0642 9.0713 23.0336 8.98381 22.9084L8.43073 22.1184Z" fill="#2A68A6"/>
<path fill-rule="evenodd" clip-rule="evenodd" d="M23.4934 4.97657C23.4934 4.57393 23.1671 4.24756 22.7645 4.24756C22.3619 4.24756 22.0355 4.57393 22.0355 4.97657C22.0355 5.02744 22.0407 5.07712 22.0506 5.12501C22.1192 4.79359 22.4127 4.54445 22.7645 4.54445C23.1162 4.54445 23.4098 4.79359 23.4783 5.12501C23.4882 5.07712 23.4934 5.02744 23.4934 4.97657ZM20.9106 4.97657C20.9106 4.57393 20.5842 4.24756 20.1815 4.24756C19.779 4.24756 19.4525 4.57393 19.4525 4.97657C19.4525 5.02744 19.4578 5.07712 19.4677 5.12501C19.5363 4.79359 19.8299 4.54445 20.1815 4.54445C20.5333 4.54445 20.8269 4.79359 20.8955 5.12501C20.9054 5.07712 20.9106 5.02744 20.9106 4.97657ZM18.3277 4.97657C18.3277 4.57393 18.0012 4.24756 17.5987 4.24756C17.1961 4.24756 16.8697 4.57393 16.8697 4.97657C16.8697 5.02744 16.8749 5.07712 16.8848 5.12501C16.9533 4.79359 17.2469 4.54445 17.5987 4.54445C17.9504 4.54445 18.244 4.79359 18.3125 5.12501C18.3225 5.07712 18.3277 5.02744 18.3277 4.97657ZM15.7448 4.97657C15.7448 4.57393 15.4184 4.24756 15.0158 4.24756C14.6132 4.24756 14.2868 4.57393 14.2868 4.97657C14.2868 5.02744 14.292 5.07712 14.3019 5.12501C14.3705 4.79359 14.664 4.54445 15.0158 4.54445C15.3675 4.54445 15.6611 4.79359 15.7296 5.12501C15.7395 5.07712 15.7448 5.02744 15.7448 4.97657ZM13.1619 4.97657C13.1619 4.57393 12.8355 4.24756 12.4328 4.24756C12.0303 4.24756 11.7039 4.57393 11.7039 4.97657C11.7039 5.02744 11.7091 5.07712 11.719 5.12501C11.7876 4.79359 12.0811 4.54445 12.4328 4.54445C12.7846 4.54445 13.0782 4.79359 13.1468 5.12501C13.1567 5.07712 13.1619 5.02744 13.1619 4.97657ZM7.99609 4.97657C7.99609 4.57393 7.66965 4.24756 7.2671 4.24756C6.86446 4.24756 6.53809 4.57393 6.53809 4.97657C6.53809 5.02744 6.54327 5.07712 6.55317 5.12501C6.62176 4.79359 6.91532 4.54445 7.2671 4.54445C7.61879 4.54445 7.91236 4.79359 7.98094 5.12501C7.99091 5.07712 7.99609 5.02744 7.99609 4.97657ZM10.579 4.97657C10.579 4.57393 10.2526 4.24756 9.84997 4.24756C9.4474 4.24756 9.12096 4.57393 9.12096 4.97657C9.12096 5.02744 9.12615 5.07712 9.13611 5.12501C9.2047 4.79359 9.49827 4.54445 9.84997 4.54445C10.2017 4.54445 10.4953 4.79359 10.5639 5.12501C10.5738 5.07712 10.579 5.02744 10.579 4.97657Z" fill="#F7455A"/>
<path fill-rule="evenodd" clip-rule="evenodd" d="M7.29896 3H7.29902C7.41079 3 7.50228 3.09162 7.50228 3.2036V4.98501C7.50228 5.09698 7.41079 5.18855 7.29902 5.18855H7.29896C7.18719 5.18855 7.0957 5.09698 7.0957 4.98501V3.2036C7.0957 3.09162 7.18719 3 7.29896 3Z" fill="#C6CBD6"/>
<path fill-rule="evenodd" clip-rule="evenodd" d="M7.2346 3.00537H7.23466C7.34553 3.00537 7.43605 3.0961 7.43605 3.20711V4.97275C7.43605 5.08368 7.34553 5.1744 7.23466 5.1744H7.2346C7.1238 5.1744 7.0332 5.08368 7.0332 4.97275V3.20711C7.0332 3.0961 7.1238 3.00537 7.2346 3.00537Z" fill="white"/>
<path fill-rule="evenodd" clip-rule="evenodd" d="M9.8819 3H9.88196C9.9938 3 10.0852 3.09162 10.0852 3.2036V4.98501C10.0852 5.09698 9.9938 5.18855 9.88196 5.18855H9.8819C9.77013 5.18855 9.67871 5.09698 9.67871 4.98501V3.2036C9.67871 3.09162 9.77013 3 9.8819 3Z" fill="#C6CBD6"/>
<path fill-rule="evenodd" clip-rule="evenodd" d="M9.8176 3.00537H9.81767C9.92853 3.00537 10.0191 3.0961 10.0191 3.20711V4.97275C10.0191 5.08368 9.92853 5.1744 9.81767 5.1744H9.8176C9.70681 5.1744 9.61621 5.08368 9.61621 4.97275V3.20711C9.61621 3.0961 9.70681 3.00537 9.8176 3.00537Z" fill="white"/>
<path fill-rule="evenodd" clip-rule="evenodd" d="M12.464 3H12.4641C12.5758 3 12.6672 3.09162 12.6672 3.2036V4.98501C12.6672 5.09698 12.5758 5.18855 12.4641 5.18855H12.464C12.3522 5.18855 12.2607 5.09698 12.2607 4.98501V3.2036C12.2607 3.09162 12.3522 3 12.464 3Z" fill="#C6CBD6"/>
<path fill-rule="evenodd" clip-rule="evenodd" d="M12.3996 3.00537H12.3997C12.5105 3.00537 12.6011 3.0961 12.6011 3.20711V4.97275C12.6011 5.08368 12.5105 5.1744 12.3997 5.1744H12.3996C12.2888 5.1744 12.1982 5.08368 12.1982 4.97275V3.20711C12.1982 3.0961 12.2888 3.00537 12.3996 3.00537Z" fill="white"/>
<path fill-rule="evenodd" clip-rule="evenodd" d="M15.047 3H15.0471C15.1588 3 15.2503 3.09162 15.2503 3.2036V4.98501C15.2503 5.09698 15.1588 5.18855 15.0471 5.18855H15.047C14.9352 5.18855 14.8438 5.09698 14.8438 4.98501V3.2036C14.8438 3.09162 14.9352 3 15.047 3Z" fill="#C6CBD6"/>
<path fill-rule="evenodd" clip-rule="evenodd" d="M14.9826 3.00537H14.9827C15.0935 3.00537 15.1841 3.0961 15.1841 3.20711V4.97275C15.1841 5.08368 15.0935 5.1744 14.9827 5.1744H14.9826C14.8718 5.1744 14.7812 5.08368 14.7812 4.97275V3.20711C14.7812 3.0961 14.8718 3.00537 14.9826 3.00537Z" fill="white"/>
<path fill-rule="evenodd" clip-rule="evenodd" d="M17.6299 3H17.63C17.7418 3 17.8333 3.09162 17.8333 3.2036V4.98501C17.8333 5.09698 17.7418 5.18855 17.63 5.18855H17.6299C17.5182 5.18855 17.4268 5.09698 17.4268 4.98501V3.2036C17.4268 3.09162 17.5182 3 17.6299 3Z" fill="#C6CBD6"/>
<path fill-rule="evenodd" clip-rule="evenodd" d="M17.5656 3.00537H17.5657C17.6766 3.00537 17.7671 3.0961 17.7671 3.20711V4.97275C17.7671 5.08368 17.6766 5.1744 17.5657 5.1744H17.5656C17.4548 5.1744 17.3643 5.08368 17.3643 4.97275V3.20711C17.3643 3.0961 17.4548 3.00537 17.5656 3.00537Z" fill="white"/>
<path fill-rule="evenodd" clip-rule="evenodd" d="M20.213 3H20.213C20.3249 3 20.4163 3.09162 20.4163 3.2036V4.98501C20.4163 5.09698 20.3249 5.18855 20.213 5.18855H20.213C20.1012 5.18855 20.0098 5.09698 20.0098 4.98501V3.2036C20.0098 3.09162 20.1012 3 20.213 3Z" fill="#C6CBD6"/>
<path fill-rule="evenodd" clip-rule="evenodd" d="M20.1487 3.00537H20.1487C20.2595 3.00537 20.3501 3.0961 20.3501 3.20711V4.97275C20.3501 5.08368 20.2595 5.1744 20.1487 5.1744H20.1487C20.0378 5.1744 19.9473 5.08368 19.9473 4.97275V3.20711C19.9473 3.0961 20.0378 3.00537 20.1487 3.00537Z" fill="white"/>
<path fill-rule="evenodd" clip-rule="evenodd" d="M22.796 3H22.7961C22.9079 3 22.9993 3.09162 22.9993 3.2036V4.98501C22.9993 5.09698 22.9079 5.18855 22.7961 5.18855H22.796C22.6843 5.18855 22.5928 5.09698 22.5928 4.98501V3.2036C22.5928 3.09162 22.6843 3 22.796 3Z" fill="#C6CBD6"/>
<path fill-rule="evenodd" clip-rule="evenodd" d="M22.7317 3.00537H22.7317C22.8425 3.00537 22.9331 3.0961 22.9331 3.20711V4.97275C22.9331 5.08368 22.8425 5.1744 22.7317 5.1744H22.7317C22.6208 5.1744 22.5303 5.08368 22.5303 4.97275V3.20711C22.5303 3.0961 22.6208 3.00537 22.7317 3.00537Z" fill="white"/>
<path fill-rule="evenodd" clip-rule="evenodd" d="M27.8689 4.36279H29.1166C29.3528 4.36279 29.546 4.55601 29.546 4.79228V12.2201H27.4395V4.79228C27.4395 4.55601 27.6327 4.36279 27.8689 4.36279ZM27.4395 13.0755H29.546V23.6436C29.546 23.841 29.517 24.0098 29.4513 24.196L28.797 26.0476H28.1885L27.5341 24.196C27.4683 24.0098 27.4395 23.841 27.4395 23.6436V13.0755Z" fill="#2A68A6"/>
<path fill-rule="evenodd" clip-rule="evenodd" d="M27.837 12.2204H27.4395V4.80385C27.4395 4.57243 27.6154 4.38114 27.837 4.36426V12.2204Z" fill="#6999C9"/>
<path d="M29.3266 5.46278C29.2435 5.40777 29.2251 5.30194 29.2857 5.22651C29.3464 5.15108 29.463 5.1344 29.5461 5.18941L30.327 5.70673C30.377 5.73973 30.4035 5.79116 30.4037 5.84341H30.4045V11.1341C30.4045 11.1717 30.3909 11.2063 30.3682 11.2345L30.2224 11.4306C30.1646 11.5083 30.0482 11.5289 29.9627 11.4765C29.8772 11.4241 29.8544 11.3185 29.9122 11.2409L30.03 11.0824V5.92874L29.3266 5.46278Z" fill="#0E4275"/>
<path fill-rule="evenodd" clip-rule="evenodd" d="M27.4395 12.2202H29.546V13.0757H27.4395V12.2202Z" fill="#C6CBD6"/>
<path fill-rule="evenodd" clip-rule="evenodd" d="M28.0303 4.36284H28.9551V3.36482C28.9551 3.25381 28.8643 3.16309 28.7533 3.16309H28.232C28.121 3.16309 28.0303 3.25381 28.0303 3.36482V4.36284Z" fill="#9FA9B5"/>
<path fill-rule="evenodd" clip-rule="evenodd" d="M28.0302 4.36284H28.5516V3.37009C28.5516 3.25625 28.4608 3.16309 28.3498 3.16309H28.232C28.121 3.16309 28.0302 3.25625 28.0302 3.37009V4.36284ZM27.4395 5.07423H29.546V5.64757H27.4395V5.07423Z" fill="#C6CBD6"/>
<path fill-rule="evenodd" clip-rule="evenodd" d="M27.4395 5.07422H27.837V5.64759H27.4395V5.07422ZM28.2793 26.0477H28.7062V27.0186C28.7062 27.136 28.6103 27.232 28.4928 27.232H28.4927C28.3753 27.232 28.2793 27.136 28.2793 27.0186V26.0477Z" fill="#ECF0F1"/>
<path fill-rule="evenodd" clip-rule="evenodd" d="M29.1914 4.36987C29.392 4.40676 29.5455 4.58773 29.5455 4.80379V12.2203H29.1914V4.36987Z" fill="#0E4275"/>
<path fill-rule="evenodd" clip-rule="evenodd" d="M27.4395 13.0757H27.837V25.0278L27.5342 24.1726C27.4684 23.9869 27.4395 23.8184 27.4395 23.6214V13.0757Z" fill="#6999C9"/>
<path fill-rule="evenodd" clip-rule="evenodd" d="M27.4395 13.0757H27.837V12.2202H27.4395V13.0757Z" fill="#ECF0F1"/>
<path fill-rule="evenodd" clip-rule="evenodd" d="M29.1914 13.0757H29.5455V23.6186C29.5455 23.8156 29.5166 23.9839 29.4508 24.1696L29.1914 24.9021V13.0757Z" fill="#0E4275"/>
<path fill-rule="evenodd" clip-rule="evenodd" d="M29.1914 12.2202H29.5455V13.0757H29.1914V12.2202Z" fill="#9FA9B5"/>
<path fill-rule="evenodd" clip-rule="evenodd" d="M12.0264 16.4734H22.2953V16.9733H12.0264V16.4734ZM12.0264 17.9315H17.4521V18.4314H12.0264V17.9315ZM12.0264 21.2423H22.2953V21.7422H12.0264V21.2423ZM12.0264 22.7003H17.4521V23.2003H12.0264V22.7003ZM12.0264 26.0112H22.2953V26.5111H12.0264V26.0112ZM12.0264 27.4692H17.4521V27.9691H12.0264V27.4692Z" fill="#2A68A6"/>
</svg>
