<svg width="40" height="40" viewBox="0 0 40 40" fill="none" xmlns="http://www.w3.org/2000/svg">
<circle cx="20" cy="20" r="20" fill="url(#paint0_linear_153_10950)"/>
<g clip-path="url(#clip0_153_10950)">
<path d="M20.0007 8.75117C17.0179 8.75305 14.1579 9.93867 12.0486 12.0477C9.93938 14.1566 8.7534 17.0165 8.75115 19.9993C8.7588 21.9844 9.29182 23.9322 10.2961 25.6446L8.76816 30.2212C8.7462 30.2873 8.74307 30.3583 8.75912 30.4261C8.77517 30.4939 8.80976 30.5559 8.85903 30.6051C8.9083 30.6544 8.9703 30.689 9.03811 30.705C9.10591 30.7211 9.17684 30.718 9.24297 30.696L13.6183 29.2376C15.4917 30.5406 17.7173 31.2425 19.9992 31.2502C22.9822 31.2483 25.8425 30.0625 27.9518 27.9532C30.0611 25.8439 31.2469 22.9837 31.2488 20.0007C31.2476 17.0176 30.0623 14.157 27.9532 12.0473C25.8441 9.93769 22.9838 8.75305 20.0007 8.75117ZM16.2418 18.8739C16.8584 18.8739 17.3658 19.3813 17.3658 19.9993C17.3658 20.6158 16.8584 21.1232 16.2418 21.1232C15.6253 21.1232 15.1165 20.6158 15.1165 19.9993C15.1165 19.3813 15.6239 18.8739 16.2418 18.8739ZM20.0007 18.8739C20.6172 18.8739 21.126 19.3813 21.126 19.9993C21.126 20.6158 20.6172 21.1232 20.0007 21.1232C19.3841 21.1232 18.8753 20.6158 18.8753 19.9993C18.8753 19.3813 19.3841 18.8739 20.0007 18.8739ZM23.7425 18.8739C24.359 18.8739 24.8664 19.3813 24.8664 19.9993C24.8664 20.6158 24.359 21.1232 23.741 21.1232C23.1231 21.1232 22.6171 20.6158 22.6171 19.9993C22.6171 19.3813 23.1245 18.8739 23.741 18.8739H23.7425Z" fill="white"/>
</g>
<defs>
<linearGradient id="paint0_linear_153_10950" x1="0" y1="20" x2="40" y2="20" gradientUnits="userSpaceOnUse">
<stop stop-color="#9247E7"/>
<stop offset="1" stop-color="#4D35E5"/>
</linearGradient>
<clipPath id="clip0_153_10950">
<rect width="24" height="24" fill="white" transform="translate(8 8)"/>
</clipPath>
</defs>
</svg>
