<svg width="40" height="40" viewBox="0 0 40 40" fill="none" xmlns="http://www.w3.org/2000/svg">
<circle cx="20" cy="20" r="20" fill="url(#paint0_linear_153_10967)"/>
<path d="M24.005 9.81873H22.249C22.1423 9.81543 22.0396 9.77761 21.9563 9.71095C21.873 9.6443 21.8135 9.5524 21.7869 9.44906C21.6205 8.58455 20.8491 7.97005 19.9693 8.00113C19.0841 7.98562 18.3165 8.61008 18.1517 9.4799C18.124 9.58015 18.0633 9.66813 17.9795 9.72962C17.8956 9.79112 17.7935 9.82253 17.6895 9.81879H15.9951V12.8995H24.005V9.81873Z" fill="white"/>
<path d="M28.9342 30.5829V12.9303C28.9361 12.2328 28.3721 11.6657 27.6745 11.6638C27.6425 11.6638 27.6106 11.6649 27.5787 11.6672H24.9292V13.2384C24.9292 13.4849 24.7752 13.8237 24.5287 13.8237H15.4406C15.1941 13.8237 15.071 13.4849 15.071 13.2384V11.6673H12.4215C11.7258 11.6162 11.1204 12.1388 11.0694 12.8346C11.067 12.8665 11.0659 12.8984 11.066 12.9304V30.5829C11.0488 31.3484 11.6554 31.9829 12.4209 32H27.5788C28.3442 31.9832 28.9511 31.349 28.9343 30.5836L28.9342 30.5829ZM17.5047 26.5163L15.1017 28.7653C15.0637 28.8108 15.0168 28.8479 14.9638 28.8744C14.9108 28.9009 14.8529 28.9162 14.7937 28.9193C14.6649 28.9142 14.5433 28.8589 14.4548 28.7653L13.1917 27.4714C13.111 27.381 13.0691 27.2626 13.0748 27.1416C13.0806 27.0206 13.1336 26.9067 13.2225 26.8244C13.3089 26.7398 13.425 26.6923 13.546 26.6923C13.6669 26.6923 13.7831 26.7398 13.8694 26.8244L14.7936 27.8103L16.8886 25.8386C16.9806 25.7751 17.0927 25.7471 17.2038 25.7599C17.3149 25.7727 17.4177 25.8253 17.4929 25.9081C17.5682 25.9909 17.6108 26.0982 17.613 26.21C17.6152 26.3219 17.5767 26.4307 17.5047 26.5163ZM17.5047 21.5872L15.1017 23.8361C15.0637 23.8816 15.0168 23.9187 14.9638 23.9452C14.9108 23.9717 14.8529 23.987 14.7937 23.9901C14.6649 23.985 14.5433 23.9298 14.4548 23.8361L13.1917 22.5422C13.111 22.4519 13.0691 22.3334 13.0748 22.2124C13.0806 22.0914 13.1336 21.9776 13.2225 21.8953C13.3089 21.8106 13.425 21.7632 13.546 21.7632C13.6669 21.7632 13.7831 21.8106 13.8694 21.8953L14.7936 22.8811L16.8886 20.9094C16.9806 20.8459 17.0927 20.8179 17.2038 20.8307C17.3149 20.8435 17.4177 20.8962 17.4929 20.9789C17.5682 21.0617 17.6108 21.169 17.613 21.2808C17.6152 21.3927 17.5767 21.5015 17.5047 21.5872ZM17.5047 16.658L15.1017 18.9069C15.0637 18.9524 15.0168 18.9896 14.9638 19.0161C14.9108 19.0426 14.8529 19.0578 14.7937 19.061C14.6649 19.0559 14.5433 19.0006 14.4548 18.9069L13.1917 17.613C13.111 17.5227 13.0691 17.4043 13.0748 17.2833C13.0806 17.1623 13.1336 17.0484 13.2225 16.9661C13.3089 16.8814 13.425 16.834 13.546 16.834C13.6669 16.834 13.7831 16.8814 13.8694 16.9661L14.7936 17.9519L16.8886 15.9802C16.9806 15.9167 17.0927 15.8887 17.2038 15.9015C17.3149 15.9143 17.4177 15.967 17.4929 16.0498C17.5682 16.1325 17.6108 16.2398 17.613 16.3517C17.6152 16.4635 17.5767 16.5724 17.5047 16.658ZM26.4696 28.3032H19.3839C19.2614 28.3032 19.1438 28.2545 19.0572 28.1678C18.9705 28.0811 18.9218 27.9636 18.9218 27.841C18.9218 27.7185 18.9705 27.6009 19.0572 27.5143C19.1438 27.4276 19.2614 27.3789 19.3839 27.3789H26.4696C26.5921 27.3789 26.7097 27.4276 26.7964 27.5142C26.883 27.6009 26.9317 27.7184 26.9317 27.841C26.9317 27.9636 26.8831 28.0811 26.7964 28.1678C26.7097 28.2545 26.5922 28.3032 26.4696 28.3032ZM26.4696 23.374H19.3839C19.2614 23.374 19.1438 23.3253 19.0572 23.2386C18.9705 23.152 18.9218 23.0344 18.9218 22.9119C18.9218 22.7893 18.9705 22.6718 19.0572 22.5851C19.1438 22.4984 19.2614 22.4497 19.3839 22.4497H26.4696C26.5921 22.4497 26.7097 22.4984 26.7964 22.5851C26.883 22.6717 26.9317 22.7893 26.9317 22.9118C26.9317 23.0344 26.8831 23.1519 26.7964 23.2386C26.7097 23.3253 26.5922 23.374 26.4696 23.374ZM26.4696 18.4448H19.3839C19.2614 18.4448 19.1438 18.3961 19.0572 18.3095C18.9705 18.2228 18.9218 18.1053 18.9218 17.9827C18.9218 17.8601 18.9705 17.7426 19.0572 17.6559C19.1438 17.5693 19.2614 17.5206 19.3839 17.5206H26.4696C26.5921 17.5206 26.7097 17.5692 26.7964 17.6559C26.883 17.7426 26.9317 17.8601 26.9317 17.9827C26.9317 18.1052 26.8831 18.2228 26.7964 18.3094C26.7097 18.3961 26.5922 18.4448 26.4696 18.4448Z" fill="white"/>
<defs>
<linearGradient id="paint0_linear_153_10967" x1="0" y1="20" x2="40" y2="20" gradientUnits="userSpaceOnUse">
<stop stop-color="#9247E7"/>
<stop offset="1" stop-color="#4D35E5"/>
</linearGradient>
</defs>
</svg>
