<svg width="36" height="36" viewBox="0 0 36 36" fill="none" xmlns="http://www.w3.org/2000/svg">
<path d="M9.28027 25.3259L12.9312 21.675L14.3203 23.0641L10.6693 26.715L9.28027 25.3259Z" fill="#ACBADF"/>
<path d="M29.5644 23.0318C24.9805 27.6157 17.5497 27.6157 12.9682 23.0343C8.38432 18.4504 8.38426 11.0197 12.9682 6.43579C17.5497 1.85433 24.9804 1.85433 29.5644 6.43823C34.1458 11.0196 34.1458 18.4504 29.5644 23.0318Z" fill="#4955A1"/>
<path d="M29.5627 23.0311C24.9787 27.615 17.549 27.615 12.9685 23.0347C12.2195 22.2821 11.5923 21.4541 11.0869 20.5761C15.5706 23.1566 21.3911 22.5294 25.226 18.6945C29.0573 14.8631 29.6845 9.03906 27.1076 4.55542C28.0051 5.07197 28.8306 5.70463 29.5627 6.43704C34.1466 11.0209 34.1466 18.4507 29.5627 23.0311Z" fill="black" fill-opacity="0.0627451"/>
<path d="M14.8169 21.1851C11.2602 17.6285 11.2602 11.8415 14.817 8.28483C18.3722 4.72962 24.1581 4.73072 27.7147 8.28727C31.2699 11.8425 31.27 17.6273 27.7148 21.1826C24.1581 24.7393 18.3721 24.7403 14.8169 21.1851Z" fill="#E8F1F8"/>
<path d="M27.7139 21.1818C24.1585 24.7407 18.3739 24.7407 14.8185 21.1854C14.4995 20.87 14.2128 20.533 13.9512 20.1854C17.5209 22.834 22.6031 22.5365 25.8359 19.3037C29.0723 16.0673 29.3626 10.9852 26.7068 7.41553C27.0632 7.68105 27.3998 7.97212 27.7139 8.28644C31.2693 11.8417 31.2693 17.6264 27.7139 21.1818Z" fill="black" fill-opacity="0.0627451"/>
<path d="M5.97838 32.6965L12.5278 26.1471C12.9325 25.7424 12.9325 25.0862 12.5278 24.6816L11.3185 23.4722C10.9138 23.0675 10.2576 23.0675 9.85292 23.4722L3.30354 30.0217C2.89882 30.4264 2.89882 31.0825 3.30354 31.4872L4.51288 32.6966C4.91754 33.1012 5.57372 33.1013 5.97838 32.6965ZM16.7491 13.8418C16.6891 13.7802 16.6561 13.6974 16.6572 13.6115C16.6584 13.5255 16.6936 13.4436 16.7551 13.3836L21.0395 9.20848C21.1554 9.09491 21.3373 9.08571 21.465 9.18506L25.7492 12.5338C25.8169 12.5868 25.8608 12.6644 25.8712 12.7497C25.8817 12.8351 25.8579 12.921 25.805 12.9888C25.752 13.0564 25.6744 13.1001 25.5891 13.1106C25.5039 13.121 25.418 13.0972 25.3503 13.0445L21.289 9.87008L17.2073 13.8475C17.1458 13.9075 17.0629 13.9406 16.977 13.9395C16.8911 13.9385 16.8091 13.9033 16.7491 13.8418Z" fill="#474747"/>
<path d="M18.464 17.4616V19.9293C18.464 20.0514 18.4155 20.1685 18.3292 20.2549C18.2428 20.3412 18.1257 20.3897 18.0036 20.3897H15.9594C15.8373 20.3897 15.7202 20.3412 15.6339 20.2549C15.5475 20.1685 15.499 20.0514 15.499 19.9293V17.4616C15.499 17.3395 15.5475 17.2224 15.6339 17.1361C15.7202 17.0497 15.8373 17.0012 15.9594 17.0012H18.0036C18.1257 17.0012 18.2428 17.0497 18.3291 17.1361C18.4155 17.2224 18.464 17.3395 18.464 17.4616Z" fill="#FDCF17"/>
<path d="M18.464 17.4616V19.9293C18.464 20.184 18.2569 20.3897 18.0037 20.3897H15.9584C15.7052 20.3897 15.498 20.1841 15.498 19.9293V19.8833C16.6887 19.6915 17.5986 18.6573 17.5986 17.413V17.0012H18.0037C18.2569 17.0013 18.464 17.2069 18.464 17.4616Z" fill="black" fill-opacity="0.0627451"/>
<path d="M22.7482 13.2167V19.9292C22.7482 20.0513 22.6997 20.1684 22.6133 20.2547C22.527 20.3411 22.4099 20.3896 22.2878 20.3896H20.2435C20.1215 20.3896 20.0044 20.3411 19.918 20.2547C19.8317 20.1684 19.7832 20.0513 19.7832 19.9292V13.2167C19.7832 13.0946 19.8317 12.9775 19.918 12.8912C20.0044 12.8048 20.1215 12.7563 20.2435 12.7563H22.2878C22.4099 12.7563 22.527 12.8048 22.6133 12.8912C22.6997 12.9775 22.7482 13.0946 22.7482 13.2167Z" fill="#E77C6A"/>
<path d="M22.7482 13.2167V19.9292C22.7482 20.1839 22.5411 20.3896 22.2879 20.3896H20.2426C19.9894 20.3896 19.7822 20.184 19.7822 19.9292V19.8832C20.9729 19.6914 21.8828 18.6572 21.8828 17.4128V12.7563H22.2879C22.541 12.7563 22.7482 12.9619 22.7482 13.2167Z" fill="black" fill-opacity="0.0627451"/>
<path d="M27.0323 16.0465V19.9292C27.0323 20.0513 26.9838 20.1684 26.8975 20.2548C26.8112 20.3411 26.6941 20.3896 26.572 20.3896H24.5277C24.4056 20.3896 24.2885 20.3411 24.2022 20.2548C24.1159 20.1684 24.0674 20.0513 24.0674 19.9292V16.0465C24.0674 15.9244 24.1159 15.8073 24.2022 15.721C24.2885 15.6347 24.4056 15.5862 24.5277 15.5862H26.572C26.6941 15.5862 26.8112 15.6347 26.8975 15.721C26.9838 15.8074 27.0323 15.9244 27.0323 16.0465Z" fill="#F14F4A"/>
<path d="M27.0324 16.0465V19.9292C27.0324 20.1839 26.8253 20.3895 26.5721 20.3895H24.5267C24.2736 20.3895 24.0664 20.1839 24.0664 19.9292V19.8831C25.2571 19.6913 26.167 18.6571 26.167 17.4128V15.5862H26.5721C26.8253 15.5862 27.0324 15.7918 27.0324 16.0465Z" fill="black" fill-opacity="0.0627451"/>
<path d="M18.2926 13.6136C18.2926 14.3414 17.7032 14.9272 16.979 14.9272C16.2547 14.9272 15.6689 14.3414 15.6689 13.6136C15.6689 12.8894 16.2547 12.3036 16.979 12.3036C17.7032 12.3036 18.2926 12.8894 18.2926 13.6136ZM22.5768 9.43839C22.5768 10.1662 21.9875 10.752 21.2632 10.752C20.539 10.752 19.9532 10.1662 19.9532 9.43839C19.9532 8.71415 20.539 8.12842 21.2632 8.12842C21.9875 8.12842 22.5768 8.71421 22.5768 9.43839ZM26.8611 12.7873C26.8611 13.5151 26.2718 14.1008 25.5475 14.1008C24.8233 14.1008 24.2375 13.5151 24.2375 12.7873C24.2375 12.063 24.8233 11.4773 25.5475 11.4773C26.2718 11.4773 26.8611 12.0631 26.8611 12.7873Z" fill="#F78721"/>
<path d="M30.2458 26.4141C30.2458 28.8958 28.2356 30.906 25.754 30.906C23.2758 30.906 21.2656 28.8958 21.2656 26.4141C21.2656 23.936 23.2758 21.9258 25.754 21.9258C28.2356 21.9258 30.2458 23.936 30.2458 26.4141Z" fill="#0E9C4A"/>
<path d="M24.9029 27.6438L24.1525 26.8937C24.026 26.7671 24.026 26.5621 24.1525 26.4355C24.2791 26.309 24.4841 26.309 24.6107 26.4355L25.1319 26.9566L26.9007 25.1879C27.0273 25.0614 27.2323 25.0614 27.3589 25.1879C27.4854 25.3145 27.4854 25.5195 27.3589 25.6461L25.361 27.6438C25.3309 27.6739 25.2952 27.6978 25.2559 27.7141C25.2166 27.7304 25.1745 27.7388 25.1319 27.7388C25.0894 27.7388 25.0473 27.7304 25.008 27.7141C24.9687 27.6978 24.9329 27.6739 24.9029 27.6438Z" fill="#E8F1F8"/>
<path d="M33.4547 26.74H31.5837C31.4048 26.74 31.2598 26.5951 31.2598 26.4161C31.2598 26.237 31.4049 26.0921 31.5837 26.0921H33.4547C33.6337 26.0921 33.7787 26.237 33.7787 26.4161C33.7787 26.5951 33.6337 26.74 33.4547 26.74ZM31.4053 24.6395C31.3752 24.6094 31.3513 24.5737 31.335 24.5344C31.3187 24.4951 31.3104 24.4529 31.3104 24.4104C31.3104 24.3678 31.3187 24.3257 31.335 24.2864C31.3513 24.2471 31.3752 24.2114 31.4053 24.1813L32.0786 23.508C32.2052 23.3814 32.4102 23.3814 32.5367 23.508C32.6633 23.6346 32.6633 23.8396 32.5367 23.9661L31.8634 24.6395C31.8334 24.6696 31.7977 24.6934 31.7583 24.7097C31.719 24.726 31.6769 24.7344 31.6344 24.7344C31.5918 24.7344 31.5497 24.726 31.5104 24.7097C31.4711 24.6934 31.4354 24.6696 31.4053 24.6395ZM32.0774 29.3241L31.4045 28.6504C31.3744 28.6203 31.3506 28.5846 31.3343 28.5453C31.318 28.506 31.3097 28.4638 31.3097 28.4213C31.3097 28.3788 31.3182 28.3366 31.3345 28.2973C31.3508 28.258 31.3747 28.2223 31.4048 28.1923C31.5312 28.0654 31.7365 28.066 31.8629 28.1923L32.5359 28.8659C32.566 28.896 32.5898 28.9317 32.6061 28.971C32.6223 29.0104 32.6307 29.0525 32.6307 29.095C32.6306 29.1376 32.6222 29.1797 32.6059 29.219C32.5896 29.2583 32.5657 29.294 32.5356 29.3241C32.5055 29.3542 32.4698 29.378 32.4305 29.3943C32.3912 29.4106 32.3491 29.419 32.3065 29.419C32.264 29.419 32.2218 29.4106 32.1825 29.3943C32.1432 29.378 32.1075 29.3542 32.0774 29.3241Z" fill="white"/>
</svg>
