<svg width="35" height="35" viewBox="0 0 35 35" fill="none" xmlns="http://www.w3.org/2000/svg">
<path d="M31.5513 24.2423C31.8903 24.6861 32.53 25.1908 33.5041 24.7511C34.0877 24.1945 34.1733 23.2749 33.6714 22.6168L28.5278 15.8723C27.9394 15.1008 27.1055 14.5529 26.1638 14.3192L24.2754 13.8506L24.5756 15.1072L31.5513 24.2423Z" fill="#FFC597"/>
<path d="M32.1194 24.1235L24.2746 13.8505L22.6221 13.4404L23.3185 15.2021L30.0173 23.9744L31.1173 24.5653C31.6499 25.2629 32.6439 25.4036 33.3493 24.8814C33.4041 24.8407 33.4553 24.797 33.5034 24.751C32.9841 24.7854 32.4583 24.5674 32.1194 24.1235Z" fill="#FFB88C"/>
<path d="M32.8337 28.7636L32.337 26.1616H30.8574V27.2909L31.0844 28.1379L32.1507 28.985L32.3884 29.1024C32.6197 29.2167 32.8821 29.0171 32.8337 28.7636Z" fill="#FFC597"/>
<path d="M30.8569 27.2907L30.0241 27.2842L30.0176 27.9312L32.1503 28.9848L30.8569 27.2907Z" fill="#FFB88C"/>
<path d="M30.8566 27.2908L32.3363 26.1616L19.593 9.47363L18.1152 9.54251V10.6014L18.6679 12.1964L29.4628 26.3363L30.8566 27.2908Z" fill="#FFD45D"/>
<path d="M18.1157 10.6016H17.2744V11.2436L18.8587 13.3182L20.4874 16.1961L22.7813 18.4551L30.0177 27.9316L30.857 27.291L18.1157 10.6016Z" fill="#FFC41A"/>
<path d="M18.1159 10.6016L19.5936 9.47386L18.3481 7.8418H16.8701V10.1495L18.1159 10.6016Z" fill="#A3AFC5"/>
<path d="M16.8703 8.96973H16.0293V9.61154L17.2748 11.2436L18.116 10.6015L16.8703 8.96973Z" fill="#929DB1"/>
<path d="M16.8692 8.96961L18.3472 7.84167L17.2262 6.37286C16.9086 5.95674 16.3138 5.8768 15.8977 6.19443L15.1729 6.74761L15.5391 8.31542L16.8692 8.96961Z" fill="#FD667E"/>
<path d="M15.1739 6.74756L15.0867 6.81406C14.6706 7.13168 14.5907 7.7265 14.9083 8.14262L16.0293 9.61143L16.8703 8.96956L15.1739 6.74756Z" fill="#FD4658"/>
<path d="M6.57175 17.5483C6.57175 17.4655 6.53882 17.386 6.48022 17.3274C6.42161 17.2688 6.34213 17.2358 6.25925 17.2358H2.3125C2.22962 17.2358 2.15013 17.2688 2.09153 17.3274C2.03292 17.386 2 17.4655 2 17.5483V27.088L4.259 27.6505L6.57175 27.088V17.5483Z" fill="#EEF2F4"/>
<path d="M27.9038 21.6159H19.9747L19.2717 21.0791L21.6454 18.4053C21.6951 18.3494 21.7238 18.2779 21.7265 18.2031C21.7293 18.1283 21.706 18.0549 21.6605 17.9954L18.9098 14.3932L17.8837 13.7861L8.81441 18.147H6.57129V26.2014L7.50966 26.7639H9.83872C9.88904 26.7639 9.9386 26.7757 9.98354 26.7983L10.7063 27.1614C11.6887 27.6549 12.7828 27.8836 13.8806 27.8249C14.9784 27.7662 16.0419 27.4221 16.966 26.8266L19.8768 24.9509C19.9289 24.9173 19.9896 24.8995 20.0516 24.8994H27.9038C28.7737 24.8994 29.7566 24.3296 29.7566 22.9764C29.5098 22.1879 28.7737 21.6159 27.9038 21.6159Z" fill="#FFC597"/>
<path d="M2.3125 28.2492H6.25925C6.34213 28.2492 6.42161 28.2163 6.48022 28.1577C6.53882 28.0991 6.57175 28.0196 6.57175 27.9367V27.0879H2V27.9367C2 28.0196 2.03292 28.0991 2.09153 28.1577C2.15013 28.2163 2.22962 28.2492 2.3125 28.2492Z" fill="#DCE9EF"/>
<path d="M27.9038 24.3367H20.0516C19.9896 24.3367 19.929 24.3546 19.8768 24.3881L16.966 26.2638C16.0419 26.8593 14.9784 27.2034 13.8806 27.2621C12.7828 27.3208 11.6887 27.0921 10.7063 26.5986L9.9836 26.2355C9.93866 26.2129 9.88907 26.2012 9.83879 26.2012H6.57129V27.3625H9.91522L10.7063 27.7599C11.6887 28.2534 12.7828 28.4821 13.8806 28.4234C14.9784 28.3647 16.0419 28.0206 16.966 27.4251L19.9567 25.498H27.9038C28.9759 25.498 29.845 24.6289 29.845 23.5568C29.845 23.3545 29.814 23.1595 29.7566 22.9762C29.5098 23.7646 28.7737 24.3367 27.9038 24.3367ZM22.7807 18.4547L18.8572 13.3179L17.8837 13.7858L21.098 17.9951C21.1434 18.0545 21.1667 18.128 21.1639 18.2027C21.1612 18.2775 21.1325 18.349 21.0828 18.405L18.7092 21.0788C18.5244 21.2869 18.6722 21.6156 18.9504 21.6156H19.9746L22.7807 18.4547Z" fill="#FFB88C"/>
<path d="M4.25923 26.5106C4.38781 26.5106 4.51112 26.4595 4.60204 26.3686C4.69296 26.2777 4.74404 26.1544 4.74404 26.0258V25.6157C4.74404 25.3479 4.52698 25.1309 4.25923 25.1309C3.99148 25.1309 3.77441 25.3479 3.77441 25.6157V26.0258C3.77441 26.0895 3.78694 26.1525 3.8113 26.2113C3.83566 26.2702 3.87137 26.3236 3.91639 26.3686C3.96141 26.4136 4.01486 26.4494 4.07369 26.4737C4.13251 26.4981 4.19556 26.5106 4.25923 26.5106Z" fill="#A3AFC5"/>
</svg>
