<svg width="36" height="36" viewBox="0 0 36 36" fill="none" xmlns="http://www.w3.org/2000/svg">
<path d="M20.9717 3.64258L24.3691 7.04004C24.3691 6.8623 24.5127 6.71875 24.6904 6.71875C24.8682 6.71875 25.0117 6.8623 25.0117 7.04004V32.21C25.0117 32.3877 24.8682 32.5312 24.6904 32.5312H3.32129C3.14355 32.5312 3 32.3877 3 32.21V3.32129C3 3.14355 3.14355 3 3.32129 3H20.9717C21.1494 3 21.293 3.14355 21.293 3.32129C21.293 3.49902 21.1494 3.64258 20.9717 3.64258Z" fill="#F0EBEB"/>
<path d="M25.0117 15.8926V29.9268H13.1924C12.6523 29.9268 12.208 29.4824 12.208 28.9424V16.877C12.208 16.3369 12.6523 15.8926 13.1924 15.8926H25.0117Z" fill="#E2D9D9"/>
<path fill-rule="evenodd" clip-rule="evenodd" d="M10.9023 5.1123C12.3789 5.1123 13.7188 5.71387 14.6826 6.67773C15.6533 7.64844 16.248 8.98145 16.248 10.458C16.248 11.9346 15.6465 13.2744 14.6826 14.2383C13.7119 15.209 12.3789 15.8037 10.9023 15.8037C9.42578 15.8037 8.08594 15.2021 7.12207 14.2383C6.15137 13.2676 5.55664 11.9346 5.55664 10.458C5.55664 8.98145 6.1582 7.6416 7.12207 6.67773C8.08594 5.71387 9.42578 5.1123 10.9023 5.1123Z" fill="#5C9CEE"/>
<path fill-rule="evenodd" clip-rule="evenodd" d="M5.52246 18.0049C5.34473 18.0049 5.20117 17.8613 5.20117 17.6836C5.20117 17.5059 5.34473 17.3623 5.52246 17.3623H18.374C18.5518 17.3623 18.6953 17.5059 18.6953 17.6836C18.6953 17.8613 18.5518 18.0049 18.374 18.0049H5.52246ZM5.52246 20.0557C5.34473 20.0557 5.20117 19.9121 5.20117 19.7344C5.20117 19.5566 5.34473 19.4131 5.52246 19.4131H16.6924C16.8701 19.4131 17.0137 19.5566 17.0137 19.7344C17.0137 19.9121 16.8701 20.0557 16.6924 20.0557H5.52246ZM5.52246 22.1133C5.34473 22.1133 5.20117 21.9697 5.20117 21.792C5.20117 21.6143 5.34473 21.4707 5.52246 21.4707H16.3301C16.5078 21.4707 16.6514 21.6143 16.6514 21.792C16.6514 21.9697 16.5078 22.1133 16.3301 22.1133H5.52246ZM5.52246 24.1709C5.34473 24.1709 5.20117 24.0273 5.20117 23.8496C5.20117 23.6719 5.34473 23.5283 5.52246 23.5283H16.9043C17.082 23.5283 17.2256 23.6719 17.2256 23.8496C17.2256 24.0273 17.082 24.1709 16.9043 24.1709H5.52246ZM5.52246 26.2217C5.34473 26.2217 5.20117 26.0781 5.20117 25.9004C5.20117 25.7227 5.34473 25.5791 5.52246 25.5791H19.1533C19.3311 25.5791 19.4746 25.7227 19.4746 25.9004C19.4746 26.0781 19.3311 26.2217 19.1533 26.2217H5.52246ZM5.52246 28.2793C5.34473 28.2793 5.20117 28.1357 5.20117 27.958C5.20117 27.7803 5.34473 27.6367 5.52246 27.6367H22.4893C22.667 27.6367 22.8105 27.7803 22.8105 27.958C22.8105 28.1357 22.667 28.2793 22.4893 28.2793H5.52246ZM5.52246 30.3369C5.34473 30.3369 5.20117 30.1934 5.20117 30.0156C5.20117 29.8379 5.34473 29.6943 5.52246 29.6943H22.4893C22.667 29.6943 22.8105 29.8379 22.8105 30.0156C22.8105 30.1934 22.667 30.3369 22.4893 30.3369H5.52246Z" fill="black"/>
<path fill-rule="evenodd" clip-rule="evenodd" d="M12.208 17.3555H18.374C18.5518 17.3555 18.6953 17.499 18.6953 17.6768C18.6953 17.8545 18.5518 17.998 18.374 17.998H12.208V17.3555ZM12.208 19.4131H16.6992C16.877 19.4131 17.0205 19.5566 17.0205 19.7344C17.0205 19.9121 16.877 20.0557 16.6992 20.0557H12.208V19.4131ZM12.208 21.4707H16.3301C16.5078 21.4707 16.6514 21.6143 16.6514 21.792C16.6514 21.9697 16.5078 22.1133 16.3301 22.1133H12.208V21.4707ZM12.208 23.5215H16.9043C17.082 23.5215 17.2256 23.665 17.2256 23.8428C17.2256 24.0205 17.082 24.1641 16.9043 24.1641H12.208V23.5215ZM12.208 25.5791H19.1533C19.3311 25.5791 19.4746 25.7227 19.4746 25.9004C19.4746 26.0781 19.3311 26.2217 19.1533 26.2217H12.208V25.5791ZM12.208 27.6367H22.4893C22.667 27.6367 22.8105 27.7803 22.8105 27.958C22.8105 28.1357 22.667 28.2793 22.4893 28.2793H12.208V27.6367ZM12.5566 29.6875H22.4961C22.6465 29.6875 22.7695 29.79 22.8037 29.9268H13.1924C12.9463 29.9268 12.7275 29.8379 12.5566 29.6875Z" fill="#6D6D6D"/>
<path d="M21.2041 3.0957L24.9229 6.81445C25.0459 6.9375 25.0459 7.14258 24.9229 7.27246C24.8613 7.33398 24.7793 7.36816 24.6973 7.36816H20.9785C20.8008 7.36816 20.6572 7.22461 20.6572 7.04688V3.32129C20.6572 3.14355 20.8008 3 20.9785 3C21.0605 3 21.1426 3.03418 21.2041 3.0957Z" fill="#E2D9D9"/>
<path d="M14.2314 7.12891C13.377 6.27441 12.2012 5.74805 10.9023 5.74805C9.60352 5.74805 8.42773 6.27441 7.57324 7.12891C6.71875 7.9834 6.19238 9.15918 6.19238 10.458C6.19238 11.7568 6.71875 12.9326 7.57324 13.7871C8.42773 14.6416 9.60352 15.168 10.9023 15.168C12.2012 15.168 13.377 14.6416 14.2314 13.7871C15.0859 12.9326 15.6123 11.7568 15.6123 10.458C15.6123 9.15918 15.0791 7.9834 14.2314 7.12891Z" fill="white"/>
<path d="M10.0205 11.203C10.0068 11.203 9.99316 11.1962 9.98633 11.1825C9.97949 11.1688 9.97266 11.1483 9.97949 11.1347C10.082 10.8681 10 10.5741 9.86328 10.3348C9.84961 10.3075 9.85645 10.2802 9.88379 10.2665C9.91113 10.2528 9.93848 10.2597 9.95215 10.287C10.1436 10.6015 10.4443 10.9022 10.834 10.9022C11.2578 10.9022 11.5723 10.5536 11.7568 10.2118C11.7705 10.1913 11.7979 10.1776 11.8252 10.1913C11.8525 10.205 11.8594 10.2323 11.8525 10.2528C11.8115 10.3759 11.7842 10.4852 11.7842 10.6151C11.7842 10.6903 11.791 10.7655 11.7979 10.8407C11.8047 10.9501 11.8115 11.0526 11.8047 11.162C11.8047 11.1688 11.8047 11.1757 11.7979 11.1893L10.9434 12.6659C10.9365 12.6796 10.916 12.6932 10.8955 12.6932C10.875 12.6932 10.8613 12.6864 10.8477 12.6659L10.0205 11.203Z" fill="#F9C5B8"/>
<path d="M9.65845 8.37305C9.68579 8.31836 9.71997 8.27051 9.76782 8.22949C9.8772 8.14062 10.0208 8.11328 10.1506 8.10645C10.301 8.09277 10.4651 8.10645 10.6155 8.11328C10.8342 8.12695 11.176 8.14746 11.3538 8.01074C11.4495 7.93555 11.4973 7.83301 11.511 7.7168C11.5178 7.69629 11.5315 7.67578 11.5588 7.67578C11.5793 7.67578 11.6067 7.68262 11.6135 7.70996C11.6682 7.83984 11.7161 7.9834 11.7639 8.12012C11.8596 8.41406 11.9416 8.72168 11.9827 9.0293C12.0305 9.35742 12.051 9.76074 11.9143 10.0684C11.887 10.1299 11.8665 10.1846 11.8459 10.2461V10.2529C11.6409 10.6289 11.2922 10.998 10.8274 10.998C10.3967 10.998 10.0686 10.6768 9.85669 10.335C9.84302 10.3076 9.82935 10.2803 9.80884 10.2529C9.79517 10.2256 9.78149 10.2051 9.76099 10.1777C9.65845 10.0205 9.6106 9.81543 9.58325 9.63086C9.56958 9.54883 9.56274 9.45996 9.56274 9.37109C9.55591 9.26855 9.55591 9.16602 9.56274 9.05664C9.56958 8.91992 9.57642 8.7832 9.59009 8.65332C9.6106 8.57129 9.62427 8.45508 9.65845 8.37305Z" fill="#F9C5B8"/>
<path fill-rule="evenodd" clip-rule="evenodd" d="M11.5793 7.8877C11.5451 7.96973 11.4973 8.03809 11.4221 8.09277C11.2102 8.25 10.8615 8.22949 10.6154 8.21582C10.465 8.20898 10.3146 8.19531 10.1643 8.20898C10.0549 8.21582 9.925 8.23633 9.83613 8.31152C9.80195 8.33887 9.77461 8.37988 9.7541 8.4209C9.72675 8.48242 9.70625 8.59863 9.69941 8.67383C9.68574 8.80371 9.6789 8.93359 9.67207 9.07031V9.37793C9.67207 9.45996 9.6789 9.54199 9.69257 9.62402C9.71992 9.78809 9.76777 9.98633 9.85664 10.1299C9.87031 10.1572 9.89082 10.1777 9.90449 10.2051C9.91816 10.2324 9.93183 10.2598 9.95234 10.2871C10.0959 10.5605 10.1848 10.875 10.0686 11.1758C10.0617 11.1963 10.0412 11.21 10.0207 11.21H9.51484C9.35078 11.21 9.18671 11.2305 9.02949 11.2783C9.00214 11.2852 8.9748 11.2715 8.96797 11.2441C8.8791 10.9844 8.83808 10.6836 8.81757 10.4102C8.79023 10.082 8.79023 9.74023 8.8039 9.41211C8.81757 8.90625 8.85859 8.40723 8.91328 7.90137C9.13203 5.78906 12.4201 5.78906 12.6389 7.90137C12.6662 8.14062 12.6799 8.37988 12.6936 8.62598C12.7141 8.91309 12.7209 9.2002 12.7277 9.4873C12.7346 9.80176 12.7346 10.1162 12.7209 10.4307C12.7072 10.6836 12.6936 10.9502 12.6457 11.1963C12.6389 11.2236 12.6115 11.2441 12.5842 11.2373C12.4885 11.2168 12.3859 11.21 12.2834 11.21H11.7502C11.7365 11.21 11.7228 11.2031 11.716 11.1963C11.7092 11.1826 11.7023 11.1758 11.7023 11.1621C11.7023 11.0596 11.7023 10.957 11.6955 10.8477C11.6887 10.7725 11.6818 10.6973 11.6818 10.6152C11.6818 10.4717 11.7092 10.3486 11.757 10.2188C11.7775 10.1572 11.8049 10.0957 11.8322 10.0342C11.9553 9.74023 11.9348 9.35742 11.8937 9.0498C11.8527 8.74902 11.7707 8.44824 11.675 8.1543C11.6408 8.06543 11.6135 7.97656 11.5793 7.8877Z" fill="#9D5E5E"/>
<path d="M11.6953 10.834C11.6885 10.7588 11.6816 10.6836 11.6816 10.6016C11.6816 10.5674 11.6816 10.5332 11.6885 10.499C11.6953 10.3965 11.7227 10.3008 11.7568 10.2051V10.1982C11.5723 10.54 11.2578 10.8887 10.834 10.8887C10.4443 10.8887 10.1436 10.5879 9.95215 10.2734C10.0137 10.3896 10.0615 10.5059 10.0957 10.6357C10.1299 10.7793 10.1367 10.9229 10.1025 11.0732C10.998 11.333 11.4561 11.0117 11.6953 10.834Z" fill="#FAB1A6"/>
<path fill-rule="evenodd" clip-rule="evenodd" d="M10.875 15.1611H10.9023C12.1396 15.1611 13.2607 14.6826 14.1016 13.9102V12.9121C14.1016 12.0371 13.4658 11.2852 12.6045 11.1279C12.502 11.1074 12.3926 11.1006 12.29 11.1006H11.7568C11.7363 11.1006 11.7227 11.1074 11.709 11.1279L10.8545 12.6045C10.8477 12.6113 10.8477 12.6182 10.8477 12.6318V15.1201C10.8545 15.1338 10.8613 15.1543 10.875 15.1611Z" fill="#DA7E4A"/>
<path fill-rule="evenodd" clip-rule="evenodd" d="M7.70996 13.9102C8.55078 14.6895 9.67188 15.1611 10.9092 15.1611H10.9365C10.9502 15.1543 10.957 15.1338 10.957 15.1201V12.6318C10.957 12.625 10.957 12.6113 10.9502 12.6045L10.0957 11.1279C10.0889 11.1143 10.0684 11.1006 10.0479 11.1006H9.51465C9.33691 11.1006 9.16602 11.1279 9.00195 11.1758C8.23633 11.4014 7.70312 12.1123 7.70312 12.9121L7.70996 13.9102Z" fill="#CE7748"/>
<path fill-rule="evenodd" clip-rule="evenodd" d="M32.1484 16.877V28.9424C32.1484 29.127 32.0049 29.2705 31.8203 29.2705H13.1924C13.0078 29.2705 12.8643 29.127 12.8643 28.9424V16.877C12.8643 16.6924 13.0078 16.5488 13.1924 16.5488H31.8203C31.998 16.5488 32.1484 16.6924 32.1484 16.877Z" fill="#FFC107"/>
<path fill-rule="evenodd" clip-rule="evenodd" d="M32.1484 28.9423V28.7919L22.7148 21.0741C22.5986 20.9716 22.4209 20.9716 22.2979 21.0673L12.8643 28.7577V28.9354C12.8643 29.12 13.0078 29.2636 13.1924 29.2636H31.8203C31.998 29.2704 32.1484 29.12 32.1484 28.9423Z" fill="#FF9D05"/>
<path fill-rule="evenodd" clip-rule="evenodd" d="M32.1484 16.877V17.0273L22.7148 24.7451C22.5986 24.8477 22.4209 24.8477 22.2979 24.752L12.8643 17.0615V16.877C12.8643 16.6924 13.0078 16.5488 13.1924 16.5488H31.8203C31.998 16.5488 32.1484 16.6924 32.1484 16.877Z" fill="#FFAE06"/>
</svg>
