<svg width="22" height="22" viewBox="0 0 22 22" fill="none" xmlns="http://www.w3.org/2000/svg">
<circle cx="11" cy="11" r="11" fill="url(#paint0_linear_174_15337)"/>
<path d="M5.57357 9.24787L5.57357 9.24787C5.31834 8.99264 5.31833 8.57884 5.57357 8.3236L5.57357 9.24787ZM5.57357 9.24787L10.9309 14.605L11.0142 14.5217M5.57357 9.24787L11.0142 14.5217M11.0142 14.5217L10.9309 14.605C10.9916 14.6657 11.0636 14.7138 11.1429 14.7467C11.2222 14.7795 11.3072 14.7964 11.393 14.7964C11.4788 14.7964 11.5638 14.7795 11.6431 14.7467L11.598 14.6378M11.0142 14.5217L11.598 14.6378M11.598 14.6378L11.6431 14.7467C11.7224 14.7138 11.7944 14.6657 11.8551 14.605L17.2121 9.24785C17.4674 8.99264 17.4674 8.57879 17.2121 8.32356C16.9569 8.06836 16.5431 8.06831 16.2879 8.32359C16.2879 8.32359 16.2879 8.3236 16.2879 8.3236L11.393 13.2186L6.49786 8.32356C6.49786 8.32355 6.49786 8.32355 6.49785 8.32355C6.24266 8.06836 5.82882 8.06831 5.57357 8.32359L11.598 14.6378Z" fill="white" stroke="white" stroke-width="0.235714"/>
<defs>
<linearGradient id="paint0_linear_174_15337" x1="11" y1="0" x2="11" y2="22" gradientUnits="userSpaceOnUse">
<stop stop-color="#9247E7"/>
<stop offset="1" stop-color="#4D35E5"/>
</linearGradient>
</defs>
</svg>
