<svg width="35" height="35" viewBox="0 0 35 35" fill="none" xmlns="http://www.w3.org/2000/svg">
<path d="M12.1766 18.1864L6.04175 20.517V20.5177H6.04105L6.04036 20.5163C6.03133 20.5198 6.023 20.5233 6.01397 20.5274C5.11117 20.8691 4.36115 21.4705 3.83544 22.2268C3.29124 23.0096 2.99969 23.9402 3 24.8935V31.4722C3 31.5621 3.03571 31.6483 3.09926 31.7118C3.16282 31.7754 3.24902 31.8111 3.3389 31.8111C3.34932 31.8111 3.35904 31.8104 3.36876 31.8097H7.64596V31.8111H23.4693C23.5592 31.8111 23.6454 31.7754 23.7089 31.7118C23.7725 31.6483 23.8082 31.5621 23.8082 31.4722C23.8082 31.1159 26.7478 22.6713 26.8972 22.5601C26.9326 22.5336 26.9625 22.5003 26.9851 22.4622C27.0077 22.4241 27.0225 22.3819 27.0288 22.338C27.035 22.2941 27.0326 22.2495 27.0216 22.2065C27.0105 22.1636 26.9911 22.1233 26.9645 22.0879C26.6979 21.7316 26.3814 21.4154 26.0249 21.149C25.6733 20.8867 25.2864 20.6756 24.8756 20.5219C24.8707 20.5198 24.8652 20.5177 24.8603 20.5156V20.5163L24.8568 20.5149L18.7206 18.1829C18.6616 18.158 18.5967 18.1503 18.5335 18.1608C18.4703 18.1712 18.4114 18.1994 18.3636 18.242L15.451 20.8309L12.5391 18.2434C12.4904 18.2003 12.4304 18.1721 12.3662 18.162C12.302 18.1519 12.2362 18.1604 12.1766 18.1864Z" fill="#EF5350"/>
<path d="M22.5793 31.8113H23.4689C23.5588 31.8113 23.645 31.7756 23.7085 31.712C23.7721 31.6485 23.8078 31.5623 23.8078 31.4724C23.8078 31.1161 26.7474 22.6715 26.8967 22.5604C26.9322 22.5338 26.9621 22.5005 26.9847 22.4624C27.0073 22.4243 27.0221 22.3821 27.0284 22.3382C27.0346 22.2943 27.0322 22.2497 27.0211 22.2068C27.0101 22.1638 26.9907 22.1235 26.9641 22.0881C26.7672 21.8256 26.5433 21.5844 26.296 21.3687C25.6905 21.4207 25.8606 21.3749 24.6592 21.8249C24.4655 21.8973 24.2757 21.9796 24.0904 22.0714L24.0196 22.1062L24.0182 22.1083C23.4604 22.3948 22.9508 22.7667 22.5077 23.2104C21.8487 23.8694 21.3584 24.6611 21.0639 25.5236L21.057 25.5257L20.9827 25.7785C20.9006 26.0591 20.8391 26.3452 20.7987 26.6348L20.6869 27.4376L20.6757 27.4327L20.682 27.4751L20.6757 27.5174L20.6869 27.5126L20.7987 28.3154C20.8389 28.605 20.9007 28.8911 20.9827 29.1716L21.057 29.4244L21.0639 29.4265C21.3617 30.298 21.8557 31.0894 22.5077 31.7398C22.5313 31.7648 22.555 31.7884 22.5793 31.8113ZM7.30664 31.8099H7.64623V31.8113H7.98444V26.1736C7.98444 26.0838 7.94873 25.9976 7.88518 25.934C7.82162 25.8704 7.73542 25.8347 7.64554 25.8347C7.55566 25.8347 7.46946 25.8704 7.4059 25.934C7.34235 25.9976 7.30664 26.0838 7.30664 26.1736V31.8099Z" fill="#F33D3B"/>
<path d="M13.6562 31.8112H17.1904L16.3035 24.1006H14.5959L13.6562 31.8112Z" fill="#B5D5F5"/>
<path d="M16.3037 24.1004L17.0551 22.5892C17.1377 22.4219 17.069 22.2191 16.9016 22.1372C16.7564 22.0656 15.7953 21.351 15.5022 21.292L13.998 22.1372C13.8307 22.2198 13.7619 22.4226 13.8446 22.5892L14.596 24.1004H16.3037Z" fill="#BCC0DD"/>
<path d="M12.6514 16.4017C12.6514 16.2148 12.5 16.0628 12.3125 16.0628C12.125 16.0628 11.9736 16.2142 11.9736 16.4017V18.4962C11.9736 18.6024 12.0229 18.6976 12.0993 18.7594L15.2209 21.5323L15.2244 21.5351C15.2439 21.5525 15.2647 21.5671 15.2862 21.5789L15.2876 21.5796L15.2925 21.5823L15.2946 21.5837L15.2994 21.5858L15.3015 21.5872L15.3036 21.5879L15.3057 21.5886L15.3112 21.5914H15.3119C15.3466 21.6067 15.3841 21.6164 15.4216 21.6192L15.4286 21.6199H15.4321C15.4369 21.6199 15.4418 21.6205 15.4466 21.6205H15.4536C15.4584 21.6205 15.4633 21.6205 15.4682 21.6199H15.4716L15.4786 21.6192C15.5161 21.6164 15.5529 21.6067 15.5883 21.5914H15.589L15.5946 21.5886L15.5966 21.5879L15.5987 21.5872L15.6008 21.5858L15.6057 21.5837L15.6078 21.5823L15.6126 21.5796L15.614 21.5789C15.6355 21.5671 15.6564 21.5525 15.6758 21.5351L15.6793 21.5323L18.796 18.7628C18.8766 18.701 18.928 18.6038 18.928 18.4941V16.3975C18.928 16.3076 18.8923 16.2214 18.8287 16.1579C18.7652 16.0943 18.679 16.0586 18.5891 16.0586C18.4992 16.0586 18.413 16.0943 18.3494 16.1579C18.2859 16.2214 18.2502 16.3076 18.2502 16.3975L12.6514 16.4017Z" fill="#F9C5B8"/>
<path d="M12.6514 16.4017C12.6514 16.2149 12.5 16.0628 12.3125 16.0628C12.125 16.0628 11.9736 16.2142 11.9736 16.4017V17.224C12.8931 17.965 14.0223 18.3948 15.2105 18.4428L15.2147 18.449L15.4772 18.4483C15.498 18.4483 15.5175 18.4469 15.5383 18.4455C16.7717 18.3761 17.9662 17.9796 18.9266 17.2177V16.399C18.9266 16.3091 18.8909 16.2229 18.8273 16.1593C18.7638 16.0958 18.6776 16.0601 18.5877 16.0601C18.4978 16.0601 18.4116 16.0958 18.3481 16.1593C18.2845 16.2229 18.2488 16.3091 18.2488 16.399L12.6514 16.4017Z" fill="#FAB1A6"/>
<path d="M9.73226 10.1098C9.76844 10.1919 9.8357 10.2563 9.91928 10.2888C10.0029 10.3214 10.0959 10.3194 10.1781 10.2834C10.7663 10.0244 19.7784 9.88829 20.6048 10.2161C20.7777 10.2848 20.9742 10.2001 21.0423 10.0272C21.261 9.47786 21.4409 8.84104 21.4138 8.08754C21.3874 7.34586 21.1603 6.50139 20.5735 5.534C20.4291 5.13885 19.0443 1.90821 12.7525 3.38325H9.00793C8.90377 3.38325 8.80099 3.43117 8.73432 3.52215C8.70803 3.55801 8.68908 3.5987 8.67855 3.6419C8.66803 3.6851 8.66613 3.72995 8.67297 3.77389C8.6798 3.81782 8.69525 3.85998 8.71841 3.89793C8.74157 3.93589 8.77199 3.9689 8.80793 3.99507L8.80862 3.99438L10.3052 5.08885C9.78921 5.79651 8.67668 7.72503 9.73226 10.1098Z" fill="#8F6E4E"/>
<path d="M19.0211 16.4532C18.1224 17.3567 16.8828 17.9213 15.5099 17.9379C15.4988 17.9393 15.4877 17.9393 15.4765 17.9393L15.4758 17.9379H15.4467C14.0619 17.9372 12.807 17.3782 11.8973 16.4726C10.9938 15.5747 10.4299 14.3351 10.4132 12.9628C10.4118 12.9517 10.4118 12.9406 10.4111 12.9295L10.75 12.9288H10.4125V12.8996H10.4111V10.5711C10.4111 10.5009 10.4139 10.4204 10.4188 10.3294C10.4229 10.2565 10.4285 10.1843 10.4354 10.1127C10.4354 10.1037 10.4361 10.0947 10.4375 10.0856H10.4382C10.4542 9.9405 10.4785 9.79397 10.5111 9.64536C10.5426 9.5036 10.5823 9.36378 10.6299 9.2266C10.7834 8.78978 11.0181 8.3613 11.4098 7.98073C11.7889 7.61267 12.3119 7.29391 13.0459 7.06543C13.0619 7.05848 13.0793 7.05362 13.0966 7.04946C13.1029 7.04807 15.2501 6.52028 16.5557 7.85989C17.2981 7.53002 19.5308 6.78348 20.3121 9.29882C20.3718 9.49188 20.4149 9.68703 20.4433 9.88356C20.4732 10.0912 20.4871 10.2975 20.4871 10.5023V12.901C20.4871 14.2865 19.9274 15.542 19.0211 16.4532Z" fill="#F9C5B8"/>
<path d="M21.7873 11.7598C21.7873 11.6699 21.7516 11.5837 21.6881 11.5202C21.6245 11.4566 21.5383 11.4209 21.4484 11.4209C21.3585 11.4209 21.2723 11.4566 21.2088 11.5202C21.1452 11.5837 21.1095 11.6699 21.1095 11.7598V13.8099C21.1095 14.046 21.0137 14.2599 20.8588 14.4147C20.704 14.5696 20.4901 14.6654 20.2539 14.6654V14.6668H19.6518V14.6654H17.6768C17.5869 14.6654 17.5007 14.7011 17.4372 14.7647C17.3736 14.8282 17.3379 14.9144 17.3379 15.0043C17.3379 15.0942 17.3736 15.1804 17.4372 15.244C17.5007 15.3075 17.5869 15.3432 17.6768 15.3432H19.6518V15.3418H20.2539V15.3432C20.6769 15.3432 21.0602 15.1717 21.338 14.8946C21.6151 14.6175 21.7866 14.2342 21.7866 13.8105V11.7598H21.7873Z" fill="#4D4D4D"/>
<path d="M30.6798 23.5693C31.6799 24.5693 32.2979 25.9499 32.2979 27.4756C32.2979 29.0014 31.6799 30.3819 30.6798 31.382C29.6798 32.382 28.2992 33.0001 26.7735 33.0001C25.2477 33.0001 23.8671 32.382 22.8671 31.382C21.8671 30.3819 21.249 29.0014 21.249 27.4756C21.249 25.9499 21.8671 24.5693 22.8671 23.5693C23.8671 22.5692 25.2477 21.9512 26.7735 21.9512C28.2985 21.9512 29.6798 22.5699 30.6798 23.5693Z" fill="#7BAFF2"/>
<path d="M32.0951 25.9882C32.1673 26.2465 32.2208 26.5125 32.2548 26.7847C32.0895 26.7063 31.8993 26.6306 31.6874 26.559C30.7833 26.2542 28.1707 26.0653 26.7734 26.0653C25.3762 26.0653 22.5942 26.2542 21.69 26.559C21.5511 26.6056 21.4219 26.6542 21.3025 26.7042C21.3393 26.439 21.3957 26.177 21.4712 25.9201L21.4761 25.9188C22.4483 25.591 25.3074 25.3882 26.7741 25.3882C28.2408 25.3882 30.9305 25.591 31.9027 25.9188C31.968 25.9424 32.0326 25.9653 32.0951 25.9882ZM32.2548 28.166C32.2208 28.4383 32.1673 28.7042 32.0951 28.9626C32.0326 28.9862 31.968 29.0091 31.902 29.0313C30.9298 29.3591 28.2401 29.5619 26.7734 29.5619C25.3067 29.5619 22.4476 29.3591 21.4754 29.0313L21.4705 29.0299C21.3953 28.773 21.3389 28.511 21.3018 28.2459C21.4212 28.2959 21.5504 28.3445 21.6893 28.391C22.5935 28.6959 25.3755 28.8848 26.7727 28.8848C28.17 28.8848 30.7826 28.6959 31.6868 28.391C31.8993 28.3202 32.0895 28.2445 32.2548 28.166Z" fill="#B5D5F5"/>
<path d="M29.5052 32.2778C29.1278 32.4932 28.7261 32.6629 28.3086 32.7834C28.4878 32.6007 28.6544 32.3868 28.8058 32.148C29.367 31.2611 29.7142 28.8437 29.7142 27.4756C29.7142 26.1075 29.3677 24.029 28.8065 23.1422C28.4912 22.6435 28.11 22.2581 27.6884 22.0269C28.2183 22.1151 28.7232 22.2789 29.1906 22.5074C29.2552 22.5956 29.3177 22.6873 29.3774 22.7824C30.0038 23.7727 30.3906 25.9797 30.3906 27.4756C30.3913 28.8673 30.0559 31.1667 29.5052 32.2778ZM25.237 32.7834C24.8195 32.6629 24.4178 32.4932 24.0404 32.2778C23.4897 31.1667 23.1543 28.8673 23.1543 27.4756C23.1543 25.9797 23.5418 23.772 24.1675 22.7824C24.2279 22.6873 24.2897 22.5956 24.3543 22.5074C24.8217 22.2796 25.3266 22.1157 25.8565 22.0269C25.4349 22.2581 25.0537 22.6435 24.7384 23.1422C24.1772 24.029 23.8307 26.1082 23.8307 27.4756C23.8307 28.8437 24.1779 31.2611 24.7384 32.148C24.8911 32.3875 25.0578 32.6007 25.237 32.7834Z" fill="#B5D5F5"/>
<path d="M27.979 32.8682C27.7367 32.9224 27.4887 32.9599 27.236 32.9807C27.2943 32.8161 27.3512 32.6252 27.4075 32.4127C27.6457 31.5022 27.7936 28.882 27.7936 27.4757C27.7936 26.0701 27.6464 23.2798 27.4075 22.3693C27.3707 22.2277 27.3325 22.0964 27.2943 21.9756C27.5457 21.9992 27.7922 22.0395 28.0325 22.0957C28.0422 22.1305 28.0513 22.1652 28.061 22.2006C28.3145 23.1673 28.4707 26.0181 28.4707 27.4757C28.4707 28.9341 28.3138 31.6154 28.061 32.5821C28.0346 32.6807 28.0075 32.7766 27.979 32.8682ZM26.3109 32.9807C26.0581 32.9599 25.8102 32.9217 25.5679 32.8682C25.5394 32.7766 25.5123 32.6807 25.4859 32.5821C25.2324 31.6154 25.0762 28.9341 25.0762 27.4757C25.0762 26.0174 25.2331 23.1666 25.4859 22.2006C25.4949 22.1652 25.5047 22.1305 25.5144 22.0957C25.7547 22.0395 26.0012 21.9992 26.2526 21.9756C26.2144 22.0964 26.1762 22.2284 26.1394 22.3693C25.9012 23.2798 25.7533 26.0694 25.7533 27.4757C25.7533 28.8813 25.9005 31.5022 26.1394 32.4127C26.195 32.6252 26.2526 32.8161 26.3109 32.9807Z" fill="#B5D5F5"/>
<path d="M21.4429 19.2185L18.9269 18.2622L15.2247 21.031C15.1875 21.0642 15.158 21.1052 15.1384 21.151C15.1189 21.1969 15.1097 21.2465 15.1116 21.2964C15.1134 21.3462 15.1263 21.395 15.1492 21.4393C15.1721 21.4836 15.2045 21.5223 15.2441 21.5526L16.5289 22.6929L17.2359 23.3207L17.2352 23.3214C17.2684 23.351 17.3071 23.3737 17.3491 23.3883C17.3911 23.4029 17.4356 23.409 17.48 23.4064C17.5244 23.4037 17.5678 23.3923 17.6078 23.3729C17.6478 23.3534 17.6835 23.3262 17.713 23.2929C17.722 23.2825 17.731 23.2714 17.7387 23.2603L21.4429 19.2185Z" fill="#F33D3B"/>
<path d="M11.9746 18.2637L9.30371 19.2783L13.1628 23.2603C13.1705 23.2714 13.1795 23.2826 13.1885 23.2937C13.2181 23.3269 13.2539 23.3539 13.2939 23.3733C13.3339 23.3926 13.3773 23.4039 13.4217 23.4065C13.466 23.4091 13.5105 23.4029 13.5525 23.3883C13.5944 23.3737 13.6331 23.351 13.6663 23.3214V23.3207L14.3726 22.693L15.6712 21.5395C15.6747 21.5367 15.6775 21.5339 15.681 21.5311L15.6817 21.5304L15.6865 21.5263L15.6893 21.5235L15.6921 21.5207L15.6962 21.5158L15.6969 21.5151C15.7164 21.4943 15.733 21.4714 15.7462 21.4471L15.7469 21.4457L15.7497 21.4408L15.7511 21.4388L15.7532 21.4339L15.7546 21.4318L15.7553 21.4297L15.756 21.4276L15.7587 21.4221L15.7594 21.4214C15.7747 21.3867 15.7844 21.3492 15.7872 21.3117L15.7879 21.3047V21.3013C15.7879 21.2964 15.7886 21.2915 15.7886 21.2867V21.2797C15.7886 21.2749 15.7886 21.27 15.7879 21.2651V21.2617L15.7872 21.2547C15.7844 21.2172 15.7747 21.1804 15.7594 21.145L15.7587 21.1443L15.756 21.1387L15.7553 21.1367L15.7546 21.1346L15.7532 21.1325L15.7511 21.1276L15.7497 21.1256L15.7469 21.1207L15.7462 21.1193C15.733 21.095 15.7164 21.0721 15.6969 21.0512L15.6962 21.0506L15.6921 21.0457L15.6893 21.0429L15.6865 21.0401L15.6817 21.036L15.681 21.0353L15.6747 21.0297L15.6719 21.0269L15.6712 21.0262L11.9746 18.2637Z" fill="#F33D3B"/>
</svg>
