<svg width="35" height="35" viewBox="0 0 35 35" fill="none" xmlns="http://www.w3.org/2000/svg">
<path d="M18 4C25.728 4 32 10.272 32 18C32 25.728 25.728 32 18 32C10.272 32 4 25.728 4 18C4 10.272 10.272 4 18 4Z" fill="url(#paint0_linear_441_906)"/>
<path d="M24.6454 22.2655C24.9627 22.4148 25.2334 22.6481 25.4387 22.9188C25.4387 22.9188 24.8507 20.8001 23.0961 22.0508L24.2721 22.1161C24.2721 22.1161 23.0214 24.3095 18.0094 24.3095C12.9974 24.3095 11.7467 22.1161 11.7467 22.1161L12.9227 22.0508C11.1681 20.8001 10.5801 22.9188 10.5801 22.9188C10.7854 22.6388 11.0561 22.4148 11.3734 22.2655C11.3734 22.2655 12.4467 26.4095 18.0187 26.4095C23.5907 26.4095 24.6454 22.2655 24.6454 22.2655Z" fill="#EF790F"/>
<path d="M24.4584 22.1533C24.4584 22.1533 23.301 24.5333 17.9997 24.5333C12.6983 24.5333 11.541 22.1533 11.541 22.1533C11.541 22.1533 12.521 25.9893 17.9997 25.9893C23.4783 25.9893 24.4584 22.1533 24.4584 22.1533Z" fill="#1E1E1E"/>
<path d="M23.74 19.3536C26.142 19.3536 28.0893 17.2016 28.0893 14.5469C28.0893 11.8923 26.142 9.74023 23.74 9.74023C21.3379 9.74023 19.3906 11.8923 19.3906 14.5469C19.3906 17.2016 21.3379 19.3536 23.74 19.3536Z" fill="#EF790F"/>
<path d="M23.6747 19.1853C25.9582 19.1853 27.8094 17.1712 27.8094 14.6867C27.8094 12.2021 25.9582 10.188 23.6747 10.188C21.3912 10.188 19.54 12.2021 19.54 14.6867C19.54 17.1712 21.3912 19.1853 23.6747 19.1853Z" fill="white"/>
<path d="M23.5529 16.9267C24.7385 16.9267 25.6996 15.928 25.6996 14.696C25.6996 13.464 24.7385 12.4653 23.5529 12.4653C22.3673 12.4653 21.4062 13.464 21.4062 14.696C21.4062 15.928 22.3673 16.9267 23.5529 16.9267Z" fill="#1E1E1E"/>
<path d="M23.5535 16.6C24.569 16.6 25.3922 15.7475 25.3922 14.696C25.3922 13.6444 24.569 12.792 23.5535 12.792C22.538 12.792 21.7148 13.6444 21.7148 14.696C21.7148 15.7475 22.538 16.6 23.5535 16.6Z" fill="#88D5FF"/>
<path d="M23.5537 15.872C24.1826 15.872 24.6924 15.3455 24.6924 14.696C24.6924 14.0465 24.1826 13.52 23.5537 13.52C22.9248 13.52 22.415 14.0465 22.415 14.696C22.415 15.3455 22.9248 15.872 23.5537 15.872Z" fill="#1E1E1E"/>
<path d="M24.5806 14.4814C25.029 14.4814 25.3926 14.1179 25.3926 13.6694C25.3926 13.221 25.029 12.8574 24.5806 12.8574C24.1321 12.8574 23.7686 13.221 23.7686 13.6694C23.7686 14.1179 24.1321 14.4814 24.5806 14.4814Z" fill="white"/>
<path d="M23.2828 16.0027C23.4736 16.0027 23.6282 15.8481 23.6282 15.6573C23.6282 15.4666 23.4736 15.312 23.2828 15.312C23.0921 15.312 22.9375 15.4666 22.9375 15.6573C22.9375 15.8481 23.0921 16.0027 23.2828 16.0027Z" fill="white"/>
<path d="M12.2605 19.3536C14.6625 19.3536 16.6098 17.2016 16.6098 14.5469C16.6098 11.8923 14.6625 9.74023 12.2605 9.74023C9.8584 9.74023 7.91113 11.8923 7.91113 14.5469C7.91113 17.2016 9.8584 19.3536 12.2605 19.3536Z" fill="#EF790F"/>
<path d="M12.3251 19.1853C14.6086 19.1853 16.4598 17.1712 16.4598 14.6867C16.4598 12.2021 14.6086 10.188 12.3251 10.188C10.0416 10.188 8.19043 12.2021 8.19043 14.6867C8.19043 17.1712 10.0416 19.1853 12.3251 19.1853Z" fill="white"/>
<path d="M12.4465 16.9267C13.632 16.9267 14.5931 15.928 14.5931 14.696C14.5931 13.464 13.632 12.4653 12.4465 12.4653C11.2609 12.4653 10.2998 13.464 10.2998 14.696C10.2998 15.928 11.2609 16.9267 12.4465 16.9267Z" fill="#1E1E1E"/>
<path d="M12.4471 16.6C13.4625 16.6 14.2857 15.7475 14.2857 14.696C14.2857 13.6444 13.4625 12.792 12.4471 12.792C11.4316 12.792 10.6084 13.6444 10.6084 14.696C10.6084 15.7475 11.4316 16.6 12.4471 16.6Z" fill="#88D5FF"/>
<path d="M12.4463 15.872C13.0752 15.872 13.5849 15.3455 13.5849 14.696C13.5849 14.0465 13.0752 13.52 12.4463 13.52C11.8174 13.52 11.3076 14.0465 11.3076 14.696C11.3076 15.3455 11.8174 15.872 12.4463 15.872Z" fill="#1E1E1E"/>
<path d="M13.4643 14.4814C13.9128 14.4814 14.2763 14.1179 14.2763 13.6694C14.2763 13.221 13.9128 12.8574 13.4643 12.8574C13.0159 12.8574 12.6523 13.221 12.6523 13.6694C12.6523 14.1179 13.0159 14.4814 13.4643 14.4814Z" fill="white"/>
<path d="M12.1666 16.0027C12.3573 16.0027 12.512 15.8481 12.512 15.6573C12.512 15.4666 12.3573 15.312 12.1666 15.312C11.9759 15.312 11.8213 15.4666 11.8213 15.6573C11.8213 15.8481 11.9759 16.0027 12.1666 16.0027Z" fill="white"/>
<defs>
<linearGradient id="paint0_linear_441_906" x1="18" y1="32" x2="18" y2="4" gradientUnits="userSpaceOnUse">
<stop stop-color="#EF790F"/>
<stop offset="0.56" stop-color="#FFDD00"/>
<stop offset="1" stop-color="#FFEC70"/>
</linearGradient>
</defs>
</svg>
