<svg width="35" height="35" viewBox="0 0 35 35" fill="none" xmlns="http://www.w3.org/2000/svg">
<path d="M25.1223 4.75049H6.62573L6.33398 31.4165L25.9976 31.1247V27.876L25.6195 24.4867L25.9976 21.998V5.62574C25.9976 5.14237 25.6057 4.75049 25.1223 4.75049Z" fill="#CDE2FF"/>
<path d="M24.2567 30.2495L24.2476 29.3742L6.62621 4.75049C6.14285 4.75049 5.75098 5.14237 5.75098 5.62574V31.1247C5.75098 31.6081 6.14285 32 6.62621 32H25.1228C25.6062 32 25.9981 31.6081 25.9981 31.1247H23.3815C23.8649 31.1247 24.2567 30.7329 24.2567 30.2495ZM25.9981 21.998L24.2476 16.9663L21.8428 15.9403L25.9981 27.876V21.998Z" fill="#9EC8FC"/>
<path d="M23.3723 3H4.87573L4.58398 29.666L24.2476 29.3742V22.848L23.5004 16.6247L24.2476 14.247V3.87525C24.2476 3.39188 23.8557 3 23.3723 3Z" fill="#EDF6FF"/>
<path d="M24.2476 14.2472L22.456 12.008C22.2302 11.723 21.7715 11.8826 21.7715 12.2463V15.5187C21.7715 15.6623 21.7956 15.8049 21.8428 15.9405L24.2476 22.8481V14.2472Z" fill="#CDE2FF"/>
<path d="M20.747 27.1862H7.50182C7.38576 27.1862 7.27445 27.1401 7.19238 27.058C7.11031 26.976 7.06421 26.8647 7.06421 26.7486C7.06421 26.6325 7.11031 26.5212 7.19238 26.4391C7.27445 26.3571 7.38576 26.311 7.50182 26.311H20.747C20.8631 26.311 20.9744 26.3571 21.0565 26.4391C21.1385 26.5212 21.1846 26.6325 21.1846 26.7486C21.1846 26.8647 21.1385 26.976 21.0565 27.058C20.9744 27.1401 20.8631 27.1862 20.747 27.1862ZM20.747 24.5605H7.50182C7.38576 24.5605 7.27445 24.5144 7.19238 24.4323C7.11031 24.3502 7.06421 24.2389 7.06421 24.1228C7.06421 24.0068 7.11031 23.8955 7.19238 23.8134C7.27445 23.7313 7.38576 23.6852 7.50182 23.6852H20.747C20.8631 23.6852 20.9744 23.7313 21.0565 23.8134C21.1385 23.8955 21.1846 24.0068 21.1846 24.1228C21.1846 24.2389 21.1385 24.3502 21.0565 24.4323C20.9744 24.5144 20.8631 24.5605 20.747 24.5605ZM20.747 21.9347H7.50182C7.38576 21.9347 7.27445 21.8886 7.19238 21.8065C7.11031 21.7245 7.06421 21.6131 7.06421 21.4971C7.06421 21.381 7.11031 21.2697 7.19238 21.1876C7.27445 21.1056 7.38576 21.0595 7.50182 21.0595H20.747C20.8631 21.0595 20.9744 21.1056 21.0565 21.1876C21.1385 21.2697 21.1846 21.381 21.1846 21.4971C21.1846 21.6131 21.1385 21.7245 21.0565 21.8065C20.9744 21.8886 20.8631 21.9347 20.747 21.9347ZM19.58 19.309H7.50182C7.38576 19.309 7.27445 19.2628 7.19238 19.1808C7.11031 19.0987 7.06421 18.9874 7.06421 18.8713C7.06421 18.7553 7.11031 18.6439 7.19238 18.5619C7.27445 18.4798 7.38576 18.4337 7.50182 18.4337H19.58C19.6961 18.4337 19.8074 18.4798 19.8895 18.5619C19.9716 18.6439 20.0177 18.7553 20.0177 18.8713C20.0177 18.9874 19.9716 19.0987 19.8895 19.1808C19.8074 19.2628 19.6961 19.309 19.58 19.309ZM20.747 16.6832H7.50182C7.38576 16.6832 7.27445 16.6371 7.19238 16.555C7.11031 16.4729 7.06421 16.3616 7.06421 16.2456C7.06421 16.1295 7.11031 16.0182 7.19238 15.9361C7.27445 15.8541 7.38576 15.8079 7.50182 15.8079H20.747C20.8631 15.8079 20.9744 15.8541 21.0565 15.9361C21.1385 16.0182 21.1846 16.1295 21.1846 16.2456C21.1846 16.3616 21.1385 16.4729 21.0565 16.555C20.9744 16.6371 20.8631 16.6832 20.747 16.6832ZM20.747 14.0574H7.50182C7.38576 14.0574 7.27445 14.0113 7.19238 13.9293C7.11031 13.8472 7.06421 13.7359 7.06421 13.6198C7.06421 13.5037 7.11031 13.3924 7.19238 13.3104C7.27445 13.2283 7.38576 13.1822 7.50182 13.1822H20.747C20.8631 13.1822 20.9744 13.2283 21.0565 13.3104C21.1385 13.3924 21.1846 13.5037 21.1846 13.6198C21.1846 13.7359 21.1385 13.8472 21.0565 13.9293C20.9744 14.0113 20.8631 14.0574 20.747 14.0574ZM7.50182 11.4317C7.38576 11.4319 7.27437 11.386 7.19217 11.304C7.10996 11.2221 7.06367 11.1109 7.06348 10.9948C7.06328 10.8787 7.1092 10.7673 7.19114 10.6851C7.27307 10.6029 7.3843 10.5566 7.50036 10.5564L16.1944 10.5273C16.4378 10.5262 16.6326 10.7217 16.6334 10.9634C16.6342 11.2051 16.439 11.4017 16.1973 11.4025L7.50328 11.4317H7.50182ZM18.4408 7.05543H9.80806C9.692 7.05543 9.58069 7.00932 9.49862 6.92725C9.41655 6.84518 9.37045 6.73387 9.37045 6.6178C9.37045 6.50174 9.41655 6.39042 9.49862 6.30835C9.58069 6.22628 9.692 6.18018 9.80806 6.18018H18.4408C18.5569 6.18018 18.6682 6.22628 18.7502 6.30835C18.8323 6.39042 18.8784 6.50174 18.8784 6.6178C18.8784 6.73387 18.8323 6.84518 18.7502 6.92725C18.6682 7.00932 18.5569 7.05543 18.4408 7.05543Z" fill="#7E8B96"/>
<path d="M4.87523 28.499V3C4.39187 3 4 3.39188 4 3.87525V29.3742C4 29.8576 4.39187 30.2495 4.87523 30.2495H23.3718C23.8552 30.2495 24.2471 29.8576 24.2471 29.3742H5.75047C5.26711 29.3742 4.87523 28.9824 4.87523 28.499Z" fill="#CDE2FF"/>
<path d="M23.3308 11.1328L23.0391 12.22L23.3308 13.4897L24.5361 12.654L23.3308 11.1328Z" fill="#7E8B96"/>
<path d="M22.6465 11.3708V13.3116L23.331 13.4894V11.1325C23.1051 10.8475 22.6465 11.0072 22.6465 11.3708Z" fill="#5F6C75"/>
<path d="M24.5367 12.6538L23.3314 13.0694L22.8457 14.4742C22.85 14.6957 23.6217 15.1861 23.6217 15.1861L25.5697 14.0724C25.5224 13.9368 25.4528 13.8101 25.3636 13.6976L24.5367 12.6538Z" fill="#E0BBA4"/>
<path d="M23.4861 14.7976C23.4271 14.6282 23.3353 14.3909 23.331 14.1694V13.0693L22.6465 13.3117V14.6433C22.6465 14.7869 22.6706 14.9295 22.7178 15.0651L23.6213 15.186L23.4861 14.7976Z" fill="#D8AB8C"/>
<path d="M23.4863 14.7975L27.8961 28.645C27.9927 28.9223 28.4395 28.922 29.0749 28.7008C30.0169 28.3728 30.3459 27.7921 30.3459 27.7921L25.5694 14.0723L23.4863 14.7975Z" fill="#FFD064"/>
<path d="M28.1964 28.3003L23.486 14.7974L22.7178 15.0648L27.4942 28.7847C27.6514 29.2361 28.4171 29.3799 29.2045 29.1057C29.9918 28.8316 30.5027 28.2434 30.3456 27.792C30.3456 27.792 30.0742 28.0337 29.4389 28.2549C28.8034 28.4761 28.2929 28.5776 28.1964 28.3003Z" fill="#EBB044"/>
</svg>
