<svg width="24" height="24" viewBox="0 0 24 24" fill="none" xmlns="http://www.w3.org/2000/svg">
<path fill-rule="evenodd" clip-rule="evenodd" d="M11.3216 14.7677C11.3216 14.2133 11.1015 13.682 10.7094 13.2906C10.5155 13.0964 10.2853 12.9424 10.0318 12.8374C9.77834 12.7323 9.50664 12.6783 9.23226 12.6784H4.35715C3.80279 12.6784 3.2714 12.8985 2.88 13.2906C2.68585 13.4844 2.53184 13.7147 2.4268 13.9682C2.32175 14.2216 2.26773 14.4933 2.26782 14.7677V19.6428C2.26782 20.1972 2.4879 20.7286 2.88 21.12C3.07387 21.3141 3.30414 21.4681 3.55761 21.5732C3.81108 21.6782 4.08278 21.7323 4.35715 21.7322H9.23226C9.78663 21.7322 10.318 21.5121 10.7094 21.12C10.9036 20.9261 11.0576 20.6958 11.1626 20.4424C11.2677 20.1889 11.3217 19.9172 11.3216 19.6428V14.7677ZM21.7683 14.7677C21.7683 14.2133 21.5482 13.682 21.1561 13.2906C20.9622 13.0964 20.7319 12.9424 20.4785 12.8374C20.225 12.7323 19.9533 12.6783 19.6789 12.6784H14.8038C14.2494 12.6784 13.7181 12.8985 13.3267 13.2906C13.1325 13.4844 12.9785 13.7147 12.8735 13.9682C12.7684 14.2216 12.7144 14.4933 12.7145 14.7677V19.6428C12.7145 20.1972 12.9346 20.7286 13.3267 21.12C13.5205 21.3141 13.7508 21.4681 14.0043 21.5732C14.2577 21.6782 14.5294 21.7323 14.8038 21.7322H19.6789C20.2333 21.7322 20.7647 21.5121 21.1561 21.12C21.3502 20.9261 21.5042 20.6958 21.6093 20.4424C21.7143 20.1889 21.7684 19.9172 21.7683 19.6428V14.7677ZM18.7185 11.1413L21.6241 8.23577C22.0158 7.84396 22.2358 7.31263 22.2358 6.75861C22.2358 6.2046 22.0158 5.67326 21.6241 5.28145L18.7185 2.37589C18.3267 1.9842 17.7954 1.76416 17.2414 1.76416C16.6874 1.76416 16.156 1.9842 15.7642 2.37589L12.8586 5.28145C12.467 5.67326 12.2469 6.2046 12.2469 6.75861C12.2469 7.31263 12.467 7.84396 12.8586 8.23577L15.7642 11.1413C16.156 11.533 16.6874 11.7531 17.2414 11.7531C17.7954 11.7531 18.3267 11.533 18.7185 11.1413ZM11.3216 4.32106C11.3216 3.76669 11.1015 3.2353 10.7094 2.8439C10.5155 2.64975 10.2853 2.49574 10.0318 2.3907C9.77834 2.28565 9.50664 2.23163 9.23226 2.23172H4.35715C3.80279 2.23172 3.2714 2.4518 2.88 2.8439C2.68585 3.03778 2.53184 3.26804 2.4268 3.52151C2.32175 3.77498 2.26773 4.04668 2.26782 4.32106V9.19617C2.26782 9.75053 2.4879 10.2819 2.88 10.6733C3.07387 10.8675 3.30414 11.0215 3.55761 11.1265C3.81108 11.2316 4.08278 11.2856 4.35715 11.2855H9.23226C9.78663 11.2855 10.318 11.0654 10.7094 10.6733C10.9036 10.4794 11.0576 10.2492 11.1626 9.99571C11.2677 9.74224 11.3217 9.47054 11.3216 9.19617V4.32106Z" fill="white"/>
</svg>
