<svg width="25" height="25" viewBox="0 0 25 25" fill="none" xmlns="http://www.w3.org/2000/svg">
<mask id="path-1-inside-1_176_28" fill="white">
<path fill-rule="evenodd" clip-rule="evenodd" d="M11.7933 15.3833C11.7933 14.8058 11.5641 14.2523 11.1556 13.8446C10.9537 13.6423 10.7138 13.4819 10.4498 13.3725C10.1858 13.2631 9.90274 13.2068 9.61693 13.2069H4.53869C3.96122 13.2069 3.4077 13.4361 2.99999 13.8446C2.79775 14.0465 2.63733 14.2864 2.5279 14.5504C2.41848 14.8144 2.36221 15.0975 2.3623 15.3833V20.4615C2.3623 21.039 2.59155 21.5925 2.99999 22.0002C3.20194 22.2024 3.4418 22.3629 3.70583 22.4723C3.96986 22.5817 4.25288 22.638 4.53869 22.6379H9.61693C10.1944 22.6379 10.7479 22.4086 11.1556 22.0002C11.3579 21.7983 11.5183 21.5584 11.6277 21.2944C11.7371 21.0303 11.7934 20.7473 11.7933 20.4615V15.3833ZM22.6753 15.3833C22.6753 14.8058 22.446 14.2523 22.0376 13.8446C21.8356 13.6423 21.5958 13.4819 21.3317 13.3725C21.0677 13.2631 20.7847 13.2068 20.4989 13.2069H15.4206C14.8432 13.2069 14.2896 13.4361 13.8819 13.8446C13.6797 14.0465 13.5193 14.2864 13.4098 14.5504C13.3004 14.8144 13.2441 15.0975 13.2442 15.3833V20.4615C13.2442 21.039 13.4735 21.5925 13.8819 22.0002C14.0839 22.2024 14.3237 22.3629 14.5878 22.4723C14.8518 22.5817 15.1348 22.638 15.4206 22.6379H20.4989C21.0763 22.6379 21.6299 22.4086 22.0376 22.0002C22.2398 21.7983 22.4002 21.5584 22.5097 21.2944C22.6191 21.0303 22.6754 20.7473 22.6753 20.4615V15.3833ZM10.3424 15.3833V20.4615C10.3427 20.5569 10.3241 20.6513 10.2878 20.7395C10.2514 20.8276 10.198 20.9077 10.1306 20.9751C10.0631 21.0425 9.98304 21.096 9.89489 21.1323C9.80675 21.1687 9.71228 21.1873 9.61693 21.187H4.53869C4.44334 21.1873 4.34888 21.1687 4.26073 21.1323C4.17258 21.096 4.09249 21.0425 4.02507 20.9751C3.95765 20.9077 3.90422 20.8276 3.86787 20.7395C3.83151 20.6513 3.81294 20.5569 3.81323 20.4615V15.3833C3.81294 15.2879 3.83151 15.1934 3.86787 15.1053C3.90422 15.0172 3.95765 14.9371 4.02507 14.8696C4.09249 14.8022 4.17258 14.7488 4.26073 14.7124C4.34888 14.6761 4.44334 14.6575 4.53869 14.6578H9.61693C9.71228 14.6575 9.80675 14.6761 9.89489 14.7124C9.98304 14.7488 10.0631 14.8022 10.1306 14.8696C10.198 14.9371 10.2514 15.0172 10.2878 15.1053C10.3241 15.1934 10.3427 15.2879 10.3424 15.3833ZM21.2243 15.3833V20.4615C21.2246 20.5569 21.2061 20.6513 21.1697 20.7395C21.1333 20.8276 21.0799 20.9077 21.0125 20.9751C20.9451 21.0425 20.865 21.096 20.7768 21.1323C20.6887 21.1687 20.5942 21.1873 20.4989 21.187H15.4206C15.3253 21.1873 15.2308 21.1687 15.1427 21.1323C15.0545 21.096 14.9744 21.0425 14.907 20.9751C14.8396 20.9077 14.7862 20.8276 14.7498 20.7395C14.7135 20.6513 14.6949 20.5569 14.6952 20.4615V15.3833C14.6949 15.2879 14.7135 15.1934 14.7498 15.1053C14.7862 15.0172 14.8396 14.9371 14.907 14.8696C14.9744 14.8022 15.0545 14.7488 15.1427 14.7124C15.2308 14.6761 15.3253 14.6575 15.4206 14.6578H20.4989C20.5942 14.6575 20.6887 14.6761 20.7768 14.7124C20.865 14.7488 20.9451 14.8022 21.0125 14.8696C21.0799 14.9371 21.1333 15.0172 21.1697 15.1053C21.2061 15.1934 21.2246 15.2879 21.2243 15.3833ZM19.4985 11.6058L22.5251 8.57915C22.9331 8.17102 23.1623 7.61754 23.1623 7.04044C23.1623 6.46334 22.9331 5.90987 22.5251 5.50174L19.4985 2.47511C19.0903 2.0671 18.5369 1.83789 17.9598 1.83789C17.3827 1.83789 16.8292 2.0671 16.421 2.47511L13.3944 5.50174C12.9864 5.90987 12.7572 6.46334 12.7572 7.04044C12.7572 7.61754 12.9864 8.17102 13.3944 8.57915L16.421 11.6058C16.8292 12.0138 17.3827 12.243 17.9598 12.243C18.5369 12.243 19.0903 12.0138 19.4985 11.6058ZM11.7933 4.50132C11.7933 3.92386 11.5641 3.37033 11.1556 2.96262C10.9537 2.76038 10.7138 2.59996 10.4498 2.49054C10.1858 2.38111 9.90274 2.32484 9.61693 2.32494H4.53869C3.96122 2.32494 3.4077 2.55418 2.99999 2.96262C2.79775 3.16457 2.63733 3.40443 2.5279 3.66846C2.41848 3.9325 2.36221 4.21552 2.3623 4.50132V9.57956C2.3623 10.157 2.59155 10.7106 2.99999 11.1183C3.20194 11.3205 3.4418 11.4809 3.70583 11.5904C3.96986 11.6998 4.25288 11.756 4.53869 11.756H9.61693C10.1944 11.756 10.7479 11.5267 11.1556 11.1183C11.3579 10.9163 11.5183 10.6765 11.6277 10.4124C11.7371 10.1484 11.7934 9.86537 11.7933 9.57956V4.50132ZM21.4993 7.55335L18.4727 10.58C18.3366 10.716 18.1521 10.7924 17.9598 10.7924C17.7674 10.7924 17.5829 10.716 17.4468 10.58L14.4202 7.55335C14.2842 7.4173 14.2078 7.23281 14.2078 7.04044C14.2078 6.84808 14.2842 6.66359 14.4202 6.52754L17.4468 3.50091C17.5829 3.36491 17.7674 3.28851 17.9598 3.28851C18.1521 3.28851 18.3366 3.36491 18.4727 3.50091L21.4993 6.52754C21.6353 6.66359 21.7117 6.84808 21.7117 7.04044C21.7117 7.23281 21.6353 7.4173 21.4993 7.55335ZM10.3424 4.50132V9.57956C10.3427 9.67491 10.3241 9.76938 10.2878 9.85752C10.2514 9.94567 10.198 10.0258 10.1306 10.0932C10.0631 10.1606 9.98304 10.214 9.89489 10.2504C9.80675 10.2867 9.71228 10.3053 9.61693 10.305H4.53869C4.44334 10.3053 4.34888 10.2867 4.26073 10.2504C4.17258 10.214 4.09249 10.1606 4.02507 10.0932C3.95765 10.0258 3.90422 9.94567 3.86787 9.85752C3.83151 9.76938 3.81294 9.67491 3.81323 9.57956V4.50132C3.81294 4.40598 3.83151 4.31151 3.86787 4.22336C3.90422 4.13522 3.95765 4.05513 4.02507 3.9877C4.09249 3.92028 4.17258 3.86686 4.26073 3.8305C4.34888 3.79414 4.44334 3.77557 4.53869 3.77586H9.61693C9.71228 3.77557 9.80675 3.79414 9.89489 3.8305C9.98304 3.86686 10.0631 3.92028 10.1306 3.9877C10.198 4.05513 10.2514 4.13522 10.2878 4.22336C10.3241 4.31151 10.3427 4.40598 10.3424 4.50132Z"/>
</mask>
<path fill-rule="evenodd" clip-rule="evenodd" d="M11.7933 15.3833C11.7933 14.8058 11.5641 14.2523 11.1556 13.8446C10.9537 13.6423 10.7138 13.4819 10.4498 13.3725C10.1858 13.2631 9.90274 13.2068 9.61693 13.2069H4.53869C3.96122 13.2069 3.4077 13.4361 2.99999 13.8446C2.79775 14.0465 2.63733 14.2864 2.5279 14.5504C2.41848 14.8144 2.36221 15.0975 2.3623 15.3833V20.4615C2.3623 21.039 2.59155 21.5925 2.99999 22.0002C3.20194 22.2024 3.4418 22.3629 3.70583 22.4723C3.96986 22.5817 4.25288 22.638 4.53869 22.6379H9.61693C10.1944 22.6379 10.7479 22.4086 11.1556 22.0002C11.3579 21.7983 11.5183 21.5584 11.6277 21.2944C11.7371 21.0303 11.7934 20.7473 11.7933 20.4615V15.3833ZM22.6753 15.3833C22.6753 14.8058 22.446 14.2523 22.0376 13.8446C21.8356 13.6423 21.5958 13.4819 21.3317 13.3725C21.0677 13.2631 20.7847 13.2068 20.4989 13.2069H15.4206C14.8432 13.2069 14.2896 13.4361 13.8819 13.8446C13.6797 14.0465 13.5193 14.2864 13.4098 14.5504C13.3004 14.8144 13.2441 15.0975 13.2442 15.3833V20.4615C13.2442 21.039 13.4735 21.5925 13.8819 22.0002C14.0839 22.2024 14.3237 22.3629 14.5878 22.4723C14.8518 22.5817 15.1348 22.638 15.4206 22.6379H20.4989C21.0763 22.6379 21.6299 22.4086 22.0376 22.0002C22.2398 21.7983 22.4002 21.5584 22.5097 21.2944C22.6191 21.0303 22.6754 20.7473 22.6753 20.4615V15.3833ZM10.3424 15.3833V20.4615C10.3427 20.5569 10.3241 20.6513 10.2878 20.7395C10.2514 20.8276 10.198 20.9077 10.1306 20.9751C10.0631 21.0425 9.98304 21.096 9.89489 21.1323C9.80675 21.1687 9.71228 21.1873 9.61693 21.187H4.53869C4.44334 21.1873 4.34888 21.1687 4.26073 21.1323C4.17258 21.096 4.09249 21.0425 4.02507 20.9751C3.95765 20.9077 3.90422 20.8276 3.86787 20.7395C3.83151 20.6513 3.81294 20.5569 3.81323 20.4615V15.3833C3.81294 15.2879 3.83151 15.1934 3.86787 15.1053C3.90422 15.0172 3.95765 14.9371 4.02507 14.8696C4.09249 14.8022 4.17258 14.7488 4.26073 14.7124C4.34888 14.6761 4.44334 14.6575 4.53869 14.6578H9.61693C9.71228 14.6575 9.80675 14.6761 9.89489 14.7124C9.98304 14.7488 10.0631 14.8022 10.1306 14.8696C10.198 14.9371 10.2514 15.0172 10.2878 15.1053C10.3241 15.1934 10.3427 15.2879 10.3424 15.3833ZM21.2243 15.3833V20.4615C21.2246 20.5569 21.2061 20.6513 21.1697 20.7395C21.1333 20.8276 21.0799 20.9077 21.0125 20.9751C20.9451 21.0425 20.865 21.096 20.7768 21.1323C20.6887 21.1687 20.5942 21.1873 20.4989 21.187H15.4206C15.3253 21.1873 15.2308 21.1687 15.1427 21.1323C15.0545 21.096 14.9744 21.0425 14.907 20.9751C14.8396 20.9077 14.7862 20.8276 14.7498 20.7395C14.7135 20.6513 14.6949 20.5569 14.6952 20.4615V15.3833C14.6949 15.2879 14.7135 15.1934 14.7498 15.1053C14.7862 15.0172 14.8396 14.9371 14.907 14.8696C14.9744 14.8022 15.0545 14.7488 15.1427 14.7124C15.2308 14.6761 15.3253 14.6575 15.4206 14.6578H20.4989C20.5942 14.6575 20.6887 14.6761 20.7768 14.7124C20.865 14.7488 20.9451 14.8022 21.0125 14.8696C21.0799 14.9371 21.1333 15.0172 21.1697 15.1053C21.2061 15.1934 21.2246 15.2879 21.2243 15.3833ZM19.4985 11.6058L22.5251 8.57915C22.9331 8.17102 23.1623 7.61754 23.1623 7.04044C23.1623 6.46334 22.9331 5.90987 22.5251 5.50174L19.4985 2.47511C19.0903 2.0671 18.5369 1.83789 17.9598 1.83789C17.3827 1.83789 16.8292 2.0671 16.421 2.47511L13.3944 5.50174C12.9864 5.90987 12.7572 6.46334 12.7572 7.04044C12.7572 7.61754 12.9864 8.17102 13.3944 8.57915L16.421 11.6058C16.8292 12.0138 17.3827 12.243 17.9598 12.243C18.5369 12.243 19.0903 12.0138 19.4985 11.6058ZM11.7933 4.50132C11.7933 3.92386 11.5641 3.37033 11.1556 2.96262C10.9537 2.76038 10.7138 2.59996 10.4498 2.49054C10.1858 2.38111 9.90274 2.32484 9.61693 2.32494H4.53869C3.96122 2.32494 3.4077 2.55418 2.99999 2.96262C2.79775 3.16457 2.63733 3.40443 2.5279 3.66846C2.41848 3.9325 2.36221 4.21552 2.3623 4.50132V9.57956C2.3623 10.157 2.59155 10.7106 2.99999 11.1183C3.20194 11.3205 3.4418 11.4809 3.70583 11.5904C3.96986 11.6998 4.25288 11.756 4.53869 11.756H9.61693C10.1944 11.756 10.7479 11.5267 11.1556 11.1183C11.3579 10.9163 11.5183 10.6765 11.6277 10.4124C11.7371 10.1484 11.7934 9.86537 11.7933 9.57956V4.50132ZM21.4993 7.55335L18.4727 10.58C18.3366 10.716 18.1521 10.7924 17.9598 10.7924C17.7674 10.7924 17.5829 10.716 17.4468 10.58L14.4202 7.55335C14.2842 7.4173 14.2078 7.23281 14.2078 7.04044C14.2078 6.84808 14.2842 6.66359 14.4202 6.52754L17.4468 3.50091C17.5829 3.36491 17.7674 3.28851 17.9598 3.28851C18.1521 3.28851 18.3366 3.36491 18.4727 3.50091L21.4993 6.52754C21.6353 6.66359 21.7117 6.84808 21.7117 7.04044C21.7117 7.23281 21.6353 7.4173 21.4993 7.55335ZM10.3424 4.50132V9.57956C10.3427 9.67491 10.3241 9.76938 10.2878 9.85752C10.2514 9.94567 10.198 10.0258 10.1306 10.0932C10.0631 10.1606 9.98304 10.214 9.89489 10.2504C9.80675 10.2867 9.71228 10.3053 9.61693 10.305H4.53869C4.44334 10.3053 4.34888 10.2867 4.26073 10.2504C4.17258 10.214 4.09249 10.1606 4.02507 10.0932C3.95765 10.0258 3.90422 9.94567 3.86787 9.85752C3.83151 9.76938 3.81294 9.67491 3.81323 9.57956V4.50132C3.81294 4.40598 3.83151 4.31151 3.86787 4.22336C3.90422 4.13522 3.95765 4.05513 4.02507 3.9877C4.09249 3.92028 4.17258 3.86686 4.26073 3.8305C4.34888 3.79414 4.44334 3.77557 4.53869 3.77586H9.61693C9.71228 3.77557 9.80675 3.79414 9.89489 3.8305C9.98304 3.86686 10.0631 3.92028 10.1306 3.9877C10.198 4.05513 10.2514 4.13522 10.2878 4.22336C10.3241 4.31151 10.3427 4.40598 10.3424 4.50132Z" fill="#242424" stroke="#242424" stroke-width="0.4" mask="url(#path-1-inside-1_176_28)"/>
</svg>
