<svg width="35" height="35" viewBox="0 0 35 35" fill="none" xmlns="http://www.w3.org/2000/svg">
<path d="M32.9922 5.00037H14.1311C13.864 5.00047 13.6079 5.1066 13.4191 5.29544C13.2303 5.48428 13.1241 5.74038 13.124 6.00744V18.7018C13.124 18.9689 13.2301 19.2251 13.419 19.414C13.6078 19.6029 13.864 19.7091 14.1311 19.7092H32.9922C33.2593 19.7092 33.5155 19.6031 33.7044 19.4143C33.8933 19.2254 33.9995 18.9693 33.9996 18.7021V6.00744C33.9996 5.74025 33.8935 5.48401 33.7045 5.29507C33.5156 5.10614 33.2594 5.00037 32.9922 5.00037Z" fill="#44C4A1"/>
<path d="M15.4785 9.62549H31.6459V10.3105H15.4785V9.62549ZM15.4785 12.0122H31.6459V12.6973H15.4785V12.0122ZM15.4785 14.399H31.6459V15.0836H15.4785V14.399Z" fill="#3EA69B"/>
<path d="M25.9181 7.20744C25.9457 7.1484 25.9488 7.0808 25.9266 7.0195C25.9044 6.95821 25.8587 6.90824 25.7997 6.88061C25.7406 6.85297 25.673 6.84992 25.6117 6.87212C25.5504 6.89433 25.5005 6.93998 25.4728 6.99902L20.4883 17.5667L21.0918 17.8492L25.9181 7.20744Z" fill="#2F4859"/>
<path d="M20.8041 15.0622C20.7328 15.0253 20.6498 15.0182 20.5732 15.0426C20.4967 15.0669 20.433 15.1207 20.3961 15.192C20.3593 15.2633 20.3522 15.3464 20.3766 15.4229C20.4009 15.4994 20.4547 15.5631 20.526 15.6L22.1702 16.4521L22.4487 15.9143L20.8041 15.0622Z" fill="#F7BE56"/>
<path d="M20.5254 15.5999C20.4541 15.5629 20.371 15.5558 20.2944 15.5801C20.2178 15.6044 20.154 15.6581 20.117 15.7294C20.08 15.8007 20.0729 15.8838 20.0972 15.9604C20.1215 16.037 20.1752 16.1008 20.2465 16.1378L21.891 16.9895L22.1696 16.4517L20.5254 15.5999Z" fill="#F7BE56"/>
<path d="M20.2466 16.1379C20.1754 16.101 20.0923 16.0939 20.0158 16.1182C19.9393 16.1425 19.8756 16.1961 19.8386 16.2674C19.8017 16.3387 19.7946 16.4217 19.8189 16.4982C19.8432 16.5748 19.8968 16.6385 19.9681 16.6754L21.6127 17.5276L21.8912 16.9897L20.2466 16.1379Z" fill="#F7BE56"/>
<path d="M19.9685 16.6755C19.8971 16.6386 19.8141 16.6315 19.7375 16.6558C19.661 16.6801 19.5972 16.7339 19.5603 16.8052C19.5234 16.8765 19.5163 16.9596 19.5406 17.0361C19.5649 17.1127 19.6186 17.1764 19.69 17.2134L21.3345 18.0651L21.613 17.5273L19.9685 16.6755Z" fill="#F7BE56"/>
<path d="M22.4483 15.9141C22.6921 16.301 21.5183 18.9574 21.1985 19.2846L20.5695 20.1139L18.86 19.7166L20.2235 17.3531L22.4483 15.9141ZM10.1182 20.8731L8.44748 21.4751L6.77637 20.8731V16.3272H10.1182V20.8731Z" fill="#F7BE56"/>
<path d="M13.1245 21.2693L11.1122 20.3323L11.1074 20.3305L10.1184 19.8701C9.2448 20.8746 7.67735 20.8517 6.83368 19.8222L6.77687 19.7528L6.49835 19.9317V19.931L6.77687 19.7528L3.78584 21.2619C3.45079 21.4453 3.1488 21.6835 2.89237 21.9665C2.31796 22.5988 1.9998 23.4224 2 24.2765V29.5598H13.1245V21.2693Z" fill="#D5D6DB"/>
<path d="M11.2529 16.2461L11.1474 13.3393L10.7778 12.4023L8.61936 11.8589L6.46057 12.4023L6.0913 13.3393L5.9858 16.2461C5.9858 16.2461 5.86258 16.9525 6.14442 17.4686C6.42552 17.9851 6.68929 18.2204 7.05855 18.5642C7.42819 18.9084 7.91071 19.015 8.61899 19.0364C9.32765 19.015 9.81054 18.9084 10.1798 18.5642C10.5494 18.2204 10.8132 17.9851 11.0947 17.4686C11.3761 16.9525 11.2529 16.2461 11.2529 16.2461Z" fill="#FCD462"/>
<path d="M10.4517 12.809C10.4517 12.809 9.15539 13.3579 8.29881 13.5117C8.29881 13.5117 8.62824 13.2701 8.60647 13.0727C8.60647 13.0727 8.14535 13.2701 6.84904 13.8411C5.55273 14.4122 6.27799 16.6967 6.27799 16.6967C6.27799 16.6967 6.60741 18.0623 6.82728 18.3479C6.82728 18.3479 6.87117 18.5858 6.80514 19.1568C6.73948 19.7279 6.45395 20.2989 5.79473 20.3211C5.15838 20.3421 4.64487 20.5889 4.01664 19.992C3.97182 19.9484 3.93333 19.8987 3.90228 19.8445L3.57617 19.2885C3.57617 19.2885 4.38886 19.4424 5.04808 18.9813C5.04808 18.9813 5.57523 18.4759 5.53133 18.0148C5.53133 18.0148 5.48707 18.4759 5.09198 18.6076C5.09198 18.6076 5.5531 17.9266 5.35537 16.8066C5.15764 15.6863 5.06984 15.4447 5.06984 15.4447C5.06984 15.4447 4.89425 16.5429 5.02594 16.8944C5.02594 16.8944 4.74042 16.2135 4.85035 14.6538C4.96028 13.0941 5.79473 10.3927 7.79379 9.95336C9.79285 9.51401 9.99021 10.261 9.99021 10.261C9.99021 10.261 10.078 9.7999 10.4513 10.261C10.825 10.7221 11.2644 11.6444 11.6156 13.2922C11.9668 14.94 12.2088 15.8671 12.187 16.9848C12.1649 18.1026 12.2748 18.8492 11.8133 19.5302C11.5687 19.8917 11.1958 20.1322 10.8995 20.279C10.5277 20.4627 10.0872 20.4826 9.71649 20.2956C9.53647 20.2049 9.37046 20.0651 9.28635 19.8496C9.28635 19.8496 10.7723 19.9057 10.1385 18.6009C10.0942 18.5105 11.1427 17.2836 10.9567 15.102C10.8608 13.9769 10.4513 12.809 10.4513 12.809H10.4517Z" fill="#3A556A"/>
<path d="M21.386 18.9063L19.7728 18.0604C19.7051 18.0249 19.6267 18.0156 19.5526 18.0344C19.4785 18.0532 19.414 18.0987 19.3714 18.1622L15.8348 23.4447L13.1086 21.2616L11.9717 25.4567L14.89 27.161C15.1187 27.2976 15.3743 27.383 15.6392 27.4113C15.9041 27.4397 16.172 27.4102 16.4244 27.3249C16.6767 27.2397 16.9076 27.1007 17.1011 26.9176C17.2946 26.7344 17.446 26.5115 17.545 26.2642L21.5107 19.3342C21.5313 19.2981 21.5444 19.2582 21.5493 19.2169C21.5542 19.1756 21.5507 19.1337 21.5391 19.0938C21.5275 19.0538 21.5079 19.0166 21.4816 18.9844C21.4553 18.9522 21.4228 18.9256 21.386 18.9063Z" fill="#D5D6DB"/>
<path d="M4.83691 29.5597V25.7583L5.47511 29.5597H4.83691ZM13.1239 26.1298L12.7697 25.9232L13.1239 28.5077V26.1298Z" fill="#B1B1B2"/>
</svg>
