<svg width="35" height="35" viewBox="0 0 35 35" fill="none" xmlns="http://www.w3.org/2000/svg">
<path d="M33 17.0904C33 8.85436 26.3234 2.17773 18.0874 2.17773C9.85139 2.17773 3.1748 8.85436 3.1748 17.0904C3.1748 25.3264 9.85139 32.0031 18.0874 32.0031C26.3234 32.0031 33 25.3264 33 17.0904Z" fill="url(#paint0_radial_441_770)"/>
<path d="M29.3108 7.27919C27.1367 11.2703 24.062 15.387 20.2201 19.2289C16.3781 23.0709 12.2615 26.1398 8.27626 28.3139C8.02641 28.0968 7.78375 27.8704 7.54829 27.635C6.12504 26.2592 4.98992 24.6139 4.20912 22.7949C3.42833 20.9759 3.01748 19.0197 3.00055 17.0403C2.98361 15.0609 3.36092 13.0979 4.11047 11.2658C4.86002 9.43372 5.96682 7.7692 7.36632 6.36929C8.76583 4.96939 10.43 3.86212 12.2619 3.11205C14.0938 2.36198 16.0566 1.98413 18.036 2.00051C20.0154 2.0169 21.9718 2.4272 23.791 3.20749C25.6101 3.98778 27.2558 5.12245 28.6319 6.54533C28.8674 6.78079 29.0937 7.02541 29.3108 7.27919Z" fill="white" fill-opacity="0.0627451"/>
<path d="M16.2111 18.105H14.2607C13.9526 18.105 13.8447 17.9932 13.8447 17.6851V15.305C13.8447 14.9989 13.9605 14.8831 14.2627 14.8831H16.2111V13.1662C16.188 12.395 16.373 11.6318 16.7468 10.9568C17.1353 10.2753 17.7579 9.75798 18.499 9.50082C18.98 9.32582 19.4883 9.23811 20.0001 9.24181H21.9289C22.2056 9.24181 22.3214 9.36347 22.3214 9.63425V11.8731C22.3214 12.1537 22.2036 12.2656 21.9289 12.2656C21.4011 12.2656 20.8733 12.2656 20.3474 12.2871C19.8215 12.3087 19.5351 12.5481 19.5351 13.0975C19.5233 13.6862 19.5351 14.2631 19.5351 14.8635H21.8014C22.1232 14.8635 22.2331 14.9734 22.2331 15.2971V17.6635C22.2331 17.9834 22.131 18.0854 21.8073 18.0854H19.5233V24.4704C19.5233 24.8118 19.4154 24.9197 19.0798 24.9197H16.6232C16.3269 24.9197 16.2111 24.804 16.2111 24.5077V18.105Z" fill="white"/>
<defs>
<radialGradient id="paint0_radial_441_770" cx="0" cy="0" r="1" gradientUnits="userSpaceOnUse" gradientTransform="translate(18.0874 17.0904) scale(14.9126 14.9127)">
<stop stop-color="#42A5F5"/>
<stop offset="1" stop-color="#1565C0"/>
</radialGradient>
</defs>
</svg>
