<svg width="35" height="35" viewBox="0 0 35 35" fill="none" xmlns="http://www.w3.org/2000/svg">
<path d="M29.1813 15.9489H6.13873C4.95754 15.9489 4 14.9913 4 13.8101V5.13873C3.99994 3.95754 4.95754 3 6.13873 3H29.1813C30.3625 3 31.3201 3.95754 31.3201 5.13873V13.8101C31.3201 14.9913 30.3625 15.9489 29.1813 15.9489Z" fill="#7FE9FF"/>
<path d="M8.49737 15.9492H6.13897C4.95742 15.9492 4 14.9918 4 13.8102V5.13921C4 3.95767 4.95742 3.00024 6.13897 3.00024H8.49743C7.31653 3.00024 6.3591 3.95767 6.3591 5.13921V13.8102C6.35905 14.9918 7.31653 15.9492 8.49737 15.9492Z" fill="#00DEFF"/>
<path d="M10.3388 5.54197C10.2936 5.42399 10.2136 5.32254 10.1094 5.25108C10.0052 5.17962 9.88174 5.14152 9.7554 5.14184C9.63113 5.14151 9.5096 5.17835 9.40642 5.24763C9.30325 5.3169 9.22316 5.41545 9.17643 5.53061C9.17503 5.53395 9.17374 5.53734 9.17245 5.54074L6.30879 13.0603C6.26704 13.1723 6.27127 13.2963 6.32055 13.4051C6.36983 13.514 6.46017 13.599 6.57186 13.6415C6.68355 13.6841 6.80753 13.6807 6.91675 13.6322C7.02597 13.5837 7.11157 13.4939 7.15489 13.3825L7.75706 11.8013H11.7335L12.0293 12.5849C12.0503 12.6406 12.082 12.6915 12.1227 12.7349C12.1634 12.7783 12.2122 12.8132 12.2664 12.8377C12.3206 12.8622 12.379 12.8757 12.4385 12.8776C12.4979 12.8795 12.5571 12.8696 12.6127 12.8486C12.6683 12.8276 12.7193 12.7959 12.7626 12.7552C12.806 12.7145 12.8409 12.6657 12.8654 12.6115C12.8899 12.5573 12.9035 12.4989 12.9053 12.4395C12.9072 12.38 12.8974 12.3208 12.8764 12.2652L10.3388 5.54197ZM8.10194 10.8958L9.75423 6.55711L11.3918 10.8958H8.10194ZM19.236 8.93373C19.6503 8.53219 19.9086 7.97051 19.9086 7.34936C19.9086 6.13207 18.9182 5.14172 17.7009 5.14172H15.4855C15.4261 5.14171 15.3672 5.15342 15.3123 5.17616C15.2573 5.19891 15.2074 5.23226 15.1654 5.27429C15.1234 5.31633 15.09 5.36624 15.0673 5.42117C15.0445 5.47609 15.0328 5.53496 15.0328 5.59441L15.0331 13.2114C15.0331 13.3314 15.0808 13.4466 15.1657 13.5315C15.2505 13.6164 15.3657 13.6641 15.4858 13.6641H18.088C19.4692 13.6641 20.593 12.5403 20.593 11.159C20.593 10.1915 20.0411 9.35086 19.236 8.93373ZM17.7008 6.04717C18.419 6.04717 19.0031 6.63135 19.0031 7.34936C19.0031 8.06742 18.4189 8.6516 17.7008 8.6516C17.5219 8.6516 15.9382 8.65407 15.9382 8.65407V6.04717H17.7008ZM18.0879 12.7587H15.9385V9.56286C16.1819 9.56186 18.0879 9.55952 18.0879 9.55952C18.9699 9.55952 19.6875 10.2771 19.6875 11.1591C19.6875 12.0411 18.9699 12.7587 18.0879 12.7587ZM28.5164 11.7978C28.4244 11.7207 28.3055 11.6832 28.1859 11.6938C28.0663 11.7043 27.9557 11.7618 27.8786 11.8538C27.7974 11.9508 27.7093 12.0417 27.6149 12.1259C27.1361 12.5523 26.5333 12.7685 25.823 12.7685C23.97 12.7685 22.4624 11.2609 22.4624 9.40776C22.4624 7.55461 23.97 6.04705 25.823 6.04705C26.4966 6.04705 27.1462 6.24545 27.7017 6.62074C27.8013 6.68508 27.922 6.70785 28.0382 6.68414C28.1543 6.66043 28.2565 6.59215 28.3228 6.49395C28.3891 6.39575 28.4143 6.27545 28.393 6.15888C28.3716 6.04231 28.3054 5.93876 28.2086 5.87045C27.5028 5.39361 26.6779 5.1416 25.823 5.1416C23.4707 5.1416 21.557 7.05533 21.557 9.4077C21.557 11.7601 23.4707 13.6738 25.823 13.6738C26.7488 13.6738 27.5766 13.3723 28.2171 12.8019C28.3442 12.6885 28.4629 12.566 28.5723 12.4354C28.6105 12.3899 28.6394 12.3373 28.6573 12.2806C28.6751 12.2239 28.6816 12.1642 28.6764 12.105C28.6712 12.0458 28.6544 11.9882 28.627 11.9355C28.5995 11.8828 28.5619 11.836 28.5164 11.7978Z" fill="#FAF7F7"/>
<path d="M27.5104 32.3397C26.5707 33.2794 25.0263 33.2066 24.1792 32.1826L18.5029 25.3209L20.4916 23.3323L27.3533 29.0086C28.3772 29.8556 28.45 31.4001 27.5104 32.3397Z" fill="#7A6D79"/>
<path d="M27.5101 32.339C26.5703 33.2788 25.026 33.2061 24.1794 32.1824L18.5029 25.3204L19.2382 24.5852L25.3532 31.0086C26.2654 31.9667 27.2656 32.5835 27.5101 32.339Z" fill="#685E68"/>
<path d="M15.0883 27.8583C19.4739 27.8583 23.0292 24.303 23.0292 19.9174C23.0292 15.5318 19.4739 11.9766 15.0883 11.9766C10.7027 11.9766 7.14746 15.5318 7.14746 19.9174C7.14746 24.303 10.7027 27.8583 15.0883 27.8583Z" fill="#FFD15B"/>
<path d="M15.7713 27.829C15.5461 27.8483 15.3184 27.8582 15.0882 27.8582C10.7029 27.8582 7.14746 24.3028 7.14746 19.9175C7.14746 15.5315 10.7029 11.9761 15.0882 11.9761C15.3184 11.9761 15.5461 11.986 15.7713 12.0053C11.7057 12.3511 8.51299 15.7616 8.51299 19.9174C8.51299 24.0726 11.7057 27.483 15.7713 27.829Z" fill="#FFC344"/>
<path d="M15.0882 25.4149C18.1243 25.4149 20.5856 22.9537 20.5856 19.9176C20.5856 16.8814 18.1243 14.4202 15.0882 14.4202C12.0521 14.4202 9.59082 16.8814 9.59082 19.9176C9.59082 22.9537 12.0521 25.4149 15.0882 25.4149Z" fill="#C8EFFE"/>
<path d="M16.4951 25.233C16.0361 25.3539 15.5635 25.4149 15.0889 25.4146C12.0525 25.4146 9.59082 22.9537 9.59082 19.9174C9.59082 16.881 12.0525 14.4202 15.0889 14.4202C15.5747 14.4202 16.0457 14.4832 16.4951 14.6017C14.1395 15.2228 12.4033 17.3669 12.4033 19.9174C12.4033 22.4678 14.1395 24.612 16.4951 25.233Z" fill="#99E6FC"/>
<path d="M15.0888 25.8675C11.8079 25.8675 9.13867 23.1983 9.13867 19.9174C9.13867 16.6365 11.8079 13.9673 15.0888 13.9673C18.3697 13.9673 21.0388 16.6365 21.0388 19.9174C21.0388 23.1983 18.3697 25.8675 15.0888 25.8675ZM15.0888 14.8727C12.3071 14.8727 10.0441 17.1357 10.0441 19.9174C10.0441 22.699 12.3071 24.9621 15.0888 24.9621C17.8704 24.9621 20.1334 22.6991 20.1334 19.9174C20.1334 17.1357 17.8704 14.8727 15.0888 14.8727Z" fill="#FFC344"/>
<path d="M14.7965 22.6757C14.7297 22.6757 14.6637 22.6609 14.6033 22.6324C14.5429 22.6039 14.4896 22.5624 14.4471 22.5108L12.5782 20.2414C12.5041 20.1485 12.4696 20.0302 12.482 19.912C12.4943 19.7939 12.5527 19.6853 12.6444 19.6098C12.7361 19.5342 12.8538 19.4978 12.9722 19.5082C13.0905 19.5187 13.2 19.5753 13.277 19.6658L14.7032 21.3975L16.7285 17.3482C16.7835 17.243 16.8776 17.1637 16.9905 17.1272C17.1034 17.0907 17.2262 17.1 17.3323 17.1531C17.4385 17.2061 17.5195 17.2988 17.558 17.411C17.5966 17.5233 17.5895 17.6462 17.5383 17.7532L15.2014 22.4256C15.1638 22.5007 15.106 22.564 15.0345 22.6082C14.963 22.6523 14.8806 22.6757 14.7965 22.6757Z" fill="#FE646F"/>
</svg>
