<svg width="35" height="35" viewBox="0 0 35 35" fill="none" xmlns="http://www.w3.org/2000/svg">
<g clip-path="url(#clip0_441_694)">
<path d="M5.51679 15.9142C5.44512 15.9143 5.37418 15.8997 5.30831 15.8715C5.24244 15.8432 5.18303 15.8018 5.1337 15.7498C5.08595 15.6996 5.04857 15.6405 5.0237 15.5758C4.99882 15.5111 4.98694 15.4422 4.98874 15.3729C4.99054 15.3037 5.00598 15.2354 5.03417 15.1721C5.06236 15.1088 5.10276 15.0517 5.15305 15.004L15.6691 5.02979C15.7707 4.93342 15.9064 4.88133 16.0464 4.88494C16.1864 4.88856 16.3193 4.94758 16.4158 5.04906C16.4636 5.09928 16.5009 5.15841 16.5258 5.22309C16.5507 5.28776 16.5626 5.35671 16.5608 5.42598C16.559 5.49524 16.5435 5.56348 16.5153 5.62678C16.4871 5.69008 16.4467 5.74719 16.3965 5.79486L5.88039 15.7691C5.78232 15.8624 5.65212 15.9143 5.51679 15.9142ZM29.8464 16.2226C29.711 16.2228 29.5808 16.1709 29.4828 16.0776L18.6029 5.79493C18.5526 5.74726 18.5122 5.69014 18.484 5.62685C18.4558 5.56355 18.4404 5.49531 18.4386 5.42604C18.4368 5.35677 18.4487 5.28783 18.4735 5.22316C18.4984 5.15848 18.5358 5.09935 18.5835 5.04913C18.68 4.94762 18.8129 4.88857 18.9529 4.88495C19.0929 4.88134 19.2286 4.93346 19.3302 5.02985L30.2101 15.3125C30.2604 15.3602 30.3008 15.4173 30.329 15.4806C30.3572 15.5439 30.3726 15.6122 30.3744 15.6814C30.3762 15.7507 30.3643 15.8196 30.3395 15.8843C30.3146 15.949 30.2772 16.0081 30.2295 16.0583C30.1801 16.1103 30.1207 16.1517 30.0548 16.1799C29.989 16.2082 29.918 16.2227 29.8464 16.2226ZM16.3965 5.79493L4.98851 16.5259C4.89043 16.6191 4.76023 16.671 4.6249 16.6708C4.55323 16.6709 4.48229 16.6564 4.41642 16.6282C4.35056 16.5999 4.29114 16.5585 4.24182 16.5065C4.19407 16.4563 4.15669 16.3972 4.13181 16.3325C4.10694 16.2678 4.09506 16.1989 4.09686 16.1296C4.09865 16.0603 4.11409 15.9921 4.14228 15.9288C4.17048 15.8655 4.21087 15.8084 4.26116 15.7607L15.6691 5.02979" fill="#9D9696"/>
<path fill-rule="evenodd" clip-rule="evenodd" d="M35 17.2468V31.6537C35 32.6765 34.162 33.5136 33.1387 33.5136H1.86129C1.13593 33.5136 0.503535 33.0936 0.195781 32.4845C0.0670646 32.2265 4.28833e-05 31.9421 0 31.6537L0 17.2468C0 16.9492 0.0710938 16.6657 0.195781 16.4153C0.503535 15.8062 1.13593 15.3862 1.86129 15.3862H33.1388C34.162 15.3862 35 16.224 35 17.2468Z" fill="#FECE85"/>
<path fill-rule="evenodd" clip-rule="evenodd" d="M3.92299 18.1856C3.29299 18.1856 2.78125 18.6969 2.78125 19.3264C2.78125 19.9579 3.29299 20.4693 3.92299 20.4693C4.55504 20.4693 5.06473 19.958 5.06473 19.3264C5.06466 18.6969 4.55497 18.1856 3.92299 18.1856ZM30.1623 19.1716C30.1623 19.8011 30.6719 20.3125 31.304 20.3125C31.934 20.3125 32.4457 19.8011 32.4457 19.1716C32.4457 18.5401 31.934 18.0308 31.304 18.0308C30.6719 18.0308 30.1623 18.5401 30.1623 19.1716Z" fill="#9D9696"/>
<path fill-rule="evenodd" clip-rule="evenodd" d="M31.3448 23.8901V31.6539C31.3448 32.6765 30.5069 33.5138 29.4834 33.5138H33.139C33.559 33.5138 33.9464 33.3733 34.2604 33.137C34.7089 32.7968 35.0004 32.2569 35.0004 31.6539V17.2467C35.0004 16.6437 34.7089 16.1038 34.2604 15.7636C33.9464 15.5273 33.559 15.3867 33.139 15.3867H29.4834C30.4763 15.3867 31.2918 16.1711 31.3428 17.1509C31.3448 17.1774 31.3448 17.206 31.3448 17.2324V18.0311C31.9564 18.0535 32.4458 18.5546 32.4458 19.1719C32.4458 19.7871 31.9564 20.2903 31.3448 20.3107V23.2015V23.8901Z" fill="#FDB440"/>
<path d="M3.40833 24.8465V26.1402C3.40833 26.2711 3.36397 26.3818 3.27537 26.4723C3.18671 26.5626 3.07692 26.608 2.94595 26.608C2.8149 26.608 2.7032 26.5627 2.61071 26.4723C2.51822 26.3819 2.47201 26.2712 2.47201 26.1402V22.8192C2.47201 22.696 2.51918 22.5853 2.61358 22.4871C2.70799 22.389 2.8188 22.3399 2.94595 22.3399C3.0731 22.3399 3.18192 22.3871 3.2725 22.4814C3.36301 22.5758 3.40833 22.6884 3.40833 22.8192V23.9975H5.17699V22.8192C5.17699 22.696 5.22416 22.5853 5.31863 22.4871C5.41297 22.389 5.5218 22.3399 5.64519 22.3399C5.77233 22.3399 5.88219 22.3861 5.97461 22.4785C6.0671 22.5709 6.11331 22.6846 6.11331 22.8192V26.1402C6.11331 26.2634 6.06799 26.3722 5.97748 26.4665C5.8869 26.5608 5.77609 26.608 5.64512 26.608C5.51407 26.608 5.40326 26.5626 5.31275 26.4722C5.22218 26.3818 5.17692 26.2711 5.17692 26.1401V24.8465H3.40833ZM7.21396 24.4595C7.21396 23.8319 7.40469 23.3169 7.7862 22.9146C8.16765 22.5122 8.65696 22.311 9.25429 22.311C9.84382 22.311 10.3294 22.5141 10.7108 22.9203C11.0923 23.3266 11.2831 23.8435 11.2831 24.4711C11.2831 25.091 11.0923 25.606 10.7108 26.016C10.3294 26.426 9.84184 26.6311 9.24848 26.6311C8.65895 26.6311 8.17243 26.428 7.789 26.0218C7.40558 25.6156 7.21396 25.0948 7.21396 24.4595ZM9.24848 23.1542C8.94011 23.1542 8.68684 23.2746 8.48839 23.5152C8.28987 23.7559 8.19068 24.0726 8.19068 24.4653C8.19068 24.8696 8.28693 25.193 8.47971 25.4355C8.67234 25.6781 8.92855 25.7994 9.24841 25.7994C9.5643 25.7994 9.81962 25.6772 10.0142 25.4327C10.2088 25.1883 10.3061 24.8696 10.3061 24.4769C10.3061 24.0804 10.2097 23.7607 10.0171 23.5181C9.82447 23.2755 9.56826 23.1542 9.24848 23.1542ZM13.2599 25.7012H14.3002C14.4158 25.7012 14.5179 25.7417 14.6066 25.8226C14.645 25.861 14.6763 25.906 14.699 25.9553C14.7222 26.0054 14.7338 26.0613 14.7338 26.1228C14.7338 26.2384 14.6913 26.3385 14.6066 26.4231C14.5681 26.4616 14.5231 26.4929 14.4737 26.5156C14.4236 26.5387 14.3676 26.5502 14.306 26.5502H12.7917C12.6645 26.5502 12.5537 26.5011 12.4593 26.4029C12.3648 26.3047 12.3177 26.1902 12.3177 26.0592V22.8076C12.3177 22.6806 12.364 22.5708 12.4564 22.4784C12.5489 22.386 12.6587 22.3398 12.7859 22.3398C12.9091 22.3398 13.019 22.386 13.1153 22.4784C13.2115 22.5709 13.2598 22.6806 13.2598 22.8076V25.7012H13.2599ZM16.537 26.1402C16.537 26.2672 16.4916 26.3761 16.4011 26.4665C16.3105 26.5568 16.1997 26.6022 16.0688 26.6022C15.9377 26.6022 15.8269 26.5569 15.7364 26.4665C15.6458 26.3761 15.6006 26.2654 15.6006 26.1344V22.8192C15.6006 22.696 15.6477 22.5853 15.7421 22.4871C15.8365 22.389 15.9473 22.3399 16.0745 22.3399C16.2017 22.3399 16.3105 22.3871 16.4011 22.4814C16.4916 22.5758 16.5369 22.6884 16.5369 22.8192V26.1402H16.537ZM18.2263 26.5502C18.0876 26.5502 17.97 26.5079 17.8738 26.4231C17.7851 26.3347 17.7408 26.2211 17.7408 26.0824V22.8654C17.7408 22.7422 17.787 22.6325 17.8795 22.5363C17.972 22.44 18.0856 22.3919 18.2205 22.3919H19.1858C19.7291 22.3919 20.1722 22.5171 20.5152 22.7673C20.7618 22.9484 20.9534 23.188 21.0903 23.4863C21.227 23.7847 21.2955 24.1092 21.2955 24.4595C21.2955 25.1371 21.07 25.682 20.6192 26.094C20.28 26.3982 19.8292 26.5503 19.2667 26.5503H18.2263V26.5502ZM18.6772 23.2409V25.707H19.2321C19.5635 25.707 19.8293 25.5934 20.0298 25.3663C20.2301 25.1391 20.3304 24.8369 20.3304 24.4595C20.3304 24.0861 20.2272 23.7895 20.0211 23.5701C19.8149 23.3506 19.5346 23.2409 19.1801 23.2409H18.6772V23.2409ZM23.0653 25.7648L22.9092 26.2904C22.8437 26.506 22.6934 26.6138 22.4584 26.6138C22.3273 26.6138 22.2175 26.5695 22.129 26.481C22.0403 26.3924 21.996 26.2846 21.996 26.1575C21.996 26.0729 22.0095 25.9958 22.0365 25.9266L23.1867 22.854C23.3138 22.5074 23.5411 22.3342 23.8687 22.3342C24.1924 22.3342 24.4178 22.5074 24.545 22.854L25.6778 25.9324C25.7087 26.0171 25.7241 26.1096 25.7241 26.2096C25.7241 26.3098 25.6778 26.4041 25.5854 26.4926C25.4967 26.5696 25.3889 26.6081 25.2617 26.6081C25.0497 26.6081 24.9071 26.5022 24.834 26.2904L24.6664 25.7648H23.0653V25.7648ZM23.8686 23.3044L23.3311 24.9215L24.3831 24.9273L23.8686 23.3044ZM27.0091 24.5981L25.9109 23.0907C25.8416 22.9983 25.8069 22.904 25.8069 22.8077C25.8069 22.6845 25.8532 22.5767 25.9456 22.4843C26.0381 22.3918 26.1537 22.3456 26.2924 22.3456C26.458 22.3456 26.5852 22.413 26.6739 22.5478L27.4831 23.7086L28.2981 22.5478C28.3906 22.413 28.5178 22.3456 28.6796 22.3456C28.8028 22.3456 28.9126 22.3909 29.009 22.4814C29.1052 22.5719 29.1535 22.6807 29.1535 22.8077C29.1542 22.9095 29.1217 23.0089 29.061 23.0907L27.9513 24.5981V26.1228C27.9513 26.2499 27.9059 26.3616 27.8154 26.4579C27.7249 26.554 27.614 26.6022 27.4831 26.6022C27.3597 26.6022 27.2499 26.556 27.1536 26.4636C27.0573 26.3712 27.0091 26.2576 27.0091 26.1228V24.5981ZM29.9011 25.9611V25.9322C29.9011 25.8052 29.9396 25.6993 30.0167 25.6146C30.0937 25.5299 30.19 25.4875 30.3056 25.4875C30.375 25.4875 30.5117 25.5241 30.7161 25.5973C30.9626 25.6859 31.1649 25.73 31.3229 25.73C31.4809 25.73 31.6139 25.6896 31.7218 25.6088C31.8296 25.5279 31.8836 25.4221 31.8836 25.2911C31.8836 25.2179 31.8682 25.1544 31.8374 25.1004C31.8065 25.0466 31.7487 25.0004 31.664 24.9618C31.5792 24.9234 31.4097 24.8656 31.1553 24.7886C30.7623 24.677 30.4925 24.573 30.3461 24.4767C30.0609 24.292 29.9184 24.0109 29.9184 23.6335C29.9184 23.2523 30.0629 22.9385 30.3519 22.6921C30.6409 22.4457 31.0069 22.3225 31.4501 22.3225C31.7738 22.3225 32.0445 22.3812 32.2622 22.4987C32.4799 22.6162 32.5888 22.7634 32.5888 22.9406C32.5888 23.06 32.5492 23.1629 32.4703 23.2495C32.3913 23.3362 32.2941 23.3795 32.1784 23.3795C32.1128 23.3795 32.0108 23.3563 31.8721 23.3102L31.7045 23.2524C31.5619 23.2139 31.4521 23.1946 31.375 23.1946C31.244 23.1946 31.1332 23.2284 31.0427 23.2958C30.9521 23.3632 30.9068 23.4469 30.9068 23.547C30.9068 23.6241 30.9473 23.6952 31.0283 23.7607C31.0861 23.803 31.2555 23.8646 31.5369 23.9454C31.903 24.0456 32.1765 24.1534 32.3577 24.2688C32.7006 24.4768 32.8721 24.7984 32.8721 25.2334C32.8721 25.6416 32.7266 25.9737 32.4357 26.2297C32.1447 26.4857 31.7585 26.6137 31.2768 26.6137C30.8837 26.6137 30.5562 26.5521 30.2942 26.4289C30.0321 26.3058 29.9011 26.1498 29.9011 25.9611ZM3.20496 30.4271C3.20496 30.719 2.96837 30.9547 2.67682 30.9547H0V29.8996H2.67675C2.9683 29.8995 3.20496 30.1359 3.20496 30.4271ZM35 29.8995V30.9547H32.3232C32.0317 30.9547 31.7951 30.719 31.7951 30.4271C31.7951 30.1359 32.0317 29.8995 32.3232 29.8995H35V29.8995Z" fill="#FE9900"/>
<path fill-rule="evenodd" clip-rule="evenodd" d="M17.5011 2C16.3838 2 15.4766 2.90453 15.4766 4.02091C15.4766 4.56074 15.6886 5.04972 16.0331 5.41229C16.4021 5.79935 16.9221 6.04182 17.5011 6.04182C18.078 6.04182 18.598 5.79941 18.967 5.41229C19.3115 5.04965 19.5236 4.56074 19.5236 4.02091C19.5236 2.90453 18.6184 2 17.5011 2Z" fill="#FECE85"/>
<path fill-rule="evenodd" clip-rule="evenodd" d="M16.8408 2.10999C17.2517 2.25174 17.6062 2.52168 17.8521 2.88006C18.0825 3.21583 18.2055 3.61367 18.2048 4.02091C18.2048 4.22462 18.1742 4.42225 18.1191 4.60764C18.0259 4.90842 17.8648 5.18374 17.6482 5.41236C17.4249 5.64808 17.1479 5.8263 16.8408 5.93183C17.0533 6.00508 17.2766 6.04225 17.5014 6.04182C18.0783 6.04182 18.5983 5.79941 18.9673 5.41229C19.3118 5.04965 19.5239 4.56074 19.5239 4.02091C19.5245 3.61368 19.4015 3.21584 19.1711 2.88006C18.8062 2.34836 18.1945 2 17.5014 2C17.269 2 17.0467 2.03869 16.8408 2.10999Z" fill="#FDB440"/>
</g>
<defs>
<clipPath id="clip0_441_694">
<rect width="35" height="35" fill="white"/>
</clipPath>
</defs>
</svg>
