<svg width="25" height="25" viewBox="0 0 25 25" fill="none" xmlns="http://www.w3.org/2000/svg">
<path d="M9.89583 18.2295C9.7577 18.2295 9.62522 18.2844 9.52755 18.382C9.42987 18.4797 9.375 18.6122 9.375 18.7503C9.375 18.8885 9.42987 19.0209 9.52755 19.1186C9.62522 19.2163 9.7577 19.2712 9.89583 19.2712H15.1042C15.2423 19.2712 15.3748 19.2163 15.4725 19.1186C15.5701 19.0209 15.625 18.8885 15.625 18.7503C15.625 18.6122 15.5701 18.4797 15.4725 18.382C15.3748 18.2844 15.2423 18.2295 15.1042 18.2295H9.89583Z" fill="#242424"/>
<path fill-rule="evenodd" clip-rule="evenodd" d="M14.7594 2.68243C14.1159 2.17432 13.3199 1.89795 12.5 1.89795C11.6801 1.89795 10.8841 2.17432 10.2406 2.68243L3.46977 8.02827C3.03757 8.36954 2.68829 8.8043 2.44816 9.29989C2.20803 9.79548 2.0833 10.339 2.08331 10.8897V19.271C2.08331 20.2379 2.46743 21.1652 3.15115 21.849C3.83488 22.5327 4.76221 22.9168 5.72915 22.9168H19.2708C20.2377 22.9168 21.1651 22.5327 21.8488 21.849C22.5325 21.1652 22.9166 20.2379 22.9166 19.271V10.8897C22.9167 10.339 22.7919 9.79548 22.5518 9.29989C22.3117 8.8043 21.9624 8.36954 21.5302 8.02827L14.7594 2.68243ZM10.8864 3.50014C11.346 3.13735 11.9145 2.94003 12.5 2.94003C13.0855 2.94003 13.6539 3.13735 14.1135 3.50014L20.8844 8.84597C21.1931 9.0897 21.4426 9.4002 21.6142 9.75417C21.7858 10.1081 21.8749 10.4964 21.875 10.8897V19.271C21.875 19.9616 21.6006 20.624 21.1122 21.1124C20.6239 21.6008 19.9615 21.8751 19.2708 21.8751H5.72915C5.03848 21.8751 4.3761 21.6008 3.88772 21.1124C3.39935 20.624 3.12498 19.9616 3.12498 19.271V10.8897C3.1249 10.4965 3.2139 10.1083 3.38528 9.75431C3.55667 9.40035 3.806 9.0898 4.11456 8.84597L10.8864 3.50014Z" fill="#242424"/>
</svg>
