<svg width="24" height="24" viewBox="0 0 24 24" fill="none" xmlns="http://www.w3.org/2000/svg">
<path fill-rule="evenodd" clip-rule="evenodd" d="M9.94417 2.53108C10.5262 2.13294 11.215 1.91992 11.9202 1.91992C12.6254 1.91992 13.3141 2.13294 13.8962 2.53108L20.3962 6.97908C20.8658 7.30032 21.2501 7.73122 21.5156 8.23445C21.7812 8.73769 21.92 9.29807 21.9202 9.86708V18.2851C21.9202 19.2133 21.5514 20.1036 20.895 20.76C20.2387 21.4163 19.3484 21.7851 18.4202 21.7851H5.42017C4.49191 21.7851 3.60167 21.4163 2.94529 20.76C2.28891 20.1036 1.92017 19.2133 1.92017 18.2851V9.86708C1.9203 9.29807 2.05916 8.73769 2.32472 8.23445C2.59028 7.73122 2.97452 7.30032 3.44417 6.97908L9.94417 2.53108ZM9.42017 17.2851C9.28756 17.2851 9.16038 17.3378 9.06661 17.4315C8.97284 17.5253 8.92017 17.6525 8.92017 17.7851C8.92017 17.9177 8.97284 18.0449 9.06661 18.1386C9.16038 18.2324 9.28756 18.2851 9.42017 18.2851H14.4202C14.5528 18.2851 14.68 18.2324 14.7737 18.1386C14.8675 18.0449 14.9202 17.9177 14.9202 17.7851C14.9202 17.6525 14.8675 17.5253 14.7737 17.4315C14.68 17.3378 14.5528 17.2851 14.4202 17.2851H9.42017Z" fill="white"/>
</svg>
