<svg width="35" height="35" viewBox="0 0 35 35" fill="none" xmlns="http://www.w3.org/2000/svg">
<path d="M17.4996 10.567C13.6715 10.567 10.5675 13.6715 10.5675 17.4996C10.5675 21.3285 13.6715 24.4317 17.4996 24.4317C21.3285 24.4317 24.433 21.3285 24.433 17.4996C24.433 13.6715 21.3285 10.567 17.4996 10.567ZM17.4996 21.9998C15.0148 21.9998 12.9995 19.9851 12.9995 17.4996C12.9995 15.0142 15.0147 12.9995 17.4996 12.9995C19.9851 12.9995 22.0003 15.0142 22.0003 17.4996C22.0003 19.9851 19.9851 21.9998 17.4996 21.9998ZM26.3264 10.2935C26.3264 11.1874 25.6009 11.9129 24.7064 11.9129C23.8119 11.9129 23.0864 11.1874 23.0864 10.2935C23.0864 9.39916 23.8118 8.67348 24.7064 8.67348C25.6009 8.67348 26.3264 9.39916 26.3264 10.2935ZM30.2913 8.65687C29.9462 7.76872 29.4846 7.0162 28.7345 6.26557C27.2214 4.75131 25.1511 4.17566 23.0664 4.08126C21.6263 4.01471 21.1665 4 17.4996 4C13.834 4 13.3743 4.01471 11.9341 4.08126C9.84439 4.17587 7.77652 4.7551 6.26615 6.26552C4.74988 7.78179 4.17692 9.84566 4.08105 11.9341C4.01545 13.3743 4 13.8335 4 17.4996C4 21.1658 4.01545 21.6257 4.08105 23.0665C4.17735 25.1622 4.7493 27.2183 6.26605 28.7339C7.78258 30.2493 9.84582 30.8231 11.9341 30.9187C13.3743 30.9846 13.834 30.9994 17.4996 30.9994C21.1666 30.9994 21.6263 30.9845 23.0665 30.9187C25.1596 30.8229 27.2209 30.2485 28.7344 28.7339C30.247 27.2203 30.8241 25.1503 30.9187 23.0664C30.9846 21.6257 31 21.1658 31 17.4996C31 13.8334 30.9846 13.3742 30.9187 11.934C30.8535 10.4968 30.6252 9.51581 30.2913 8.65687ZM28.4887 22.9548C28.422 24.4211 28.0814 25.9463 27.0145 27.0145C25.9335 28.0968 24.431 28.4216 22.9556 28.4888C21.5316 28.5533 21.1052 28.5675 17.4996 28.5675C13.8953 28.5675 13.4689 28.5533 12.0449 28.4888C10.5657 28.4214 9.06556 28.0912 7.98551 27.0147C6.90856 25.9412 6.57713 24.4202 6.51116 22.9548C6.44666 21.5316 6.43253 21.1047 6.43253 17.4996C6.43253 13.8953 6.44672 13.4684 6.51116 12.0443C6.57692 10.5848 6.92417 9.04842 7.98529 7.98551C9.06118 6.90783 10.5769 6.57808 12.045 6.51111C13.4689 6.44608 13.8953 6.43248 17.4996 6.43248C21.1047 6.43248 21.5316 6.44608 22.9556 6.51111C24.434 6.57855 25.9366 6.90719 27.0143 7.9853C28.0926 9.06392 28.4218 10.574 28.4887 12.0444C28.5539 13.4684 28.5681 13.8953 28.5681 17.4996C28.568 21.1047 28.5539 21.5317 28.4887 22.9548Z" fill="url(#paint0_linear_441_841)"/>
<defs>
<linearGradient id="paint0_linear_441_841" x1="6.2661" y1="28.734" x2="28.7345" y2="6.26557" gradientUnits="userSpaceOnUse">
<stop stop-color="#FDD91D"/>
<stop offset="0.05" stop-color="#FDD91D"/>
<stop offset="0.497" stop-color="#EC1C24"/>
<stop offset="0.95" stop-color="#A43A94"/>
<stop offset="1" stop-color="#A43A94"/>
</linearGradient>
</defs>
</svg>
