<svg width="36" height="36" viewBox="0 0 36 36" fill="none" xmlns="http://www.w3.org/2000/svg">
<g clip-path="url(#clip0_441_238)">
<path d="M17.3585 32.873L14.9485 23.452L15.3137 23.306L17.7237 32.7999L17.3585 32.873ZM8.3027 32.873L7.9375 32.7999L9.39816 22.6487L9.76329 22.7217L8.3027 32.873ZM19.3303 32.873L16.8473 23.452L17.2124 23.306L19.6955 32.7999L19.3303 32.873ZM10.2745 32.873L9.90933 32.7999L11.2969 22.6487L11.6621 22.7217L10.2745 32.873Z" fill="#ADB3BA"/>
<path d="M7.86528 22.3565C7.86528 22.4295 9.17983 23.4519 11.4438 23.8901C13.7078 24.3283 19.3311 23.4519 20.3535 22.7216C21.3759 21.9913 20.3535 18.1937 19.5502 17.5364C18.7469 16.8791 18.0896 17.1713 17.2133 15.7837C16.4099 14.3961 11.1517 13.3737 9.54503 14.25C7.93833 15.1264 5.74734 18.3397 7.86528 22.3565Z" fill="#66C6B9"/>
<path d="M10.8594 30.5359C10.8594 30.5359 10.9324 29.6595 10.9324 29.0022C10.9324 28.345 12.6852 27.7607 12.6852 27.7607C12.6852 27.7607 12.8312 30.3899 12.9773 30.9011L13.1234 31.4123C13.1234 31.4123 11.2976 32.2156 10.8594 30.5359Z" fill="#E8EAE9"/>
<path d="M10.8593 30.2439C10.8593 30.2439 11.0053 30.8281 11.5896 31.0472C12.1738 31.1933 12.8311 30.536 12.9041 30.3899C12.9041 30.3899 13.0502 31.4123 13.5614 31.7775C14.0727 32.1427 14.8029 33.019 14.8029 33.019C14.8029 33.019 14.2917 33.6033 13.4153 33.5303C12.5389 33.4572 11.2974 32.6539 11.0784 32.2888C10.8593 31.9236 10.4941 31.5585 10.8593 30.2439Z" fill="#344A5E"/>
<path d="M18.1626 32.7271L18.0166 32.9461V33.2383L18.893 33.4574V33.3113C18.893 33.3113 19.3312 33.2383 19.6963 33.5304C20.0614 33.8226 20.4266 34.1147 20.9378 34.1147C21.376 34.1147 21.9602 34.0416 22.0332 33.7495C22.1793 33.5304 19.4041 32.7271 18.1626 32.7271Z" fill="#415A6B"/>
<path d="M18.089 32.9461C18.089 32.9461 17.8699 31.8506 18.308 31.3394C18.308 31.3394 18.235 31.5584 18.4541 31.6315C18.6001 31.7046 18.9653 31.4855 19.5495 31.1933C20.1338 30.9012 20.645 31.1933 20.645 31.1933C20.645 31.1933 21.2292 32.2157 21.4483 32.4348C21.7405 32.6539 23.055 33.2381 23.4202 33.2381C23.7853 33.2381 23.4932 34.2605 22.6168 34.1876C21.7405 34.1145 20.499 33.8954 19.9877 33.4572C19.4035 33.019 18.089 32.9461 18.089 32.9461Z" fill="#344A5E"/>
<path d="M34.8866 34.9908H22.8365C22.4714 34.9908 22.1792 34.8447 21.9601 34.5526C21.741 34.3335 21.668 33.9683 21.668 33.6031L23.2016 23.5249L30.2856 23.6709L35.836 33.165C36.0551 33.5302 36.0551 33.9683 35.836 34.3335C35.6899 34.7717 35.3247 34.9908 34.8866 34.9908ZM23.4938 23.8901L22.0332 33.6762C22.0332 33.8953 22.0332 34.1874 22.2523 34.3335C22.3983 34.5526 22.6174 34.6256 22.9095 34.6256H34.9596C35.2518 34.6256 35.5438 34.4796 35.6899 34.1874C35.836 33.8953 35.836 33.6032 35.6899 33.3841L30.2126 24.0362L23.4938 23.8901Z" fill="#CED6E0"/>
<path d="M8.44961 15.4187C8.93362 15.4187 9.32598 14.8301 9.32598 14.1041C9.32598 13.3781 8.93362 12.7896 8.44961 12.7896C7.96561 12.7896 7.57324 13.3781 7.57324 14.1041C7.57324 14.8301 7.96561 15.4187 8.44961 15.4187Z" fill="#344A5E"/>
<path d="M8.15723 21.6993C8.15723 21.6993 9.32574 23.306 10.056 23.452C10.056 23.452 9.61782 24.6205 10.056 26.2272L10.9324 29.4405C10.9324 29.4405 11.5166 29.3674 11.9548 29.2945C12.393 29.2214 13.1233 28.8563 13.1233 28.345V25.6429C13.1233 24.7665 13.0502 24.2553 13.1964 23.8901C13.3424 23.598 13.1233 23.3059 13.7806 23.1598C14.4379 23.0138 16.7018 23.0138 16.7018 23.0138L19.9152 23.452C19.9152 23.452 19.2579 27.6147 19.1848 28.0529C19.1848 28.0529 19.477 27.9798 19.9881 28.272C20.4993 28.5641 21.3027 28.7832 21.3027 28.7832C21.3027 28.7832 22.4712 26.3732 22.6903 25.6429C22.9094 24.9125 23.7858 22.6486 23.9318 21.9183C24.1509 21.188 24.1509 19.9465 22.8363 19.4352C21.5218 18.924 20.2803 18.924 20.2803 18.924L9.76393 18.3398L8.15723 21.6993Z" fill="#2A3F4F"/>
<path d="M11.5168 8.40777L11.8089 9.28414C11.882 9.50323 12.1741 11.0369 12.1741 11.0369L13.9268 11.402L14.4381 10.2335C14.4381 10.2335 14.7302 10.0875 14.8032 9.43018C14.8762 8.7729 14.8762 8.18868 14.8762 7.67744C14.8762 7.1662 14.7302 6.36289 14.7302 6.36289C14.7302 6.36289 14.5841 5.63256 14.365 5.34048C14.1459 5.0484 11.2977 5.70561 11.1517 6.2899C11.0056 6.87419 11.4437 8.18868 11.5168 8.40777Z" fill="#FFD15C"/>
<path d="M12.028 10.3794C11.955 9.94126 11.882 9.50308 11.8089 9.35704C11.7359 9.211 11.6629 8.8458 11.5898 8.62671C11.6629 8.77275 11.6629 8.91886 11.7359 9.13795C11.8089 9.50308 11.955 9.94119 12.028 10.3794Z" fill="#FFD15C"/>
<path d="M13.9265 11.402L14.3647 10.3796C14.3647 10.3796 13.8535 10.7447 13.1962 10.5256C12.5389 10.3065 11.8086 9.43018 11.8086 9.43018C11.8086 9.43018 12.612 10.8908 13.9265 11.402Z" fill="#F7B64C"/>
<path d="M13.1964 10.8178H13.4155L14.8761 10.6718L17.1401 18.5591C17.1401 18.5591 15.5334 20.1658 14.0728 20.2388C12.6122 20.3117 10.2022 19.4354 9.764 19.2163C9.39886 18.9972 11.5167 10.5986 11.5167 10.5986L13.1964 10.8178Z" fill="#8AD7F8"/>
<path d="M13.4151 11.6941L13.6342 11.9132C13.6342 11.9132 13.7802 12.4244 13.8533 12.5705C13.8533 12.7165 15.0948 21.1881 15.0948 21.1881L14.3645 22.2105L13.4151 21.4072C13.4151 21.4072 12.6847 13.9581 12.8308 13.3008C12.9039 12.6435 13.123 11.9862 13.123 11.9862L13.4151 11.6941Z" fill="#E8EAE9"/>
<path d="M12.9037 10.9637L13.1958 10.8906H13.4149L13.9261 11.1097C13.9261 11.1097 13.634 11.6939 13.7071 11.9861C13.488 11.913 13.3419 11.913 13.1228 12.0591C13.1228 12.0591 12.9768 11.4019 12.7577 11.2558C12.4655 11.1097 12.9037 10.9637 12.9037 10.9637Z" fill="#E8EAE9"/>
<path d="M11.3706 8.26147C11.3706 8.26147 10.9324 8.33453 10.2751 8.48057C9.61786 8.62661 8.23025 8.77271 8.23025 8.77271C8.23025 8.77271 8.59539 9.35694 8.5224 10.2333C8.5224 11.1827 9.03364 11.986 9.03364 12.5703C9.03364 13.1545 8.08422 18.4858 7.49999 19.6543C6.91577 20.8228 6.55057 21.334 6.47752 22.3564C6.33148 23.3788 6.03933 24.9125 6.47752 25.2046C6.9157 25.4968 7.49992 24.1092 8.30331 22.9407C9.10662 21.7721 11.3706 17.3903 11.5897 16.1488C11.8088 14.8342 11.3706 8.26147 11.3706 8.26147Z" fill="#344A5E"/>
<path d="M9.54492 16.5141L9.98311 16.7332C9.98311 16.7332 10.4943 16.8792 10.2753 15.1265C10.2753 15.1265 9.83707 15.2725 9.69103 15.4186C9.54492 15.5646 9.54492 16.5141 9.54492 16.5141Z" fill="#ADB3BA"/>
<path d="M12.1003 11.0368V12.2053C12.1003 13.0086 11.5161 16.149 11.5161 16.149C11.5161 16.149 11.5892 14.4693 11.3701 13.9581C11.224 13.4468 10.3477 11.402 10.3477 11.402L10.9319 11.0369L10.4937 10.7447L11.297 8.33472C11.297 8.33472 11.3701 8.33472 11.3701 8.40777V8.48082L11.6622 9.35719C11.8082 9.50323 12.1003 10.7447 12.1003 11.0368Z" fill="#415A6B"/>
<path d="M12.1003 12.1323V12.2053C12.1003 13.0086 11.5161 16.149 11.5161 16.149C11.5161 16.149 11.5892 14.4693 11.3701 13.9581C11.224 13.4468 10.3477 11.402 10.3477 11.402L10.9319 11.0369L10.4937 10.7447L11.297 8.33472C11.3701 8.40777 11.4431 8.48076 11.4431 8.62686C11.5161 8.7729 11.5161 8.91901 11.5891 9.1381C11.7351 9.57629 11.8082 9.94142 11.8812 10.3796C12.1003 10.9638 12.1003 11.548 12.1003 12.1323Z" fill="#415A6B"/>
<path d="M9.83631 15.3456C9.83631 15.3456 10.4205 15.4187 10.4205 15.3456C10.4205 15.1996 10.4936 15.1266 10.6396 14.9805C10.7857 14.9075 10.9318 14.9075 11.0778 14.9075C11.2969 14.9075 11.7351 14.9075 11.8081 15.0535C11.9542 15.1995 11.8081 15.4186 11.5891 15.3456C11.37 15.3456 11.2239 15.3456 11.1509 15.4187L11.0778 15.4918C11.0778 15.4918 11.5891 15.6378 11.8081 15.5648C12.0272 15.4918 12.4654 15.4918 12.6845 15.4918C12.9036 15.5648 13.1227 15.6378 13.0496 15.7839C13.0496 15.7839 13.1957 15.857 13.1227 16.003C13.0496 16.149 12.6845 16.2951 12.2463 16.2951C11.7351 16.2951 11.0048 16.4412 10.5666 16.3682C10.1285 16.3682 9.47118 16.2222 8.88696 16.1491H8.30273L9.83631 15.3456ZM11.8081 8.04255C11.9542 8.40768 11.9542 8.77288 11.8081 8.84587C11.5891 8.91892 11.37 8.69983 11.1509 8.33463C11.0048 7.9695 11.0048 7.6043 11.1509 7.53131C11.37 7.45833 11.5891 7.67742 11.8081 8.04255Z" fill="#FFD15C"/>
<path d="M20.2068 14.8343C20.2068 15.3455 20.0607 15.7107 20.0607 15.7107L18.9653 15.8567C18.9653 15.8567 18.8922 14.3961 17.5777 14.104C17.5046 13.5927 17.4316 13.1545 17.4316 12.8625C17.4316 11.694 18.3811 9.28394 18.3811 9.28394C18.3811 9.28394 18.8192 9.57608 18.7462 10.0873C18.6731 10.5985 19.0383 10.8176 19.0383 11.1097C19.0383 11.4017 18.9653 11.4748 19.0383 11.7669C19.1844 11.9861 20.2798 14.3231 20.2068 14.8343Z" fill="#415A6B"/>
<path d="M20.2071 18.9242C20.2071 18.9242 18.8925 19.0702 18.3813 19.1433C17.797 19.2163 17.5049 19.2163 17.2858 18.9972C16.9937 18.7781 15.7522 16.2221 15.7522 16.2221C15.7522 16.2221 15.314 14.1772 15.2409 12.2784C15.2409 11.0369 14.9488 9.64931 14.8027 8.846V8.18872C15.0949 8.26177 15.8982 8.48087 16.4824 8.6269C17.2128 8.846 18.4543 9.13814 18.4543 9.13814C18.4543 9.13814 17.5048 11.5482 17.5048 12.7167C17.5048 13.8852 18.2352 17.9018 18.5272 18.194C18.8925 18.632 20.2071 18.9242 20.2071 18.9242Z" fill="#344A5E"/>
<path d="M17.5049 15.7108C17.5049 15.7108 16.9937 15.6377 17.2128 14.0311C17.2128 14.0311 17.5049 13.885 17.8701 14.1041C18.2352 14.3232 18.5273 14.9805 18.3813 15.2726C18.2352 15.5647 17.651 15.7108 17.5049 15.7108Z" fill="#CED6E0"/>
<path d="M16.6286 18.1206C16.5556 18.0476 15.6062 16.8061 15.168 15.1994C14.8759 14.1039 14.6568 11.7669 14.5107 10.2333C14.5838 10.0873 14.6568 9.94115 14.7298 9.57602C14.7298 9.28387 14.8029 9.06478 14.8029 8.77271L15.8253 10.5985L15.6062 11.0367L16.2635 11.1097C16.2635 11.1097 15.8984 14.031 15.9713 14.8343C16.0443 15.5646 16.6286 17.9746 16.6286 18.1206Z" fill="#415A6B"/>
<path d="M17.5047 13.958L17.2126 14.0311C17.2126 14.0311 16.8475 14.0311 16.6284 13.958C16.4093 13.885 15.9711 13.6659 15.752 13.812C15.5329 13.885 15.0947 14.6883 15.0947 14.6883L16.8475 15.6378C16.8475 15.6378 17.0666 15.5647 17.1396 15.4917C17.2127 15.4187 17.5778 15.6378 18.089 15.4917L18.6733 15.4187C18.6733 15.4187 18.3811 14.6883 18.2351 14.3963C18.089 14.1041 17.7238 14.0311 17.5047 13.958ZM25.9763 5.55945L26.5605 5.99764V6.14368L25.319 9.35708C25.319 9.35708 24.9539 8.91889 24.6617 8.84584C24.3696 8.77279 23.8584 9.28402 23.4932 9.21097C23.1281 9.13792 22.982 8.99188 22.909 8.84584C22.8359 8.62675 22.2517 8.62675 22.5439 8.3346C22.5439 8.3346 22.3248 8.40765 22.3248 8.18856C22.3248 7.96947 22.1057 7.89642 22.1057 7.89642C22.1057 7.89642 21.4484 8.04245 21.5215 7.67732C21.5945 7.31219 21.7405 6.87401 21.7405 6.87401C21.7405 6.87401 21.6675 6.80095 21.5215 6.72797C21.3754 6.65491 20.7911 5.92465 20.8642 5.26738C20.9372 4.6101 23.4933 3.87977 24.5157 3.95282C25.4651 4.09886 25.9763 5.55945 25.9763 5.55945Z" fill="#FFD15C"/>
<path d="M23.2016 27.6147C23.2016 27.6147 23.9319 29.3675 24.5892 29.7326C25.2465 30.0977 25.4656 30.4629 25.4656 30.4629L22.6174 31.7044C22.6174 31.7044 22.6174 30.682 22.2522 29.9517C21.8871 29.1484 21.0107 28.345 21.0107 28.345L23.2016 27.6147Z" fill="#E8EAE9"/>
<path d="M22.7636 32.4347C22.7636 32.4347 21.8872 32.9459 21.303 33.092C20.7188 33.238 20.0615 33.4571 20.0615 33.8953C20.0615 34.3335 20.7919 34.5526 21.5221 34.5526C22.2524 34.5526 23.4939 34.3335 23.8591 33.8953C24.2242 33.4571 24.8085 33.0189 24.8085 33.0189L25.1006 33.3111C25.1006 33.3111 26.5612 32.5807 26.7073 32.1425C26.9264 31.7044 26.7804 31.7044 26.7804 31.7044L26.4153 31.1931L22.7636 32.4347Z" fill="#344A5E"/>
<path d="M22.471 31.1933C22.471 31.1933 22.9092 30.7551 23.7125 30.7551C24.5158 30.7551 25.2462 30.1709 25.2462 30.1709C25.2462 30.1709 25.8304 30.3169 26.4147 31.1203C26.4147 31.1203 25.4653 31.5585 24.881 31.9967C24.2968 32.5079 24.0047 32.727 23.4934 32.8731C22.9092 33.0922 20.4261 33.1652 20.061 33.8955C20.061 33.8955 19.988 33.6033 20.6452 33.3112C21.3025 32.9461 22.0328 32.727 22.1789 32.3618C22.398 31.8507 22.471 31.1933 22.471 31.1933Z" fill="#415A6B"/>
<path d="M20.4262 20.6038C20.4262 20.6038 17.5049 20.9689 16.9207 21.4071C16.3365 21.8453 16.2634 22.7216 16.4095 23.2329C16.5555 23.6711 21.3025 29.2214 21.7407 29.4405C21.7407 29.4405 22.1059 28.9293 22.6901 28.5641C23.2744 28.199 23.4205 27.6878 23.4205 27.6878C23.4205 27.6878 21.4486 25.3508 20.8644 24.5474C20.2802 23.744 20.0611 23.6711 20.0611 23.6711L22.9824 22.1374L20.4262 20.6038Z" fill="#344A5E"/>
<path d="M33.1334 34.1144H21.8867C21.5946 34.1144 21.3025 33.9683 21.0834 33.7492C20.8643 33.5302 20.7913 33.165 20.8643 32.8729L22.2519 23.4519L28.8977 23.5979L34.0828 32.4347C34.3019 32.7998 34.3019 33.165 34.0828 33.5302C33.8637 33.8953 33.4986 34.1144 33.1334 34.1144ZM22.544 23.817L21.1564 32.9459C21.1564 33.165 21.1564 33.3841 21.3024 33.5302C21.4485 33.6762 21.6676 33.8223 21.8867 33.8223H33.1334C33.4256 33.8223 33.6447 33.6763 33.7907 33.4572C33.9367 33.2381 33.9367 32.9459 33.7907 32.6539L28.6785 23.9632L22.544 23.817Z" fill="#ADB3BA"/>
<path d="M14.876 29.1484C14.876 29.1484 15.022 29.5865 15.8984 29.7326C16.7017 29.8786 17.7242 30.4629 17.7242 30.4629C17.7242 30.4629 19.842 26.4462 20.0611 25.6429C20.2802 24.8396 20.4263 23.6711 20.4263 23.6711C20.4263 23.6711 22.8363 23.3789 25.2463 23.525C27.6563 23.6711 31.0887 22.2835 31.4539 21.4801C31.8191 20.6768 32.0382 18.9241 32.0382 18.9241L24.443 19.5083C24.443 19.5083 24.1508 20.0195 23.4936 20.0925C22.7632 20.1656 19.842 20.2386 19.1848 20.5307C18.5275 20.7498 17.8702 20.8228 17.5781 22.0643C17.286 23.3059 15.9714 26.5923 14.876 29.1484Z" fill="#415A6B"/>
<path d="M26.5608 6.1438C26.5608 6.1438 25.2462 7.3853 24.9541 9.35713L26.1226 10.3066L27.5102 7.16621L26.5608 6.1438Z" fill="#CED6E0"/>
<path d="M31.9647 17.2443L31.0883 21.4071C31.0883 21.4071 24.3695 20.9689 23.9313 20.1656C23.4931 19.3622 24.0773 15.9298 24.2964 15.1264C24.5155 14.3961 25.2458 12.5704 25.684 10.5986C26.1222 8.62672 27.5098 7.02002 27.5098 7.02002L27.948 7.09307C27.948 7.09307 29.1895 7.75035 29.6277 8.0425C30.0659 8.33464 31.0883 9.57614 31.3074 10.1604C31.3804 10.8176 31.9647 17.2443 31.9647 17.2443Z" fill="#344A5E"/>
<path d="M27.1451 6.50879C27.1451 6.50879 26.6338 6.80094 26.1957 8.33458C25.6844 9.86823 25.3193 11.694 25.1002 12.3513C24.8811 13.0086 24.2969 15.1264 24.2969 15.1264C24.2969 15.1264 25.3193 12.5704 25.6114 11.5479C25.8305 10.5255 26.3418 8.11549 27.9484 7.09301L27.1451 6.50879Z" fill="#415A6B"/>
<path d="M21.376 23.8171C21.376 23.8171 22.3254 23.0138 22.9827 22.1374C23.64 21.261 25.6118 18.705 27.4376 17.9747C29.2634 17.2443 34.2294 16.2219 34.2294 16.2219C34.2294 16.2219 33.4261 19.4353 33.28 20.7498C33.134 22.0644 32.2576 24.3283 29.6285 24.5474C26.9993 24.6935 21.376 23.8171 21.376 23.8171Z" fill="#66C6B9"/>
<path d="M26.5606 5.99767C26.3415 6.21676 25.4652 6.3628 25.2461 6.07072C25.027 5.70559 24.2967 5.4865 24.0046 5.77858C23.7124 6.14371 23.9315 6.65495 23.9315 6.65495L23.5664 6.80098C23.5664 6.80098 23.4933 6.58189 23.3473 6.43585C23.2013 6.21676 22.69 6.14371 22.69 5.85163C22.69 5.55948 22.3979 5.04831 21.9597 4.97526C21.5215 4.90221 20.9373 5.19435 20.9373 5.19435C20.9373 5.19435 20.4261 5.04831 20.5722 4.61013C20.7182 4.17194 21.7407 2.49226 23.0552 2.05407C24.3698 1.76193 25.8304 2.71135 26.1956 3.51467C26.4877 4.31791 26.5606 5.99767 26.5606 5.99767Z" fill="#415A6B"/>
<path d="M24.1504 8.99189C24.3695 8.91884 24.5155 8.7728 24.6616 8.84585C24.7347 8.84585 24.8077 8.91891 24.8807 8.91891C25.0998 7.96948 24.9538 6.87402 24.9538 6.87402C24.9538 7.75032 24.1504 8.99189 24.1504 8.99189Z" fill="#F7B64C"/>
<path d="M17.2129 14.031C17.2129 14.031 17.7971 13.958 18.0162 14.2501C18.2353 14.5422 18.2353 15.4916 17.505 15.7107H19.0386C19.0386 15.7107 19.1847 14.8343 18.7465 14.3961C18.3084 13.958 17.8702 13.885 17.2129 14.031Z" fill="#F3F3F3"/>
<path d="M19.1846 12.3513V14.7613C19.0385 14.8344 18.8924 14.9074 18.8194 15.0535C18.6003 14.6883 18.3082 14.1771 17.6509 14.0311C17.5779 13.5198 17.5049 13.1547 17.5049 12.8626V12.4244H19.1846V12.3513Z" fill="#415A6B"/>
<path d="M21.6678 16.3681C21.6678 16.3681 21.3757 16.295 21.0106 16.295C20.6454 16.295 20.3533 16.441 20.0611 16.295C19.8421 16.149 19.769 16.0759 19.5499 16.149C19.4039 16.222 19.3308 16.295 19.2578 16.295C19.1847 16.295 19.1117 16.3681 19.1117 16.295C19.0387 16.2219 18.8926 16.149 18.8926 16.0759C18.8926 16.0759 18.7466 15.9299 18.8196 15.8568C18.8196 15.8568 18.7465 15.7108 18.7465 15.6377C18.7465 15.6377 18.4544 15.5647 18.6005 15.2726C18.7465 14.9804 19.1117 14.8344 19.2578 14.6884C19.4769 14.5423 19.6229 14.4693 19.769 14.5423C19.9881 14.6154 20.6454 14.9805 20.7914 14.9805C20.9374 15.0536 22.9093 15.0536 22.9093 15.0536L22.8362 16.3681H21.6678V16.3681Z" fill="#FFD15C"/>
<path d="M22.5442 14.8342H21.8139C21.8139 14.8342 21.5218 16.0027 21.6679 16.733L22.9824 16.9521L22.5442 14.8342Z" fill="#F3F3F3"/>
<path d="M26.2688 12.3514C26.2688 12.3514 25.9036 10.2336 26.4148 9.21108C26.926 8.18861 28.4597 8.18868 29.117 8.84595C29.7743 9.50323 30.2855 11.0369 30.2124 11.9863C30.1394 12.9357 29.5552 13.8851 29.5552 14.6154C29.5552 15.3457 29.3361 15.6378 29.0439 15.93C28.8248 16.2221 28.3867 16.8063 28.0945 16.9524C27.8024 17.0254 22.325 17.3906 22.3981 17.3175C22.4712 17.2444 22.179 15.4187 22.2521 14.8344C22.2521 14.8344 24.0779 14.7614 24.3699 14.7614C24.6621 14.8344 24.8081 14.7614 25.0272 14.6153C25.2463 14.5423 25.2463 14.4693 25.3923 14.5423C25.5384 14.6153 25.8305 14.6153 25.9766 14.5423C26.1226 14.4692 26.2687 14.2501 26.2687 14.2501C26.2687 14.2501 26.0496 13.3007 26.1957 13.0816C26.3418 12.8626 26.2688 12.3514 26.2688 12.3514Z" fill="#415A6B"/>
<path d="M14.5838 10.8908L14.1456 11.9863L13.4153 10.8177C14.2186 10.5987 14.5838 10.1605 14.5838 10.1605V10.8908ZM13.1962 10.8178C13.1962 10.8178 12.9041 11.0369 12.758 11.3291C12.612 11.6212 12.4659 11.8403 12.4659 11.8403L12.1007 11.11C12.0277 10.4527 11.9547 9.86846 11.8086 9.21118C11.8087 9.35715 12.5389 10.5987 13.1962 10.8178Z" fill="white"/>
<path d="M11.4431 8.26154H11.5892C11.5892 8.26154 11.297 7.82335 11.4431 7.53121C11.5893 7.23906 11.151 6.36269 11.6622 6.5088C12.1735 6.65484 13.415 6.21665 13.7801 5.85152C14.1452 5.48639 14.2913 5.48639 14.4374 5.63243C14.5834 5.77847 14.7295 6.36276 14.7295 6.36276C14.7295 6.36276 14.5835 5.77854 14.4374 5.41334C14.2913 5.04821 14.5834 4.68301 13.3419 4.31788C12.1004 3.95274 11.005 4.46391 10.6398 5.41334C10.2746 6.36276 10.7128 7.31211 11.0049 7.60426C11.2241 7.82335 11.4431 8.26154 11.4431 8.26154Z" fill="#415A6B"/>
<path d="M8.88726 15.0535L10.2018 15.1265C10.2018 15.1265 9.76363 15.3456 9.76363 16.0029C9.76363 16.6602 9.90967 16.6602 9.90967 16.6602L7.71875 16.295C7.7918 16.368 8.74123 15.0535 8.88726 15.0535Z" fill="#F3F3F3"/>
<path d="M9.83716 15.0533C9.03385 15.4185 8.7417 15.7106 8.59566 16.587L4.87109 16.3679C4.87109 16.3679 4.94415 14.8342 5.01713 14.3961C5.09012 13.9579 5.38226 13.2275 5.82045 12.7894C6.18558 12.3512 6.98896 11.2557 7.06195 11.0366C7.135 10.8175 7.35409 10.5984 7.42708 10.4524C7.50013 10.3064 7.64617 9.79511 7.71923 9.35693C7.79228 8.84569 8.23046 8.77271 8.23046 8.77271C8.23046 8.77271 8.59559 9.35693 8.52261 10.2333C8.52261 11.1827 9.03385 11.986 9.03385 12.5703C9.03385 12.7163 8.96079 13.0084 8.96079 13.4466L8.37657 14.7612L8.59566 14.8342L9.83716 15.0533Z" fill="#415A6B"/>
<path d="M11.2973 17.5364H12.4659V32.4347H11.2973V17.5364ZM22.325 17.3904H1.51124C1.21909 17.3904 1 17.1713 1 16.8792C1 16.587 1.21909 16.3679 1.51124 16.3679H22.325C22.6172 16.3679 22.8362 16.587 22.8362 16.8792C22.8362 17.1713 22.6171 17.3904 22.325 17.3904Z" fill="#F3705A"/>
<path d="M22.3255 17.3904C15.5336 17.9016 8.59573 17.8286 1.51172 17.3904H22.3255Z" fill="#F05540"/>
<path d="M18.0162 33.3842H5.74707C5.74707 32.873 6.18525 32.4348 6.69649 32.4348H17.0669C17.5781 32.4349 18.0162 32.8731 18.0162 33.3842Z" fill="#F3705A"/>
<path d="M16.8473 32.6539L15.3867 33.1652L14.3643 31.8506C14.3643 31.8506 14.9485 31.2664 15.2406 30.6821C15.3867 30.3899 15.6058 30.0248 15.7519 29.7327H15.8249C16.4822 29.8787 17.2855 30.2439 17.5046 30.463C17.2854 30.8281 16.7742 31.9236 16.8473 32.6539Z" fill="#E8EAE9"/>
<path d="M10.932 33.6763H10.4207C10.4207 33.6763 10.2016 33.9684 10.2747 34.0414C10.3477 34.1145 11.8814 34.6987 12.9038 34.9178C13.8532 35.1369 15.1678 34.7717 15.3869 34.5526V34.9178H16.8474C17.0665 34.9178 17.2126 34.7717 17.2126 34.5526V34.0414L16.7013 33.6763H10.932Z" fill="#344A5E"/>
<path d="M14.4376 31.7043C14.4376 31.7043 14.8027 31.7043 15.0218 32.0695C15.2409 32.4346 15.6061 32.6537 15.8982 32.7268C16.1904 32.7998 16.8476 32.5077 16.9206 32.2886C16.9206 32.2886 17.2128 33.5301 17.1397 34.0413C17.1397 34.0413 15.9712 34.0413 15.1679 34.4064C14.2915 34.6986 13.9994 34.9177 13.05 34.6986C12.1006 34.4795 10.5669 33.8953 10.4209 33.6762L11.7355 33.5301C12.3927 33.4572 13.05 32.7268 13.4882 32.3616C13.9264 31.9234 14.4376 31.7043 14.4376 31.7043Z" fill="#415A6B"/>
<path d="M17.1399 12.3513H10.202C9.98295 12.3513 9.83691 12.4974 9.83691 12.7164L10.3482 16.368H16.9209L17.4321 12.7164C17.5051 12.5704 17.2861 12.3513 17.1399 12.3513Z" fill="#CED6E0"/>
<path d="M13.7069 14.6152C13.9086 14.6152 14.0721 14.5171 14.0721 14.3961C14.0721 14.2751 13.9086 14.177 13.7069 14.177C13.5053 14.177 13.3418 14.2751 13.3418 14.3961C13.3418 14.5171 13.5053 14.6152 13.7069 14.6152Z" fill="#ADB3BA"/>
</g>
<defs>
<clipPath id="clip0_441_238">
<rect width="35" height="35" fill="white" transform="translate(0.5 0.5)"/>
</clipPath>
</defs>
</svg>
