<svg width="40" height="40" viewBox="0 0 40 40" fill="none" xmlns="http://www.w3.org/2000/svg">
<circle cx="20" cy="20" r="20" fill="url(#paint0_linear_153_10993)"/>
<path d="M30.6947 12.2104H9.30526C8.58947 12.2104 8 12.7999 8 13.5157V26.4841C8 27.1999 8.58947 27.7894 9.30526 27.7894H30.6947C31.4105 27.7894 32 27.1999 32 26.4841V13.5157C32 12.7999 31.4105 12.2104 30.6947 12.2104ZM26.9137 15.1578C26.9137 14.8462 27.1663 14.5936 27.4779 14.5936H28.9179C29.2295 14.5936 29.4821 14.8462 29.4821 15.1578V16.5978C29.4821 16.9094 29.2295 17.1536 28.9179 17.1536H27.4779C27.1663 17.1536 26.9137 16.9094 26.9137 16.5978V15.1578ZM28.8758 19.2757V20.7241C28.8758 21.0273 28.6232 21.2799 28.32 21.2799H24.5474C24.2358 21.2799 23.9832 21.0273 23.9832 20.7241V19.2757C23.9832 18.9726 24.2358 18.7199 24.5474 18.7199H28.32C28.6232 18.7199 28.8758 18.9726 28.8758 19.2757ZM22.8126 15.1578C22.8126 14.8462 23.0653 14.5936 23.3768 14.5936H24.8168C25.1284 14.5936 25.3811 14.8462 25.3811 15.1578V16.5978C25.3811 16.9094 25.1284 17.1536 24.8168 17.1536H23.3768C23.0653 17.1536 22.8126 16.9094 22.8126 16.5978V15.1578ZM22.2568 19.2757V20.7241C22.2568 21.0273 22.0042 21.2799 21.7011 21.2799H20.2611C19.9495 21.2799 19.6968 21.0273 19.6968 20.7241V19.2757C19.6968 18.9726 19.9495 18.7199 20.2611 18.7199H21.7011C22.0042 18.7199 22.2568 18.9726 22.2568 19.2757ZM18.72 15.1578C18.72 14.8462 18.9726 14.5936 19.2758 14.5936H20.7242C21.0274 14.5936 21.28 14.8462 21.28 15.1578V16.5978C21.28 16.9094 21.0274 17.1536 20.7242 17.1536H19.2758C19.1284 17.1536 18.987 17.0951 18.8828 16.9908C18.7786 16.8866 18.72 16.7452 18.72 16.5978V15.1578ZM17.9705 19.2757V20.7241C17.9705 21.0273 17.7179 21.2799 17.4063 21.2799H15.9663C15.6632 21.2799 15.4105 21.0273 15.4105 20.7241V19.2757C15.4105 18.9726 15.6632 18.7199 15.9663 18.7199H17.4063C17.7179 18.7199 17.9705 18.9726 17.9705 19.2757ZM14.6189 15.1578C14.6189 14.8462 14.8716 14.5936 15.1832 14.5936H16.6232C16.9347 14.5936 17.1874 14.8462 17.1874 15.1578V16.5978C17.1874 16.9094 16.9347 17.1536 16.6232 17.1536H15.1832C14.8716 17.1536 14.6189 16.9094 14.6189 16.5978V15.1578ZM10.5179 15.1578C10.5179 14.8462 10.7705 14.5936 11.0821 14.5936H12.5221C12.8337 14.5936 13.0863 14.8462 13.0863 15.1578V16.5978C13.0863 16.9094 12.8337 17.1536 12.5221 17.1536H11.0821C10.7705 17.1536 10.5179 16.9094 10.5179 16.5978V15.1578ZM12.9011 24.842C12.9011 25.1536 12.6484 25.4062 12.3368 25.4062H10.8968C10.7472 25.4062 10.6037 25.3468 10.4979 25.241C10.3921 25.1352 10.3326 24.9917 10.3326 24.842V23.402C10.3326 23.0905 10.5853 22.8462 10.8968 22.8462H12.3368C12.6484 22.8462 12.9011 23.0905 12.9011 23.402V24.842ZM13.6842 20.7241C13.6842 21.0273 13.4316 21.2799 13.12 21.2799H11.68C11.3768 21.2799 11.1242 21.0273 11.1242 20.7241V19.2757C11.1242 18.9726 11.3768 18.7199 11.68 18.7199H13.12C13.4316 18.7199 13.6842 18.9726 13.6842 19.2757V20.7241ZM25.5663 24.842C25.5663 25.1536 25.3137 25.4062 25.0105 25.4062H14.9895C14.6863 25.4062 14.4337 25.1536 14.4337 24.842V23.402C14.4337 23.0905 14.6863 22.8462 14.9895 22.8462H25.0105C25.3137 22.8462 25.5663 23.0905 25.5663 23.402V24.842ZM29.6674 24.842C29.6674 25.1536 29.4147 25.4062 29.1032 25.4062H27.6632C27.5135 25.4062 27.37 25.3468 27.2642 25.241C27.1584 25.1352 27.0989 24.9917 27.0989 24.842V23.402C27.0989 23.0905 27.3516 22.8462 27.6632 22.8462H29.1032C29.4147 22.8462 29.6674 23.0905 29.6674 23.402V24.842Z" fill="white"/>
<defs>
<linearGradient id="paint0_linear_153_10993" x1="0" y1="20" x2="40" y2="20" gradientUnits="userSpaceOnUse">
<stop stop-color="#9247E7"/>
<stop offset="1" stop-color="#4D35E5"/>
</linearGradient>
</defs>
</svg>
