<svg width="232" height="155" viewBox="0 0 232 155" fill="none" xmlns="http://www.w3.org/2000/svg">
<rect x="0.5" y="33.5" width="231" height="121" rx="10.5" fill="url(#paint0_linear_153_8782)" stroke="url(#paint1_linear_153_8782)"/>
<mask id="mask0_153_8782" style="mask-type:alpha" maskUnits="userSpaceOnUse" x="1" y="34" width="230" height="120">
<rect x="1" y="34" width="230" height="120" rx="10" fill="url(#paint2_linear_153_8782)"/>
</mask>
<g mask="url(#mask0_153_8782)">
<g opacity="0.25" filter="url(#filter0_f_153_8782)">
<rect x="-10" y="26" width="40" height="40" rx="5.21739" fill="#0C0C0C"/>
</g>
<rect x="-9.5" y="26.5" width="39" height="39" rx="4.71739" fill="#0E0E0E" stroke="#131313"/>
<path opacity="0.07" d="M5.6527 53V38.4545H10.8374C11.9643 38.4545 12.8994 38.6487 13.6428 39.0369C14.3909 39.4252 14.9496 39.9626 15.3189 40.6491C15.6882 41.331 15.8729 42.1193 15.8729 43.0142C15.8729 43.9044 15.6858 44.688 15.3118 45.3651C14.9425 46.0374 14.3838 46.5606 13.6357 46.9347C12.8923 47.3087 11.9571 47.4957 10.8303 47.4957H6.9027V45.6065H10.6314C11.3416 45.6065 11.9193 45.5047 12.3643 45.3011C12.8142 45.0975 13.1432 44.8016 13.3516 44.4134C13.5599 44.0251 13.6641 43.5587 13.6641 43.0142C13.6641 42.465 13.5575 41.9891 13.3445 41.5866C13.1361 41.1842 12.8071 40.8764 12.3572 40.6634C11.9122 40.4455 11.3274 40.3366 10.603 40.3366H7.8473V53H5.6527ZM12.8331 46.4375L16.4268 53H13.9268L10.4041 46.4375H12.8331Z" fill="white"/>
<g opacity="0.25" filter="url(#filter1_f_153_8782)">
<rect x="38" y="26" width="40" height="40" rx="5.21739" fill="#0C0C0C"/>
</g>
<rect x="38.5" y="26.5" width="39" height="39" rx="4.71739" fill="#0E0E0E" stroke="#131313"/>
<path opacity="0.07" d="M52.367 40.3438V38.4545H63.6241V40.3438H59.0858V53H56.8983V40.3438H52.367Z" fill="white"/>
<g opacity="0.25" filter="url(#filter2_f_153_8782)">
<rect x="86" y="26" width="40" height="40" rx="5.21739" fill="#0C0C0C"/>
</g>
<rect x="86.5" y="26.5" width="39" height="39" rx="4.71739" fill="#0E0E0E" stroke="#131313"/>
<path opacity="0.07" d="M99.6301 38.4545H102.123L105.923 45.0668H106.079L109.879 38.4545H112.372L107.095 47.2898V53H104.907V47.2898L99.6301 38.4545Z" fill="white"/>
<g opacity="0.25" filter="url(#filter3_f_153_8782)">
<rect x="134" y="26" width="40" height="40" rx="5.21739" fill="#0C0C0C"/>
</g>
<rect x="134.5" y="26.5" width="39" height="39" rx="4.71739" fill="#0E0E0E" stroke="#131313"/>
<path opacity="0.07" d="M158.079 38.4545H160.28V48.0213C160.28 49.0393 160.041 49.9413 159.563 50.7273C159.085 51.5085 158.412 52.1241 157.546 52.5739C156.68 53.0189 155.664 53.2415 154.499 53.2415C153.339 53.2415 152.326 53.0189 151.459 52.5739C150.593 52.1241 149.921 51.5085 149.442 50.7273C148.964 49.9413 148.725 49.0393 148.725 48.0213V38.4545H150.92V47.8438C150.92 48.5019 151.064 49.0866 151.353 49.598C151.646 50.1094 152.061 50.5118 152.596 50.8054C153.131 51.0942 153.765 51.2386 154.499 51.2386C155.238 51.2386 155.875 51.0942 156.41 50.8054C156.949 50.5118 157.361 50.1094 157.645 49.598C157.934 49.0866 158.079 48.5019 158.079 47.8438V38.4545Z" fill="white"/>
<g opacity="0.25" filter="url(#filter4_f_153_8782)">
<rect x="182" y="26" width="40" height="40" rx="5.21739" fill="#0C0C0C"/>
</g>
<rect x="182.5" y="26.5" width="39" height="39" rx="4.71739" fill="#0E0E0E" stroke="#131313"/>
<path opacity="0.07" d="M203.097 38.4545V53H200.903V38.4545H203.097Z" fill="white"/>
<g opacity="0.25" filter="url(#filter5_f_153_8782)">
<rect x="-34" y="74" width="40" height="40" rx="5.21739" fill="#0C0C0C"/>
</g>
<rect x="-33.5" y="74.5" width="39" height="39" rx="4.71739" fill="#0E0E0E" stroke="#131313"/>
<g opacity="0.25" filter="url(#filter6_f_153_8782)">
<rect x="14" y="74" width="40" height="40" rx="5.21739" fill="#0C0C0C"/>
</g>
<rect x="14.5" y="74.5" width="39" height="39" rx="4.71739" fill="#0E0E0E" stroke="#131313"/>
<path opacity="0.07" d="M29.7386 101V86.4545H38.7585V88.3438H31.9332V92.7756H38.1122V94.6577H31.9332V101H29.7386Z" fill="white"/>
<g opacity="0.25" filter="url(#filter7_f_153_8782)">
<rect x="62" y="74" width="40" height="40" rx="5.21739" fill="#0C0C0C"/>
</g>
<rect x="62.5" y="74.5" width="39" height="39" rx="4.71739" fill="#0E0E0E" stroke="#131313"/>
<path opacity="0.07" d="M86.4515 91.0497C86.3142 90.6188 86.1296 90.233 85.8976 89.892C85.6703 89.5464 85.398 89.2528 85.0808 89.0114C84.7636 88.7652 84.4013 88.5781 83.9941 88.4503C83.5917 88.3224 83.149 88.2585 82.666 88.2585C81.8469 88.2585 81.1083 88.4692 80.4501 88.8906C79.792 89.312 79.2711 89.9299 78.8876 90.7443C78.5088 91.554 78.3194 92.5459 78.3194 93.7202C78.3194 94.8991 78.5112 95.8958 78.8947 96.7102C79.2782 97.5246 79.8038 98.1425 80.4714 98.5639C81.139 98.9853 81.899 99.196 82.7512 99.196C83.542 99.196 84.2309 99.035 84.818 98.7131C85.4099 98.3911 85.8668 97.9366 86.1887 97.3494C86.5154 96.7576 86.6788 96.0616 86.6788 95.2614L87.247 95.3679H83.085V93.5568H88.8024V95.2116C88.8024 96.4332 88.542 97.4938 88.0211 98.3935C87.505 99.2884 86.7901 99.9796 85.8762 100.467C84.9672 100.955 83.9255 101.199 82.7512 101.199C81.435 101.199 80.2797 100.896 79.2853 100.29C78.2958 99.6837 77.524 98.8243 76.97 97.7116C76.416 96.5942 76.139 95.2685 76.139 93.7344C76.139 92.5743 76.3 91.5327 76.622 90.6094C76.944 89.6861 77.3961 88.9025 77.9785 88.2585C78.5656 87.6098 79.2546 87.1151 80.0453 86.7741C80.8407 86.4285 81.7096 86.2557 82.6518 86.2557C83.4378 86.2557 84.1693 86.3717 84.8464 86.6037C85.5282 86.8357 86.1343 87.1648 86.6646 87.5909C87.1996 88.017 87.6423 88.5237 87.9927 89.1108C88.3431 89.6932 88.5798 90.3395 88.7029 91.0497H86.4515Z" fill="white"/>
<g opacity="0.25" filter="url(#filter8_f_153_8782)">
<rect x="110" y="74" width="40" height="40" rx="5.21739" fill="#0C0C0C"/>
</g>
<rect x="110.5" y="74.5" width="39" height="39" rx="4.71739" fill="#0E0E0E" stroke="#131313"/>
<path opacity="0.07" d="M124.676 101V86.4545H126.871V92.7756H134.122V86.4545H136.324V101H134.122V94.6577H126.871V101H124.676Z" fill="white"/>
<g opacity="0.25" filter="url(#filter9_f_153_8782)">
<rect x="158" y="74" width="40" height="40" rx="5.21739" fill="#0C0C0C"/>
</g>
<rect x="158.5" y="74.5" width="39" height="39" rx="4.71739" fill="#0E0E0E" stroke="#131313"/>
<path opacity="0.07" d="M179.734 86.4545H181.921V96.767C181.921 97.6998 181.737 98.4976 181.367 99.1605C181.003 99.8234 180.489 100.33 179.826 100.68C179.163 101.026 178.387 101.199 177.497 101.199C176.677 101.199 175.941 101.05 175.288 100.751C174.639 100.453 174.125 100.02 173.747 99.4517C173.373 98.8788 173.186 98.1828 173.186 97.3636H175.366C175.366 97.7661 175.458 98.1141 175.643 98.4077C175.832 98.7012 176.09 98.9309 176.417 99.0966C176.749 99.2576 177.127 99.3381 177.553 99.3381C178.017 99.3381 178.41 99.241 178.732 99.0469C179.059 98.848 179.308 98.5568 179.478 98.1733C179.649 97.7898 179.734 97.321 179.734 96.767V86.4545Z" fill="white"/>
<g opacity="0.25" filter="url(#filter10_f_153_8782)">
<rect x="206" y="74" width="40" height="40" rx="5.21739" fill="#0C0C0C"/>
</g>
<rect x="206.5" y="74.5" width="39" height="39" rx="4.71739" fill="#0E0E0E" stroke="#131313"/>
<path opacity="0.07" d="M220.957 101V86.4545H223.152V93.4006H223.33L229.43 86.4545H232.193L226.327 93.0028L232.214 101H229.572L224.871 94.5014L223.152 96.4759V101H220.957Z" fill="white"/>
<g opacity="0.25" filter="url(#filter11_f_153_8782)">
<rect x="-13" y="122" width="40" height="40" rx="5.21739" fill="#0C0C0C"/>
</g>
<rect x="-12.5" y="122.5" width="39" height="39" rx="4.71739" fill="#0E0E0E" stroke="#131313"/>
<path opacity="0.07" d="M13.8255 139.185H11.6096C11.5243 138.711 11.3657 138.295 11.1337 137.935C10.9017 137.575 10.6176 137.269 10.2814 137.018C9.94525 136.768 9.56883 136.578 9.15217 136.45C8.74023 136.322 8.30226 136.259 7.83825 136.259C7.00018 136.259 6.2497 136.469 5.58683 136.891C4.92868 137.312 4.40785 137.93 4.02433 138.744C3.64554 139.559 3.45614 140.553 3.45614 141.727C3.45614 142.911 3.64554 143.91 4.02433 144.724C4.40785 145.539 4.93105 146.154 5.59393 146.571C6.25681 146.988 7.00255 147.196 7.83114 147.196C8.29042 147.196 8.72603 147.134 9.13796 147.011C9.55463 146.884 9.93105 146.696 10.2672 146.45C10.6034 146.204 10.8875 145.903 11.1195 145.548C11.3562 145.188 11.5196 144.777 11.6096 144.312L13.8255 144.32C13.7071 145.035 13.4775 145.693 13.1365 146.294C12.8004 146.891 12.3671 147.407 11.8368 147.842C11.3113 148.273 10.7099 148.607 10.0328 148.844C9.35576 149.08 8.61713 149.199 7.81694 149.199C6.55747 149.199 5.43531 148.901 4.45046 148.304C3.46561 147.703 2.6891 146.843 2.12092 145.726C1.55747 144.608 1.27575 143.276 1.27575 141.727C1.27575 140.174 1.55984 138.841 2.12802 137.729C2.6962 136.611 3.47272 135.754 4.45756 135.158C5.44241 134.556 6.5622 134.256 7.81694 134.256C8.58872 134.256 9.30842 134.367 9.97603 134.589C10.6484 134.807 11.2521 135.129 11.7871 135.555C12.3221 135.977 12.7649 136.493 13.1152 137.104C13.4656 137.71 13.7024 138.403 13.8255 139.185Z" fill="white"/>
<g opacity="0.25" filter="url(#filter12_f_153_8782)">
<rect x="35" y="122" width="40" height="40" rx="5.21739" fill="#0C0C0C"/>
</g>
<rect x="35.5" y="122.5" width="39" height="39" rx="4.71739" fill="#0E0E0E" stroke="#131313"/>
<path opacity="0.07" d="M51.3674 134.455L55.4157 146.301H55.579L59.6273 134.455H61.9995L56.7651 149H54.2296L48.9952 134.455H51.3674Z" fill="white"/>
<g opacity="0.25" filter="url(#filter13_f_153_8782)">
<rect x="83" y="122" width="40" height="40" rx="5.21739" fill="#0C0C0C"/>
</g>
<rect x="83.5" y="122.5" width="39" height="39" rx="4.71739" fill="#0E0E0E" stroke="#131313"/>
<path opacity="0.07" d="M98.055 149V134.455H103.382C104.414 134.455 105.269 134.625 105.946 134.966C106.623 135.302 107.129 135.759 107.466 136.337C107.802 136.91 107.97 137.556 107.97 138.276C107.97 138.882 107.859 139.393 107.636 139.81C107.413 140.222 107.115 140.553 106.741 140.804C106.372 141.05 105.965 141.23 105.52 141.344V141.486C106.002 141.509 106.474 141.666 106.933 141.955C107.397 142.239 107.78 142.643 108.083 143.169C108.386 143.695 108.538 144.334 108.538 145.087C108.538 145.83 108.363 146.498 108.012 147.089C107.667 147.677 107.132 148.143 106.407 148.489C105.683 148.83 104.757 149 103.63 149H98.055ZM100.25 147.118H103.417C104.468 147.118 105.221 146.914 105.676 146.507C106.13 146.1 106.358 145.591 106.358 144.98C106.358 144.521 106.242 144.099 106.01 143.716C105.778 143.332 105.446 143.027 105.015 142.8C104.589 142.572 104.083 142.459 103.495 142.459H100.25V147.118ZM100.25 140.747H103.19C103.682 140.747 104.125 140.652 104.518 140.463C104.916 140.274 105.231 140.009 105.463 139.668C105.699 139.322 105.818 138.915 105.818 138.446C105.818 137.845 105.607 137.34 105.186 136.933C104.764 136.526 104.118 136.322 103.247 136.322H100.25V140.747Z" fill="white"/>
<g opacity="0.25" filter="url(#filter14_f_153_8782)">
<rect x="131" y="122" width="40" height="40" rx="5.21739" fill="#0C0C0C"/>
</g>
<rect x="131.5" y="122.5" width="39" height="39" rx="4.71739" fill="#0E0E0E" stroke="#131313"/>
<path opacity="0.07" d="M157.367 134.455V149H155.35L147.957 138.332H147.822V149H145.627V134.455H147.659L155.059 145.136H155.194V134.455H157.367Z" fill="white"/>
<g opacity="0.25" filter="url(#filter15_f_153_8782)">
<rect x="179" y="122" width="40" height="40" rx="5.21739" fill="#0C0C0C"/>
</g>
<rect x="179.5" y="122.5" width="39" height="39" rx="4.71739" fill="#0E0E0E" stroke="#131313"/>
<path opacity="0.07" d="M191.623 134.455H194.287L198.917 145.761H199.088L203.719 134.455H206.382V149H204.294V138.474H204.159L199.869 148.979H198.136L193.846 138.467H193.711V149H191.623V134.455Z" fill="white"/>
<g opacity="0.25" filter="url(#filter16_f_153_8782)">
<rect x="227" y="122" width="40" height="40" rx="5.21739" fill="#0C0C0C"/>
</g>
<rect x="227.5" y="122.5" width="39" height="39" rx="4.71739" fill="#0E0E0E" stroke="#131313"/>
</g>
<g opacity="0.3" filter="url(#filter17_f_153_8782)">
<path d="M104.916 70.9987L121.708 70.9987L129.267 84.0916C130.038 85.4242 131.962 85.4242 132.733 84.0916L140.292 70.9987L157.084 70.9987C161.99 70.9987 166 66.989 166 62.0829L166 20.9159C166 16.0098 161.99 12.0001 157.084 12.0001L104.916 12.0001C100.01 12.0001 96 16.0098 96 20.9159L96 62.0829C96 66.989 100.016 70.9987 104.916 70.9987Z" fill="white"/>
</g>
<path d="M104.916 70.9987L121.708 70.9987L129.267 84.0916C130.038 85.4242 131.962 85.4242 132.733 84.0916L140.292 70.9987L157.084 70.9987C161.99 70.9987 166 66.989 166 62.0829L166 20.9159C166 16.0098 161.99 12.0001 157.084 12.0001L104.916 12.0001C100.01 12.0001 96 16.0098 96 20.9159L96 62.0829C96 66.989 100.016 70.9987 104.916 70.9987Z" fill="url(#paint3_linear_153_8782)"/>
<path d="M121.457 51.917H116.248L124.185 28.9258H130.449L138.375 51.917H133.166L127.407 34.1796H127.227L121.457 51.917ZM121.131 42.8799H133.435V46.6744H121.131V42.8799ZM146.003 28.9258V51.917H141.142V28.9258H146.003Z" fill="white"/>
<defs>
<filter id="filter0_f_153_8782" x="-17" y="19" width="54" height="54" filterUnits="userSpaceOnUse" color-interpolation-filters="sRGB">
<feFlood flood-opacity="0" result="BackgroundImageFix"/>
<feBlend mode="normal" in="SourceGraphic" in2="BackgroundImageFix" result="shape"/>
<feGaussianBlur stdDeviation="3.5" result="effect1_foregroundBlur_153_8782"/>
</filter>
<filter id="filter1_f_153_8782" x="33" y="21" width="50" height="50" filterUnits="userSpaceOnUse" color-interpolation-filters="sRGB">
<feFlood flood-opacity="0" result="BackgroundImageFix"/>
<feBlend mode="normal" in="SourceGraphic" in2="BackgroundImageFix" result="shape"/>
<feGaussianBlur stdDeviation="2.5" result="effect1_foregroundBlur_153_8782"/>
</filter>
<filter id="filter2_f_153_8782" x="81" y="21" width="50" height="50" filterUnits="userSpaceOnUse" color-interpolation-filters="sRGB">
<feFlood flood-opacity="0" result="BackgroundImageFix"/>
<feBlend mode="normal" in="SourceGraphic" in2="BackgroundImageFix" result="shape"/>
<feGaussianBlur stdDeviation="2.5" result="effect1_foregroundBlur_153_8782"/>
</filter>
<filter id="filter3_f_153_8782" x="129" y="21" width="50" height="50" filterUnits="userSpaceOnUse" color-interpolation-filters="sRGB">
<feFlood flood-opacity="0" result="BackgroundImageFix"/>
<feBlend mode="normal" in="SourceGraphic" in2="BackgroundImageFix" result="shape"/>
<feGaussianBlur stdDeviation="2.5" result="effect1_foregroundBlur_153_8782"/>
</filter>
<filter id="filter4_f_153_8782" x="177" y="21" width="50" height="50" filterUnits="userSpaceOnUse" color-interpolation-filters="sRGB">
<feFlood flood-opacity="0" result="BackgroundImageFix"/>
<feBlend mode="normal" in="SourceGraphic" in2="BackgroundImageFix" result="shape"/>
<feGaussianBlur stdDeviation="2.5" result="effect1_foregroundBlur_153_8782"/>
</filter>
<filter id="filter5_f_153_8782" x="-39" y="69" width="50" height="50" filterUnits="userSpaceOnUse" color-interpolation-filters="sRGB">
<feFlood flood-opacity="0" result="BackgroundImageFix"/>
<feBlend mode="normal" in="SourceGraphic" in2="BackgroundImageFix" result="shape"/>
<feGaussianBlur stdDeviation="2.5" result="effect1_foregroundBlur_153_8782"/>
</filter>
<filter id="filter6_f_153_8782" x="9" y="69" width="50" height="50" filterUnits="userSpaceOnUse" color-interpolation-filters="sRGB">
<feFlood flood-opacity="0" result="BackgroundImageFix"/>
<feBlend mode="normal" in="SourceGraphic" in2="BackgroundImageFix" result="shape"/>
<feGaussianBlur stdDeviation="2.5" result="effect1_foregroundBlur_153_8782"/>
</filter>
<filter id="filter7_f_153_8782" x="57" y="69" width="50" height="50" filterUnits="userSpaceOnUse" color-interpolation-filters="sRGB">
<feFlood flood-opacity="0" result="BackgroundImageFix"/>
<feBlend mode="normal" in="SourceGraphic" in2="BackgroundImageFix" result="shape"/>
<feGaussianBlur stdDeviation="2.5" result="effect1_foregroundBlur_153_8782"/>
</filter>
<filter id="filter8_f_153_8782" x="105" y="69" width="50" height="50" filterUnits="userSpaceOnUse" color-interpolation-filters="sRGB">
<feFlood flood-opacity="0" result="BackgroundImageFix"/>
<feBlend mode="normal" in="SourceGraphic" in2="BackgroundImageFix" result="shape"/>
<feGaussianBlur stdDeviation="2.5" result="effect1_foregroundBlur_153_8782"/>
</filter>
<filter id="filter9_f_153_8782" x="153" y="69" width="50" height="50" filterUnits="userSpaceOnUse" color-interpolation-filters="sRGB">
<feFlood flood-opacity="0" result="BackgroundImageFix"/>
<feBlend mode="normal" in="SourceGraphic" in2="BackgroundImageFix" result="shape"/>
<feGaussianBlur stdDeviation="2.5" result="effect1_foregroundBlur_153_8782"/>
</filter>
<filter id="filter10_f_153_8782" x="201" y="69" width="50" height="50" filterUnits="userSpaceOnUse" color-interpolation-filters="sRGB">
<feFlood flood-opacity="0" result="BackgroundImageFix"/>
<feBlend mode="normal" in="SourceGraphic" in2="BackgroundImageFix" result="shape"/>
<feGaussianBlur stdDeviation="2.5" result="effect1_foregroundBlur_153_8782"/>
</filter>
<filter id="filter11_f_153_8782" x="-18" y="117" width="50" height="50" filterUnits="userSpaceOnUse" color-interpolation-filters="sRGB">
<feFlood flood-opacity="0" result="BackgroundImageFix"/>
<feBlend mode="normal" in="SourceGraphic" in2="BackgroundImageFix" result="shape"/>
<feGaussianBlur stdDeviation="2.5" result="effect1_foregroundBlur_153_8782"/>
</filter>
<filter id="filter12_f_153_8782" x="30" y="117" width="50" height="50" filterUnits="userSpaceOnUse" color-interpolation-filters="sRGB">
<feFlood flood-opacity="0" result="BackgroundImageFix"/>
<feBlend mode="normal" in="SourceGraphic" in2="BackgroundImageFix" result="shape"/>
<feGaussianBlur stdDeviation="2.5" result="effect1_foregroundBlur_153_8782"/>
</filter>
<filter id="filter13_f_153_8782" x="78" y="117" width="50" height="50" filterUnits="userSpaceOnUse" color-interpolation-filters="sRGB">
<feFlood flood-opacity="0" result="BackgroundImageFix"/>
<feBlend mode="normal" in="SourceGraphic" in2="BackgroundImageFix" result="shape"/>
<feGaussianBlur stdDeviation="2.5" result="effect1_foregroundBlur_153_8782"/>
</filter>
<filter id="filter14_f_153_8782" x="126" y="117" width="50" height="50" filterUnits="userSpaceOnUse" color-interpolation-filters="sRGB">
<feFlood flood-opacity="0" result="BackgroundImageFix"/>
<feBlend mode="normal" in="SourceGraphic" in2="BackgroundImageFix" result="shape"/>
<feGaussianBlur stdDeviation="2.5" result="effect1_foregroundBlur_153_8782"/>
</filter>
<filter id="filter15_f_153_8782" x="174" y="117" width="50" height="50" filterUnits="userSpaceOnUse" color-interpolation-filters="sRGB">
<feFlood flood-opacity="0" result="BackgroundImageFix"/>
<feBlend mode="normal" in="SourceGraphic" in2="BackgroundImageFix" result="shape"/>
<feGaussianBlur stdDeviation="2.5" result="effect1_foregroundBlur_153_8782"/>
</filter>
<filter id="filter16_f_153_8782" x="222" y="117" width="50" height="50" filterUnits="userSpaceOnUse" color-interpolation-filters="sRGB">
<feFlood flood-opacity="0" result="BackgroundImageFix"/>
<feBlend mode="normal" in="SourceGraphic" in2="BackgroundImageFix" result="shape"/>
<feGaussianBlur stdDeviation="2.5" result="effect1_foregroundBlur_153_8782"/>
</filter>
<filter id="filter17_f_153_8782" x="84.3333" y="0.333332" width="93.3333" height="96.4244" filterUnits="userSpaceOnUse" color-interpolation-filters="sRGB">
<feFlood flood-opacity="0" result="BackgroundImageFix"/>
<feBlend mode="normal" in="SourceGraphic" in2="BackgroundImageFix" result="shape"/>
<feGaussianBlur stdDeviation="5.83333" result="effect1_foregroundBlur_153_8782"/>
</filter>
<linearGradient id="paint0_linear_153_8782" x1="116" y1="34" x2="116" y2="154" gradientUnits="userSpaceOnUse">
<stop stop-color="#121212"/>
<stop offset="1"/>
</linearGradient>
<linearGradient id="paint1_linear_153_8782" x1="116" y1="34" x2="116" y2="154" gradientUnits="userSpaceOnUse">
<stop stop-color="#2D2D2D"/>
<stop offset="1" stop-color="#0D0D0D"/>
</linearGradient>
<linearGradient id="paint2_linear_153_8782" x1="116" y1="34" x2="116" y2="154" gradientUnits="userSpaceOnUse">
<stop stop-color="#2D2D2D"/>
<stop offset="1" stop-color="#121212"/>
</linearGradient>
<linearGradient id="paint3_linear_153_8782" x1="96" y1="12.0004" x2="166" y2="78.0001" gradientUnits="userSpaceOnUse">
<stop stop-color="#9648E8"/>
<stop offset="1" stop-color="#4634E6"/>
</linearGradient>
</defs>
</svg>
