<svg width="35" height="35" viewBox="0 0 35 35" fill="none" xmlns="http://www.w3.org/2000/svg">
<path d="M32.4952 18.1821L21.0791 17.2044C20.9582 17.194 20.8378 17.2295 20.7419 17.3038C20.6459 17.3781 20.5814 17.4857 20.5611 17.6054L18.8798 27.5261C18.8336 27.7987 18.5692 27.9746 18.2987 27.9171C17.7557 27.8017 17.1494 27.8078 16.5361 27.9606C14.7939 28.3948 13.6558 29.8473 13.9941 31.2049C14.3324 32.5624 16.019 33.3109 17.7613 32.8766C19.1436 32.5321 20.1447 31.5465 20.3317 30.4761L21.9805 20.7469C22.0008 20.6272 22.0653 20.5196 22.1613 20.4453C22.2572 20.371 22.3776 20.3356 22.4985 20.3459L30.0715 20.9945C30.3532 21.0186 30.5542 21.2782 30.5069 21.557L29.5162 27.4027C29.47 27.6755 29.2053 27.8514 28.9347 27.7936C28.3906 27.6774 27.783 27.6831 27.1683 27.8364C25.426 28.2705 24.2879 29.723 24.6262 31.0806C24.9646 32.4381 26.6512 33.1866 28.3935 32.7524C29.0058 32.5998 29.5887 32.3095 30.0594 31.8865C30.2687 31.6984 30.4555 31.4843 30.6069 31.2468C30.6805 31.1318 30.7451 31.0112 30.8002 30.8862C30.9617 30.518 31.0052 30.1324 31.0722 29.7359L32.9307 18.7445C32.9778 18.4657 32.7768 18.2062 32.4952 18.1821Z" fill="#E94444"/>
<path d="M32.9309 18.7445L32.9052 18.8964L31.12 29.4551C31.0411 29.9215 30.999 30.4149 30.8152 30.8517C30.7621 30.9774 30.6992 31.0988 30.6272 31.2147C30.476 31.459 30.2874 31.6793 30.0751 31.8724C29.6016 32.303 29.0122 32.5981 28.3931 32.7525C27.8419 32.8896 27.2961 32.909 26.7969 32.8274C26.9309 32.8076 27.0638 32.7811 27.1952 32.7483C27.8168 32.5934 28.4087 32.2989 28.8868 31.8698C29.1015 31.677 29.2928 31.4573 29.4474 31.2134C29.7849 30.6812 29.8471 30.0951 29.9496 29.4888L30.2885 27.4842L30.7188 24.9391L31.1615 22.3207L31.5376 20.096L31.7681 18.7324C31.7802 18.6611 31.7923 18.5898 31.8042 18.5185C31.8165 18.4467 31.8125 18.3731 31.7926 18.303C31.7728 18.2329 31.7375 18.1682 31.6894 18.1135L32.4951 18.1824C32.7767 18.206 32.978 18.4658 32.9309 18.7445Z" fill="#D83131"/>
<path d="M10.0742 23.3226C9.80031 24.1969 9.08875 25.786 7.42973 26.4063C7.29426 26.4569 7.29426 26.6519 7.42973 26.7025C9.08875 27.3228 9.80025 28.9119 10.0742 29.7862C10.1206 29.9341 10.3308 29.9341 10.3771 29.7862C10.651 28.9119 11.3626 27.3228 13.0216 26.7025C13.1571 26.6519 13.1571 26.4569 13.0216 26.4063C11.3626 25.786 10.6511 24.1969 10.3771 23.3226C10.3308 23.1747 10.1206 23.1747 10.0742 23.3226Z" fill="#FDB441"/>
<path d="M13.0218 26.7027C11.3628 27.3227 10.6514 28.9117 10.3776 29.7863C10.3311 29.9343 10.1207 29.9343 10.0742 29.7863C9.95211 29.3964 9.74363 28.8664 9.40332 28.3418C9.70977 27.689 10.0004 27.0465 10.921 26.7027C11.0564 26.6519 11.0564 26.4573 10.921 26.4065C10.0004 26.062 9.70977 25.4196 9.40332 24.7668C9.74357 24.2428 9.95211 23.7121 10.0742 23.323C10.1207 23.1749 10.3311 23.1749 10.3776 23.323C10.6514 24.1969 11.3628 25.7858 13.0218 26.4066C13.1572 26.4573 13.1572 26.6519 13.0218 26.7027Z" fill="#FEA613"/>
<path d="M23.1486 8.74363C22.9484 9.38266 22.4283 10.544 21.2159 10.9973C21.1168 11.0344 21.1168 11.1768 21.2159 11.2138C22.4283 11.6672 22.9484 12.8286 23.1486 13.4675C23.1825 13.5756 23.3361 13.5756 23.37 13.4675C23.5702 12.8285 24.0902 11.6672 25.3027 11.2138C25.4017 11.1768 25.4017 11.0344 25.3027 10.9973C24.0902 10.544 23.5702 9.3826 23.37 8.74363C23.3361 8.63559 23.1825 8.63559 23.1486 8.74363Z" fill="#FDB441"/>
<path d="M25.3027 11.2141C24.0902 11.6673 23.5703 12.8286 23.3702 13.4677C23.3362 13.5759 23.1825 13.5759 23.1485 13.4677C23.0593 13.1828 22.9069 12.7954 22.6582 12.412C22.8821 11.935 22.8512 11.4655 23.5239 11.2141C23.6228 11.177 23.6228 11.0347 23.5239 10.9976C22.8512 10.7459 22.8821 10.2763 22.6582 9.79928C22.9069 9.41631 23.0593 9.02848 23.1485 8.74401C23.1825 8.63579 23.3363 8.63579 23.3702 8.74401C23.5703 9.38274 24.0902 10.544 25.3027 10.9976C25.4017 11.0347 25.4017 11.177 25.3027 11.2141Z" fill="#FEA613"/>
<path d="M29.7311 3.10213C29.4788 3.90732 28.8235 5.3707 27.2957 5.94199C27.171 5.98863 27.171 6.16811 27.2957 6.21481C28.8235 6.78604 29.4788 8.24947 29.7311 9.05467C29.7738 9.19084 29.9673 9.19084 30.01 9.05467C30.2623 8.24947 30.9176 6.78609 32.4454 6.21481C32.5701 6.16816 32.5701 5.98869 32.4454 5.94199C30.9176 5.37076 30.2623 3.90732 30.01 3.10213C29.9673 2.96596 29.7738 2.96596 29.7311 3.10213Z" fill="#FDB441"/>
<path d="M32.4456 6.21476C30.9178 6.78582 30.2627 8.24908 30.0105 9.05451C29.9677 9.19086 29.774 9.19086 29.7311 9.05451C29.6187 8.6955 29.4266 8.20736 29.1133 7.72425C29.3955 7.12314 29.3564 6.53146 30.2041 6.21476C30.3288 6.168 30.3288 5.98877 30.2041 5.94201C29.3564 5.62472 29.3955 5.0331 29.1133 4.43199C29.4266 3.94941 29.6187 3.46074 29.7311 3.10226C29.7739 2.96591 29.9676 2.96591 30.0105 3.10226C30.2627 3.9071 30.9178 5.37037 32.4456 5.94201C32.5703 5.98877 32.5703 6.168 32.4456 6.21476Z" fill="#FEA613"/>
<path d="M16.6966 3.01396L5.56593 5.73265C5.44806 5.76145 5.34533 5.8335 5.27812 5.93452C5.21091 6.03554 5.18414 6.15814 5.20311 6.27798L6.77753 16.2162C6.82077 16.4894 6.62642 16.7404 6.35173 16.7724C5.80024 16.8364 5.22766 17.0357 4.69528 17.3764C3.18286 18.3442 2.56809 20.0841 3.3222 21.2625C4.07624 22.4409 5.91362 22.6116 7.42599 21.6439C8.62599 20.876 9.25997 19.6223 9.09532 18.5483L7.55132 8.80185C7.53231 8.68201 7.55907 8.5594 7.62628 8.45837C7.6935 8.35734 7.79625 8.28529 7.91413 8.25652L15.2978 6.45306C15.5725 6.38597 15.8458 6.56785 15.89 6.8471L16.8177 12.7031C16.861 12.9764 16.6663 13.2276 16.3914 13.2592C15.8388 13.3228 15.2648 13.5223 14.7311 13.8638C13.2187 14.8316 12.604 16.5714 13.358 17.7498C14.1121 18.9283 15.9494 19.099 17.4618 18.1313C17.5142 18.0977 17.5659 18.0631 17.6167 18.0273C18.139 17.6596 18.5825 17.169 18.8618 16.5922C19.1223 16.0545 19.206 15.4801 19.1139 14.8999L18.8712 13.3722L17.2888 3.40794C17.2445 3.12868 16.9712 2.94687 16.6966 3.01396Z" fill="#E94444"/>
<path d="M17.289 3.40765L19.1088 14.8664C19.3068 16.1125 18.6671 17.2644 17.6677 17.9906C17.6004 18.0395 17.5317 18.0864 17.4616 18.1312C16.983 18.4372 16.472 18.6298 15.9729 18.7118C16.0935 18.6502 16.211 18.5827 16.325 18.5096C16.4181 18.4501 16.5088 18.387 16.597 18.3205C17.6019 17.562 18.1915 16.4108 17.9913 15.1508L17.7369 13.5489L17.3628 11.1935L16.943 8.55037L16.5514 6.08539L16.2622 4.26435L16.1493 3.55314C16.1379 3.48121 16.1107 3.41271 16.0695 3.35267C16.0283 3.29262 15.9742 3.24254 15.9111 3.20609L16.6966 3.01414C16.971 2.94652 17.2447 3.12857 17.289 3.40765Z" fill="#D83131"/>
</svg>
