<svg width="35" height="35" viewBox="0 0 35 35" fill="none" xmlns="http://www.w3.org/2000/svg">
<path d="M7.74306 19.5911L6.13986 18.0607L4.82812 15.3644L6.35849 15.2915L6.43132 15.3644L7.74306 19.5911Z" fill="#ADB3BA"/>
<path d="M5.99414 14.417C5.99414 14.417 6.28566 16.6761 6.50428 17.2591C6.72291 17.8421 7.5245 19.0081 7.74313 19.6639C7.96175 20.3198 8.03465 21.2672 8.03465 21.2672C8.03465 21.2672 8.10754 19.2996 7.81602 18.2794C7.45167 17.1863 6.86863 16.4575 6.72291 15.8016C6.50428 15.1458 6.43139 14.4899 5.99414 14.417Z" fill="#415A6B"/>
<path d="M28.5851 9.31567C28.5851 9.31567 27.7106 10.3359 27.492 11.2104C27.492 11.2104 27.4191 11.429 27.492 11.5747C27.5649 11.7205 27.5649 11.7934 27.4191 12.012C27.2734 12.2306 26.9819 12.5221 27.1276 12.7407C27.2733 12.9594 27.5648 13.0323 27.5648 13.0323C27.5648 13.0323 27.2733 13.5424 27.5648 13.6881C27.5648 13.6881 27.3462 13.8339 27.5648 14.1254C27.7835 14.344 27.3462 14.927 28.2207 15.2185C29.1681 15.4371 29.3867 15.7286 29.5325 15.9473L29.6054 16.1659L32.739 15.1457C32.739 15.1457 32.5204 14.7084 32.5204 14.0526V13.3967C32.5204 13.3967 30.9172 9.5343 28.5851 9.31567Z" fill="#FFD15C"/>
<path d="M28.1482 19.0809C28.1482 19.0809 28.0024 18.7165 28.2211 18.1335C28.4397 17.5505 28.5854 17.7691 28.7312 17.0403C28.8041 16.2387 28.7312 15.9472 28.7312 15.9472L30.4073 15.3643L33.8324 17.4776C33.8324 17.4776 33.9781 20.4654 33.6137 21.8501C33.2494 23.1618 32.1563 24.5464 32.1563 24.5464L28.1482 19.0809Z" fill="#CED6E0"/>
<path d="M28.7314 15.9474C28.7314 15.9474 28.8772 15.8745 28.8772 16.166C28.9501 16.4575 29.2415 17.332 29.2415 17.4778C29.2415 17.6235 29.1686 17.6235 29.1686 17.6235C29.1686 17.6235 30.699 16.6761 31.4278 16.4575C32.1565 16.166 33.1038 15.5101 33.1038 15.5101C33.1038 15.5101 33.1038 15.0728 33.0309 14.8542C33.0309 14.7813 32.8852 14.7085 32.8123 14.7085C31.4278 15 30.0432 15.3644 28.7314 15.9474Z" fill="#F3F3F3"/>
<path d="M26.7633 19.5911L27.1276 27.3886C27.1276 27.3886 6.3584 27.753 6.3584 27.3886C6.3584 27.0243 10.3665 18.5708 10.3665 18.5708L26.7633 19.5911Z" fill="#F3705A"/>
<path d="M16.9983 19.5181L16.6339 19.7367L16.3424 20.4655C16.3424 20.5384 16.2695 20.6112 16.2695 20.6112C16.2695 20.6841 16.2695 20.7569 16.3424 20.7569L19.5489 20.8298C19.6946 20.8298 19.7675 20.7569 19.7675 20.6112L19.6946 19.8096L16.9983 19.5181Z" fill="#CED6E0"/>
<path d="M16.6338 18.7893H19.7674V19.8095H16.6338V18.7893Z" fill="#ADB3BA"/>
<path d="M24.1402 19.4452L11.4601 19.2266C11.2414 19.2266 11.0957 19.0808 11.0957 18.8622V10.1173C11.0957 9.89866 11.2414 9.75293 11.4601 9.75293L24.5045 9.97155C24.7232 9.97155 24.8689 10.1173 24.8689 10.3359L24.5774 19.0079C24.5046 19.2995 24.3589 19.4452 24.1402 19.4452Z" fill="#ADB3BA"/>
<path d="M24.7957 10.4088L24.5042 18.2063L11.0225 17.7691V10.1173C11.0225 9.89866 11.1682 9.75293 11.3868 9.75293L24.4313 9.97155C24.6499 10.0444 24.8686 10.1902 24.7957 10.4088Z" fill="#ADB3BA"/>
<path d="M24.5045 10.0446L11.4601 9.82593C11.2414 9.82593 11.0957 9.97165 11.0957 10.1903V17.8421L24.5774 18.2793L24.7961 10.4089C24.8689 10.1903 24.6503 10.0446 24.5045 10.0446Z" fill="#415A6B"/>
<path d="M11.6787 10.4089L11.7516 17.1863L23.9945 17.6235L24.2131 10.6276L11.6787 10.4089Z" fill="white"/>
<path d="M24.5768 18.2065V19.081C24.5768 19.2997 24.4311 19.4454 24.2125 19.4454L11.5323 19.2268C11.3137 19.2268 11.168 19.081 11.168 18.8624V17.7693L24.5768 18.2065Z" fill="#CED6E0"/>
<path d="M13.0634 18.3523C13.0634 18.3523 13.5736 18.2065 13.7922 17.9879C14.0108 17.7693 13.9379 17.6964 14.0108 17.6236C14.0837 17.5507 14.3752 17.4778 14.3752 17.4778C14.3752 17.4778 15.1039 17.4778 14.8124 16.9677L14.5209 17.0406H14.3023C14.1566 17.0406 14.0108 17.0406 13.7193 16.9677C13.5007 16.9677 13.2821 16.8948 13.1363 17.0406C12.9906 17.1135 12.772 17.4049 12.6991 17.4778C12.5534 17.5507 11.3145 17.988 11.3145 17.988L11.8974 19.0811C11.8974 19.0811 12.7719 19.0811 13.2821 18.8625C13.7922 18.7167 14.2295 18.3523 14.3752 18.0609C14.5209 17.7694 14.5209 17.4779 14.5209 17.4779C14.5209 17.4779 13.9379 18.2795 13.5735 18.4253C13.2092 18.6438 13.0634 18.3523 13.0634 18.3523Z" fill="#FFD15C"/>
<path d="M11.0959 18.1337L11.6788 17.915C11.6788 17.915 11.8246 19.0082 12.2618 19.4454L10.7314 20.1013L11.0959 18.1337Z" fill="white"/>
<path d="M12.7711 18.8624L13.6456 18.6438L14.5201 17.9879L14.6658 17.6964V17.332L13.5727 17.5507C13.6456 17.4778 12.3338 18.498 12.7711 18.8624Z" fill="#FFD15C"/>
<path d="M13.5 18.5709L13.6457 18.7166C13.7186 18.7166 13.9372 18.498 14.3745 17.9879L14.5931 17.7692C14.8117 17.4777 15.0304 17.1863 15.3219 16.8948L15.4676 16.749C15.6133 16.5304 15.7591 16.3118 15.9049 16.0203C15.6862 16.166 15.4676 16.3118 15.249 16.5304L15.1033 16.6761C14.8846 16.9677 14.5931 17.2591 14.3745 17.5506L14.1559 17.7692C13.6458 18.2066 13.5729 18.4252 13.5 18.5709Z" fill="#415A6B"/>
<path d="M15.3953 16.6761C15.4682 16.6032 15.4682 16.5304 15.541 16.5304L15.3224 16.3118L15.1766 16.4575L15.0309 16.6032C15.0309 16.6761 14.958 16.6761 14.958 16.7489L15.1766 16.9676C15.1766 16.8947 15.2495 16.8947 15.2495 16.8218L15.3953 16.6761Z" fill="#4ABAA5"/>
<path d="M13.5006 18.6438L13.6464 18.7167L13.5735 18.7896C13.5735 18.7896 13.5006 18.8625 13.4277 18.7896C13.5006 18.7166 13.4277 18.6438 13.5006 18.6438Z" fill="#F3705A"/>
<path d="M13.8644 17.9878C13.8644 18.0607 13.8644 18.1335 13.9373 18.2064C14.0102 18.2793 14.083 18.2793 14.1559 18.2064C14.083 18.2793 14.0102 18.3521 14.0102 18.425C13.9373 18.425 13.9373 18.425 13.8645 18.4979H13.7188V18.2065C13.7187 18.2064 13.7916 18.1335 13.8644 17.9878Z" fill="#4ABAA5"/>
<path d="M14.0873 17.899C13.8541 18.1761 13.69 18.4218 13.7208 18.4478C13.7516 18.4737 13.9656 18.27 14.1988 17.9928C14.432 17.7157 14.5961 17.47 14.5653 17.444C14.5345 17.4181 14.3205 17.6218 14.0873 17.899Z" fill="#4ABAA5"/>
<path d="M13.4999 18.4252C13.4999 18.4252 13.2813 18.5709 13.427 18.7895C13.5728 19.0082 14.01 18.9353 14.0829 18.8624C14.1558 18.7895 14.2286 18.6438 14.2286 18.6438C14.2286 18.6438 14.5202 18.5709 14.5202 18.4252V18.2795C14.5202 18.2795 14.7388 18.2066 14.8117 18.0608C14.8846 17.9151 14.7388 17.7693 14.7388 17.7693V17.6964C14.7388 17.6964 15.1031 17.6964 15.1031 17.4778C15.1031 17.2592 14.9574 17.1863 14.9574 17.1863C14.9574 17.1863 14.3744 17.5506 14.5931 17.7693V17.8421C14.5931 17.8421 14.4473 17.915 14.2287 17.915H13.9372C13.8643 17.915 13.6457 18.0608 13.8643 18.2066C14.0829 18.3523 14.01 18.3523 14.01 18.3523C14.01 18.3523 13.8643 18.4252 13.7914 18.3523C13.7185 18.2794 13.6457 18.2794 13.5728 18.3523C13.4999 18.2794 13.4999 18.4252 13.4999 18.4252Z" fill="#FFD15C"/>
<path d="M14.8124 17.0405L14.5209 17.1134H14.0107V17.6964C14.0836 17.6235 14.3751 17.5507 14.3751 17.5507C14.3751 17.5507 15.031 17.5507 14.8124 17.0405Z" fill="#FFD15C"/>
<path d="M28.8041 17.915C28.8041 17.915 30.1158 17.4049 31.136 17.4778C32.1563 17.5507 33.3952 18.7166 33.5409 20.247C33.6866 21.7773 32.7393 23.3077 30.0429 24.0365C27.4194 24.7652 27.1279 25.3482 27.1279 25.3482V27.3887H32.8121C32.8121 27.3887 35.0713 20.3199 34.9984 18.5709C34.9255 16.8219 33.1765 15.4373 33.1765 15.4373C33.1765 15.4373 31.9376 15.8745 30.9902 16.166C30.043 16.4575 29.0227 17.5507 28.8041 17.915Z" fill="#415A6B"/>
<path d="M19.5486 20.9756L19.33 21.1214C19.33 21.1214 19.1113 21.7772 19.1113 21.923C19.1113 22.0687 19.33 22.0687 19.4028 21.923C19.4757 21.7772 19.6215 21.34 19.6215 21.34L19.7672 21.1214C19.7672 21.1214 19.6215 21.4857 19.6215 21.7043C19.6215 21.923 19.6215 22.0687 19.7672 22.1416C19.9129 22.1416 19.9858 22.0687 19.9858 21.9959C19.9858 21.9959 20.0587 22.0688 20.1315 22.0688C20.2773 22.0688 20.2773 21.9959 20.2773 21.923C20.2773 21.923 20.3502 21.9959 20.423 21.9959H20.5687L20.7145 21.7044V21.1214L20.4229 20.7571L19.5486 20.9756Z" fill="#FFD15C"/>
<path d="M19.8406 21.4128C19.8406 21.4128 19.5491 21.4857 19.4034 21.7044C19.2577 21.8501 19.4034 22.0687 19.622 22.0687C19.8406 22.0687 20.1322 21.9958 20.2779 21.8501C20.4236 21.7772 20.6422 21.6315 20.788 21.6315C20.9337 21.6315 21.0795 21.7772 21.5896 21.7772C22.0997 21.7772 22.9743 21.6315 23.4115 21.6315L23.8487 21.7044L23.3386 20.6112C23.3386 20.6112 22.4641 20.6841 22.2455 20.6112C22.0269 20.5383 20.8608 20.2469 20.7151 20.174C20.4965 20.1011 20.4236 20.174 20.3508 20.2469C20.2779 20.3198 19.622 20.6841 19.5492 20.757C19.4763 20.8299 19.4035 21.1214 19.4035 21.1214L19.695 21.2671L19.8407 21.1214C19.9135 21.0486 20.1322 20.9028 20.1322 20.9028H20.5695L20.6424 21.1214C20.5694 21.0485 20.205 21.3399 19.8406 21.4128Z" fill="#FFD15C"/>
<path d="M22.9739 21.9231C22.9739 21.9231 22.8282 20.9028 23.1197 20.6113L24.7229 20.6842C24.7229 20.6842 25.1602 20.5385 25.5245 20.5385C25.8889 20.5385 26.1075 20.4656 26.3261 20.4656C26.5447 20.3927 27.4921 20.1741 27.4921 20.1741L28.4395 21.7773C28.4395 21.7773 26.6905 22.1417 25.9618 22.1417C25.233 22.1417 24.65 22.0688 24.65 22.0688L22.9739 21.9231Z" fill="#CED6E0"/>
<path d="M25.379 22.3603C25.379 22.3603 25.3061 22.5061 25.4518 22.3603C25.5976 22.2146 26.1077 22.0688 26.1806 21.9231C26.3263 21.7774 26.7636 21.3401 26.9094 20.9757C27.0551 20.6113 27.0551 20.1741 27.3466 19.8826C27.6382 19.5911 28.1482 17.4777 29.6058 18.1336C30.9904 18.7895 31.792 20.3927 31.7191 21.4858C31.6462 22.6519 31.792 23.1619 31.2818 23.5992C30.7717 24.0364 28.9499 25.0566 27.8568 25.3482C26.7637 25.6397 26.1078 25.7854 25.8163 25.9311C25.5247 26.004 24.7232 26.0769 24.3588 25.8582C23.9945 25.5667 23.7758 24.838 23.9945 24.1093C24.2131 23.3805 24.2131 23.0161 24.2131 23.0161C24.2131 23.0161 24.3587 22.6518 25.379 22.3603Z" fill="#F3F3F3"/>
<path d="M28.4394 13.0323L28.9496 13.178C28.9496 13.178 28.8767 12.6679 29.2411 12.3764C29.6054 12.0849 30.1885 12.7408 30.5528 13.4695C30.9172 14.1983 32.4475 14.0525 32.4475 14.0525C32.4475 14.0525 32.4475 13.5424 32.8119 12.9594C33.1762 12.3764 33.6864 10.1173 31.9374 8.87845C30.1884 7.63961 28.2937 8.73272 28.2937 8.73272C28.2937 8.73272 27.9293 9.38859 28.3666 9.60721C28.8038 9.82584 28.8767 9.68011 28.8038 10.0445C28.7309 10.336 28.4395 10.4817 28.3666 10.7732C28.3666 10.8461 28.3666 10.9918 28.4395 11.0647C28.5123 11.2833 28.658 11.7205 28.4394 13.0323Z" fill="#415A6B"/>
<path d="M11.4598 17.915C11.4598 17.915 10.5124 18.2066 10.221 18.3523C9.92945 18.498 10.0023 18.498 9.85662 18.5709C9.7109 18.5709 9.5651 18.5709 9.34648 18.6438C9.12786 18.7167 9.05496 18.7895 8.90923 18.7895C8.76351 18.7895 8.61771 18.7895 8.39909 18.8624C8.25336 18.9353 7.81612 18.9353 7.81612 18.9353L6.7959 19.0082L7.45177 21.4131C7.45177 21.4131 9.27365 20.9029 9.78373 20.6843C10.3667 20.3928 11.8971 20.0284 11.8971 20.0284C11.8971 20.0284 11.1684 18.498 11.4598 17.915Z" fill="#344A5E"/>
<path d="M8.54481 10.2631C8.54481 10.2631 8.32619 10.8461 8.25329 10.9919C8.10756 11.1376 8.18039 11.2834 8.25329 11.4292C8.32619 11.5749 8.54481 11.8664 8.61764 11.9393C8.69047 12.0122 8.61764 12.2308 8.47191 12.2308H8.18039C8.18039 12.2308 8.32612 12.8138 8.03467 12.8138C8.03467 12.8138 8.18039 12.9595 8.03467 13.0324C7.88894 13.1781 8.18039 13.6883 7.37879 13.834C6.5772 14.0526 5.84843 15.2915 5.84843 15.2915L3.29785 13.3968L3.44358 12.8866C3.44358 12.8866 4.09945 10.1902 5.19256 9.68017C6.21278 9.24293 8.61764 9.38865 8.54481 10.2631Z" fill="#FFD15C"/>
<path d="M3.44339 12.8866C3.44339 12.8866 4.97375 12.7409 5.04665 11.6478C5.19237 10.4817 6.35839 10.7733 6.43128 11.2834C6.50418 11.7935 6.57701 11.7207 6.57701 11.7207L6.94136 11.6478C6.94136 11.6478 6.57701 11.2105 7.01426 10.8462C7.4515 10.4818 7.67013 10.7004 7.81585 10.4089C7.81585 10.4089 7.67013 10.8462 7.4515 10.9919C7.4515 10.9919 8.10737 10.9919 8.32599 10.7733C8.54462 10.5546 8.76324 10.1174 8.83614 9.68014C8.83614 9.2429 8.32599 8.4413 7.08715 8.00406C5.84831 7.56681 5.48389 7.27529 4.31795 7.56681C3.152 7.85833 2.93331 9.53442 2.93331 10.0446C2.86042 10.7004 3.22476 12.2307 3.44339 12.8866Z" fill="#415A6B"/>
<path d="M3.44381 12.8865C3.44381 12.8865 3.80815 13.4694 4.46402 13.9796C5.11989 14.4897 6.35874 15.1456 6.35874 15.1456L5.62997 17.1861L2.93359 13.761L3.44381 12.8865Z" fill="white"/>
<path d="M8.03474 23.6719C7.16025 25.5666 6.35865 27.3156 6.35865 27.4614H1.47605C1.47605 27.4614 0.747281 23.7448 0.382932 22.4331C0.0914112 21.1942 -0.0543148 18.7894 0.0185824 18.2792C0.164308 17.7691 0.310103 17.5505 0.601555 16.676C0.893075 15.7286 0.965904 16.093 1.62177 15.1456C2.27764 14.1254 2.78779 13.761 2.78779 13.761C2.78779 13.761 6.50438 17.9877 7.16025 19.0079C7.81612 19.9553 7.96185 22.1416 7.96185 22.1416V23.6719H8.03474Z" fill="#344A5E"/>
<path d="M4.82851 21.2673C4.9014 20.0284 4.46416 18.7167 3.88112 18.0608C3.29814 17.405 2.20503 17.3321 1.33053 18.2795C0.456042 19.2268 0.820391 20.7572 0.820391 20.7572C0.820391 20.7572 1.62199 22.8705 1.76778 23.5993C1.84068 24.3281 2.788 25.7855 3.88112 26.4414C4.53698 26.8058 5.6301 27.0973 6.4317 27.3159C6.57742 26.9516 6.94184 26.0771 7.45192 25.0568C6.28597 23.745 4.75561 21.996 4.82851 21.2673ZM3.29814 13.1782C3.29814 13.1782 3.58966 14.0527 4.39126 14.8543C5.19285 15.6559 7.16046 18.4252 7.59771 19.2268C8.03496 20.0284 8.03496 22.0689 8.03496 22.0689C8.03496 22.0689 7.81633 20.6114 7.59771 19.9555C7.37909 19.2997 5.92162 17.5507 5.26575 16.9677C4.68278 16.4576 3.29814 14.8544 2.8609 14.1256C2.788 13.907 2.8609 13.7613 2.93379 13.6155L3.29814 13.1782Z" fill="#415A6B"/>
<path d="M16.3429 15.3643V16.7488H15.9785V15.3643H16.3429Z" fill="#66C6B9"/>
<path d="M17.1436 13.9067V16.7488H16.7793V13.9067H17.1436Z" fill="#FFD15C"/>
<path d="M17.8731 15.9473V16.7489H17.5088V15.9473H17.8731Z" fill="#55C0EB"/>
<path d="M18.674 15.1458V16.8218H18.3096V15.1458H18.674Z" fill="#415A6B"/>
<path d="M19.4034 14.7813V16.8218H19.0391V14.7085L19.4034 14.7813Z" fill="#F3705A"/>
<path d="M20.2052 16.3118V16.8219H19.8408V16.3118H20.2052Z" fill="#FFD15C"/>
<path d="M20.9337 14.2712V16.8947L20.5693 16.8218V14.2712H20.9337Z" fill="#55C0EB"/>
<path d="M21.7354 15.8745V16.8948H21.3711V15.8745H21.7354Z" fill="#415A6B"/>
<path d="M22.464 15.2186V16.8947H22.0996V15.1458L22.464 15.2186Z" fill="#66C6B9"/>
<path d="M23.2657 15.6558V16.9675L22.9014 16.8947V15.6558H23.2657Z" fill="#F3705A"/>
<path d="M14.0107 11.575C13.5735 11.575 13.1362 11.7207 12.8447 12.0122L14.0107 13.251V11.575Z" fill="#415A6B"/>
<path d="M15.1768 12.0851C14.8852 11.7936 14.448 11.575 14.0107 11.575V13.251L15.1768 12.0851Z" fill="#66C6B9"/>
<path d="M14.0107 13.251L14.448 14.8542C15.1768 14.6356 15.6868 13.9797 15.6868 13.251C15.6868 12.8137 15.5411 12.3765 15.1767 12.085L14.0107 13.251Z" fill="#F3705A"/>
<path d="M12.8441 12.085C12.5172 12.4144 12.3339 12.8597 12.334 13.3238C12.334 14.1254 12.917 14.7813 13.6457 14.9999L14.0101 13.3238L12.8441 12.085Z" fill="#55C0EB"/>
<path d="M13.6465 14.9271H14.0108C14.1566 14.9271 14.3024 14.9271 14.4481 14.8542L14.0108 13.251L13.6465 14.9271Z" fill="#FFD15C"/>
</svg>
