<svg width="40" height="40" viewBox="0 0 40 40" fill="none" xmlns="http://www.w3.org/2000/svg">
<circle cx="20" cy="20" r="20" fill="url(#paint0_linear_153_10976)"/>
<path fill-rule="evenodd" clip-rule="evenodd" d="M9 13.5C9 11.0149 11.0149 9 13.5 9H27C29.4851 9 31.5 11.0149 31.5 13.5V24C31.5 26.4851 29.4851 28.5 27 28.5H23.2155L20.8144 31.2439C20.744 31.3243 20.6572 31.3888 20.5599 31.4329C20.4625 31.4771 20.3569 31.4999 20.25 31.4999C20.1431 31.4999 20.0375 31.4771 19.9401 31.4329C19.8428 31.3888 19.756 31.3243 19.6856 31.2439L17.2849 28.5H13.5C11.0149 28.5 9 26.4851 9 24V13.5ZM20.25 13.5C20.42 13.5 20.5849 13.5577 20.7178 13.6638C20.8506 13.7698 20.9435 13.9178 20.9813 14.0835L21.3964 15.9086C21.4904 16.3222 21.6995 16.7007 21.9994 17.0006C22.2993 17.3005 22.6778 17.5096 23.0914 17.6036L24.9165 18.0187C25.0822 18.0565 25.2302 18.1494 25.3361 18.2823C25.4421 18.4151 25.4998 18.5801 25.4998 18.75C25.4998 18.9199 25.4421 19.0849 25.3361 19.2177C25.2302 19.3506 25.0822 19.4435 24.9165 19.4813L23.0914 19.8964C22.6778 19.9904 22.2993 20.1995 21.9994 20.4994C21.6995 20.7993 21.4904 21.1778 21.3964 21.5914L20.9813 23.4161C20.9435 23.5818 20.8506 23.7298 20.7177 23.8358C20.5849 23.9418 20.4199 23.9995 20.25 23.9995C20.0801 23.9995 19.9151 23.9418 19.7823 23.8358C19.6494 23.7298 19.5565 23.5818 19.5187 23.4161L19.1036 21.5914C19.0096 21.1778 18.8005 20.7993 18.5006 20.4994C18.2007 20.1995 17.8222 19.9904 17.4086 19.8964L15.5839 19.4813C15.4182 19.4435 15.2702 19.3506 15.1642 19.2177C15.0582 19.0849 15.0005 18.9199 15.0005 18.75C15.0005 18.5801 15.0582 18.4151 15.1642 18.2823C15.2702 18.1494 15.4182 18.0565 15.5839 18.0187L17.4086 17.6036C17.8222 17.5096 18.2007 17.3005 18.5006 17.0006C18.8005 16.7007 19.0096 16.3222 19.1036 15.9086L19.5187 14.0839C19.5564 13.9181 19.6493 13.77 19.7821 13.6639C19.915 13.5578 20.08 13.5 20.25 13.5Z" fill="white"/>
<defs>
<linearGradient id="paint0_linear_153_10976" x1="0" y1="20" x2="40" y2="20" gradientUnits="userSpaceOnUse">
<stop stop-color="#9247E7"/>
<stop offset="1" stop-color="#4D35E5"/>
</linearGradient>
</defs>
</svg>
