<svg width="40" height="40" viewBox="0 0 40 40" fill="none" xmlns="http://www.w3.org/2000/svg">
<circle cx="20" cy="20" r="20" fill="url(#paint0_linear_153_10958)"/>
<path d="M25.9375 11.4565H25.1125V10.675C25.1125 10.496 25.0414 10.3243 24.9148 10.1977C24.7882 10.0711 24.6165 10 24.4375 10C24.2585 10 24.0868 10.0711 23.9602 10.1977C23.8336 10.3243 23.7625 10.496 23.7625 10.675V11.4565H19.675V10.675C19.675 10.496 19.6039 10.3243 19.4773 10.1977C19.3507 10.0711 19.179 10 19 10C18.821 10 18.6493 10.0711 18.5227 10.1977C18.3961 10.3243 18.325 10.496 18.325 10.675V11.4565H14.2375V10.675C14.2375 10.496 14.1664 10.3243 14.0398 10.1977C13.9132 10.0711 13.7415 10 13.5625 10C13.3835 10 13.2118 10.0711 13.0852 10.1977C12.9586 10.3243 12.8875 10.496 12.8875 10.675V11.4565H12.0625C11.5155 11.4565 10.9909 11.6738 10.6041 12.0606C10.2173 12.4474 10 12.972 10 13.519V15.8432H28V13.519C28 12.972 27.7827 12.4474 27.3959 12.0606C27.0091 11.6738 26.4845 11.4565 25.9375 11.4565ZM30.46 22.3682C29.7475 21.6482 28.5775 21.6482 27.865 22.3682L27.0018 23.2367L29.5983 25.8333L30.4608 24.9708C31.18 24.2508 31.18 23.0882 30.46 22.3682ZM26.2068 24.0333L21.655 28.5783C21.5578 28.6727 21.4945 28.7966 21.475 28.9307L21.13 30.9408C21.1132 31.044 21.1212 31.1498 21.1533 31.2494C21.1854 31.349 21.2407 31.4395 21.3147 31.5135C21.3887 31.5875 21.4792 31.6429 21.5788 31.675C21.6784 31.7071 21.7842 31.7151 21.8875 31.6982L23.8975 31.3607C24.0325 31.3382 24.16 31.2708 24.2575 31.1732L28.8025 26.6283L26.2068 24.0333Z" fill="white"/>
<path d="M27.067 21.5754C27.3339 21.3058 27.6508 21.0908 28 20.9424V16.9719H10V29.6432C10 30.7832 10.9225 31.7057 12.0625 31.7057H20.1325C20.0125 31.4057 19.9653 31.0794 20.0208 30.7532L20.3658 28.7402C20.4303 28.3569 20.6178 28.0044 20.893 27.7509L25.8407 22.8092L27.067 21.5754ZM18.73 28.3524H13.6375C13.4585 28.3524 13.2868 28.2813 13.1602 28.1547C13.0336 28.0281 12.9625 27.8564 12.9625 27.6774C12.9625 27.4984 13.0336 27.3267 13.1602 27.2001C13.2868 27.0735 13.4585 27.0024 13.6375 27.0024H18.73C18.909 27.0024 19.0807 27.0735 19.2073 27.2001C19.3339 27.3267 19.405 27.4984 19.405 27.6774C19.405 27.8564 19.3339 28.0281 19.2073 28.1547C19.0807 28.2813 18.909 28.3524 18.73 28.3524ZM21.9325 24.7299H13.6375C13.4585 24.7299 13.2868 24.6588 13.1602 24.5322C13.0336 24.4056 12.9625 24.2339 12.9625 24.0549C12.9625 23.8759 13.0336 23.7042 13.1602 23.5776C13.2868 23.451 13.4585 23.3799 13.6375 23.3799H21.9325C22.1115 23.3799 22.2832 23.451 22.4098 23.5776C22.5364 23.7042 22.6075 23.8759 22.6075 24.0549C22.6075 24.2339 22.5364 24.4056 22.4098 24.5322C22.2832 24.6588 22.1115 24.7299 21.9325 24.7299ZM24.3595 21.1157H13.6405C13.4615 21.1157 13.2898 21.0446 13.1632 20.918C13.0366 20.7914 12.9655 20.6197 12.9655 20.4407C12.9655 20.2617 13.0366 20.09 13.1632 19.9634C13.2898 19.8368 13.4615 19.7657 13.6405 19.7657H24.3595C24.5385 19.7657 24.7102 19.8368 24.8368 19.9634C24.9634 20.09 25.0345 20.2617 25.0345 20.4407C25.0345 20.6197 24.9634 20.7914 24.8368 20.918C24.7102 21.0446 24.5385 21.1157 24.3595 21.1157Z" fill="white"/>
<defs>
<linearGradient id="paint0_linear_153_10958" x1="0" y1="20" x2="40" y2="20" gradientUnits="userSpaceOnUse">
<stop stop-color="#9247E7"/>
<stop offset="1" stop-color="#4D35E5"/>
</linearGradient>
</defs>
</svg>
