<svg width="35" height="35" viewBox="0 0 35 35" fill="none" xmlns="http://www.w3.org/2000/svg">
<path d="M16.5381 7.73472H16.5434L25.917 5.22056C26.4698 5.07494 27.0362 5.40323 27.1845 5.95514L28.5193 10.942L29.1246 13.2028V13.2081L31.9697 23.813C32.1179 24.3642 31.7914 24.9315 31.2402 25.0803L25.5342 26.6065L16.5381 7.73472Z" fill="#F3D55B"/>
<path d="M7.83646 5.75861C7.95663 5.67795 8.09279 5.62416 8.23564 5.60093C8.3785 5.5777 8.52468 5.58557 8.66422 5.624L28.6533 10.9783C29.2045 11.1272 29.531 11.6944 29.3829 12.2456L24.0285 32.2347C23.8797 32.7859 23.3125 33.1124 22.7611 32.9643L2.77193 27.6099C2.22072 27.4611 1.89425 26.8939 2.04263 26.3424L6.34667 10.2747L7.83646 5.75861Z" fill="#F9EAB0"/>
<path d="M25.3961 14.6408C25.3509 14.641 25.3059 14.6351 25.2622 14.6234L17.9038 12.6538C17.8382 12.6362 17.7766 12.6059 17.7227 12.5645C17.6689 12.5231 17.6236 12.4716 17.5897 12.4127C17.5557 12.3539 17.5337 12.2889 17.5249 12.2216C17.516 12.1542 17.5205 12.0858 17.5382 12.0202C17.5557 11.9545 17.5861 11.893 17.6274 11.8391C17.6688 11.7852 17.7204 11.74 17.7792 11.706C17.8381 11.672 17.903 11.65 17.9704 11.6411C18.0377 11.6323 18.1062 11.6368 18.1718 11.6544L25.53 13.6265C25.6513 13.6589 25.7566 13.7343 25.8264 13.8386C25.8962 13.9429 25.9257 14.0691 25.9094 14.1935C25.893 14.3179 25.8319 14.4322 25.7376 14.5149C25.6433 14.5977 25.5221 14.6434 25.3966 14.6436L25.3961 14.6408ZM24.5922 17.6414C24.5471 17.6414 24.502 17.6354 24.4583 17.6238L19.4558 16.2853C19.3677 16.2622 19.2873 16.2163 19.2226 16.1521C19.158 16.088 19.1115 16.0079 19.0877 15.92C19.0641 15.832 19.064 15.7394 19.0876 15.6515C19.1111 15.5635 19.1575 15.4833 19.2219 15.419C19.2864 15.3547 19.3667 15.3085 19.4547 15.2852C19.5427 15.2618 19.6353 15.262 19.7232 15.2859L24.7257 16.6244C24.8469 16.6568 24.9523 16.7322 25.0221 16.8365C25.0919 16.9408 25.1214 17.067 25.1051 17.1914C25.0887 17.3159 25.0277 17.4302 24.9333 17.513C24.839 17.5957 24.7178 17.6414 24.5922 17.6414ZM23.791 20.6418C23.7456 20.6418 23.7003 20.6359 23.6564 20.6242L17.4331 18.9538C17.1571 18.8796 16.9936 18.5957 17.0675 18.3197C17.1032 18.1872 17.19 18.0742 17.3089 18.0057C17.4278 17.9372 17.5691 17.9188 17.7016 17.9544L23.9249 19.6247C24.0462 19.6571 24.1515 19.7326 24.2213 19.8369C24.291 19.9413 24.3204 20.0675 24.304 20.192C24.2876 20.3164 24.2266 20.4307 24.1322 20.5134C24.0378 20.5962 23.9165 20.6418 23.791 20.6418ZM8.49536 19.755C8.44999 19.7551 8.4048 19.7493 8.36098 19.7376L6.86065 19.3356C6.72814 19.2999 6.61521 19.2131 6.54671 19.0941C6.4782 18.9752 6.45972 18.834 6.49532 18.7015C6.56928 18.4256 6.85309 18.262 7.12916 18.3361L8.6295 18.7379C8.75074 18.7705 8.85603 18.846 8.92577 18.9504C8.9955 19.0547 9.02494 19.1809 9.0086 19.3054C8.99219 19.4298 8.93108 19.5441 8.83664 19.6268C8.7422 19.7095 8.6209 19.7551 8.49536 19.755ZM22.9859 23.6376C22.9408 23.6376 22.8957 23.6316 22.852 23.62L11.3593 20.5382C11.0832 20.4643 10.9196 20.1805 10.9935 19.9044C11.0111 19.8388 11.0415 19.7773 11.0829 19.7234C11.1243 19.6695 11.1759 19.6243 11.2347 19.5903C11.2936 19.5564 11.3585 19.5344 11.4259 19.5255C11.4933 19.5167 11.5617 19.5212 11.6274 19.5388L23.12 22.6177C23.2413 22.6502 23.3466 22.7257 23.4163 22.83C23.4861 22.9344 23.5155 23.0606 23.4992 23.185C23.4829 23.3094 23.4219 23.4236 23.3275 23.5064C23.2332 23.5891 23.1121 23.6348 22.9866 23.6348L22.9859 23.6376ZM7.69163 22.7528C7.64631 22.7531 7.60116 22.7472 7.55743 22.7352L6.05739 22.3339C5.78137 22.26 5.61763 21.9761 5.69159 21.7C5.76555 21.4242 6.04942 21.2603 6.32526 21.3345L7.82553 21.7358C7.9468 21.7683 8.05212 21.8438 8.12187 21.9482C8.19161 22.0526 8.22103 22.1788 8.20463 22.3032C8.18825 22.4277 8.12717 22.5419 8.03278 22.6246C7.93839 22.7073 7.81714 22.7529 7.69163 22.7528ZM22.1831 26.6359C22.1378 26.6359 22.0929 26.63 22.0492 26.6184L10.5558 23.5387C10.4681 23.5152 10.3881 23.469 10.3239 23.4047C10.2597 23.3405 10.2136 23.2605 10.1901 23.1728C10.1666 23.0851 10.1666 22.9927 10.1902 22.905C10.2137 22.8173 10.2599 22.7373 10.3242 22.6731C10.3884 22.6089 10.4684 22.5627 10.5561 22.5393C10.6438 22.5158 10.7361 22.5158 10.8239 22.5393L22.3165 25.6188C22.4378 25.6513 22.5431 25.7267 22.6128 25.831C22.6826 25.9353 22.712 26.0614 22.6957 26.1859C22.6794 26.3103 22.6184 26.4246 22.5241 26.5074C22.4298 26.5902 22.3086 26.6359 22.1831 26.6359Z" fill="#802F34"/>
<path d="M16.9881 18.6448L13.5791 17.5067L16.5072 14.5786L17.6451 17.9879C17.6749 18.0793 17.6789 18.1772 17.6565 18.2708C17.6341 18.3643 17.5862 18.4499 17.5182 18.5179C17.4502 18.5859 17.3646 18.6338 17.2711 18.6562C17.1775 18.6786 17.0796 18.6746 16.9882 18.6448L16.9881 18.6448Z" fill="#BDC3C7"/>
<path d="M6.99835 5.07052L4.07029 7.99853L2.6064 6.53435C1.79787 5.72587 1.79787 4.41505 2.6064 3.60658C3.41494 2.79781 4.72593 2.79781 5.53446 3.60658L6.99835 5.07052Z" fill="#FB7B76"/>
<path d="M16.5066 14.5786L15.4098 15.6753V15.6805L14.6802 16.4098H14.6753L13.5785 17.5066L5.53418 9.46224L6.63596 8.3655L7.36556 7.6362L8.46224 6.53418L16.5066 14.5786Z" fill="#E64C3C"/>
<path d="M4.07031 7.99832L6.99808 5.07031L8.46203 6.53443L5.53426 9.46226L4.07031 7.99832Z" fill="#BDC3C7"/>
<path d="M9.19139 10.1918C9.09305 10.2875 8.9614 10.3413 8.82419 10.3418C8.68848 10.3412 8.55844 10.2873 8.46202 10.1918L6.63574 8.36554L7.36534 7.63623L9.19139 9.46228C9.28773 9.55924 9.3418 9.69038 9.3418 9.82708C9.3418 9.96377 9.28773 10.0949 9.19139 10.1918ZM15.4096 15.6752V15.6805L14.68 16.4099H14.675L9.92093 11.6558C9.85641 11.5913 9.81 11.511 9.78637 11.4229C9.76274 11.3349 9.76273 11.2421 9.78633 11.154C9.80993 11.0659 9.85632 10.9856 9.92082 10.9212C9.98532 10.8567 10.0657 10.8104 10.1538 10.7868C10.2418 10.7632 10.3346 10.7632 10.4226 10.7868C10.5107 10.8104 10.591 10.8567 10.6555 10.9212L15.4096 15.6752Z" fill="#C03A2B"/>
</svg>
