<svg width="35" height="35" viewBox="0 0 35 35" fill="none" xmlns="http://www.w3.org/2000/svg">
<path fill-rule="evenodd" clip-rule="evenodd" d="M18.6426 21.6677V9.34669C18.6426 5.50412 21.6939 2.36304 25.4279 2.36304C29.162 2.36304 32.2132 5.50412 32.2132 9.34669V21.6677H18.6426Z" fill="#CC7400"/>
<path fill-rule="evenodd" clip-rule="evenodd" d="M30.1234 20.375H20.3186C18.517 20.375 17.041 21.8492 17.041 23.6507V33.7473H30.1234C31.925 33.7473 33.401 32.2731 33.401 30.4716V23.6507C33.401 21.8492 31.9249 20.375 30.1234 20.375Z" fill="#006A98"/>
<path fill-rule="evenodd" clip-rule="evenodd" d="M23.3042 20.3749V15.0938H27.5509V20.3749H29.0475L26.6342 30.4473H24.2209L21.8076 20.3749H23.3042Z" fill="#F9D798"/>
<path fill-rule="evenodd" clip-rule="evenodd" d="M23.3047 19.101V15.0938H27.5514V19.651C27.0706 19.7988 26.5617 19.8774 26.0341 19.8774C25.0351 19.8774 24.0997 19.593 23.3047 19.101Z" fill="#F7C67F"/>
<path fill-rule="evenodd" clip-rule="evenodd" d="M30.0996 33.7473H30.1239C31.9255 33.7473 33.4015 32.2732 33.4015 30.4716V25.4336H30.0996V30.4473H24.6631V33.7473H30.0996Z" fill="#006A98"/>
<path fill-rule="evenodd" clip-rule="evenodd" d="M30.6434 9.5169V13.8908C30.6434 16.7587 28.2956 19.1065 25.4277 19.1065C22.5598 19.1065 20.2119 16.7587 20.2119 13.8908V9.5169H26.9468L28.6978 8.04834V9.5169H30.6434Z" fill="#F9D798"/>
<path fill-rule="evenodd" clip-rule="evenodd" d="M24.6633 33.7473H21.7037C20.7945 33.7473 20.0518 33.0046 20.0518 32.0973C20.0518 31.19 20.7945 30.4473 21.7037 30.4473H24.6633V33.7473Z" fill="#FDC8A2"/>
<path fill-rule="evenodd" clip-rule="evenodd" d="M4.20189 29.828H19.1663C19.6321 29.828 20.0156 29.4464 20.0156 28.9786V18.8091C20.0156 18.3413 19.6321 17.9597 19.1663 17.9597H4.20189C3.73604 17.9597 3.35254 18.3413 3.35254 18.8091V28.9786C3.35254 29.4463 3.73604 29.828 4.20189 29.828Z" fill="#EFEDEF"/>
<path fill-rule="evenodd" clip-rule="evenodd" d="M13.4012 27.1548L14.5648 33.7474H8.80469L9.96646 27.1548H13.4012Z" fill="#CCD1D9"/>
<path fill-rule="evenodd" clip-rule="evenodd" d="M4.74316 31.9028H18.6262V33.7474H4.74316V31.9028Z" fill="#EFEDEF"/>
<path fill-rule="evenodd" clip-rule="evenodd" d="M8.91115 2.25269C12.5854 2.25269 15.5655 5.23095 15.5655 8.90707C15.5655 10.0763 15.2643 11.1763 14.733 12.1304L15.6366 14.8487L12.8454 14.2744C11.7435 15.0844 10.3835 15.5633 8.91115 15.5633C5.23502 15.5633 2.25488 12.5832 2.25488 8.90707C2.25488 5.23095 5.23502 2.25269 8.91115 2.25269Z" fill="#08A9F1"/>
<path fill-rule="evenodd" clip-rule="evenodd" d="M7.03035 7.87617L7.59157 7.31495C7.70191 7.20643 7.71876 7.0381 7.63459 6.90897L6.45598 5.09806C6.39987 5.01201 6.31752 4.96148 6.21839 4.95215C6.11738 4.94094 6.0257 4.97275 5.95462 5.0457C4.04827 6.95018 5.14272 9.1764 6.89189 10.9256C8.64106 12.6747 10.8673 13.7692 12.7718 11.8628C12.8428 11.7918 12.8765 11.7001 12.8653 11.5991C12.8541 11.4981 12.8055 11.4157 12.7194 11.3615L10.9085 10.1829C10.8464 10.1419 10.7721 10.1236 10.6982 10.1311C10.6242 10.1386 10.5551 10.1714 10.5025 10.224L9.93941 10.7871C9.73176 10.9948 9.41746 11.0285 9.17053 10.8694C8.74213 10.5944 8.3287 10.2614 7.94144 9.87602C7.55607 9.48877 7.22304 9.07533 6.94806 8.64693C6.789 8.39995 6.82263 8.08383 7.03035 7.87617Z" fill="#E2F0FA"/>
<path fill-rule="evenodd" clip-rule="evenodd" d="M26.635 30.4473L27.967 24.8835H22.8896L24.2217 30.4473H24.6632H26.635Z" fill="#EFEDEF"/>
<path fill-rule="evenodd" clip-rule="evenodd" d="M20.2119 10.1418H18.8125C18.0436 10.1418 17.415 10.7723 17.415 11.5412V12.0856C17.415 12.8545 18.0436 13.4849 18.8125 13.4849H20.2119V10.1418ZM30.6433 10.1418H32.0408C32.8116 10.1418 33.4402 10.7723 33.4402 11.5412V12.0856C33.4402 12.8545 32.8116 13.4849 32.0408 13.4849H30.6433V10.1418Z" fill="#6A6D8F"/>
<path fill-rule="evenodd" clip-rule="evenodd" d="M18.25 29.828H19.1667C19.6325 29.828 20.016 29.4464 20.016 28.9786V18.8091C20.016 18.3413 19.6325 17.9597 19.1667 17.9597H18.25C18.5269 18.1037 18.7158 18.3938 18.7158 18.7248V29.0609C18.7158 29.3939 18.5269 29.6839 18.25 29.828Z" fill="#E5E1E5"/>
</svg>
