<svg width="35" height="35" viewBox="0 0 35 35" fill="none" xmlns="http://www.w3.org/2000/svg">
<path d="M18.168 2.50146V33.499C26.6509 33.4091 33.4996 26.5043 33.4996 18.0002C33.4996 9.49608 26.6509 2.59126 18.168 2.50146Z" fill="#FFB751"/>
<path d="M18.1684 2.50127C18.1122 2.50061 18.0561 2.5 18 2.5C9.43976 2.5 2.5 9.43976 2.5 18C2.5 26.5602 9.43976 33.5 18 33.5C18.0561 33.5 18.1122 33.4994 18.1684 33.4987C25.2728 33.3914 31.005 26.4935 31.005 18C31.005 9.50648 25.2728 2.60856 18.1684 2.50127Z" fill="#FFD764"/>
<path d="M7.04199 19.825L8.71284 23.8588C9.82678 23.3975 10.3557 22.1204 9.89435 21.0065C9.43299 19.8925 8.15593 19.3635 7.04199 19.825Z" fill="#FF5440"/>
<path d="M7.04261 19.8247C7.51978 19.627 8.28103 20.3697 8.7424 21.4836C9.20377 22.5975 9.19057 23.6609 8.71346 23.8585C7.59952 24.3199 6.32253 23.791 5.8611 22.677C5.39967 21.5631 5.92867 20.286 7.04261 19.8247ZM15.9211 21.4662C14.5728 21.4662 13.228 21.1435 11.9986 20.503C11.9441 20.4746 11.8958 20.4358 11.8563 20.3887C11.8168 20.3416 11.787 20.2872 11.7686 20.2286C11.7501 20.17 11.7434 20.1084 11.7488 20.0472C11.7541 19.986 11.7715 19.9264 11.7999 19.872C11.8283 19.8175 11.8671 19.7691 11.9142 19.7297C11.9613 19.6902 12.0157 19.6604 12.0743 19.6419C12.1328 19.6235 12.1945 19.6167 12.2557 19.6221C12.3169 19.6275 12.3764 19.6449 12.4309 19.6732C14.4176 20.7083 16.7427 20.8107 18.8101 19.9544C20.8774 19.0981 22.4491 17.3816 23.122 15.2451C23.1603 15.128 23.2432 15.0308 23.3528 14.9746C23.4624 14.9183 23.5897 14.9075 23.7072 14.9445C23.8246 14.9815 23.9228 15.0633 23.9803 15.1722C24.0378 15.2811 24.0501 15.4083 24.0144 15.5262C23.2581 17.9273 21.4917 19.8563 19.1682 20.8189C18.124 21.2513 17.0213 21.4662 15.9211 21.4662Z" fill="#FF804C"/>
<path d="M8.80965 17.2247C8.71709 17.2247 8.6266 17.1972 8.54964 17.1458C8.47268 17.0944 8.4127 17.0213 8.37729 16.9358C7.88371 15.7441 8.45164 14.3732 9.6432 13.8796C10.8347 13.3861 12.2057 13.9539 12.6993 15.1455C12.7452 15.2598 12.7441 15.3876 12.6963 15.5012C12.6485 15.6147 12.5579 15.7048 12.4441 15.7519C12.3303 15.7991 12.2025 15.7994 12.0885 15.7529C11.9744 15.7064 11.8833 15.6168 11.8349 15.5035C11.5387 14.7886 10.716 14.4479 10.0013 14.744C9.28634 15.0401 8.94564 15.8627 9.24171 16.5776C9.26523 16.6344 9.27733 16.6952 9.27733 16.7567C9.27733 16.8181 9.26522 16.8789 9.24171 16.9357C9.2182 16.9924 9.18374 17.044 9.14029 17.0875C9.09685 17.1309 9.04527 17.1654 8.98851 17.1889C8.93184 17.2125 8.87105 17.2247 8.80965 17.2247ZM20.162 12.5224C20.0694 12.5224 19.979 12.495 19.902 12.4436C19.825 12.3921 19.7651 12.319 19.7296 12.2335C19.2361 11.0419 19.8039 9.67099 20.9956 9.17742C21.5727 8.93826 22.2086 8.93826 22.7857 9.17742C23.3629 9.41652 23.8126 9.86608 24.0517 10.4433C24.0752 10.5001 24.0873 10.5609 24.0873 10.6223C24.0873 10.6838 24.0752 10.7446 24.0517 10.8014C24.0281 10.8581 23.9937 10.9097 23.9502 10.9531C23.9068 10.9966 23.8552 11.031 23.7985 11.0545C23.7417 11.078 23.6809 11.0901 23.6195 11.0901C23.558 11.0901 23.4972 11.078 23.4405 11.0545C23.3837 11.031 23.3321 10.9965 23.2887 10.9531C23.2453 10.9097 23.2108 10.8581 23.1873 10.8013C23.1172 10.6308 23.014 10.4758 22.8836 10.3455C22.7532 10.2151 22.5983 10.1119 22.4277 10.0418C22.0814 9.89835 21.7 9.89841 21.3536 10.0418C20.6386 10.3379 20.2979 11.1604 20.594 11.8754C20.6415 11.99 20.6415 12.1188 20.594 12.2334C20.5465 12.348 20.4555 12.4391 20.3409 12.4866C20.2842 12.5102 20.2234 12.5224 20.162 12.5224Z" fill="#401510"/>
<path d="M19.2727 22.7625C19.1801 22.7625 19.0896 22.7351 19.0127 22.6836C18.9357 22.6322 18.8757 22.5591 18.8403 22.4736C18.8168 22.4168 18.8047 22.356 18.8047 22.2946C18.8047 22.2331 18.8168 22.1723 18.8403 22.1156C18.8638 22.0588 18.8983 22.0072 18.9417 21.9638C18.9851 21.9203 19.0367 21.8859 19.0935 21.8624L19.9578 21.5044C20.0146 21.4809 20.0754 21.4688 20.1368 21.4688C20.1983 21.4687 20.2591 21.4808 20.3159 21.5044C20.3726 21.5279 20.4242 21.5623 20.4676 21.6058C20.5111 21.6492 20.5455 21.7008 20.569 21.7575C20.5926 21.8143 20.6047 21.8751 20.6047 21.9365C20.6047 21.998 20.5926 22.0588 20.5691 22.1156C20.5455 22.1723 20.5111 22.2239 20.4677 22.2673C20.4242 22.3108 20.3727 22.3452 20.3159 22.3687L19.4515 22.7267C19.3949 22.7504 19.3341 22.7625 19.2727 22.7625Z" fill="#FFB751"/>
<path d="M27.0391 11.5417L28.7099 15.5756C29.8239 15.1142 30.3528 13.8372 29.8914 12.7232C29.4301 11.6093 28.1529 11.0804 27.0391 11.5417Z" fill="#FF5440"/>
<path d="M27.0387 11.5421C27.5159 11.3444 28.2771 12.0871 28.7385 13.201C29.1999 14.315 29.1867 15.3784 28.7096 15.576C27.5956 16.0374 26.3186 15.5084 25.8572 14.3945C25.3958 13.2805 25.9248 12.0035 27.0387 11.5421Z" fill="#FF804C"/>
</svg>
