<svg width="35" height="35" viewBox="0 0 35 35" fill="none" xmlns="http://www.w3.org/2000/svg">
<path d="M24.2759 14.5531V32H6.89655C6.12834 32 5.39159 31.6948 4.84838 31.1516C4.30517 30.6084 4 29.8717 4 29.1034V6.89655C4 6.12834 4.30517 5.39159 4.84838 4.84838C5.39159 4.30517 6.12834 4 6.89655 4H24.2759V14.5531Z" fill="#F0C419"/>
<path d="M16.8896 9.7931H6.89648C7.6647 9.7931 8.40145 9.48793 8.94466 8.94472C9.48786 8.40151 9.79304 7.66476 9.79304 6.89655C9.79304 6.12834 9.48786 5.39159 8.94466 4.84838C8.40145 4.30517 7.6647 4 6.89648 4H24.2758C25.044 4 25.7808 4.30517 26.324 4.84838C26.8672 5.39159 27.1723 6.12834 27.1723 6.89655C27.1723 6.98055 27.1675 7.06407 27.1579 7.14759L16.8896 9.7931ZM24.2758 32C25.044 32 25.7808 31.6948 26.324 31.1516C26.8672 30.6084 27.1723 29.8717 27.1723 29.1034C27.1723 28.3352 26.8672 27.5985 26.324 27.0553C25.7808 26.5121 25.044 26.2069 24.2758 26.2069H6.89648C7.6647 26.2069 8.40145 26.5121 8.94466 27.0553C9.48786 27.5985 9.79304 28.3352 9.79304 29.1034C9.79304 29.8717 9.48786 30.6084 8.94466 31.1516C8.40145 31.6948 7.6647 32 6.89648 32H24.2758Z" fill="#F3D55B"/>
<path d="M31.9999 6.18701C31.9999 6.18701 31.6668 11.507 28.582 12.4967C27.5841 12.7774 26.6119 13.1424 25.6758 13.5877C25.293 13.7784 24.9323 14.0096 24.5992 14.278C23.9925 14.7586 23.4968 15.3646 23.1461 16.0546C22.9766 16.3915 22.7779 16.713 22.5523 17.0153C22.3262 17.3299 22.0708 17.6225 21.7896 17.8891C19.762 19.8008 17.0489 19.6849 15.813 18.6518L15.3013 17.9712C14.8379 17.0056 13.7323 13.9643 16.2958 10.527C16.291 10.5222 16.291 10.5222 16.2958 10.5174C16.6035 10.1026 16.9407 9.71055 17.3048 9.34425C17.3195 9.32538 17.3356 9.30763 17.353 9.29115C18.2966 8.30109 19.4966 7.59247 20.8192 7.24425C21.2137 7.13998 21.6158 7.06563 22.0213 7.02218H22.0261C22.9107 6.9409 23.8005 6.93444 24.6861 7.00287C25.1399 7.02701 25.5986 7.0608 26.0523 7.08977C26.0572 7.0946 26.0572 7.0946 26.0572 7.08977C28.0606 7.22012 30.0641 7.26356 31.9999 6.18701Z" fill="#67B9CC"/>
<path d="M17.1984 12.1779C17.078 12.2213 16.9453 12.2153 16.8295 12.1609C16.7136 12.1066 16.624 12.0085 16.5804 11.8882C16.425 11.4489 16.3294 10.9912 16.2956 10.5268C16.2908 10.522 16.2908 10.522 16.2956 10.5172C16.6033 10.1024 16.9405 9.71036 17.3046 9.34406C17.1754 10.0862 17.2386 10.8491 17.488 11.5599C17.5315 11.6803 17.5254 11.813 17.4711 11.9288C17.4168 12.0447 17.3187 12.1343 17.1984 12.1779ZM22.0211 7.022C21.5926 7.70761 21.3697 8.50179 21.3791 9.31027C21.3791 9.43831 21.3282 9.5611 21.2377 9.65163C21.1471 9.74217 21.0243 9.79303 20.8963 9.79303C20.7683 9.79303 20.6455 9.74217 20.5549 9.65163C20.4644 9.5611 20.4135 9.43831 20.4135 9.31027C20.4075 8.60119 20.5455 7.89827 20.8191 7.24406C21.2135 7.13979 21.6156 7.06544 22.0211 7.022ZM26.0522 7.08958C25.5008 7.48131 25.0399 7.98669 24.7004 8.57165C24.6356 8.67533 24.5337 8.75052 24.4156 8.78203C24.2974 8.81353 24.1717 8.79901 24.0638 8.74139C23.9559 8.68377 23.8739 8.58735 23.8344 8.47161C23.7948 8.35587 23.8007 8.22944 23.8508 8.11786C24.0728 7.70705 24.3542 7.33127 24.686 7.00269C25.1397 7.02682 25.5984 7.06062 26.0522 7.08958ZM25.6756 13.5875C25.2928 13.7782 24.9322 14.0094 24.5991 14.2779C24.1643 14.1045 23.7712 13.8413 23.4453 13.5054C23.3959 13.461 23.3562 13.4069 23.3287 13.3465C23.3012 13.286 23.2864 13.2205 23.2854 13.1541C23.2843 13.0877 23.297 13.0218 23.3226 12.9605C23.3482 12.8992 23.3861 12.8439 23.4341 12.7979C23.482 12.752 23.5389 12.7164 23.6012 12.6935C23.6636 12.6705 23.73 12.6607 23.7963 12.6646C23.8626 12.6684 23.9273 12.6859 23.9866 12.716C24.0458 12.7461 24.0982 12.788 24.1404 12.8392C24.5591 13.2462 25.0971 13.5085 25.6756 13.5875ZM22.5522 17.0151C22.326 17.3298 22.0706 17.6223 21.7894 17.8889C20.8699 17.7588 19.9863 17.4435 19.1922 16.962C19.0867 16.8926 19.0126 16.7847 18.9856 16.6614C18.9586 16.5381 18.9808 16.4091 19.0476 16.302C19.1144 16.1949 19.2204 16.1181 19.3431 16.0881C19.4657 16.0581 19.5952 16.0772 19.7039 16.1413C20.57 16.6557 21.5466 16.9553 22.5522 17.0151Z" fill="#2FA8CC"/>
<path d="M11.7237 22.8275H7.86166C7.73363 22.8275 7.61084 22.8784 7.5203 22.9689C7.42977 23.0595 7.37891 23.1823 7.37891 23.3103C7.37891 23.4383 7.42977 23.5611 7.5203 23.6517C7.61084 23.7422 7.73363 23.7931 7.86166 23.7931H13.2285V22.8275H11.7237ZM7.86166 21.3793H11.7237C11.8518 21.3793 11.9746 21.3284 12.0651 21.2379C12.1556 21.1473 12.2065 21.0245 12.2065 20.8965C12.2065 20.7685 12.1556 20.6457 12.0651 20.5551C11.9746 20.4646 11.8518 20.4137 11.7237 20.4137H7.86166C7.73363 20.4137 7.61084 20.4646 7.5203 20.5551C7.42977 20.6457 7.37891 20.7685 7.37891 20.8965C7.37891 21.0245 7.42977 21.1473 7.5203 21.2379C7.61084 21.3284 7.73363 21.3793 7.86166 21.3793ZM7.86166 18.9655H12.6893C12.8173 18.9655 12.9401 18.9146 13.0306 18.8241C13.1211 18.7335 13.172 18.6107 13.172 18.4827C13.172 18.3547 13.1211 18.2319 13.0306 18.1413C12.9401 18.0508 12.8173 17.9999 12.6893 17.9999H7.86166C7.73363 17.9999 7.61084 18.0508 7.5203 18.1413C7.42977 18.2319 7.37891 18.3547 7.37891 18.4827C7.37891 18.6107 7.42977 18.7335 7.5203 18.8241C7.61084 18.9146 7.73363 18.9655 7.86166 18.9655ZM7.86166 16.5517H12.6893C12.8173 16.5517 12.9401 16.5008 13.0306 16.4103C13.1211 16.3197 13.172 16.197 13.172 16.0689C13.172 15.9409 13.1211 15.8181 13.0306 15.7276C12.9401 15.637 12.8173 15.5862 12.6893 15.5862H7.86166C7.73363 15.5862 7.61084 15.637 7.5203 15.7276C7.42977 15.8181 7.37891 15.9409 7.37891 16.0689C7.37891 16.197 7.42977 16.3197 7.5203 16.4103C7.61084 16.5008 7.73363 16.5517 7.86166 16.5517ZM7.86166 14.1379H12.6893C12.8173 14.1379 12.9401 14.087 13.0306 13.9965C13.1211 13.9059 13.172 13.7832 13.172 13.6551C13.172 13.5271 13.1211 13.4043 13.0306 13.3138C12.9401 13.2232 12.8173 13.1724 12.6893 13.1724H7.86166C7.73363 13.1724 7.61084 13.2232 7.5203 13.3138C7.42977 13.4043 7.37891 13.5271 7.37891 13.6551C7.37891 13.7832 7.42977 13.9059 7.5203 13.9965C7.61084 14.087 7.73363 14.1379 7.86166 14.1379Z" fill="#35495E"/>
<path d="M13.2287 23.7931C13.1591 23.7931 13.0903 23.778 13.027 23.7489C12.9638 23.7198 12.9076 23.6773 12.8623 23.6245C12.817 23.5716 12.7836 23.5095 12.7646 23.4426C12.7455 23.3756 12.7411 23.3053 12.7518 23.2365C13.3007 20.4848 14.5085 17.9071 16.2716 15.7243L16.2846 15.7079C20.2061 10.8494 23.1881 9.67676 28.0031 9.00863C28.0659 8.99978 28.1298 9.00339 28.1912 9.01925C28.2526 9.03511 28.3103 9.06291 28.3609 9.10106C28.4116 9.13921 28.4542 9.18696 28.4864 9.24159C28.5186 9.29622 28.5398 9.35666 28.5486 9.41945C28.5575 9.48225 28.5538 9.54617 28.538 9.60757C28.5221 9.66897 28.4943 9.72664 28.4562 9.7773C28.418 9.82795 28.3703 9.8706 28.3156 9.9028C28.261 9.935 28.2006 9.95613 28.1378 9.96497C23.4975 10.6085 20.7921 11.6759 17.0681 16.2737C16.3696 18.0023 15.9794 19.8399 15.9153 21.7032C15.9147 21.7786 15.8965 21.8528 15.8622 21.9198C15.8278 21.9869 15.7782 22.045 15.7174 22.0895L13.5141 23.7024C13.431 23.7621 13.3311 23.7939 13.2287 23.7931Z" fill="#3F5C6C"/>
</svg>
