<svg width="36" height="36" viewBox="0 0 36 36" fill="none" xmlns="http://www.w3.org/2000/svg">
<g clip-path="url(#clip0_441_337)">
<path d="M14.2324 4.16284H29.8726V24.2274H14.2324V4.16284Z" fill="#E3F1FF"/>
<path fill-rule="evenodd" clip-rule="evenodd" d="M22.8448 8.07635C22.7179 8.07635 22.5962 8.02569 22.5064 7.93553C22.4167 7.84536 22.3663 7.72306 22.3663 7.59555C22.3663 7.46803 22.4167 7.34574 22.5064 7.25557C22.5962 7.1654 22.7179 7.11475 22.8448 7.11475H27.0429C27.1699 7.11475 27.2916 7.1654 27.3813 7.25557C27.471 7.34574 27.5215 7.46803 27.5215 7.59555C27.5215 7.72306 27.471 7.84536 27.3813 7.93553C27.2916 8.02569 27.1699 8.07635 27.0429 8.07635H22.8448ZM17.0615 21.2759C16.9346 21.2759 16.8129 21.2253 16.7232 21.1351C16.6334 21.0449 16.583 20.9226 16.583 20.7951C16.583 20.6676 16.6334 20.5453 16.7232 20.4552C16.8129 20.365 16.9346 20.3143 17.0615 20.3143H27.043C27.1699 20.3143 27.2916 20.365 27.3814 20.4552C27.4711 20.5453 27.5215 20.6676 27.5215 20.7951C27.5215 20.9226 27.4711 21.0449 27.3814 21.1351C27.2916 21.2253 27.1699 21.2759 27.043 21.2759H17.0615ZM17.0615 18.6361C16.9346 18.6361 16.8129 18.5854 16.7232 18.4952C16.6334 18.4051 16.583 18.2828 16.583 18.1553C16.583 18.0277 16.6334 17.9054 16.7232 17.8153C16.8129 17.7251 16.9346 17.6745 17.0615 17.6745H27.043C27.1699 17.6745 27.2916 17.7251 27.3814 17.8153C27.4711 17.9054 27.5215 18.0277 27.5215 18.1553C27.5215 18.2828 27.4711 18.4051 27.3814 18.4952C27.2916 18.5854 27.1699 18.6361 27.043 18.6361H17.0615ZM17.0615 15.9961C16.9346 15.9961 16.8129 15.9455 16.7232 15.8553C16.6334 15.7651 16.583 15.6428 16.583 15.5153C16.583 15.3878 16.6334 15.2655 16.7232 15.1753C16.8129 15.0852 16.9346 15.0345 17.0615 15.0345H27.043C27.1699 15.0345 27.2916 15.0852 27.3814 15.1753C27.4711 15.2655 27.5215 15.3878 27.5215 15.5153C27.5215 15.6428 27.4711 15.7651 27.3814 15.8553C27.2916 15.9455 27.1699 15.9961 27.043 15.9961H17.0615ZM17.0615 13.3562C16.9346 13.3562 16.8129 13.3055 16.7232 13.2153C16.6334 13.1252 16.583 13.0029 16.583 12.8754C16.583 12.7479 16.6334 12.6256 16.7232 12.5354C16.8129 12.4452 16.9346 12.3946 17.0615 12.3946H27.043C27.1699 12.3946 27.2916 12.4452 27.3814 12.5354C27.4711 12.6256 27.5215 12.7479 27.5215 12.8754C27.5215 13.0029 27.4711 13.1252 27.3814 13.2153C27.2916 13.3055 27.1699 13.3562 27.043 13.3562H17.0615ZM20.9841 10.7163C20.8572 10.7163 20.7355 10.6656 20.6458 10.5755C20.556 10.4853 20.5056 10.363 20.5056 10.2355C20.5056 10.108 20.556 9.98568 20.6458 9.89551C20.7355 9.80535 20.8572 9.75469 20.9841 9.75469H27.043C27.1699 9.75469 27.2916 9.80535 27.3814 9.89551C27.4711 9.98568 27.5215 10.108 27.5215 10.2355C27.5215 10.363 27.4711 10.4853 27.3814 10.5755C27.2916 10.6656 27.1699 10.7163 27.043 10.7163H20.9841Z" fill="#909CD1"/>
<path fill-rule="evenodd" clip-rule="evenodd" d="M16.6562 2.15621L17.2976 1.72404C17.3476 1.68986 17.408 1.67438 17.4682 1.68029C17.5284 1.6862 17.5846 1.71313 17.6271 1.75639L18.6198 2.75378C18.6629 2.79647 18.6897 2.85297 18.6955 2.91346C18.7014 2.97394 18.686 3.03459 18.652 3.08484L18.2219 3.72932L18.7675 5.05249L19.525 5.20257C19.5844 5.21394 19.638 5.24587 19.6764 5.29282C19.7148 5.33976 19.7357 5.39875 19.7353 5.45952V6.87006C19.7353 6.99644 19.6485 7.10263 19.525 7.12708L18.7675 7.27716L18.2219 8.60032L18.652 9.2448C18.686 9.29507 18.7014 9.35573 18.6955 9.41623C18.6897 9.47673 18.6629 9.53324 18.6198 9.57594L17.6272 10.5733C17.5847 10.6166 17.5284 10.6435 17.4682 10.6494C17.408 10.6553 17.3477 10.6399 17.2977 10.6057L16.6562 10.1735L15.3394 10.7217L15.1901 11.4829C15.1788 11.5426 15.147 11.5964 15.1003 11.635C15.0535 11.6736 14.9948 11.6945 14.9343 11.6941H13.5305C13.47 11.6945 13.4113 11.6736 13.3646 11.635C13.3179 11.5964 13.2861 11.5426 13.2748 11.4829L13.1254 10.7216L11.8086 10.1734L11.1672 10.6056C11.1172 10.6398 11.0568 10.6553 10.9966 10.6494C10.9364 10.6434 10.8802 10.6165 10.8377 10.5733L9.84499 9.57587C9.80194 9.53316 9.77515 9.47665 9.76926 9.41615C9.76338 9.35566 9.77878 9.29501 9.81279 9.24473L10.2429 8.60026L9.69733 7.27709L8.93977 7.12701C8.88035 7.11563 8.82677 7.08368 8.78835 7.03672C8.74994 6.98977 8.72911 6.93077 8.7295 6.86999V5.45945C8.7295 5.33307 8.81631 5.22695 8.93977 5.2025L9.69733 5.05242L10.2429 3.72926L9.81279 3.08477C9.77876 3.03452 9.76335 2.97388 9.76923 2.91338C9.77511 2.85289 9.80192 2.79639 9.84499 2.75371L10.8377 1.75632C10.8802 1.71309 10.9364 1.68618 10.9966 1.68027C11.0568 1.67436 11.1172 1.68982 11.1672 1.72397L11.8086 2.15614L13.1255 1.60796L13.2748 0.846781C13.2862 0.787078 13.3179 0.733248 13.3647 0.694648C13.4114 0.656049 13.4701 0.635121 13.5306 0.635503H14.9345C15.0603 0.635503 15.1659 0.722734 15.1902 0.846781L15.3396 1.60796L16.6564 2.15614L16.6562 2.15621Z" fill="#F9AC00"/>
<path fill-rule="evenodd" clip-rule="evenodd" d="M16.6555 2.15625L17.1209 1.84263L18.1793 2.90609L17.6299 3.72943L18.1754 5.0526L19.1433 5.2443V7.08556L18.1754 7.27733L17.6299 8.6005L18.1793 9.42384L17.1209 10.4872L16.1763 9.85086L14.8064 10.4212L14.5565 11.6943H13.5296C13.4691 11.6946 13.4104 11.6737 13.3637 11.6351C13.317 11.5965 13.2852 11.5427 13.2739 11.483L13.1245 10.7218L11.3175 9.96962L10.6699 10.4059L9.84401 9.57605C9.80096 9.53336 9.77416 9.47686 9.76828 9.41637C9.76239 9.35588 9.7778 9.29523 9.81181 9.24498L10.2419 8.6005L9.69635 7.2774L8.93873 7.12732C8.87931 7.11594 8.82574 7.08399 8.78734 7.03703C8.74893 6.99007 8.72812 6.93108 8.72852 6.8703V5.45977C8.72852 5.33338 8.81534 5.2272 8.93873 5.20281L9.69635 5.05273L10.2419 3.72957L9.81181 3.08509C9.77781 3.03482 9.76241 2.97416 9.76829 2.91367C9.77417 2.85317 9.80096 2.79666 9.84401 2.75395L10.6699 1.92409L11.3175 2.36045L11.8076 2.15639L13.1245 1.6082L13.2739 0.847025C13.2852 0.787322 13.317 0.733492 13.3637 0.694892C13.4104 0.656293 13.4691 0.635365 13.5296 0.635747H14.5565L14.8064 1.90884L16.1763 2.47914L16.6555 2.15625Z" fill="#FCDB35"/>
<path d="M13.784 9.00047C15.3426 9.00047 16.6061 7.73094 16.6061 6.16491C16.6061 4.59887 15.3426 3.32935 13.784 3.32935C12.2254 3.32935 10.9619 4.59887 10.9619 6.16491C10.9619 7.73094 12.2254 9.00047 13.784 9.00047Z" fill="#F9AC00"/>
<path d="M14.7653 8.95101C16.2958 8.65515 17.2979 7.16865 17.0034 5.63081C16.709 4.09298 15.2295 3.08616 13.699 3.38202C12.1685 3.67788 11.1664 5.16439 11.4609 6.70222C11.7553 8.24006 13.2348 9.24688 14.7653 8.95101Z" fill="white"/>
<path d="M29.2969 4.16284H29.8724V24.2274H29.2969V4.16284Z" fill="#B6DBFF"/>
<path fill-rule="evenodd" clip-rule="evenodd" d="M23.5127 25.65C24.0844 24.6835 23.3602 23.4592 22.2421 23.5016C13.0536 23.5016 13.0373 15.9945 4.44238 27.1008L8.99074 31.8919C11.0166 29.8391 13.4249 29.7443 16.0811 29.904C17.53 29.9911 19.2591 30.2012 20.8454 30.166C23.062 30.1168 24.4204 29.5123 26.3668 28.4763C28.5828 27.2969 32.4342 24.9477 33.106 24.0604C34.0676 22.7902 32.8262 21.5939 31.3595 22.4447C29.6346 23.4454 25.0674 25.634 22.7145 26.2934C23.0705 26.1383 23.3487 25.9275 23.5128 25.6499L23.5127 25.65Z" fill="#FDB0A0"/>
<path fill-rule="evenodd" clip-rule="evenodd" d="M23.5127 25.65C24.0844 24.6835 23.3602 23.4592 22.2421 23.5016C13.0536 23.5016 13.0373 15.9945 4.44238 27.1008L7.95332 30.7991C10.076 28.6957 12.5925 28.5989 15.3655 28.7656C16.893 28.8574 18.7158 29.0791 20.3881 29.0419C22.7248 28.99 24.1568 28.3527 26.2087 27.2606C28.5217 26.0295 32.5243 23.5897 33.2907 22.6336C32.9728 22.1435 32.2035 21.9552 31.3596 22.4447C29.6347 23.4454 25.0674 25.634 22.7146 26.2934C23.0706 26.1383 23.3487 25.9275 23.5129 25.6499L23.5127 25.65Z" fill="#FFCEC0"/>
<path fill-rule="evenodd" clip-rule="evenodd" d="M23.5125 25.6501C23.9584 24.8961 23.6158 23.9854 22.9129 23.6414C23.4217 24.2014 23.0804 24.9963 22.2824 25.288C21.8407 25.4494 21.2455 25.5258 20.5988 25.5416C18.9095 25.5832 16.9659 25.1849 16.1973 24.7831C16.0675 24.718 15.9174 24.7068 15.7795 24.7519C15.6415 24.7969 15.5267 24.8947 15.4598 25.024C15.3929 25.1533 15.3792 25.3039 15.4218 25.4433C15.4643 25.5826 15.5596 25.6996 15.6872 25.769C16.5753 26.2334 18.7617 26.6949 20.6247 26.6492C21.3942 26.6303 22.1219 26.5229 22.7143 26.2936C23.0703 26.1385 23.3484 25.9277 23.5126 25.6501L23.5125 25.6501Z" fill="#FDB0A0"/>
<path fill-rule="evenodd" clip-rule="evenodd" d="M2 27.76L4.10574 25.6443C4.51911 25.2289 5.19553 25.2289 5.6089 25.6443L10.6151 30.6743C11.0284 31.0896 11.0284 31.7693 10.6151 32.1846L8.50932 34.3004L2 27.76Z" fill="#4EB1FC"/>
<path fill-rule="evenodd" clip-rule="evenodd" d="M2 27.76L4.10574 25.6442C4.51891 25.2291 5.19491 25.229 5.60835 25.6437L5.6089 25.6442L9.55139 29.6056C9.96476 30.0209 9.96469 30.7006 9.55139 31.1159L7.44564 33.2317L2 27.76Z" fill="#85CAFF"/>
</g>
<defs>
<clipPath id="clip0_441_337">
<rect width="35" height="35.1672" fill="white" transform="translate(0.5 0.133057)"/>
</clipPath>
</defs>
</svg>
