<svg width="35" height="35" viewBox="0 0 35 35" fill="none" xmlns="http://www.w3.org/2000/svg">
<path d="M18 33C26.8366 33 34 25.8366 34 17C34 8.16344 26.8366 1 18 1C9.16344 1 2 8.16344 2 17C2 25.8366 9.16344 33 18 33Z" fill="#E6EFF4"/>
<path d="M24.9801 10.0198L24.9701 10.0298C23.1926 8.51402 20.7264 7.57471 18.0001 7.57471C12.5835 7.57471 8.19238 11.2815 8.19238 15.8539C8.19238 18.685 9.87601 21.1837 12.4438 22.6766C12.1319 23.4756 11.641 24.4667 11.0095 25.2119L10.4629 25.7585L17.7004 32.9961C17.8002 32.9979 17.8999 32.9998 18 32.9998C26.1853 32.9998 32.9339 26.8532 33.8845 18.9242L25.8466 10.8863C25.6205 10.6326 25.38 10.3921 25.1263 10.166L24.9801 10.0198Z" fill="#B6D1DD"/>
<path d="M18.0001 7.5752C12.5835 7.5752 8.19238 11.282 8.19238 15.8544C8.19238 18.6855 9.87601 21.1841 12.4438 22.6771C12.0469 23.694 11.361 25.0238 10.4629 25.759C12.2386 25.2727 13.7371 24.5548 14.8072 23.6846C15.8082 23.9754 16.8822 24.1336 18.0001 24.1336C23.4168 24.1336 27.8078 20.4269 27.8078 15.8544C27.8079 11.2819 23.4168 7.5752 18.0001 7.5752Z" fill="#41A0D7"/>
<path d="M21.4087 15.6768C24.6104 15.6768 27.2059 17.8678 27.2059 20.5705C27.2059 22.244 26.2107 23.7209 24.6929 24.6034C24.9276 25.2044 25.3329 25.9905 25.8638 26.4251C24.8142 26.1377 23.9284 25.7134 23.2959 25.199C22.7043 25.3709 22.0694 25.4644 21.4086 25.4644C18.2069 25.4644 15.6113 23.2734 15.6113 20.5707C15.6114 17.8678 18.2069 15.6768 21.4087 15.6768Z" fill="white"/>
<path d="M21.6536 21.3979C22.158 21.3979 22.5669 20.989 22.5669 20.4846C22.5669 19.9802 22.158 19.5713 21.6536 19.5713C21.1491 19.5713 20.7402 19.9802 20.7402 20.4846C20.7402 20.989 21.1491 21.3979 21.6536 21.3979Z" fill="#00558C"/>
<path d="M18.7307 21.3979C19.2351 21.3979 19.644 20.989 19.644 20.4846C19.644 19.9802 19.2351 19.5713 18.7307 19.5713C18.2263 19.5713 17.8174 19.9802 17.8174 20.4846C17.8174 20.989 18.2263 21.3979 18.7307 21.3979Z" fill="#00558C"/>
<path d="M24.5764 21.3979C25.0808 21.3979 25.4897 20.989 25.4897 20.4846C25.4897 19.9802 25.0808 19.5713 24.5764 19.5713C24.072 19.5713 23.6631 19.9802 23.6631 20.4846C23.6631 20.989 24.072 21.3979 24.5764 21.3979Z" fill="#00558C"/>
</svg>
