<svg width="40" height="40" viewBox="0 0 40 40" fill="none" xmlns="http://www.w3.org/2000/svg">
<circle cx="20" cy="20" r="20" fill="url(#paint0_linear_153_10984)"/>
<g clip-path="url(#clip0_153_10984)">
<path d="M30.6528 16.6829C30.6528 14.6654 29.6602 12.7779 27.8602 11.3753C27.8128 11.3379 27.7803 11.2878 27.7677 11.2329L27.1028 8.57535C26.9778 8.08285 26.4227 7.85282 25.9927 8.10033L23.6602 9.43531C23.6102 9.46286 23.5502 9.47282 23.4877 9.46286C22.8152 9.33785 22.1252 9.27535 21.4377 9.27535C16.3527 9.27535 12.2177 12.5978 12.2177 16.6829C12.2177 16.8429 12.2277 16.9929 12.2402 17.1404C10.4552 18.5704 9.34766 20.5503 9.34766 22.7329C9.34766 24.8854 10.4051 26.8979 12.3277 28.398C12.3783 28.4382 12.415 28.4933 12.4327 28.5554L13.1427 31.4005C13.2727 31.908 13.8502 32.1555 14.3052 31.8955L16.8002 30.468C16.8703 30.428 16.9452 30.428 16.9928 30.4355C23.0203 31.563 29.0228 27.8804 29.0228 22.7329C29.0228 22.1779 28.9503 21.6379 28.8154 21.1179C30.0178 19.8304 30.6528 18.3004 30.6528 16.6829ZM17.0802 29.9455C16.8901 29.913 16.7026 29.9455 16.5501 30.0355L14.0551 31.4605C13.8901 31.558 13.6751 31.4655 13.6276 31.278L12.9151 28.4304C12.8701 28.2605 12.7701 28.108 12.6351 28.0029C10.8376 26.6004 9.84758 24.7279 9.84758 22.7329C9.84758 18.4054 14.3551 15.3253 19.1852 15.3253C23.7502 15.3253 28.5227 18.2354 28.5227 22.7329C28.5227 27.643 22.7177 30.998 17.0802 29.9455Z" fill="white"/>
<path d="M23.2152 21.3078L18.9052 25.9079C18.3978 26.4504 17.5227 26.4879 16.9727 25.9504L15.1977 24.2154C14.6627 23.6929 14.6527 22.8379 15.1752 22.3029C15.7103 21.7554 16.5678 21.7704 17.0878 22.2804L17.8753 23.0479L21.2403 19.4579C21.7502 18.9129 22.6077 18.8854 23.1527 19.3954C23.6978 19.9054 23.7253 20.7628 23.2152 21.3078Z" fill="white"/>
</g>
<defs>
<linearGradient id="paint0_linear_153_10984" x1="0" y1="20" x2="40" y2="20" gradientUnits="userSpaceOnUse">
<stop stop-color="#9247E7"/>
<stop offset="1" stop-color="#4D35E5"/>
</linearGradient>
<clipPath id="clip0_153_10984">
<rect width="24" height="24" fill="white" transform="translate(8 8)"/>
</clipPath>
</defs>
</svg>
