<svg width="35" height="35" viewBox="0 0 35 35" fill="none" xmlns="http://www.w3.org/2000/svg">
<path d="M31.9996 15.4411C31.9996 8.57004 26.4041 3 19.5018 3C12.5994 3 7.00391 8.57004 7.00391 15.4411C7.00391 22.3121 12.5994 27.8822 19.5018 27.8822C20.9505 27.8822 22.3412 27.636 23.6351 27.1847L27.4479 29.0261V25.0442C30.2276 22.7623 31.9996 19.3077 31.9996 15.4411Z" fill="#FF9E5E"/>
<path d="M19.5021 3C19.1085 3 18.7194 3.01903 18.3351 3.05443C24.6901 3.64038 29.6659 8.96188 29.6659 15.4411C29.6659 21.813 24.5562 27.2265 18.3174 27.8262C18.7074 27.8627 19.1025 27.8821 19.5021 27.8821C20.9508 27.8821 22.3415 27.6359 23.6354 27.1846L27.4482 29.026V25.0441C30.2279 22.7623 31.9999 19.3077 31.9999 15.4411C31.9999 8.57004 26.4044 3 19.5021 3Z" fill="#FA8D46"/>
<path d="M13.7187 17.452C14.6921 17.452 15.4813 16.6628 15.4813 15.6894C15.4813 14.7159 14.6921 13.9268 13.7187 13.9268C12.7452 13.9268 11.9561 14.7159 11.9561 15.6894C11.9561 16.6628 12.7452 17.452 13.7187 17.452Z" fill="#FFF7E8"/>
<path d="M19.5019 17.452C20.4753 17.452 21.2645 16.6628 21.2645 15.6894C21.2645 14.7159 20.4753 13.9268 19.5019 13.9268C18.5284 13.9268 17.7393 14.7159 17.7393 15.6894C17.7393 16.6628 18.5284 17.452 19.5019 17.452Z" fill="#FFF7E8"/>
<path d="M25.286 17.452C26.2595 17.452 27.0486 16.6628 27.0486 15.6894C27.0486 14.7159 26.2595 13.9268 25.286 13.9268C24.3126 13.9268 23.5234 14.7159 23.5234 15.6894C23.5234 16.6628 24.3126 17.452 25.286 17.452Z" fill="#FFF7E8"/>
<path d="M3 25.3028C3 21.9154 5.75851 19.1694 9.16131 19.1694C12.5641 19.1694 15.3227 21.9154 15.3227 25.3028C15.3227 28.6902 12.5642 31.4362 9.16131 31.4362C8.44713 31.4362 7.76149 31.3148 7.12361 31.0923L5.24399 32.0001V30.037C3.87363 28.9121 3 27.209 3 25.3028Z" fill="#FFD88F"/>
<path d="M9.16111 19.1694C8.76207 19.1694 8.37205 19.2077 7.99414 19.2798C10.8389 19.8228 12.9885 22.3126 12.9885 25.3028C12.9885 28.2919 10.8404 30.7811 7.99714 31.3252C8.38077 31.3988 8.77049 31.4359 9.16111 31.4362C12.5639 31.4362 15.3225 28.6902 15.3225 25.3028C15.3225 21.9154 12.564 19.1694 9.16111 19.1694Z" fill="#FFC963"/>
</svg>
