<svg width="35" height="36" viewBox="0 0 35 36" fill="none" xmlns="http://www.w3.org/2000/svg">
<g clip-path="url(#clip0_174_13933)">
<circle cx="17.5" cy="18" r="12.25" fill="white"/>
<path fill-rule="evenodd" clip-rule="evenodd" d="M17.5 0.5C7.85046 0.5 0 8.35046 0 18C0 27.6495 7.85046 35.5 17.5 35.5C27.1495 35.5 35 27.6496 35 18C35 8.35039 27.1496 0.5 17.5 0.5ZM23.826 10.2994C24.0557 10.2173 24.304 10.2021 24.542 10.2556C24.78 10.3091 24.9979 10.4291 25.1704 10.6016C25.3429 10.7741 25.4629 10.992 25.5164 11.2299C25.5699 11.4679 25.5548 11.7162 25.4728 11.946L20.1353 28.1335C20.0599 28.3609 19.9302 28.5665 19.7572 28.7323C19.6045 28.8771 19.402 28.9579 19.1916 28.9579C19.1346 28.9581 19.0779 28.9521 19.0222 28.9401C18.8921 28.9127 18.7706 28.8541 18.6682 28.7693C18.5658 28.6845 18.4855 28.5761 18.4343 28.4534L15.3247 20.9832C15.1813 20.7725 14.9995 20.5906 14.7888 20.4473L7.31903 17.338C7.1962 17.2869 7.08765 17.2066 7.00274 17.1042C6.91783 17.0018 6.85911 16.8802 6.83164 16.75C6.80418 16.6198 6.80879 16.4849 6.84509 16.3569C6.88139 16.2289 6.94828 16.1116 7.03999 16.0153C7.20545 15.842 7.41102 15.7122 7.63854 15.6372L23.826 10.2994ZM9.87793 16.626L21.9747 12.6371L15.5928 19.0194C15.5388 18.9881 15.4829 18.9601 15.4255 18.9355L9.87793 16.626ZM19.146 25.8941L16.8369 20.3468C16.8123 20.2894 16.7842 20.2336 16.7529 20.1796L23.135 13.7975L19.146 25.8941Z" fill="url(#paint0_linear_174_13933)"/>
</g>
<defs>
<linearGradient id="paint0_linear_174_13933" x1="0" y1="18" x2="35" y2="18" gradientUnits="userSpaceOnUse">
<stop stop-color="#9247E7"/>
<stop offset="1" stop-color="#4D35E5"/>
</linearGradient>
<clipPath id="clip0_174_13933">
<rect width="35" height="35" fill="white" transform="translate(0 0.5)"/>
</clipPath>
</defs>
</svg>
