<svg width="25" height="25" viewBox="0 0 25 25" fill="none" xmlns="http://www.w3.org/2000/svg">
<path d="M19.1328 3.32031C18.9277 2.97126 18.6357 2.68129 18.2852 2.47866C17.9347 2.27602 17.5377 2.16764 17.1328 2.16406H7.86719C7.46235 2.16764 7.06533 2.27602 6.71483 2.47866C6.36433 2.68129 6.0723 2.97126 5.86719 3.32031L1.23437 11.3437C1.02867 11.7 0.920372 12.1042 0.920372 12.5156C0.920372 12.927 1.02867 13.3312 1.23437 13.6875L5.86719 21.6797C6.0723 22.0287 6.36433 22.3187 6.71483 22.5213C7.06533 22.724 7.46235 22.8324 7.86719 22.8359H17.1328C17.5377 22.8324 17.9347 22.724 18.2852 22.5213C18.6357 22.3187 18.9277 22.0287 19.1328 21.6797L23.7656 13.6562C23.9713 13.3 24.0796 12.8958 24.0796 12.4844C24.0796 12.073 23.9713 11.6688 23.7656 11.3125L19.1328 3.32031ZM22.4141 12.875L17.7812 20.8984C17.7132 21.0103 17.6182 21.1032 17.5049 21.1687C17.3916 21.2342 17.2637 21.2702 17.1328 21.2734H7.86719C7.73634 21.2702 7.6084 21.2342 7.4951 21.1687C7.38179 21.1032 7.28677 21.0103 7.21875 20.8984L2.58594 12.875C2.51737 12.7562 2.48127 12.6215 2.48127 12.4844C2.48127 12.3472 2.51737 12.2125 2.58594 12.0937L7.21875 4.10156C7.28677 3.98974 7.38179 3.8968 7.4951 3.83128C7.6084 3.76576 7.73634 3.72975 7.86719 3.72656H17.1328C17.2637 3.72975 17.3916 3.76576 17.5049 3.83128C17.6182 3.8968 17.7132 3.98974 17.7812 4.10156L22.4141 12.125C22.477 12.24 22.5099 12.3689 22.5099 12.5C22.5099 12.6311 22.477 12.76 22.4141 12.875Z" fill="white"/>
<path d="M12.5 7.8125C11.5729 7.8125 10.6666 8.08742 9.89577 8.60249C9.12491 9.11756 8.5241 9.84964 8.16932 10.7062C7.81453 11.5627 7.7217 12.5052 7.90257 13.4145C8.08344 14.3238 8.52988 15.159 9.18544 15.8146C9.841 16.4701 10.6762 16.9166 11.5855 17.0974C12.4948 17.2783 13.4373 17.1855 14.2938 16.8307C15.1504 16.4759 15.8824 15.8751 16.3975 15.1042C16.9126 14.3334 17.1875 13.4271 17.1875 12.5C17.1875 11.2568 16.6936 10.0645 15.8146 9.18544C14.9355 8.30636 13.7432 7.8125 12.5 7.8125ZM12.5 15.625C11.8819 15.625 11.2777 15.4417 10.7638 15.0983C10.2499 14.755 9.8494 14.2669 9.61288 13.6959C9.37635 13.1249 9.31447 12.4965 9.43505 11.8903C9.55563 11.2842 9.85325 10.7273 10.2903 10.2903C10.7273 9.85325 11.2842 9.55562 11.8903 9.43505C12.4965 9.31447 13.1249 9.37635 13.6959 9.61288C14.2669 9.8494 14.755 10.2499 15.0983 10.7638C15.4417 11.2777 15.625 11.8819 15.625 12.5C15.625 13.3288 15.2958 14.1237 14.7097 14.7097C14.1237 15.2958 13.3288 15.625 12.5 15.625Z" fill="white"/>
</svg>
