<svg width="35" height="35" viewBox="0 0 35 35" fill="none" xmlns="http://www.w3.org/2000/svg">
<path d="M1.30078 9.70046C1.30078 5.72454 4.52435 2.50098 8.50026 2.50098H26.499C30.4749 2.50098 33.6984 5.72454 33.6984 9.70046V19.2998C33.6984 23.2757 30.4749 26.4992 26.499 26.4992H17.4996L11.9986 32.0002C10.9289 33.07 9.10022 32.3122 9.10022 30.7997V26.4992H8.50026C4.52435 26.4992 1.30078 23.2757 1.30078 19.2998V9.70046Z" fill="url(#paint0_linear_441_117)"/>
<path d="M13.8999 10.3003C14.6955 10.3003 15.4585 10.6163 16.021 11.1789C16.5836 11.7415 16.8996 12.5045 16.8996 13.3001C16.8996 16.8998 13.8999 18.6997 13.8999 18.6997H12.6999V16.0503C12.0684 15.7745 11.551 15.2896 11.2348 14.6773C10.9186 14.0649 10.8229 13.3624 10.9637 12.6878C11.1044 12.0131 11.4732 11.4075 12.0079 10.9727C12.5426 10.538 13.2107 10.3005 13.8999 10.3003ZM21.0993 10.3003C21.8949 10.3003 22.6579 10.6163 23.2205 11.1789C23.7831 11.7415 24.0991 12.5045 24.0991 13.3001C24.0991 16.8998 21.0993 18.6997 21.0993 18.6997H19.8994V16.0503C19.2679 15.7745 18.7505 15.2896 18.4343 14.6773C18.1181 14.0649 18.0224 13.3624 18.1631 12.6878C18.3039 12.0131 18.6727 11.4075 19.2074 10.9727C19.7421 10.538 20.4102 10.3005 21.0993 10.3003Z" fill="#5FB140"/>
<defs>
<linearGradient id="paint0_linear_441_117" x1="1.30078" y1="2.50098" x2="33.6984" y2="32.4988" gradientUnits="userSpaceOnUse">
<stop offset="0.39" stop-color="#A8EB90"/>
<stop offset="1" stop-color="#7BCB5E"/>
</linearGradient>
</defs>
</svg>
