<svg width="35" height="35" viewBox="0 0 35 35" fill="none" xmlns="http://www.w3.org/2000/svg">
<path d="M23.305 15.7053L22.6436 16.1246C27.0594 20.0075 25.2976 22.7813 25.2976 22.7813L25.9302 23.1447C25.9302 23.1446 28.0721 20.2947 23.305 15.7053Z" fill="#404077"/>
<path d="M21.5366 11.9974C21.5366 11.9974 23.5651 13.6254 24.5764 15.6366C25.5877 17.6478 23.9545 18.5184 21.7392 16.11C19.5239 13.7017 17.7304 9.43218 21.5366 11.9974ZM19.1477 7.96505L15.8063 11.9572L10.2502 18.5953L10.0214 18.8689C9.69815 19.0192 9.39143 19.144 9.10057 19.246C8.82211 19.3432 8.55813 19.4197 8.30793 19.4769H8.30725C4.2717 20.3991 3.8809 16.3084 5.2139 15.1119C6.71646 13.7644 8.04671 12.0902 6.67373 10.008C5.30006 7.92508 3.53972 3.12791 7.19894 2.3146C7.42087 2.26566 7.63316 2.23258 7.8358 2.21397C10.051 2.00444 11.16 3.44566 11.16 3.44566C11.6529 3.12791 12.1774 2.98248 12.6723 2.93561C13.8447 2.82395 14.8475 3.26507 14.8475 3.26507C17.7555 1.50818 19.7253 1.55781 20.3815 3.56076C21.1721 5.97657 19.1477 7.96505 19.1477 7.96505Z" fill="#52528C"/>
<path d="M18.2662 7.70793L15.8063 11.9571L10.2503 18.5953C9.84361 18.8572 9.4473 19.0867 9.1006 19.2459C8.78631 19.39 8.51268 19.4768 8.30797 19.4768H8.30728C8.10257 19.4768 7.96679 19.3907 7.92751 19.1901C7.65181 17.7799 12.1298 13.601 8.30315 8.3572C5.35661 4.31958 6.94808 2.73087 7.83584 2.21393C10.0511 2.0044 11.1601 3.44562 11.1601 3.44562C11.6529 3.12788 12.1774 2.98244 12.6723 2.93558L12.6716 2.93626C9.37492 6.1137 13.6483 7.70793 14.8476 5.50233C16.0462 3.29674 19.0471 1.66529 19.0933 3.57589C19.1395 5.48648 18.2662 7.70793 18.2662 7.70793Z" fill="#404077"/>
<path d="M10.2243 4.35156C10.2243 4.35156 9.28046 6.84147 11.0518 7.80256C11.0518 7.80256 9.72999 9.07808 8.70949 7.56614C7.52364 5.80925 9.21567 4.61692 10.2243 4.35156Z" fill="#FAE26B"/>
<path d="M18.1228 16.7383L10.2254 16.7568C10.2254 16.7568 4.5262 18.0973 5.76643 25.2741L20.9411 21.6073C20.6769 18.5694 18.1228 16.7383 18.1228 16.7383Z" fill="#C5C5FE"/>
<path d="M14.2444 18.0005C16.595 18.0005 18.5005 17.2599 18.5005 16.3463C18.5005 15.4327 16.595 14.6921 14.2444 14.6921C11.8938 14.6921 9.98828 15.4327 9.98828 16.3463C9.98828 17.2599 11.8938 18.0005 14.2444 18.0005Z" fill="#A3A3F5"/>
<path d="M16.4209 13.04C16.4209 13.04 16.525 14.302 16.8241 15.4448C16.9013 15.7419 16.9916 16.0307 17.0971 16.2871C16.006 16.7744 14.8481 16.8405 13.8431 16.7406C12.6817 16.6255 11.7251 16.2891 11.3108 16.1244C11.539 15.7054 12.3819 13.9609 12.3027 11.1487C11.9677 11.2535 11.5397 11.2273 11.0524 10.8441C10.2859 10.2403 10.2453 8.62471 10.9779 7.84517C11.386 7.41095 12.0345 7.23519 12.9326 7.64184C12.9326 7.64184 13.1711 7.72938 13.3848 7.8817C13.5922 7.84793 13.7901 7.80382 13.9796 7.75212C14.1016 7.71835 14.2195 7.68182 14.3339 7.64184C16.1852 6.99878 17.0998 5.57548 17.4003 5.01099C21.1871 8.7088 18.2584 12.6589 16.4209 13.04Z" fill="#FFEBD4"/>
<path d="M16.8241 15.4448C15.6159 14.4234 14.8253 12.8994 14.8253 12.8994C15.1761 13.009 15.5807 13.0821 16.0356 13.0821C16.1576 13.0821 16.2865 13.0676 16.4202 13.0393L16.4209 13.04C16.4209 13.04 16.525 14.302 16.8241 15.4448ZM13.8431 16.7406C12.6817 16.6255 11.7251 16.2892 11.3108 16.1244C11.539 15.7054 12.3819 13.9609 12.3027 11.1487C11.9677 11.2535 11.5397 11.2273 11.0524 10.8441C10.2859 10.2403 10.2453 8.62472 10.9779 7.84518C11.386 7.41095 12.0345 7.23519 12.9326 7.64185C12.9326 7.64185 13.1711 7.72938 13.3848 7.88171C13.5922 7.84794 13.7901 7.80382 13.9796 7.75213C14.1016 7.71836 14.2195 7.68183 14.3339 7.64185C13.8266 9.25331 12.8913 13.0367 13.8431 16.7406Z" fill="#FFD5B8"/>
<path d="M11.6787 8.35742L12.4003 10.1876C13.3009 8.81501 11.6787 8.35742 11.6787 8.35742Z" fill="#FFC7A1"/>
<path d="M33.9811 19.1902V24.2989L26.633 32.2763H3.95953L2 30.6669L2.11028 30.4884L8.53407 20.0635L33.9811 19.1902Z" fill="#D68F67"/>
<path d="M33.9812 19.1902V24.2989L9.48806 24.789L3.9596 32.2763L2.11035 30.4884L8.53414 20.0635L33.9812 19.1902Z" fill="#F0B48F"/>
<path d="M27.6828 26.4685L27.4071 33.9999H8.08471L7.94824 31.1568L10.6777 27.0289L10.6784 27.0282L27.6828 26.4685Z" fill="#F0B48F"/>
<path d="M11.0995 34H8.08475L7.94828 31.1568L10.6777 27.029L11.0995 34ZM9.48806 24.789L3.9596 32.2763L2.11035 30.4883L8.53414 20.0635L9.48806 24.789Z" fill="#E2A27F"/>
</svg>
