<svg width="35" height="35" viewBox="0 0 35 35" fill="none" xmlns="http://www.w3.org/2000/svg">
<path d="M33.4142 12.5217C33.0923 12.3973 32.2743 12.1799 31.7017 12.2061C27.8628 12.3792 17.4162 17.7436 17.4162 17.7436C17.4162 17.7436 7.03675 12.3824 3.2184 12.2061C2.64589 12.1796 1.82783 12.3975 1.50586 12.5217C1.35658 12.5799 1.22839 12.6819 1.13811 12.8143C1.04783 12.9467 0.999689 13.1032 1 13.2634V27.9283C1.00044 28.191 1.06045 28.4502 1.17552 28.6864C1.29059 28.9226 1.45772 29.1296 1.66434 29.2918C1.87096 29.4541 2.11168 29.5674 2.3684 29.6232C2.62512 29.679 2.89116 29.6758 3.14649 29.614C11.2553 27.6715 14.6835 29.3694 15.754 30.3494C16.1614 30.7225 16.6939 30.9292 17.2463 30.9287H17.6745C18.2269 30.9292 18.7594 30.7225 19.1668 30.3494C20.2373 29.3694 23.6654 27.6715 31.7743 29.614C32.0296 29.6758 32.2957 29.679 32.5524 29.6232C32.8091 29.5674 33.0498 29.4541 33.2564 29.2919C33.463 29.1296 33.6302 28.9226 33.7452 28.6864C33.8603 28.4503 33.9203 28.1911 33.9208 27.9284V13.2633C33.921 13.103 33.8727 12.9464 33.7823 12.8141C33.6919 12.6817 33.5636 12.5798 33.4142 12.5217Z" fill="#FF6E79"/>
<path d="M31.7697 11.9174C31.7692 11.7217 31.7029 11.5318 31.5814 11.3783C31.4598 11.2249 31.2902 11.1168 31.0998 11.0715C21.8545 8.85663 18.0468 12.5148 17.454 13.1994C16.8612 12.5148 13.0647 8.85628 3.81934 11.0715C3.62892 11.1168 3.45929 11.2249 3.33776 11.3783C3.21624 11.5318 3.1499 11.7217 3.14942 11.9174V26.6183C3.14916 26.7075 3.16934 26.7955 3.20843 26.8757C3.24751 26.9558 3.30445 27.026 3.37486 27.0807C3.44528 27.1354 3.5273 27.1732 3.61463 27.1913C3.70196 27.2094 3.79226 27.2072 3.87861 27.1849C6.09598 26.6075 12.8747 25.259 17.2746 28.9205C17.3264 28.964 17.3918 28.9878 17.4594 28.9878C17.527 28.9878 17.5925 28.964 17.6443 28.9205C22.0438 25.259 28.8229 26.6075 31.0402 27.1849C31.1266 27.2072 31.2169 27.2094 31.3042 27.1913C31.3915 27.1732 31.4736 27.1354 31.544 27.0807C31.6144 27.026 31.6713 26.9558 31.7104 26.8757C31.7495 26.7955 31.7697 26.7075 31.7694 26.6183L31.7697 11.9174Z" fill="#FFD2D2"/>
<path d="M17.455 29.3978C17.3462 29.3978 17.2418 29.3545 17.1649 29.2776C17.088 29.2007 17.0448 29.0964 17.0448 28.9876V13.3323C17.0448 13.2235 17.088 13.1192 17.1649 13.0423C17.2418 12.9653 17.3462 12.9221 17.455 12.9221C17.5637 12.9221 17.6681 12.9653 17.745 13.0423C17.8219 13.1192 17.8651 13.2235 17.8651 13.3323V28.9876C17.8651 29.0964 17.8219 29.2007 17.745 29.2776C17.6681 29.3545 17.5637 29.3978 17.455 29.3978ZM14.8309 16.211C14.7492 16.2111 14.6694 16.1866 14.6018 16.1408C11.3411 13.9392 7.13139 15.1033 7.08914 15.1154C7.03735 15.1301 6.98315 15.1346 6.92964 15.1284C6.87613 15.1222 6.82436 15.1056 6.77729 15.0794C6.73022 15.0532 6.68876 15.018 6.6553 14.9758C6.62183 14.9336 6.597 14.8852 6.58222 14.8334C6.56745 14.7816 6.56303 14.7274 6.5692 14.6739C6.57538 14.6204 6.59203 14.5686 6.61821 14.5216C6.64439 14.4745 6.67959 14.433 6.72179 14.3996C6.76399 14.3661 6.81238 14.3413 6.86417 14.3265C7.05127 14.2732 11.4869 13.0482 15.0605 15.4613C15.1333 15.5104 15.1884 15.5817 15.2177 15.6645C15.247 15.7473 15.2489 15.8374 15.2231 15.9214C15.1974 16.0054 15.1453 16.0789 15.0747 16.1311C15.004 16.1833 14.9184 16.2115 14.8306 16.2114L14.8309 16.211ZM14.831 18.6972C14.7457 18.6972 14.6626 18.6706 14.5933 18.621C11.7837 16.6187 7.11478 17.6535 7.06809 17.664C7.01557 17.676 6.96121 17.6775 6.90811 17.6685C6.855 17.6595 6.80419 17.6401 6.75859 17.6114C6.71298 17.5827 6.67346 17.5454 6.64229 17.5015C6.61112 17.4575 6.58891 17.4079 6.57693 17.3554C6.56494 17.3028 6.56342 17.2485 6.57244 17.1954C6.58147 17.1423 6.60087 17.0915 6.62953 17.0459C6.65819 17.0002 6.69555 16.9607 6.73948 16.9296C6.78341 16.8984 6.83305 16.8762 6.88557 16.8642C7.0914 16.8172 11.9629 15.7391 15.0693 17.9528C15.1402 18.0032 15.1931 18.0749 15.2205 18.1574C15.2479 18.24 15.2484 18.3291 15.2219 18.4119C15.1954 18.4947 15.1432 18.5669 15.0729 18.6182C15.0027 18.6694 14.9179 18.697 14.831 18.6969V18.6972ZM14.831 21.255C14.7427 21.2551 14.6568 21.2265 14.5861 21.1736C12.3841 19.5313 7.08511 20.2268 7.03186 20.234C6.97827 20.2417 6.9237 20.2387 6.87128 20.2252C6.81886 20.2117 6.76963 20.188 6.72643 20.1553C6.68324 20.1227 6.64692 20.0819 6.61959 20.0351C6.59226 19.9884 6.57444 19.9368 6.56718 19.8831C6.55991 19.8295 6.56333 19.7749 6.57725 19.7226C6.59116 19.6703 6.6153 19.6212 6.64826 19.5783C6.68122 19.5354 6.72235 19.4994 6.76929 19.4724C6.81622 19.4454 6.86803 19.428 6.92173 19.4212C7.15292 19.3899 12.6092 18.6756 15.0765 20.516C15.1456 20.5676 15.1968 20.6396 15.2226 20.7218C15.2485 20.8041 15.2478 20.8924 15.2206 20.9742C15.1934 21.056 15.1411 21.1272 15.0712 21.1776C15.0012 21.228 14.9172 21.2551 14.831 21.255ZM14.8309 24.0067C14.7525 24.0067 14.6757 23.9841 14.6098 23.9417C11.5263 21.963 7.12148 23.045 7.07732 23.0562C7.02484 23.0702 6.97011 23.0736 6.9163 23.0663C6.8625 23.0589 6.81068 23.041 6.76386 23.0135C6.71704 22.986 6.67615 22.9494 6.64356 22.906C6.61098 22.8625 6.58735 22.8131 6.57403 22.7604C6.56072 22.7078 6.558 22.653 6.56602 22.5993C6.57405 22.5456 6.59266 22.494 6.62077 22.4475C6.64889 22.4011 6.68595 22.3606 6.72981 22.3286C6.77367 22.2966 6.82346 22.2736 6.87627 22.261C7.07062 22.2119 11.6735 21.0827 15.0528 23.2512C15.1275 23.2991 15.1846 23.3699 15.2157 23.453C15.2467 23.5361 15.25 23.627 15.225 23.7121C15.2 23.7972 15.148 23.8719 15.077 23.925C15.006 23.9781 14.9196 24.0068 14.8309 24.0067ZM20.0901 16.211C20.0022 16.2111 19.9166 16.183 19.846 16.1308C19.7753 16.0786 19.7233 16.0051 19.6975 15.9211C19.6718 15.8371 19.6737 15.747 19.703 15.6642C19.7322 15.5813 19.7874 15.5101 19.8602 15.4609C23.434 13.0478 27.8695 14.273 28.0565 14.3262C28.1083 14.3409 28.1566 14.3658 28.1988 14.3992C28.2411 14.4327 28.2762 14.4741 28.3024 14.5212C28.3286 14.5683 28.3453 14.6201 28.3514 14.6736C28.3576 14.7271 28.3532 14.7813 28.3384 14.8331C28.3236 14.8849 28.2988 14.9332 28.2653 14.9755C28.2319 15.0177 28.1904 15.0529 28.1434 15.079C28.0963 15.1052 28.0445 15.1219 27.991 15.128C27.9375 15.1342 27.8833 15.1298 27.8315 15.115C27.7897 15.1032 23.571 13.9448 20.3188 16.1404C20.2513 16.1863 20.1717 16.2109 20.0901 16.211ZM20.09 18.6972C20.003 18.6973 19.9183 18.6697 19.848 18.6184C19.7778 18.5672 19.7256 18.495 19.6991 18.4122C19.6726 18.3293 19.673 18.2402 19.7005 18.1577C19.7279 18.0752 19.7808 18.0035 19.8516 17.953C22.958 15.7394 27.8295 16.8175 28.0354 16.8645C28.0879 16.8765 28.1376 16.8987 28.1815 16.9298C28.2254 16.961 28.2628 17.0005 28.2915 17.0461C28.3201 17.0917 28.3395 17.1425 28.3485 17.1957C28.3576 17.2488 28.356 17.3031 28.3441 17.3556C28.3321 17.4082 28.3099 17.4578 28.2787 17.5017C28.2475 17.5457 28.208 17.583 28.1624 17.6117C28.1168 17.6403 28.066 17.6597 28.0129 17.6688C27.9598 17.6778 27.9054 17.6763 27.8529 17.6643C27.8062 17.6537 23.132 16.6228 20.3277 18.6213C20.2583 18.6708 20.1752 18.6973 20.09 18.6972ZM20.09 21.255C20.0038 21.2551 19.9197 21.228 19.8498 21.1776C19.7799 21.1272 19.7276 21.056 19.7004 20.9742C19.6732 20.8924 19.6725 20.8041 19.6984 20.7218C19.7242 20.6396 19.7753 20.5676 19.8445 20.516C22.3122 18.6756 27.7681 19.3898 27.9993 19.4212C28.1063 19.4367 28.2028 19.4938 28.268 19.5801C28.3331 19.6664 28.3615 19.775 28.347 19.8821C28.3324 19.9893 28.2762 20.0864 28.1905 20.1523C28.1048 20.2182 27.9965 20.2476 27.8892 20.234C27.8359 20.2272 22.5342 19.5334 20.3349 21.1736C20.2642 21.2265 20.1783 21.2551 20.09 21.255ZM20.0901 24.0067C20.0014 24.0068 19.915 23.9781 19.844 23.925C19.7729 23.8719 19.721 23.7972 19.696 23.7121C19.671 23.627 19.6743 23.5361 19.7053 23.453C19.7364 23.3699 19.7935 23.2991 19.8682 23.2512C23.2475 21.0827 27.8504 22.2122 28.0447 22.261C28.0975 22.2736 28.1473 22.2966 28.1912 22.3286C28.235 22.3606 28.2721 22.4011 28.3002 22.4475C28.3283 22.494 28.3469 22.5456 28.355 22.5993C28.363 22.653 28.3603 22.7078 28.347 22.7604C28.3336 22.8131 28.31 22.8625 28.2774 22.906C28.2448 22.9494 28.2039 22.986 28.1571 23.0135C28.1103 23.041 28.0585 23.0589 28.0047 23.0663C27.9509 23.0736 27.8961 23.0702 27.8437 23.0562C27.7996 23.0452 23.3878 21.9674 20.3111 23.9417C20.2452 23.9841 20.1685 24.0067 20.0901 24.0067Z" fill="#FF9999"/>
<path d="M19.5898 9.06104C19.5898 9.20841 19.5461 9.35247 19.4643 9.475C19.3824 9.59753 19.266 9.69304 19.1299 9.74943C18.9937 9.80583 18.8439 9.82059 18.6994 9.79184C18.5548 9.76309 18.4221 9.69212 18.3178 9.58791C18.2136 9.48371 18.1427 9.35094 18.1139 9.2064C18.0852 9.06186 18.0999 8.91204 18.1563 8.77589C18.2127 8.63974 18.3082 8.52337 18.4308 8.44149C18.5533 8.35962 18.6974 8.31592 18.8447 8.31592C19.0423 8.31592 19.2319 8.39442 19.3716 8.53416C19.5113 8.67389 19.5898 8.86342 19.5898 9.06104Z" fill="#89D1F4"/>
<path d="M12.3909 7.99952C12.3909 8.11911 12.3555 8.23603 12.2891 8.33548C12.2227 8.43493 12.1282 8.51245 12.0178 8.55823C11.9073 8.60402 11.7857 8.61601 11.6684 8.5927C11.5511 8.56938 11.4434 8.5118 11.3588 8.42725C11.2742 8.3427 11.2166 8.23496 11.1933 8.11767C11.1699 8.00038 11.1819 7.8788 11.2277 7.7683C11.2734 7.65781 11.3509 7.56337 11.4503 7.49693C11.5498 7.43048 11.6667 7.39502 11.7863 7.39502C11.9466 7.39502 12.1004 7.4587 12.2138 7.57207C12.3272 7.68543 12.3909 7.83918 12.3909 7.99952Z" fill="#FFD2D2"/>
<path d="M8.9223 4.60464C8.92232 4.72424 8.88686 4.84116 8.82043 4.94061C8.75399 5.04007 8.65955 5.11758 8.54906 5.16336C8.43856 5.20914 8.31697 5.22113 8.19967 5.1978C8.08236 5.17448 7.97461 5.11689 7.89003 5.03232C7.80545 4.94776 7.74785 4.84001 7.72452 4.7227C7.70118 4.6054 7.71315 4.48381 7.75891 4.37331C7.80468 4.26281 7.88219 4.16837 7.98163 4.10192C8.08108 4.03547 8.198 4 8.3176 4C8.39701 3.99999 8.47564 4.01562 8.549 4.04601C8.62237 4.07639 8.68903 4.12092 8.74519 4.17707C8.80134 4.23322 8.84588 4.29988 8.87627 4.37324C8.90666 4.4466 8.9223 4.52523 8.9223 4.60464Z" fill="#FF909E"/>
<path d="M24.0163 6.17228C24.5091 6.17228 24.9086 5.77279 24.9086 5.27999C24.9086 4.78719 24.5091 4.3877 24.0163 4.3877C23.5235 4.3877 23.124 4.78719 23.124 5.27999C23.124 5.77279 23.5235 6.17228 24.0163 6.17228Z" fill="#FF9999"/>
<path d="M28.8566 6.57758C28.7478 6.57758 28.6435 6.53437 28.5666 6.45745C28.4896 6.38053 28.4464 6.2762 28.4464 6.16742V5.79883C28.4464 5.69005 28.4896 5.58572 28.5666 5.5088C28.6435 5.43188 28.7478 5.38867 28.8566 5.38867C28.9654 5.38867 29.0697 5.43188 29.1466 5.5088C29.2235 5.58572 29.2667 5.69005 29.2667 5.79883V6.16742C29.2667 6.2762 29.2235 6.38053 29.1466 6.45745C29.0697 6.53437 28.9654 6.57758 28.8566 6.57758ZM28.8566 8.59418C28.7478 8.59418 28.6435 8.55097 28.5666 8.47405C28.4896 8.39713 28.4464 8.2928 28.4464 8.18402V7.81564C28.4464 7.70686 28.4896 7.60253 28.5666 7.52561C28.6435 7.44869 28.7478 7.40548 28.8566 7.40548C28.9654 7.40548 29.0697 7.44869 29.1466 7.52561C29.2235 7.60253 29.2667 7.70686 29.2667 7.81564V8.18402C29.2667 8.2928 29.2235 8.39713 29.1466 8.47405C29.0697 8.55097 28.9654 8.59418 28.8566 8.59418ZM28.0325 7.40151H27.6641C27.5553 7.40151 27.451 7.3583 27.374 7.28138C27.2971 7.20446 27.2539 7.10014 27.2539 6.99136C27.2539 6.88258 27.2971 6.77825 27.374 6.70133C27.451 6.62441 27.5553 6.5812 27.6641 6.5812H28.0325C28.1413 6.5812 28.2456 6.62441 28.3225 6.70133C28.3995 6.77825 28.4427 6.88258 28.4427 6.99136C28.4427 7.10014 28.3995 7.20446 28.3225 7.28138C28.2456 7.3583 28.1413 7.40151 28.0325 7.40151ZM30.0491 7.40151H29.6807C29.5719 7.40151 29.4676 7.3583 29.3906 7.28138C29.3137 7.20446 29.2705 7.10014 29.2705 6.99136C29.2705 6.88258 29.3137 6.77825 29.3906 6.70133C29.4676 6.62441 29.5719 6.5812 29.6807 6.5812H30.0491C30.1579 6.5812 30.2622 6.62441 30.3391 6.70133C30.4161 6.77825 30.4593 6.88258 30.4593 6.99136C30.4593 7.10014 30.4161 7.20446 30.3391 7.28138C30.2622 7.3583 30.1579 7.40151 30.0491 7.40151Z" fill="#24A7BC"/>
<path d="M4.06413 6.7124C3.95535 6.7124 3.85103 6.66919 3.77411 6.59227C3.69719 6.51535 3.65397 6.41103 3.65397 6.30225V6.13135C3.65397 6.02257 3.69719 5.91824 3.77411 5.84132C3.85103 5.7644 3.95535 5.72119 4.06413 5.72119C4.17291 5.72119 4.27724 5.7644 4.35416 5.84132C4.43107 5.91824 4.47429 6.02257 4.47429 6.13135V6.30225C4.47429 6.41103 4.43107 6.51535 4.35416 6.59227C4.27724 6.66919 4.17291 6.7124 4.06413 6.7124ZM4.06413 8.31618C3.95535 8.31618 3.85103 8.27297 3.77411 8.19605C3.69719 8.11913 3.65397 8.01481 3.65397 7.90603V7.73513C3.65397 7.62635 3.69719 7.52202 3.77411 7.4451C3.85103 7.36818 3.95535 7.32497 4.06413 7.32497C4.17291 7.32497 4.27724 7.36818 4.35416 7.4451C4.43107 7.52202 4.47429 7.62635 4.47429 7.73513V7.90603C4.47429 8.01481 4.43107 8.11913 4.35416 8.19605C4.27724 8.27297 4.17291 8.31618 4.06413 8.31618ZM3.34766 7.42888H3.17676C3.06798 7.42888 2.96365 7.38566 2.88673 7.30874C2.80981 7.23183 2.7666 7.1275 2.7666 7.01872C2.7666 6.90994 2.80981 6.80562 2.88673 6.7287C2.96365 6.65178 3.06798 6.60856 3.17676 6.60856H3.34766C3.45644 6.60856 3.56076 6.65178 3.63768 6.7287C3.7146 6.80562 3.75781 6.90994 3.75781 7.01872C3.75781 7.1275 3.7146 7.23183 3.63768 7.30874C3.56076 7.38566 3.45644 7.42888 3.34766 7.42888ZM4.9515 7.42888H4.78061C4.67183 7.42888 4.5675 7.38566 4.49058 7.30874C4.41366 7.23183 4.37045 7.1275 4.37045 7.01872C4.37045 6.90994 4.41366 6.80562 4.49058 6.7287C4.5675 6.65178 4.67183 6.60856 4.78061 6.60856H4.9515C5.06028 6.60856 5.16461 6.65178 5.24153 6.7287C5.31845 6.80562 5.36166 6.90994 5.36166 7.01872C5.36166 7.1275 5.31845 7.23183 5.24153 7.30874C5.16461 7.38566 5.06028 7.42888 4.9515 7.42888Z" fill="#53CEDB"/>
<path d="M16.7269 5.8109C16.6458 5.81089 16.5665 5.78683 16.499 5.74176C16.4316 5.69669 16.379 5.63263 16.348 5.55768C16.3169 5.48273 16.3088 5.40026 16.3247 5.32069C16.3405 5.24113 16.3796 5.16805 16.4369 5.11069L16.5577 4.9899C16.5957 4.95131 16.6409 4.92062 16.6908 4.8996C16.7407 4.87858 16.7943 4.86765 16.8484 4.86743C16.9026 4.86722 16.9562 4.87773 17.0063 4.89835C17.0563 4.91898 17.1018 4.94931 17.1401 4.9876C17.1784 5.02589 17.2087 5.07138 17.2293 5.12144C17.2499 5.17151 17.2604 5.22516 17.2602 5.27931C17.26 5.33345 17.249 5.38701 17.228 5.4369C17.207 5.4868 17.1763 5.53203 17.1377 5.57L17.0169 5.69072C16.9789 5.72888 16.9337 5.75915 16.8839 5.77977C16.8341 5.80039 16.7808 5.81097 16.7269 5.8109ZM15.5928 6.94491C15.5117 6.94491 15.4324 6.92085 15.365 6.87579C15.2975 6.83072 15.245 6.76667 15.2139 6.69173C15.1829 6.6168 15.1747 6.53433 15.1906 6.45478C15.2064 6.37522 15.2454 6.30214 15.3028 6.24477L15.4236 6.12398C15.5008 6.04879 15.6046 6.00705 15.7124 6.00779C15.8202 6.00852 15.9234 6.05168 15.9996 6.12793C16.0759 6.20417 16.119 6.30736 16.1198 6.41517C16.1205 6.52299 16.0787 6.62675 16.0035 6.70401L15.8828 6.8248C15.8448 6.86293 15.7996 6.89317 15.7498 6.91379C15.7 6.9344 15.6467 6.94497 15.5928 6.94491ZM15.7135 5.8109C15.6597 5.81096 15.6063 5.80038 15.5566 5.77976C15.5068 5.75913 15.4616 5.72887 15.4236 5.69072L15.3028 5.57C15.2647 5.53191 15.2345 5.4867 15.2138 5.43694C15.1932 5.38717 15.1826 5.33384 15.1826 5.27997C15.1826 5.22611 15.1932 5.17277 15.2138 5.12301C15.2344 5.07324 15.2647 5.02802 15.3027 4.98993C15.3408 4.95185 15.386 4.92163 15.4358 4.90101C15.4856 4.8804 15.5389 4.86979 15.5928 4.86978C15.6466 4.86978 15.7 4.88039 15.7497 4.901C15.7995 4.92161 15.8447 4.95182 15.8828 4.9899L16.0035 5.11069C16.0609 5.16805 16.1 5.24113 16.1158 5.32069C16.1316 5.40026 16.1235 5.48273 16.0925 5.55768C16.0614 5.63263 16.0089 5.69669 15.9414 5.74176C15.874 5.78683 15.7947 5.81089 15.7135 5.8109ZM16.8477 6.94491C16.7938 6.94497 16.7405 6.9344 16.6907 6.91379C16.641 6.89317 16.5958 6.86293 16.5577 6.8248L16.4369 6.70401C16.361 6.62688 16.3187 6.52289 16.3191 6.41469C16.3196 6.30649 16.3628 6.20284 16.4393 6.12633C16.5158 6.04982 16.6194 6.00665 16.7276 6.00621C16.8358 6.00577 16.9398 6.0481 17.0169 6.12398L17.1377 6.24477C17.195 6.30213 17.2341 6.37521 17.2499 6.45476C17.2657 6.53431 17.2576 6.61677 17.2265 6.6917C17.1955 6.76664 17.143 6.83069 17.0755 6.87576C17.0081 6.92083 16.9288 6.94489 16.8477 6.94491Z" fill="#FFD283"/>
<path d="M6.9593 13.1237L6.37708 12.8052L6.05866 12.2228C6.03397 12.1777 5.99759 12.14 5.95334 12.1138C5.90908 12.0876 5.85858 12.0737 5.80714 12.0737C5.75569 12.0737 5.70519 12.0876 5.66093 12.1138C5.61668 12.14 5.5803 12.1777 5.55561 12.2228L5.23726 12.8052L4.65497 13.1236C4.60984 13.1483 4.57218 13.1847 4.54594 13.2289C4.5197 13.2732 4.50586 13.3237 4.50586 13.3751C4.50586 13.4266 4.5197 13.4771 4.54594 13.5213C4.57218 13.5656 4.60984 13.602 4.65497 13.6267L5.23733 13.9452L5.55568 14.5274C5.58037 14.5726 5.61675 14.6102 5.661 14.6365C5.70526 14.6627 5.75576 14.6766 5.8072 14.6766C5.85865 14.6766 5.90915 14.6627 5.95341 14.6365C5.99766 14.6102 6.03404 14.5726 6.05873 14.5274L6.37715 13.9452L6.95937 13.6267C7.00451 13.602 7.04217 13.5656 7.06841 13.5214C7.09465 13.4771 7.10849 13.4266 7.10849 13.3752C7.10849 13.3237 7.09465 13.2732 7.06841 13.229C7.04217 13.1847 7.00444 13.1484 6.9593 13.1237ZM29.9004 22.7008L29.0636 22.2432C29.0596 22.241 29.0564 22.2377 29.0542 22.2338L28.5966 21.397C28.5707 21.3496 28.5324 21.31 28.4859 21.2824C28.4394 21.2548 28.3863 21.2402 28.3323 21.2402C28.2782 21.2402 28.2251 21.2548 28.1786 21.2824C28.1321 21.31 28.0939 21.3496 28.0679 21.397L27.6099 22.2339C27.6078 22.2378 27.6046 22.241 27.6007 22.2432L26.7638 22.7008C26.7164 22.7268 26.6768 22.765 26.6492 22.8115C26.6216 22.858 26.6071 22.9111 26.6071 22.9651C26.6071 23.0192 26.6216 23.0723 26.6492 23.1188C26.6768 23.1653 26.7164 23.2035 26.7638 23.2295L27.6007 23.6875C27.6046 23.6896 27.6078 23.6928 27.6099 23.6968L28.0679 24.5335C28.0939 24.581 28.1321 24.6206 28.1786 24.6481C28.2251 24.6757 28.2782 24.6902 28.3323 24.6902C28.3863 24.6902 28.4394 24.6757 28.4859 24.6481C28.5324 24.6206 28.5707 24.581 28.5966 24.5335L29.0542 23.6968C29.0563 23.6928 29.0596 23.6895 29.0636 23.6874L29.9004 23.2294C29.9478 23.2035 29.9874 23.1652 30.015 23.1187C30.0426 23.0722 30.0571 23.0191 30.0571 22.9651C30.0571 22.911 30.0426 22.8579 30.015 22.8114C29.9874 22.7649 29.9478 22.7267 29.9004 22.7008V22.7008Z" fill="white"/>
</svg>
