<svg width="35" height="35" viewBox="0 0 35 35" fill="none" xmlns="http://www.w3.org/2000/svg">
<path d="M20.45 4.9502H25.7667C26.2794 4.9502 26.7712 5.15389 27.1337 5.51646C27.4963 5.87903 27.7 6.37078 27.7 6.88353V30.5669C27.7 31.0796 27.4963 31.5714 27.1337 31.9339C26.7712 32.2965 26.2794 32.5002 25.7667 32.5002H6.43333C5.92058 32.5002 5.42883 32.2965 5.06626 31.9339C4.70369 31.5714 4.5 31.0796 4.5 30.5669V6.88353C4.5 6.37078 4.70369 5.87903 5.06626 5.51646C5.42883 5.15389 5.92058 4.9502 6.43333 4.9502H20.45Z" fill="#2A2D40"/>
<path d="M25.7667 4.9502H6.43333C5.92058 4.9502 5.42883 5.15389 5.06626 5.51646C4.70369 5.87903 4.5 6.37078 4.5 6.88353V7.97103C5.58527 13.466 8.44165 18.4539 12.6318 22.1709C16.8219 25.8879 22.1148 28.1291 27.7 28.5514V6.88353C27.7 6.37078 27.4963 5.87903 27.1337 5.51646C26.7712 5.15389 26.2794 4.9502 25.7667 4.9502Z" fill="#474C6A"/>
<path d="M20.4503 6.8833H24.8003C25.0566 6.8833 25.3025 6.98515 25.4838 7.16643C25.6651 7.34772 25.7669 7.59359 25.7669 7.84997V29.6C25.7669 29.8563 25.6651 30.1022 25.4838 30.2835C25.3025 30.4648 25.0566 30.5666 24.8003 30.5666H7.40026C7.14388 30.5666 6.89801 30.4648 6.71672 30.2835C6.53544 30.1022 6.43359 29.8563 6.43359 29.6V7.84997C6.43359 7.59359 6.53544 7.34772 6.71672 7.16643C6.89801 6.98515 7.14388 6.8833 7.40026 6.8833H20.4503Z" fill="#F6F8FF"/>
<path d="M6.43359 13.877V29.5998C6.43359 29.8562 6.53544 30.102 6.71672 30.2833C6.89801 30.4646 7.14388 30.5665 7.40026 30.5665H24.8003C25.0566 30.5665 25.3025 30.4646 25.4838 30.2833C25.6651 30.102 25.7669 29.8562 25.7669 29.5998V28.3335C21.6053 27.6959 17.6647 26.0435 14.2929 23.5223C10.9211 21.001 8.22193 17.6884 6.43359 13.877Z" fill="#E2E7F7"/>
<path d="M19.4833 3.5H12.7167C12.1828 3.5 11.75 3.93279 11.75 4.46667V7.36667C11.75 7.90054 12.1828 8.33333 12.7167 8.33333H19.4833C20.0172 8.33333 20.45 7.90054 20.45 7.36667V4.46667C20.45 3.93279 20.0172 3.5 19.4833 3.5Z" fill="#E2E7F7"/>
<path d="M8.84948 10.75H23.3495V11.7167H8.84948V10.75ZM7.88281 12.6833H23.3495V13.65H7.88281V12.6833ZM7.88281 14.6167H23.3495V15.5833H7.88281V14.6167ZM7.88281 16.55H17.5495V17.5167H7.88281V16.55Z" fill="#5490F5"/>
<path d="M19.4835 3.5H13.2002V5.91667C13.2002 6.17304 13.302 6.41892 13.4833 6.6002C13.6646 6.78149 13.9105 6.88333 14.1669 6.88333H20.4502V4.46667C20.4502 4.21029 20.3484 3.96442 20.1671 3.78313C19.9858 3.60184 19.7399 3.5 19.4835 3.5Z" fill="#F6F8FF"/>
<path d="M17.5498 24.7667L27.3566 14.955C27.5765 14.7374 27.8737 14.6157 28.1831 14.6167C28.3356 14.6163 28.4867 14.646 28.6277 14.7041C28.7686 14.7621 28.8968 14.8474 29.0048 14.955L30.2566 16.2069C30.4756 16.4263 30.599 16.7234 30.5998 17.0334C30.5987 17.3419 30.4753 17.6374 30.2566 17.855L20.4498 27.6667L17.5498 24.7667Z" fill="#FFC239"/>
<path d="M30.3432 16.3033C30.3142 16.2694 30.29 16.2356 30.2562 16.2018L29.0044 14.9499C28.7846 14.7336 28.4886 14.6123 28.1803 14.6123C27.8719 14.6123 27.5759 14.7336 27.3562 14.9499L18.2695 24.0366L19.0815 24.8486C19.2611 25.0284 19.4743 25.171 19.709 25.2683C19.9437 25.3656 20.1953 25.4156 20.4494 25.4156C20.7034 25.4156 20.955 25.3656 21.1897 25.2683C21.4244 25.171 21.6376 25.0284 21.8172 24.8486L30.2562 16.4096C30.2878 16.3764 30.3169 16.3408 30.3432 16.3033Z" fill="#FFD55D"/>
<path d="M17.5496 24.7666L16.6071 27.8986C16.5782 27.998 16.5764 28.1032 16.6019 28.2035C16.6274 28.3038 16.6792 28.3954 16.7521 28.4689C16.8256 28.5418 16.9172 28.5936 17.0175 28.6191C17.1178 28.6446 17.223 28.6428 17.3224 28.6139L20.4496 27.6666L17.5496 24.7666Z" fill="#F4C8AD"/>
<path d="M25.4189 16.8861L26.1019 16.2026L29.0033 19.1041L28.3199 19.7875L25.4189 16.8861Z" fill="#2A2D40"/>
<path d="M18.5987 26.2987L17.4338 25.1387L16.6073 27.8937C16.5899 27.9483 16.5817 28.0055 16.5832 28.0628L18.2893 27.5457C18.413 27.5078 18.5248 27.4385 18.6138 27.3446C18.7027 27.2507 18.7659 27.1353 18.797 27.0097C18.8282 26.8842 18.8263 26.7527 18.7915 26.6281C18.7568 26.5035 18.6903 26.39 18.5987 26.2987Z" fill="#FBDAC2"/>
</svg>
