<svg width="35" height="35" viewBox="0 0 35 35" fill="none" xmlns="http://www.w3.org/2000/svg">
<path d="M5.74414 4.74463H25.5531V32.1279H5.74414V4.74463Z" fill="#EFF3F5"/>
<path d="M3 2H22.8043V29.3833H3V2Z" fill="#EFF3F5"/>
<path d="M23.656 4.74463V30.2308H5.74414V29.3835H22.804V4.74463H23.656Z" fill="#C6C1C1"/>
<path d="M5.26855 4.60352H10.249V9.584H5.26855V4.60352Z" fill="#41ACD8"/>
<path d="M5.26855 11.6597H20.5395V12.2811H5.26855V11.6597ZM5.26855 13.7309H20.5395V14.3523H5.26855V13.7309ZM5.26855 15.8022H20.5395V16.4236H5.26855V15.8022ZM5.26855 17.8735H20.5395V18.4949H5.26855V17.8735ZM5.26855 19.9448H20.5395V20.5662H5.26855V19.9448ZM5.26855 22.0208H12.5745V22.6422H5.26855V22.0208Z" fill="#BDBDBE"/>
<path d="M13.126 4.84326H20.5402V5.46465H13.126V4.84326Z" fill="#DF4666"/>
<path d="M13.126 6.77832H20.5402V7.3997H13.126V6.77832Z" fill="#7DA4C3"/>
<path d="M13.126 8.71777H18.05V9.33916H13.126V8.71777Z" fill="#F1B974"/>
<path d="M14.1191 24.3843H20.5354V25.0057H14.1191V24.3843Z" fill="#41ACD8"/>
<path d="M14.1191 26.1587H19.0431V26.7801H14.1191V26.1587Z" fill="#59B5AC"/>
<path d="M16.8447 25.1421L16.694 25.2269L13.5683 27.0063L12.9893 26.4273L14.7687 23.3015L14.8534 23.1509L16.8447 25.1421Z" fill="#FBD984"/>
<path d="M16.2043 24.4924L12.2783 27.717L15.5029 23.791L16.2043 24.4924Z" fill="#E5C06E"/>
<path d="M13.5682 27.0107L12.9891 26.4316L12.2783 27.7168L13.5682 27.0107Z" fill="#445B69"/>
<path d="M28.8156 10.5205L15.3852 23.9509C15.324 23.5931 15.1169 23.3766 14.7686 23.3013L14.8533 23.1506L28.1519 9.85205L28.8156 10.5205Z" fill="#5ABA3A"/>
<path d="M16.0495 24.6146C15.9836 24.238 15.7623 24.0168 15.3857 23.9509L28.8161 10.5205L29.4799 11.1843L16.0495 24.6146Z" fill="#77D654"/>
<path d="M16.8442 25.142L30.1428 11.8434L29.479 11.1797L16.1758 24.4783L16.0439 24.6101C16.4017 24.6713 16.623 24.8831 16.6936 25.2267L16.8442 25.142Z" fill="#5ABA3A"/>
<path d="M28.4483 9.55089L30.4391 11.5407L30.1393 11.8401L28.1494 9.85028L28.4483 9.55089ZM29.6111 8.38721L31.6009 10.3775L31.3015 10.6769L29.3112 8.68707L29.6111 8.38721Z" fill="#445B69"/>
<path d="M29.3125 8.68945L31.3028 10.6793L30.4376 11.5445L28.4473 9.55468L29.3125 8.68945Z" fill="#FBD984"/>
<path d="M31.6075 10.384L29.6162 8.3927L30.7837 7.22525C31.0567 6.95222 31.4757 6.92868 31.7204 7.16876L32.8314 8.27972C33.0762 8.52451 33.0527 8.94347 32.7749 9.2165L31.6075 10.384Z" fill="#59B5AC"/>
</svg>
