<svg width="35" height="35" viewBox="0 0 35 35" fill="none" xmlns="http://www.w3.org/2000/svg">
<path d="M18.6927 8.75H4.375V32.8125H24.0625V14.1198C22.7216 13.891 21.4848 13.2515 20.5229 12.2896C19.561 11.3277 18.9215 10.0909 18.6927 8.75Z" fill="#F0F0F0"/>
<path d="M4.375 8.75H5.46875V32.8125H4.375V8.75Z" fill="#D2D2D2"/>
<path d="M16.4062 6.5625C16.4062 5.98234 16.1758 5.42594 15.7655 5.0157C15.3553 4.60547 14.7989 4.375 14.2188 4.375C13.6386 4.375 13.0822 4.60547 12.672 5.0157C12.2617 5.42594 12.0312 5.98234 12.0312 6.5625H9.84375V8.75H18.5938V6.5625H16.4062ZM14.2188 7.65625C14.0731 7.65954 13.9283 7.6337 13.7927 7.58025C13.6572 7.5268 13.5337 7.4468 13.4295 7.34497C13.3253 7.24313 13.2425 7.12151 13.186 6.98723C13.1295 6.85296 13.1003 6.70874 13.1003 6.56305C13.1002 6.41736 13.1293 6.27313 13.1858 6.13883C13.2423 6.00453 13.325 5.88286 13.4291 5.78097C13.5333 5.67909 13.6567 5.59903 13.7922 5.54551C13.9277 5.49199 14.0725 5.46608 14.2182 5.4693C14.504 5.47562 14.7759 5.59356 14.9758 5.79788C15.1757 6.0022 15.2877 6.27666 15.2878 6.56251C15.2878 6.84835 15.176 7.12287 14.9762 7.32729C14.7764 7.53171 14.5045 7.64979 14.2188 7.65625Z" fill="#AFAFAF"/>
<path d="M9.84375 6.5625H10.9375V8.75H9.84375V6.5625ZM14.7656 4.45211C14.5874 4.40327 14.4036 4.37736 14.2188 4.375C13.6386 4.375 13.0822 4.60547 12.672 5.0157C12.2617 5.42594 12.0312 5.98234 12.0312 6.5625H13.125C13.1258 6.07864 13.2875 5.60877 13.5844 5.22676C13.8814 4.84475 14.2969 4.57226 14.7656 4.45211Z" fill="#CBCBCB"/>
<path d="M9.84375 15.3125H21.875V16.4062H9.84375V15.3125ZM9.84375 18.5938H21.875V19.6875H9.84375V18.5938ZM9.84375 21.875H21.875V22.9688H9.84375V21.875ZM9.84375 25.1562H21.875V26.25H9.84375V25.1562ZM9.84375 28.4375H21.875V29.5312H9.84375V28.4375Z" fill="#D2D2D2"/>
<path d="M8.75 13.125H6.5625V12.0312H8.75V13.125ZM8.75 16.4062H6.5625V15.3125H8.75V16.4062ZM8.75 19.6875H6.5625V18.5938H8.75V19.6875ZM6.5625 21.875H8.75V22.9688H6.5625V21.875ZM6.5625 25.1562H8.75V26.25H6.5625V25.1562ZM6.5625 28.4375H8.75V29.5312H6.5625V28.4375Z" fill="#FA6450"/>
<path d="M20.2787 12.0312H9.84375V13.125H21.5365C21.0725 12.8152 20.6499 12.4477 20.2787 12.0312Z" fill="#D2D2D2"/>
<path d="M25.1562 13.125C28.1766 13.125 30.625 10.6766 30.625 7.65625C30.625 4.63586 28.1766 2.1875 25.1562 2.1875C22.1359 2.1875 19.6875 4.63586 19.6875 7.65625C19.6875 10.6766 22.1359 13.125 25.1562 13.125Z" fill="#3CC8B4"/>
<path d="M20.7812 7.65625C20.7812 4.8207 22.9398 2.48938 25.7031 2.21484C25.5232 2.19734 25.3411 2.1875 25.1562 2.1875C22.1359 2.1875 19.6875 4.63586 19.6875 7.65625C19.6875 10.6766 22.1359 13.125 25.1562 13.125C25.3411 13.125 25.5232 13.1152 25.7031 13.0971C22.9398 12.8231 20.7812 10.4918 20.7812 7.65625Z" fill="#1EAA96"/>
<path d="M27.8906 6.5625L24.6094 9.84375L22.4219 7.65625L23.5156 6.5625L24.6094 7.65625L26.7969 5.46875L27.8906 6.5625Z" fill="#F0F0F0"/>
</svg>
