<svg width="35" height="35" viewBox="0 0 35 35" fill="none" xmlns="http://www.w3.org/2000/svg">
<path d="M26.0938 33H5.9375C5.81318 33 5.69395 32.9506 5.60604 32.8627C5.51814 32.7748 5.46875 32.6556 5.46875 32.5312V3.46875C5.46875 3.34443 5.51814 3.2252 5.60604 3.13729C5.69395 3.04939 5.81318 3 5.9375 3H21.2478C21.3721 3.00003 21.4913 3.04943 21.5792 3.13734L26.4252 7.98328C26.5131 8.07117 26.5625 8.19038 26.5625 8.31469V32.5312C26.5625 32.6556 26.5131 32.7748 26.4252 32.8627C26.3373 32.9506 26.2181 33 26.0938 33Z" fill="url(#paint0_linear_441_462)"/>
<path d="M25.625 33H5.46875C5.34443 33 5.2252 32.9506 5.13729 32.8627C5.04939 32.7748 5 32.6556 5 32.5312V3.46875C5 3.34443 5.04939 3.2252 5.13729 3.13729C5.2252 3.04939 5.34443 3 5.46875 3H20.9731L26.0938 8.12063V32.5312C26.0938 32.6556 26.0444 32.7748 25.9565 32.8627C25.8685 32.9506 25.7493 33 25.625 33Z" fill="url(#paint1_linear_441_462)"/>
<path d="M20.9727 3V7.65188C20.9727 7.7762 21.022 7.89542 21.1099 7.98333C21.1979 8.07124 21.3171 8.12063 21.4414 8.12063H26.0933L23.7964 5.355L20.9727 3Z" fill="url(#paint2_linear_441_462)"/>
<path d="M20.0098 10.8418H8.4818C8.35702 10.8418 8.25586 10.943 8.25586 11.0677C8.25586 11.1925 8.35702 11.2937 8.4818 11.2937H20.0098C20.1345 11.2937 20.2357 11.1925 20.2357 11.0677C20.2357 10.943 20.1345 10.8418 20.0098 10.8418Z" fill="url(#paint3_linear_441_462)"/>
<path d="M22.6113 12.9563H8.4818C8.35702 12.9563 8.25586 13.0575 8.25586 13.1822C8.25586 13.307 8.35702 13.4082 8.4818 13.4082H22.6113C22.7361 13.4082 22.8373 13.307 22.8373 13.1822C22.8373 13.0575 22.7361 12.9563 22.6113 12.9563Z" fill="black"/>
<path d="M22.6113 15.0708H8.4818C8.35702 15.0708 8.25586 15.172 8.25586 15.2967C8.25586 15.4215 8.35702 15.5227 8.4818 15.5227H22.6113C22.7361 15.5227 22.8373 15.4215 22.8373 15.2967C22.8373 15.172 22.7361 15.0708 22.6113 15.0708Z" fill="black"/>
<path d="M22.6113 17.1858H8.4818C8.35702 17.1858 8.25586 17.2869 8.25586 17.4117C8.25586 17.5365 8.35702 17.6377 8.4818 17.6377H22.6113C22.7361 17.6377 22.8373 17.5365 22.8373 17.4117C22.8373 17.2869 22.7361 17.1858 22.6113 17.1858Z" fill="black"/>
<path d="M22.6113 19.3003H8.4818C8.35702 19.3003 8.25586 19.4014 8.25586 19.5262C8.25586 19.651 8.35702 19.7522 8.4818 19.7522H22.6113C22.7361 19.7522 22.8373 19.651 22.8373 19.5262C22.8373 19.4014 22.7361 19.3003 22.6113 19.3003Z" fill="black"/>
<path d="M22.6113 21.4148H8.4818C8.35702 21.4148 8.25586 21.5159 8.25586 21.6407C8.25586 21.7655 8.35702 21.8667 8.4818 21.8667H22.6113C22.7361 21.8667 22.8373 21.7655 22.8373 21.6407C22.8373 21.5159 22.7361 21.4148 22.6113 21.4148Z" fill="black"/>
<path d="M22.6113 23.5295H8.4818C8.35702 23.5295 8.25586 23.6307 8.25586 23.7555C8.25586 23.8803 8.35702 23.9814 8.4818 23.9814H22.6113C22.7361 23.9814 22.8373 23.8803 22.8373 23.7555C22.8373 23.6307 22.7361 23.5295 22.6113 23.5295Z" fill="black"/>
<path d="M15.3209 25.6438H8.4818C8.35702 25.6438 8.25586 25.745 8.25586 25.8697C8.25586 25.9945 8.35702 26.0957 8.4818 26.0957H15.3209C15.4456 26.0957 15.5468 25.9945 15.5468 25.8697C15.5468 25.745 15.4456 25.6438 15.3209 25.6438Z" fill="url(#paint4_linear_441_462)"/>
<path d="M30.1246 12.299L29.0803 11.2551C29.021 11.1956 28.9505 11.1485 28.873 11.1163C28.7955 11.0842 28.7123 11.0676 28.6284 11.0676C28.5445 11.0676 28.4613 11.0842 28.3838 11.1163C28.3063 11.1485 28.2358 11.1956 28.1765 11.2551L27.1279 12.3032L29.0765 14.2499L30.1246 13.2027C30.2444 13.0828 30.3117 12.9203 30.3117 12.7508C30.3117 12.5814 30.2444 12.4188 30.1246 12.299Z" fill="url(#paint5_linear_441_462)"/>
<path d="M18.9537 24.375L15.7193 25.7883C15.7017 25.7972 15.6816 25.8004 15.6621 25.7973C15.6425 25.7942 15.6245 25.785 15.6105 25.771C15.5965 25.757 15.5873 25.7389 15.5842 25.7194C15.5811 25.6998 15.5842 25.6798 15.5932 25.6622L17.0065 22.4278L27.3237 12.1106L29.2714 14.0587L18.9537 24.375Z" fill="url(#paint6_linear_441_462)"/>
<path d="M17.002 22.427L27.3189 12.1101L29.2668 14.0581L18.9499 24.375L17.002 22.427Z" fill="url(#paint7_linear_441_462)"/>
<path d="M16.5359 25.4311L15.9495 24.8438L15.5599 25.7344C15.5548 25.7462 15.5534 25.7592 15.5558 25.7719C15.5583 25.7845 15.5644 25.7961 15.5735 25.8052C15.5826 25.8143 15.5942 25.8204 15.6068 25.8228C15.6194 25.8253 15.6325 25.8238 15.6443 25.8188L16.5359 25.4311Z" fill="url(#paint8_linear_441_462)"/>
<defs>
<linearGradient id="paint0_linear_441_462" x1="16.0156" y1="-9.045" x2="16.0156" y2="-8.22188" gradientUnits="userSpaceOnUse">
<stop stop-color="#F3F7FF"/>
<stop offset="0.99" stop-color="#B5D1FF"/>
</linearGradient>
<linearGradient id="paint1_linear_441_462" x1="15.5469" y1="0.455156" x2="15.5469" y2="75.1767" gradientUnits="userSpaceOnUse">
<stop stop-color="#F3F7FF"/>
<stop offset="0.99" stop-color="#B5D1FF"/>
</linearGradient>
<linearGradient id="paint2_linear_441_462" x1="23.533" y1="-7.98234" x2="23.533" y2="1.12547" gradientUnits="userSpaceOnUse">
<stop stop-color="#F3F7FF"/>
<stop offset="0.99" stop-color="#B5D1FF"/>
</linearGradient>
<linearGradient id="paint3_linear_441_462" x1="14.246" y1="-2.45993" x2="14.246" y2="0.0525695" gradientUnits="userSpaceOnUse">
<stop stop-color="#F3F7FF"/>
<stop offset="0.99" stop-color="#B5D1FF"/>
</linearGradient>
<linearGradient id="paint4_linear_441_462" x1="11.9013" y1="-2.46013" x2="11.9013" y2="0.0523727" gradientUnits="userSpaceOnUse">
<stop stop-color="#F3F7FF"/>
<stop offset="0.99" stop-color="#B5D1FF"/>
</linearGradient>
<linearGradient id="paint5_linear_441_462" x1="25.2653" y1="8.89983" x2="32.7038" y2="16.4153" gradientUnits="userSpaceOnUse">
<stop stop-color="#048AC4"/>
<stop offset="1" stop-color="#35489B"/>
</linearGradient>
<linearGradient id="paint6_linear_441_462" x1="20.8174" y1="18.2887" x2="34.0887" y2="31.56" gradientUnits="userSpaceOnUse">
<stop stop-color="#F3F7FF"/>
<stop offset="0.99" stop-color="#B5D1FF"/>
</linearGradient>
<linearGradient id="paint7_linear_441_462" x1="19.4541" y1="14.5238" x2="27.0746" y2="22.2232" gradientUnits="userSpaceOnUse">
<stop stop-color="#FDC830"/>
<stop offset="1" stop-color="#F37335"/>
</linearGradient>
<linearGradient id="paint8_linear_441_462" x1="14.8344" y1="24.3809" x2="17.0668" y2="26.6365" gradientUnits="userSpaceOnUse">
<stop stop-color="#048AC4"/>
<stop offset="1" stop-color="#35489B"/>
</linearGradient>
</defs>
</svg>
