<svg width="35" height="35" viewBox="0 0 35 35" fill="none" xmlns="http://www.w3.org/2000/svg">
<path fill-rule="evenodd" clip-rule="evenodd" d="M2.02649 16.4037L1.33891 16.9838C1.13626 17.1548 0.832923 17.129 0.661972 16.9264C0.491021 16.7237 0.516687 16.4204 0.719344 16.2494L2.32948 14.891C2.42688 14.8089 2.55292 14.7688 2.67988 14.7795C2.80684 14.7903 2.92433 14.8511 3.00649 14.9485L4.36484 16.5586C4.53579 16.7613 4.51012 17.0646 4.30746 17.2355C4.10481 17.4065 3.80147 17.3808 3.63052 17.1781L2.99009 16.419C2.94497 16.8878 2.92241 17.3584 2.92249 17.8293C2.92249 25.8536 9.43716 32.3682 17.4614 32.3682C18.5499 32.3682 19.6106 32.2484 20.6311 32.0212C20.8898 31.9635 21.1467 32.1269 21.2044 32.3857C21.262 32.6445 21.0987 32.9014 20.8399 32.959C19.7307 33.2056 18.5977 33.3297 17.4614 33.329C8.90687 33.329 1.96171 26.3839 1.96171 17.8293C1.96171 17.3487 1.9836 16.8732 2.02649 16.4037ZM31.9767 18.6635C31.9924 18.3875 32.0004 18.1093 32.0004 17.8293C32.0004 9.80504 25.4856 3.29037 17.4614 3.29037C15.9932 3.29037 14.5756 3.5084 13.2391 3.91392C12.9854 3.99092 12.7169 3.84742 12.6399 3.59371C12.5629 3.33999 12.7064 3.07152 12.9601 2.99452C14.3849 2.56217 15.8962 2.32959 17.4614 2.32959C26.0159 2.32959 32.9611 9.27476 32.9611 17.8293C32.9611 18.1255 32.9528 18.4198 32.9364 18.7119L33.6306 18.0175C33.8181 17.8301 34.1225 17.8301 34.31 18.0175C34.4975 18.205 34.4975 18.5095 34.31 18.697L32.8204 20.1865C32.7758 20.2311 32.7228 20.2665 32.6646 20.2907C32.6063 20.3148 32.5438 20.3272 32.4807 20.3272C32.4176 20.3272 32.3552 20.3148 32.2969 20.2907C32.2386 20.2665 32.1856 20.2311 32.141 20.1865L30.6514 18.697C30.4639 18.5095 30.4639 18.205 30.6514 18.0175C30.8389 17.8301 31.1433 17.8301 31.3308 18.0175L31.9767 18.6635ZM20.8319 15.2359C20.924 15.2359 21.0124 15.2725 21.0775 15.3376C21.1426 15.4027 21.1792 15.491 21.1792 15.5831V17.1048C21.1792 17.1969 21.1426 17.2852 21.0775 17.3504C21.0124 17.4155 20.924 17.4521 20.8319 17.4521H13.7724C13.6803 17.4521 13.5919 17.4155 13.5268 17.3504C13.4617 17.2852 13.4251 17.1969 13.4251 17.1048V15.5831C13.4251 15.491 13.4617 15.4027 13.5268 15.3376C13.5919 15.2725 13.6803 15.2359 13.7724 15.2359H20.8319ZM20.8319 19.2625C20.924 19.2625 21.0124 19.299 21.0775 19.3642C21.1426 19.4293 21.1792 19.5176 21.1792 19.6097V21.1314C21.1792 21.2235 21.1426 21.3118 21.0775 21.3769C21.0124 21.4421 20.924 21.4786 20.8319 21.4786H13.7724C13.6803 21.4786 13.5919 21.4421 13.5268 21.3769C13.4617 21.3118 13.4251 21.2235 13.4251 21.1314V19.6097C13.4251 19.5176 13.4617 19.4293 13.5268 19.3642C13.5919 19.299 13.6803 19.2625 13.7724 19.2625H20.8319Z" fill="#C6EA94"/>
<path d="M8.0791 6.71729C9.59788 6.71729 10.8291 5.48607 10.8291 3.96729C10.8291 2.4485 9.59788 1.21729 8.0791 1.21729C6.56032 1.21729 5.3291 2.4485 5.3291 3.96729C5.3291 5.48607 6.56032 6.71729 8.0791 6.71729Z" fill="#EFC7A4"/>
<path fill-rule="evenodd" clip-rule="evenodd" d="M12.5566 11.9862C12.5566 14.4595 3.60156 14.4595 3.60156 11.9862C3.60156 9.51396 5.60583 7.50977 8.07909 7.50977C10.5513 7.50977 12.5566 9.51396 12.5566 11.9862Z" fill="#66D4F1"/>
<path fill-rule="evenodd" clip-rule="evenodd" d="M8.65356 7.54628L9.53247 10.7529L8.07874 12.3702L6.625 10.7529L7.50391 7.54628C7.69216 7.52219 7.88397 7.50977 8.07874 7.50977C8.2735 7.50977 8.46531 7.52219 8.65356 7.54628Z" fill="#F76C82"/>
<path d="M28.0029 25.7249C29.5217 25.7249 30.7529 24.4936 30.7529 22.9749C30.7529 21.4561 29.5217 20.2249 28.0029 20.2249C26.4841 20.2249 25.2529 21.4561 25.2529 22.9749C25.2529 24.4936 26.4841 25.7249 28.0029 25.7249Z" fill="#EFC7A4"/>
<path fill-rule="evenodd" clip-rule="evenodd" d="M32.4804 30.9938C32.4804 33.4671 23.5254 33.4671 23.5254 30.9938C23.5254 28.5216 25.5296 26.5173 28.0029 26.5173C30.4751 26.5173 32.4804 28.5216 32.4804 30.9938Z" fill="#66D4F1"/>
<path fill-rule="evenodd" clip-rule="evenodd" d="M28.5784 26.5537L29.4573 29.7604L28.0035 31.3777L26.5498 29.7604L27.4287 26.5537C27.8104 26.5049 28.1967 26.5049 28.5784 26.5537Z" fill="#F76C82"/>
</svg>
