<svg width="35" height="35" viewBox="0 0 35 35" fill="none" xmlns="http://www.w3.org/2000/svg">
<path d="M17.5 32C25.5081 32 32 25.5081 32 17.5C32 9.49187 25.5081 3 17.5 3C9.49187 3 3 9.49187 3 17.5C3 25.5081 9.49187 32 17.5 32Z" fill="#03A9F4"/>
<path d="M31.9995 17.5C31.9996 16.6028 31.9169 15.7075 31.7524 14.8256L26.9169 9.99005C26.9169 9.99005 25.2589 10.7703 24.3305 10.9654C23.6009 10.1851 22.5398 9.72998 21.346 9.72998C18.7141 9.72998 16.849 12.0693 17.3669 14.6067C13.9847 14.4116 10.9339 12.8511 8.94451 10.5103C8.59981 11.1028 8.41684 11.7754 8.41393 12.4609C8.41393 13.8263 9.14345 15.0618 10.2046 15.712C9.54991 15.7099 8.90811 15.5301 8.34758 15.1919C8.33516 17.0871 9.7256 18.7656 11.5973 19.0933C11.0037 19.2097 10.3387 19.3049 9.74033 19.1583C10.0197 19.9558 10.5398 20.6469 11.2289 21.1361C11.9179 21.6253 12.7418 21.8885 13.5869 21.8893C11.9597 23.1047 9.59481 23.9156 7.55176 23.5148L15.9549 31.9181C16.4679 31.9725 16.9835 31.9999 17.4995 32C25.5076 32 31.9995 25.5081 31.9995 17.5Z" fill="url(#paint0_linear_441_939)"/>
<path fill-rule="evenodd" clip-rule="evenodd" d="M24.3305 10.9654C23.6009 10.1851 22.5398 9.72998 21.346 9.72998C18.7141 9.72998 16.849 12.0693 17.3669 14.6067C13.9847 14.4116 10.9339 12.8511 8.94451 10.5103C8.59981 11.1028 8.41684 11.7754 8.41393 12.4609C8.41393 13.8263 9.14345 15.0619 10.2046 15.712C9.54991 15.7099 8.90811 15.5301 8.34758 15.1919C8.33516 17.0871 9.7256 18.7656 11.5973 19.0933C11.0037 19.2097 10.3387 19.3049 9.74033 19.1583C10.0197 19.9558 10.5398 20.6469 11.2289 21.1361C11.9179 21.6253 12.7418 21.8885 13.5869 21.8893C11.9597 23.1047 9.59481 23.9156 7.55176 23.5148C11.534 25.9733 16.9768 25.866 20.7733 23.0866C23.8344 20.8455 25.3917 17.3004 25.3917 13.5663C26.1709 12.9974 26.8635 12.3184 27.4476 11.5506C26.718 11.8757 25.9222 12.0708 25.1265 12.2008C25.9222 11.6806 26.5854 10.9654 26.917 9.99005C26.9169 9.99005 25.2589 10.7703 24.3305 10.9654Z" fill="white"/>
<defs>
<linearGradient id="paint0_linear_441_939" x1="9.96821" y1="9.48638" x2="27.9937" y2="27.5119" gradientUnits="userSpaceOnUse">
<stop stop-color="#03A9F4"/>
<stop offset="1" stop-color="#1D1D1B" stop-opacity="0"/>
</linearGradient>
</defs>
</svg>
