<svg width="26" height="26" viewBox="0 0 26 26" fill="none" xmlns="http://www.w3.org/2000/svg">
<path fill-rule="evenodd" clip-rule="evenodd" d="M17.3259 15.5735C17.1901 15.8019 17.0363 16.0192 16.8658 16.2231C16.8474 16.2439 16.8334 16.2681 16.8245 16.2944C16.8157 16.3207 16.8122 16.3485 16.8142 16.3762C16.8163 16.4038 16.8239 16.4308 16.8366 16.4555C16.8493 16.4802 16.8668 16.502 16.8881 16.5198C16.9094 16.5376 16.934 16.551 16.9605 16.5591C16.9871 16.5672 17.015 16.5699 17.0426 16.567C17.0701 16.5641 17.0969 16.5557 17.1212 16.5423C17.1455 16.529 17.1668 16.5108 17.184 16.489C17.3711 16.265 17.5371 16.0302 17.6827 15.7859C17.7108 15.7385 17.7191 15.682 17.7055 15.6286C17.692 15.5752 17.6578 15.5294 17.6105 15.5013C17.5632 15.4731 17.5066 15.4649 17.4532 15.4784C17.3999 15.492 17.3541 15.5261 17.3259 15.5735ZM17.9113 14.0986C17.8534 14.358 17.7751 14.6124 17.6773 14.8595C17.6672 14.8848 17.6623 14.9119 17.6627 14.9391C17.6631 14.9664 17.6689 14.9933 17.6797 15.0183C17.6905 15.0433 17.7061 15.066 17.7257 15.085C17.7452 15.1039 17.7683 15.1189 17.7936 15.1289C17.819 15.139 17.846 15.144 17.8733 15.1435C17.9006 15.1431 17.9275 15.1374 17.9525 15.1266C17.9775 15.1158 18.0001 15.1001 18.0191 15.0806C18.0381 15.061 18.053 15.0379 18.0631 15.0126C18.1697 14.7437 18.2539 14.4683 18.3162 14.1887C18.327 14.1354 18.3165 14.08 18.2869 14.0344C18.2573 13.9888 18.211 13.9567 18.1579 13.9449C18.1048 13.9331 18.0493 13.9426 18.0031 13.9713C17.957 14.0001 17.924 14.0458 17.9113 14.0986ZM18.0083 12.5143C18.0336 12.779 18.0382 13.0449 18.022 13.3104C18.0199 13.3379 18.0232 13.3655 18.0319 13.3916C18.0405 13.4177 18.0543 13.4419 18.0723 13.4627C18.0904 13.4834 18.1124 13.5004 18.1371 13.5126C18.1618 13.5247 18.1887 13.5319 18.2162 13.5335C18.2437 13.5352 18.2712 13.5314 18.2972 13.5223C18.3232 13.5133 18.3471 13.4991 18.3676 13.4807C18.388 13.4623 18.4046 13.44 18.4164 13.4151C18.4281 13.3902 18.4348 13.3632 18.4361 13.3357C18.4539 13.0486 18.4489 12.7607 18.4211 12.4745C18.4192 12.4468 18.4118 12.4198 18.3993 12.3951C18.3868 12.3703 18.3694 12.3484 18.3483 12.3304C18.3271 12.3125 18.3026 12.299 18.2762 12.2907C18.2497 12.2825 18.2219 12.2796 18.1943 12.2822C18.1667 12.2849 18.1399 12.2931 18.1155 12.3062C18.0911 12.3194 18.0696 12.3374 18.0523 12.359C18.035 12.3806 18.0221 12.4055 18.0146 12.4322C18.007 12.4589 18.0049 12.4868 18.0083 12.5143ZM17.6097 10.9781C17.7167 11.2229 17.8034 11.4743 17.8698 11.7302C17.8836 11.7835 17.918 11.8291 17.9654 11.857C18.0128 11.8848 18.0694 11.8928 18.1226 11.8789C18.1759 11.8651 18.2215 11.8307 18.2494 11.7833C18.2773 11.7359 18.2852 11.6793 18.2714 11.6261C18.1996 11.349 18.1054 11.0764 17.9897 10.8117C17.979 10.7865 17.9633 10.7636 17.9437 10.7444C17.9241 10.7252 17.9009 10.7101 17.8754 10.6999C17.8499 10.6898 17.8226 10.6848 17.7952 10.6852C17.7677 10.6857 17.7406 10.6916 17.7155 10.7026C17.6903 10.7136 17.6676 10.7295 17.6487 10.7494C17.6297 10.7692 17.6149 10.7926 17.605 10.8182C17.5952 10.8439 17.5905 10.8712 17.5913 10.8986C17.5921 10.9261 17.5984 10.9531 17.6097 10.9781ZM16.7505 9.6439C16.9301 9.8447 17.0911 10.0563 17.2334 10.277C17.2478 10.3006 17.2668 10.3211 17.2893 10.3373C17.3117 10.3535 17.3372 10.365 17.3642 10.3711C17.3912 10.3773 17.4191 10.378 17.4464 10.3732C17.4736 10.3684 17.4997 10.3582 17.5229 10.3432C17.5462 10.3282 17.5662 10.3087 17.5818 10.2859C17.5974 10.263 17.6083 10.2372 17.6138 10.2101C17.6193 10.183 17.6193 10.155 17.6138 10.1279C17.6083 10.1008 17.5975 10.075 17.5819 10.0521C17.4284 9.81358 17.2541 9.58417 17.0591 9.3672C17.0413 9.34567 17.0194 9.32797 16.9946 9.31515C16.9697 9.30232 16.9426 9.29464 16.9147 9.29257C16.8869 9.29049 16.8589 9.29406 16.8324 9.30307C16.806 9.31207 16.7817 9.32633 16.7609 9.34497C16.7401 9.36362 16.7232 9.38627 16.7114 9.41158C16.6996 9.43688 16.693 9.46431 16.692 9.49223C16.6911 9.52015 16.6957 9.54797 16.7058 9.57403C16.7158 9.6001 16.731 9.62386 16.7505 9.6439Z" fill="white"/>
<path fill-rule="evenodd" clip-rule="evenodd" d="M13 5.94743C9.1074 5.94743 5.94743 9.1074 5.94743 13C5.94743 16.8926 9.1074 20.0526 13 20.0526C16.8926 20.0526 20.0526 16.8926 20.0526 13C20.0526 9.1074 16.8926 5.94743 13 5.94743ZM13.4149 6.79084C16.6561 7.00449 19.2229 9.70479 19.2229 13C19.2229 16.2952 16.6561 18.9955 13.4149 19.2092V6.79084ZM11.8222 2.14693V4.05444C11.8304 4.3614 11.958 4.65304 12.178 4.86727C12.398 5.08149 12.6929 5.20137 13 5.20137C13.3071 5.20137 13.602 5.08149 13.822 4.86727C14.042 4.65304 14.1696 4.3614 14.1778 4.05444V2.14693C14.1696 1.83998 14.042 1.54833 13.822 1.3341C13.602 1.11988 13.3071 1 13 1C12.6929 1 12.398 1.11988 12.178 1.3341C11.958 1.54833 11.8304 1.83998 11.8222 2.14693ZM19.8414 4.49295L18.4927 5.84165C18.033 6.30131 18.033 7.04763 18.4927 7.5073C18.9524 7.96696 19.6987 7.96696 20.1584 7.5073L21.5071 6.1586C21.9667 5.69893 21.9667 4.95261 21.5071 4.49295C21.0474 4.03328 20.3011 4.03328 19.8414 4.49295ZM23.8531 11.8222H21.9456C21.6386 11.8304 21.347 11.958 21.1327 12.178C20.9185 12.398 20.7986 12.6929 20.7986 13C20.7986 13.3071 20.9185 13.602 21.1327 13.822C21.347 14.042 21.6386 14.1696 21.9456 14.1778H23.8531C24.16 14.1696 24.4517 14.042 24.6659 13.822C24.8801 13.602 25 13.3071 25 13C25 12.6929 24.8801 12.398 24.6659 12.178C24.4517 11.958 24.16 11.8304 23.8531 11.8222ZM21.5071 19.8414L20.1584 18.4927C19.6987 18.033 18.9524 18.033 18.4927 18.4927C18.033 18.9524 18.033 19.6987 18.4927 20.1584L19.8414 21.5071C20.3011 21.9667 21.0474 21.9667 21.5071 21.5071C21.9667 21.0474 21.9667 20.3011 21.5071 19.8414ZM14.1778 23.8531V21.9456C14.1696 21.6386 14.042 21.347 13.822 21.1327C13.602 20.9185 13.3071 20.7986 13 20.7986C12.6929 20.7986 12.398 20.9185 12.178 21.1327C11.958 21.347 11.8304 21.6386 11.8222 21.9456V23.8531C11.8304 24.16 11.958 24.4517 12.178 24.6659C12.398 24.8801 12.6929 25 13 25C13.3071 25 13.602 24.8801 13.822 24.6659C14.042 24.4517 14.1696 24.16 14.1778 23.8531ZM6.1586 21.5071L7.5073 20.1584C7.96696 19.6987 7.96696 18.9524 7.5073 18.4927C7.04763 18.033 6.30131 18.033 5.84165 18.4927L4.49295 19.8414C4.03328 20.3011 4.03328 21.0474 4.49295 21.5071C4.95261 21.9667 5.69893 21.9667 6.1586 21.5071ZM2.14693 14.1778H4.05444C4.3614 14.1696 4.65304 14.042 4.86727 13.822C5.08149 13.602 5.20137 13.3071 5.20137 13C5.20137 12.6929 5.08149 12.398 4.86727 12.178C4.65304 11.958 4.3614 11.8304 4.05444 11.8222H2.14693C1.83998 11.8304 1.54833 11.958 1.3341 12.178C1.11988 12.398 1 12.6929 1 13C1 13.3071 1.11988 13.602 1.3341 13.822C1.54833 14.042 1.83998 14.1696 2.14693 14.1778ZM4.49295 6.1586L5.84165 7.5073C6.30131 7.96696 7.04763 7.96696 7.5073 7.5073C7.96696 7.04763 7.96696 6.30131 7.5073 5.84165L6.1586 4.49295C5.69893 4.03328 4.95261 4.03328 4.49295 4.49295C4.03328 4.95261 4.03328 5.69893 4.49295 6.1586Z" fill="white"/>
</svg>
