<svg width="25" height="25" viewBox="0 0 25 25" fill="none" xmlns="http://www.w3.org/2000/svg">
<path fill-rule="evenodd" clip-rule="evenodd" d="M16.5735 14.9229C16.4456 15.138 16.3008 15.3426 16.1403 15.5346C16.1229 15.5541 16.1097 15.577 16.1014 15.6017C16.093 15.6265 16.0897 15.6526 16.0917 15.6787C16.0937 15.7047 16.1008 15.7301 16.1128 15.7534C16.1247 15.7766 16.1412 15.7972 16.1612 15.814C16.1813 15.8307 16.2045 15.8433 16.2294 15.8509C16.2544 15.8585 16.2807 15.8611 16.3067 15.8584C16.3327 15.8557 16.3578 15.8478 16.3807 15.8352C16.4036 15.8226 16.4237 15.8055 16.4399 15.785C16.616 15.574 16.7723 15.3529 16.9094 15.1229C16.9359 15.0783 16.9437 15.0251 16.9309 14.9748C16.9182 14.9245 16.886 14.8814 16.8414 14.8549C16.7969 14.8284 16.7436 14.8206 16.6934 14.8334C16.6431 14.8461 16.6 14.8783 16.5735 14.9229ZM17.1246 13.5342C17.0701 13.7784 16.9965 14.0179 16.9043 14.2506C16.8949 14.2744 16.8902 14.2999 16.8906 14.3256C16.891 14.3513 16.8964 14.3766 16.9066 14.4001C16.9167 14.4237 16.9315 14.445 16.9499 14.4629C16.9683 14.4808 16.99 14.4948 17.0139 14.5043C17.0378 14.5138 17.0632 14.5184 17.0889 14.5181C17.1146 14.5177 17.1399 14.5122 17.1635 14.5021C17.187 14.4919 17.2083 14.4772 17.2262 14.4588C17.2441 14.4403 17.2581 14.4186 17.2676 14.3947C17.368 14.1416 17.4473 13.8822 17.5059 13.619C17.5161 13.5688 17.5062 13.5166 17.4783 13.4737C17.4504 13.4308 17.4068 13.4005 17.3569 13.3894C17.3069 13.3783 17.2546 13.3872 17.2112 13.4143C17.1677 13.4414 17.1367 13.4844 17.1246 13.5342ZM17.2161 12.0424C17.2399 12.2916 17.2442 12.542 17.2289 12.792C17.2269 12.8178 17.2301 12.8438 17.2382 12.8684C17.2464 12.8931 17.2593 12.9158 17.2763 12.9354C17.2933 12.9549 17.3141 12.9709 17.3373 12.9823C17.3606 12.9938 17.3859 13.0005 17.4117 13.0021C17.4376 13.0037 17.4636 13.0001 17.488 12.9916C17.5125 12.983 17.535 12.9697 17.5543 12.9523C17.5736 12.935 17.5892 12.914 17.6003 12.8906C17.6113 12.8671 17.6176 12.8417 17.6188 12.8158C17.6356 12.5455 17.6309 12.2744 17.6047 12.0049C17.6029 11.9789 17.5959 11.9534 17.5842 11.9301C17.5724 11.9069 17.5561 11.8862 17.5361 11.8693C17.5162 11.8524 17.4931 11.8397 17.4682 11.8319C17.4433 11.8241 17.4171 11.8214 17.3911 11.8239C17.3651 11.8264 17.3399 11.8341 17.317 11.8465C17.294 11.8589 17.2738 11.8758 17.2574 11.8962C17.2411 11.9165 17.2291 11.94 17.2219 11.9651C17.2148 11.9902 17.2128 12.0165 17.2161 12.0424ZM16.8407 10.5959C16.9414 10.8264 17.0231 11.0631 17.0856 11.3041C17.0986 11.3543 17.131 11.3972 17.1756 11.4234C17.2203 11.4497 17.2735 11.4572 17.3237 11.4442C17.3738 11.4311 17.4167 11.3988 17.443 11.3541C17.4693 11.3095 17.4767 11.2562 17.4637 11.2061C17.3961 10.9451 17.3075 10.6885 17.1985 10.4393C17.1884 10.4155 17.1737 10.3939 17.1552 10.3758C17.1367 10.3578 17.1149 10.3435 17.0908 10.334C17.0668 10.3244 17.0412 10.3197 17.0153 10.3202C16.9895 10.3206 16.964 10.3262 16.9403 10.3365C16.9166 10.3469 16.8952 10.3619 16.8774 10.3805C16.8595 10.3992 16.8456 10.4213 16.8363 10.4454C16.827 10.4695 16.8227 10.4953 16.8234 10.5211C16.8241 10.5469 16.83 10.5724 16.8407 10.5959ZM16.0317 9.33966C16.2008 9.52872 16.3524 9.72794 16.4864 9.93575C16.4999 9.958 16.5178 9.97731 16.539 9.99254C16.5601 10.0078 16.5841 10.0186 16.6095 10.0244C16.6349 10.0302 16.6612 10.0309 16.6869 10.0264C16.7126 10.0219 16.7371 10.0123 16.759 9.99815C16.7809 9.98402 16.7997 9.96564 16.8144 9.94411C16.8291 9.92259 16.8394 9.89833 16.8445 9.87279C16.8497 9.84724 16.8497 9.82092 16.8445 9.79537C16.8394 9.76983 16.8292 9.74557 16.8145 9.72403C16.67 9.49942 16.5059 9.28341 16.3223 9.07911C16.3055 9.05885 16.2848 9.04218 16.2615 9.0301C16.2381 9.01803 16.2126 9.01079 16.1863 9.00884C16.1601 9.00689 16.1337 9.01025 16.1088 9.01873C16.0839 9.02721 16.061 9.04063 16.0414 9.05819C16.0219 9.07574 16.006 9.09707 15.9949 9.1209C15.9837 9.14473 15.9775 9.17056 15.9766 9.19684C15.9757 9.22313 15.9801 9.24933 15.9896 9.27387C15.999 9.29841 16.0134 9.32079 16.0317 9.33966Z" fill="#242424"/>
<path fill-rule="evenodd" clip-rule="evenodd" d="M12.5 5.85914C8.83477 5.85914 5.85938 8.83453 5.85938 12.4998C5.85938 16.165 8.83477 19.1404 12.5 19.1404C16.1652 19.1404 19.1406 16.165 19.1406 12.4998C19.1406 8.83453 16.1652 5.85914 12.5 5.85914ZM12.8906 6.65328C15.9426 6.85445 18.3594 9.39703 18.3594 12.4998C18.3594 15.6025 15.9426 18.1451 12.8906 18.3462V6.65328ZM11.391 2.28062V4.07672C11.3987 4.36574 11.5189 4.64035 11.726 4.84206C11.9332 5.04378 12.2109 5.15665 12.5 5.15665C12.7891 5.15665 13.0668 5.04378 13.274 4.84206C13.4811 4.64035 13.6013 4.36574 13.609 4.07672V2.28062C13.6013 1.9916 13.4811 1.71699 13.274 1.51527C13.0668 1.31356 12.7891 1.20068 12.5 1.20068C12.2109 1.20068 11.9332 1.31356 11.726 1.51527C11.5189 1.71699 11.3987 1.9916 11.391 2.28062ZM18.9418 4.48961L17.6719 5.75953C17.2391 6.19234 17.2391 6.89507 17.6719 7.32789C18.1047 7.7607 18.8074 7.7607 19.2402 7.32789L20.5102 6.05797C20.943 5.62515 20.943 4.92242 20.5102 4.48961C20.0774 4.05679 19.3746 4.05679 18.9418 4.48961ZM22.7191 11.3908H20.9231C20.634 11.3984 20.3594 11.5187 20.1577 11.7258C19.956 11.9329 19.8431 12.2106 19.8431 12.4998C19.8431 12.7889 19.956 13.0666 20.1577 13.2737C20.3594 13.4809 20.634 13.6011 20.9231 13.6087H22.7191C23.0082 13.6011 23.2828 13.4809 23.4845 13.2737C23.6862 13.0666 23.7991 12.7889 23.7991 12.4998C23.7991 12.2106 23.6862 11.9329 23.4845 11.7258C23.2828 11.5187 23.0082 11.3984 22.7191 11.3908ZM20.5102 18.9416L19.2402 17.6716C18.8074 17.2388 18.1047 17.2388 17.6719 17.6716C17.2391 18.1045 17.2391 18.8072 17.6719 19.24L18.9418 20.5099C19.3746 20.9427 20.0774 20.9427 20.5102 20.5099C20.943 20.0771 20.943 19.3744 20.5102 18.9416ZM13.609 22.7189V20.9228C13.6013 20.6338 13.4811 20.3592 13.274 20.1575C13.0668 19.9557 12.7891 19.8429 12.5 19.8429C12.2109 19.8429 11.9332 19.9557 11.726 20.1575C11.5189 20.3592 11.3987 20.6338 11.391 20.9228V22.7189C11.3987 23.0079 11.5189 23.2825 11.726 23.4843C11.9332 23.686 12.2109 23.7988 12.5 23.7988C12.7891 23.7988 13.0668 23.686 13.274 23.4843C13.4811 23.2825 13.6013 23.0079 13.609 22.7189ZM6.05821 20.5099L7.32813 19.24C7.76094 18.8072 7.76094 18.1045 7.32813 17.6716C6.89532 17.2388 6.19258 17.2388 5.75977 17.6716L4.48985 18.9416C4.05704 19.3744 4.05704 20.0771 4.48985 20.5099C4.92266 20.9427 5.6254 20.9427 6.05821 20.5099ZM2.28087 13.6087H4.07696C4.36598 13.6011 4.6406 13.4809 4.84231 13.2737C5.04402 13.0666 5.1569 12.7889 5.1569 12.4998C5.1569 12.2106 5.04402 11.9329 4.84231 11.7258C4.6406 11.5187 4.36598 11.3984 4.07696 11.3908H2.28087C1.99184 11.3984 1.71723 11.5187 1.51552 11.7258C1.3138 11.9329 1.20093 12.2106 1.20093 12.4998C1.20093 12.7889 1.3138 13.0666 1.51552 13.2737C1.71723 13.4809 1.99184 13.6011 2.28087 13.6087ZM4.48985 6.05797L5.75977 7.32789C6.19258 7.7607 6.89532 7.7607 7.32813 7.32789C7.76094 6.89507 7.76094 6.19234 7.32813 5.75953L6.05821 4.48961C5.6254 4.05679 4.92266 4.05679 4.48985 4.48961C4.05704 4.92242 4.05704 5.62515 4.48985 6.05797Z" fill="#242424"/>
</svg>
