<svg width="24" height="24" viewBox="0 0 24 24" fill="none" xmlns="http://www.w3.org/2000/svg">
<path d="M21.4886 7.75864L16.0437 2.30655C15.5305 1.7909 14.6304 1.79133 14.1181 2.30613L12.3033 4.12336C12.0458 4.38029 11.904 4.72287 11.904 5.08765C11.904 5.45243 12.0458 5.795 12.3029 6.05151L17.7482 11.5041C18.0048 11.7619 18.347 11.9039 18.7112 11.9039C19.0755 11.9039 19.4177 11.7619 19.6738 11.5045L21.4886 9.6873C21.7461 9.43037 21.8879 9.08775 21.8879 8.72301C21.8879 8.35818 21.7461 8.01557 21.4886 7.75864ZM11.9234 6.9633C11.7745 6.81396 11.5432 6.78737 11.3655 6.89727C10.0404 7.70962 7.96449 8.67795 5.5997 8.67795C5.39718 8.67795 5.219 8.81223 5.16318 9.00726L1.93728 20.2981C1.90946 20.3959 1.91521 20.5001 1.95361 20.5942C1.99201 20.6882 2.06085 20.7667 2.14911 20.8171C2.33035 20.9194 2.55992 20.8871 2.70352 20.7342L8.10187 15.0185C8.28311 14.8262 8.36867 14.5554 8.33629 14.2753C8.27379 13.7275 8.52464 13.228 9.0068 12.9395C9.43047 12.6869 9.99287 12.6993 10.4099 12.9692C10.7711 13.2046 10.9945 13.564 11.0379 13.981C11.0808 14.3918 10.9381 14.7947 10.6465 15.0863C10.3545 15.3784 9.95029 15.5171 9.53104 15.4705C9.24518 15.4368 8.98285 15.5228 8.78961 15.7058L3.07362 21.1043C2.99976 21.1741 2.95145 21.2666 2.93643 21.3672C2.9214 21.4677 2.94053 21.5703 2.99074 21.6587C3.03041 21.7283 3.08781 21.7861 3.15708 21.8264C3.22636 21.8666 3.30506 21.8878 3.38517 21.8878C3.4264 21.8878 3.46848 21.882 3.5097 21.8705L14.8006 18.6446C14.8954 18.6175 14.9789 18.5602 15.0383 18.4814C15.0977 18.4027 15.1298 18.3067 15.1299 18.2081C15.1299 15.8433 16.0982 13.7674 16.9106 12.4423C16.9638 12.3554 16.9862 12.2531 16.9743 12.1519C16.9623 12.0507 16.9166 11.9564 16.8445 11.8843L11.9234 6.9633Z" fill="white"/>
</svg>
