<svg width="25" height="25" viewBox="0 0 25 25" fill="none" xmlns="http://www.w3.org/2000/svg">
<path d="M22.3842 8.07802L16.7124 2.40247C16.1778 1.86569 15.2402 1.86614 14.7066 2.40203L12.8162 4.2937C12.5479 4.56116 12.4002 4.91779 12.4002 5.29751C12.4002 5.67722 12.5479 6.03385 12.8157 6.30087L12.8724 6.35755C11.7316 7.14557 9.21704 8.60877 6.25482 8.60877C6.04387 8.60877 5.85826 8.74873 5.80012 8.95202L2.01819 22.1971C1.99817 22.2675 1.99473 22.3415 2.00816 22.4135C2.02158 22.4854 2.0515 22.5532 2.09557 22.6117C2.13964 22.6701 2.19665 22.7175 2.26213 22.7502C2.3276 22.7828 2.39977 22.7999 2.47294 22.7999C2.51633 22.7999 2.5602 22.794 2.60266 22.7819L15.839 18.9976C15.9378 18.9693 16.0247 18.9096 16.0866 18.8275C16.1485 18.7454 16.182 18.6454 16.182 18.5426C16.182 15.5784 17.6442 13.0622 18.4317 11.9206L18.4879 11.9769C18.7552 12.2452 19.1116 12.3931 19.4911 12.3931C19.8705 12.3931 20.2269 12.2452 20.4938 11.9773L22.3842 10.0857C22.6524 9.81821 22.8001 9.46159 22.8001 9.08187C22.8001 8.70211 22.6524 8.34548 22.3842 8.07802ZM15.243 18.1871L4.09706 21.3715L9.5547 15.9139C9.8359 16.0799 10.1596 16.1818 10.5093 16.1818C11.5521 16.1818 12.4002 15.3337 12.4002 14.2908C12.4002 13.2479 11.5522 12.3999 10.5093 12.3999C9.46637 12.3999 8.61835 13.2479 8.61835 14.2908C8.61835 14.6405 8.72019 14.9642 8.88621 15.2454L3.42857 20.7031L6.61296 9.55714C9.80505 9.44217 12.4436 7.83352 13.5512 7.04727L17.7528 11.2489C16.9666 12.3565 15.3579 14.995 15.243 18.1871ZM9.56383 14.2909C9.56383 13.7697 9.98809 13.3454 10.5093 13.3454C11.0304 13.3454 11.4547 13.7697 11.4547 14.2909C11.4547 14.8121 11.0304 15.2363 10.5093 15.2363C9.98809 15.2363 9.56383 14.8121 9.56383 14.2909ZM21.7162 9.42511L19.8248 11.3165C19.6476 11.4947 19.335 11.4951 19.1568 11.316L13.4837 5.64288C13.3946 5.55424 13.3456 5.4356 13.3456 5.30912C13.3456 5.18263 13.3945 5.06399 13.4841 4.97487L15.3755 3.08351C15.4641 2.99443 15.5828 2.94546 15.7092 2.94546C15.8357 2.94546 15.9544 2.99439 16.0435 3.08395L21.7162 8.75666L21.7166 8.75711C21.8057 8.84574 21.8547 8.96438 21.8547 9.09087C21.8547 9.21739 21.8058 9.33603 21.7162 9.42511Z" fill="#242424"/>
</svg>
