<svg width="35" height="35" viewBox="0 0 35 35" fill="none" xmlns="http://www.w3.org/2000/svg">
<path d="M33.47 30.3161C33.9281 30.7638 33.6141 31.5359 32.9759 31.5359H23.2428C19.1097 31.5359 15.5222 29.1991 13.7362 25.7712C12.9355 24.2419 12.5186 22.5408 12.5215 20.8146C12.5215 15.0499 17.0715 10.3506 22.7693 10.1087C22.9237 10.0984 23.0833 10.0933 23.2428 10.0933C29.1671 10.0933 33.9693 14.8903 33.9693 20.8146C33.9693 23.6094 32.9039 26.1469 31.1539 28.0565L33.47 30.3161Z" fill="#C175FF"/>
<path d="M23.5053 14.1903C23.5053 19.991 19.2744 24.8292 13.7362 25.7711C12.9355 24.2418 12.5186 22.5408 12.5215 20.8145C12.5215 15.0498 17.0715 10.3506 22.7693 10.1086C23.248 11.38 23.5053 12.7542 23.5053 14.1903Z" fill="#B244F1"/>
<path d="M24.9621 21.916H21.529L23.2455 17.7839L24.9621 21.916ZM27.8599 24.8498L24.2518 16.3366C24.1743 16.1533 24.0522 15.9923 23.8966 15.8682C23.7628 15.7652 23.5981 15.6983 23.4128 15.6829C23.3819 15.6777 23.351 15.6777 23.315 15.6777H23.176C22.9496 15.6777 22.754 15.7446 22.5944 15.8682C22.44 15.9917 22.3216 16.1461 22.2341 16.3366L19.3518 23.1461L18.6312 24.8498C18.5746 24.9836 18.5488 25.0917 18.5488 25.1844C18.5488 25.3954 18.6209 25.5807 18.7599 25.7248C18.904 25.8741 19.0893 25.9513 19.3157 25.9513C19.4702 25.9513 19.6143 25.9049 19.7429 25.8226C19.8716 25.7402 19.9746 25.6219 20.0415 25.4726L20.9268 23.3469H25.5643L26.4547 25.4777C26.5216 25.6219 26.6194 25.7402 26.7481 25.8226C26.8768 25.9049 27.0209 25.9513 27.1753 25.9513C27.4018 25.9513 27.5871 25.8741 27.7312 25.7248C27.8702 25.5807 27.9422 25.3954 27.9422 25.1844C27.9422 25.0917 27.9165 24.9836 27.8599 24.8498Z" fill="white"/>
<path d="M23.4126 15.6829C23.0317 18.6579 21.5339 21.2932 19.3516 23.1461L22.2339 16.3366C22.3214 16.1461 22.4398 15.9917 22.5942 15.8682C22.7538 15.7446 22.9494 15.6777 23.1758 15.6777H23.3148C23.3508 15.6777 23.3817 15.6777 23.4126 15.6829Z" fill="#E5E8EF"/>
<path d="M22.4781 14.1879C22.4781 20.1121 17.6759 24.9092 11.7567 24.9092H2.02366C1.38542 24.9092 1.07145 24.1371 1.52954 23.6893L3.84571 21.4298C2.09571 19.5202 1.03027 16.9827 1.03027 14.1879C1.03027 8.26361 5.83248 3.46655 11.7567 3.46655C17.6759 3.46655 22.4781 8.26361 22.4781 14.1879Z" fill="#5CBEFF"/>
<path d="M22.4763 14.1903C22.4763 20.1095 17.6741 24.9117 11.7549 24.9117H9.05273C14.9719 24.9117 19.7741 20.1095 19.7741 14.1903C19.7741 8.72416 15.6873 4.21019 10.4013 3.55137C10.8439 3.49475 11.2969 3.46387 11.7549 3.46387C17.6741 3.46387 22.4763 8.26607 22.4763 14.1903Z" fill="#079CFF"/>
<path opacity="0.28" d="M5.24316 11.08C5.80161 9.48709 5.69696 8.00038 5.00942 7.75934C4.32188 7.5183 3.3118 8.6142 2.75335 10.2071C2.1949 11.8 2.29955 13.2867 2.98709 13.5278C3.67463 13.7688 4.6847 12.6729 5.24316 11.08Z" fill="white"/>
<path d="M16.9011 10.5904H12.5601C12.6064 10.2388 12.7058 9.81524 12.924 9.44465C12.9773 9.35719 13.0126 9.26 13.028 9.15875C13.0433 9.05751 13.0383 8.95421 13.0134 8.8549C12.9884 8.75558 12.944 8.66222 12.8826 8.58025C12.8212 8.49829 12.7441 8.42935 12.6558 8.37746C12.5676 8.32557 12.4698 8.29176 12.3684 8.278C12.2669 8.26424 12.1637 8.2708 12.0648 8.29731C11.9658 8.32382 11.8732 8.36974 11.7922 8.4324C11.7112 8.49506 11.6435 8.57321 11.593 8.66229C11.2069 9.31751 11.0603 10.0458 11.0062 10.5904H6.60702C6.40226 10.5904 6.20588 10.6717 6.06109 10.8165C5.9163 10.9613 5.83496 11.1577 5.83496 11.3624C5.83496 11.5672 5.9163 11.7636 6.06109 11.9084C6.20588 12.0532 6.40226 12.1345 6.60702 12.1345H7.87062C7.9432 13.3209 8.37709 15.5161 10.3953 17.4782C9.75342 17.8853 8.99834 18.2657 8.10121 18.5977C8.00377 18.631 7.91398 18.6835 7.83713 18.752C7.76028 18.8206 7.69792 18.9038 7.65372 18.9968C7.60952 19.0899 7.58439 19.1908 7.57978 19.2937C7.57518 19.3965 7.5912 19.4993 7.62692 19.5959C7.66263 19.6925 7.7173 19.781 7.78773 19.8561C7.85815 19.9313 7.94289 19.9916 8.03697 20.0335C8.13104 20.0753 8.23255 20.098 8.33552 20.1001C8.43848 20.1021 8.54082 20.0836 8.63651 20.0455C9.83834 19.6013 10.8266 19.0748 11.6434 18.5045C12.4597 19.0748 13.448 19.6013 14.6498 20.0455C14.7449 20.081 14.846 20.0974 14.9475 20.0936C15.0489 20.0899 15.1485 20.0661 15.2407 20.0237C15.3329 19.9812 15.4158 19.921 15.4846 19.8464C15.5534 19.7718 15.6068 19.6843 15.6417 19.589C15.7125 19.397 15.7042 19.1847 15.6186 18.9988C15.533 18.8129 15.3771 18.6686 15.1851 18.5977C14.2875 18.2657 13.5314 17.8863 12.889 17.4808C14.9092 15.5182 15.3431 13.3219 15.4162 12.1345H16.9011C17.1059 12.1345 17.3023 12.0532 17.4471 11.9084C17.5919 11.7636 17.6732 11.5672 17.6732 11.3624C17.6732 11.1577 17.5919 10.9613 17.4471 10.8165C17.3023 10.6717 17.1059 10.5904 16.9011 10.5904ZM11.6372 16.5404C9.83165 14.9041 9.46003 13.0919 9.40136 12.1345H13.8814C13.8165 13.0883 13.4356 14.9041 11.6372 16.5404Z" fill="white"/>
</svg>
