<svg width="35" height="35" viewBox="0 0 35 35" fill="none" xmlns="http://www.w3.org/2000/svg">
<path d="M29.714 28.8722V13.3879C29.714 12.7146 29.1681 12.1687 28.4948 12.1687H6.76708C6.0937 12.1687 5.54785 12.7146 5.54785 13.3879V28.8722H29.714Z" fill="#58595B"/>
<path d="M28.9957 12.2773C29.0672 12.4347 29.1042 12.6056 29.1042 12.7784V27.6531C29.1042 27.8147 29.04 27.9698 28.9257 28.0841C28.8114 28.1985 28.6563 28.2627 28.4946 28.2627H5.54785V28.8723H29.714V13.3881C29.714 12.8934 29.4189 12.4686 28.9957 12.2773Z" fill="#414042"/>
<path d="M27.9219 28.8723V15.0312C27.9219 14.8696 27.8577 14.7145 27.7434 14.6002C27.629 14.4859 27.474 14.4216 27.3123 14.4216H7.94848C7.7868 14.4216 7.63174 14.4859 7.51742 14.6002C7.40309 14.7145 7.33887 14.8696 7.33887 15.0312V28.8723H27.9219Z" fill="#5E9CF7"/>
<path d="M27.313 14.4216V27.6531C27.313 27.8148 27.2488 27.9698 27.1345 28.0842C27.0202 28.1985 26.8651 28.2627 26.7034 28.2627H7.33984V28.8723H27.9228V15.0312C27.9227 14.8696 27.8585 14.7145 27.7441 14.6002C27.6298 14.4859 27.4747 14.4216 27.313 14.4216Z" fill="#478CF7"/>
<path d="M3 29.1162V30.7808C3 31.4542 3.54585 32 4.21923 32H31.0423C31.7157 32 32.2615 31.4542 32.2615 30.7808V29.1162C32.2615 29.0515 32.2358 28.9895 32.1901 28.9437C32.1444 28.898 32.0824 28.8723 32.0177 28.8723H3.24385C3.17917 28.8723 3.11715 28.898 3.07142 28.9437C3.02569 28.9895 3 29.0515 3 29.1162Z" fill="#939598"/>
<path d="M32.0176 28.8723H31.6518V30.1712C31.6518 30.8445 31.106 31.3904 30.4326 31.3904H3.6095C3.43665 31.3903 3.2658 31.3533 3.1084 31.2819C3.2997 31.7051 3.72448 32 4.21912 32H31.0422C31.7156 32 32.2614 31.4542 32.2614 30.7808V29.1162C32.2614 29.0515 32.2357 28.9895 32.19 28.9437C32.1443 28.898 32.0822 28.8723 32.0176 28.8723Z" fill="#808285"/>
<path d="M12.7744 28.8723V29.5373C12.7744 29.699 12.8386 29.854 12.953 29.9683C13.0673 30.0827 13.2223 30.1469 13.384 30.1469H21.8774C22.0391 30.1469 22.1942 30.0827 22.3085 29.9683C22.4228 29.854 22.4871 29.699 22.4871 29.5373V28.8723H12.7744Z" fill="#58595B"/>
<path d="M26.0134 28.8723H9.24902V4.60962C9.24902 4.44794 9.31325 4.29288 9.42758 4.17855C9.5419 4.06423 9.69696 4 9.85864 4H25.4038C25.5655 4 25.7206 4.06423 25.8349 4.17855C25.9492 4.29288 26.0134 4.44794 26.0134 4.60962V28.8723Z" fill="#F1F2F2"/>
<path d="M9.98017 12.7785C9.9155 12.7785 9.85348 12.7528 9.80775 12.7071C9.76202 12.6613 9.73633 12.5993 9.73633 12.5346V6.0727C9.73633 6.00803 9.76202 5.94601 9.80775 5.90028C9.85348 5.85455 9.9155 5.82886 9.98017 5.82886C10.0448 5.82886 10.1069 5.85455 10.1526 5.90028C10.1983 5.94601 10.224 6.00803 10.224 6.0727V12.5346C10.224 12.5993 10.1983 12.6613 10.1526 12.7071C10.1069 12.7528 10.0448 12.7785 9.98017 12.7785Z" fill="white"/>
<path d="M9.98017 5.34536C10.1148 5.34536 10.224 5.23618 10.224 5.10151C10.224 4.96684 10.1148 4.85767 9.98017 4.85767C9.8455 4.85767 9.73633 4.96684 9.73633 5.10151C9.73633 5.23618 9.8455 5.34536 9.98017 5.34536Z" fill="white"/>
<path d="M25.4038 4H24.7942V27.0435C24.7942 27.2051 24.73 27.3602 24.6157 27.4745C24.5013 27.5888 24.3463 27.6531 24.1846 27.6531H9.24902V28.8723H26.0134V4.60962C26.0134 4.44794 25.9492 4.29288 25.8349 4.17855C25.7206 4.06423 25.5655 4 25.4038 4Z" fill="#E6E7E8"/>
<path d="M25.4038 4V27.6531C25.4038 27.8148 25.3396 27.9698 25.2253 28.0841C25.111 28.1985 24.9559 28.2627 24.7942 28.2627H9.24902V28.8723H26.0134V4.60962C26.0134 4.44794 25.9492 4.29288 25.8349 4.17855C25.7206 4.06423 25.5655 4 25.4038 4Z" fill="#D1D3D4"/>
<path d="M17.6308 15.5908C20.3243 15.5908 22.5078 13.4073 22.5078 10.7138C22.5078 8.02039 20.3243 5.83691 17.6308 5.83691C14.9374 5.83691 12.7539 8.02039 12.7539 10.7138C12.7539 13.4073 14.9374 15.5908 17.6308 15.5908Z" fill="#EF7816"/>
<path d="M17.6312 14.3569C19.6432 14.3569 21.2742 12.7259 21.2742 10.714C21.2742 8.70204 19.6432 7.07104 17.6312 7.07104C15.6193 7.07104 13.9883 8.70204 13.9883 10.714C13.9883 12.7259 15.6193 14.3569 17.6312 14.3569Z" fill="#FFC91D"/>
<path d="M19.883 7.85181C20.3897 8.49315 20.6649 9.28686 20.6639 10.1042C20.6639 12.1162 19.0329 13.7472 17.021 13.7472C16.2036 13.7481 15.4099 13.4729 14.7686 12.9662C15.4356 13.8126 16.4693 14.3568 17.6306 14.3568C19.6426 14.3568 21.2735 12.7258 21.2735 10.7138C21.2735 9.55251 20.7294 8.51885 19.883 7.85181Z" fill="#FFA91A"/>
<path d="M17.9983 10.2862H17.8744V8.935H17.9983C18.1774 8.93523 18.3491 9.00648 18.4758 9.13312C18.6024 9.25977 18.6737 9.43147 18.6739 9.61058C18.6739 9.67525 18.6996 9.73727 18.7453 9.783C18.791 9.82873 18.8531 9.85442 18.9177 9.85442C18.9824 9.85442 19.0444 9.82873 19.0902 9.783C19.1359 9.73727 19.1616 9.67525 19.1616 9.61058C19.1616 8.96914 18.6398 8.44731 17.9983 8.44731H17.8744V8.32344C17.8744 8.25876 17.8488 8.19674 17.803 8.15101C17.7573 8.10528 17.6953 8.07959 17.6306 8.07959C17.5659 8.07959 17.5039 8.10528 17.4582 8.15101C17.4124 8.19674 17.3868 8.25876 17.3868 8.32344V8.44731H17.2629C16.6214 8.44731 16.0996 8.96914 16.0996 9.61058C16.0996 10.252 16.6214 10.7738 17.2629 10.7738H17.3868V12.4927H17.2629C17.0838 12.4925 16.912 12.4213 16.7854 12.2946C16.6587 12.168 16.5875 11.9963 16.5873 11.8171C16.5873 11.7525 16.5616 11.6904 16.5159 11.6447C16.4702 11.599 16.4081 11.5733 16.3435 11.5733C16.2788 11.5733 16.2168 11.599 16.171 11.6447C16.1253 11.6904 16.0996 11.7525 16.0996 11.8171C16.0996 12.4586 16.6214 12.9804 17.2629 12.9804H17.3868V13.1044C17.3868 13.1691 17.4124 13.2311 17.4582 13.2768C17.5039 13.3226 17.5659 13.3483 17.6306 13.3483C17.6953 13.3483 17.7573 13.3226 17.803 13.2768C17.8488 13.2311 17.8744 13.1691 17.8744 13.1044V12.9804H17.9983C18.6398 12.9804 19.1616 12.4586 19.1616 11.8171V11.4493C19.1616 10.808 18.6398 10.2862 17.9983 10.2862ZM17.2629 10.2862C16.8904 10.2862 16.5873 9.98305 16.5873 9.61058C16.5873 9.2381 16.8904 8.935 17.2629 8.935H17.3868V10.2862H17.2629ZM18.6739 11.8171C18.6737 11.9962 18.6024 12.168 18.4758 12.2946C18.3491 12.4212 18.1774 12.4925 17.9983 12.4927H17.8744V10.7738H17.9983C18.1774 10.774 18.3492 10.8453 18.4758 10.9719C18.6025 11.0986 18.6737 11.2703 18.6739 11.4494V11.8171Z" fill="#995222"/>
<path d="M19.9512 16.5166V24.6244H22.1976V16.5166C22.1976 16.4519 22.1719 16.3899 22.1262 16.3441C22.0805 16.2984 22.0184 16.2727 21.9538 16.2727H20.195C20.1303 16.2727 20.0683 16.2984 20.0226 16.3441C19.9769 16.3899 19.9512 16.4519 19.9512 16.5166Z" fill="#76A34F"/>
<path d="M21.9538 16.2727H21.588V23.4052C21.588 23.5669 21.5238 23.7219 21.4094 23.8363C21.2951 23.9506 21.1401 24.0148 20.9784 24.0148H19.9512V24.6244H22.1976V16.5166C22.1976 16.4519 22.1719 16.3899 22.1262 16.3441C22.0805 16.2984 22.0184 16.2727 21.9538 16.2727Z" fill="#648940"/>
<path d="M12.5137 21.6855V24.6245H14.7601V21.6855C14.7601 21.6208 14.7344 21.5588 14.6887 21.5131C14.643 21.4673 14.5809 21.4417 14.5163 21.4417H12.7575C12.6928 21.4417 12.6308 21.4673 12.5851 21.5131C12.5394 21.5588 12.5137 21.6208 12.5137 21.6855Z" fill="#E63950"/>
<path d="M14.5163 21.4417H14.1505V23.4052C14.1505 23.5669 14.0863 23.722 13.9719 23.8363C13.8576 23.9506 13.7026 24.0148 13.5409 24.0148H12.5137V24.6245H14.7601V21.6855C14.7601 21.6208 14.7344 21.5588 14.6887 21.5131C14.643 21.4673 14.5809 21.4417 14.5163 21.4417Z" fill="#D10028"/>
<path d="M16.2324 18.8522V24.6246H18.4789V18.8522C18.4789 18.7876 18.4532 18.7255 18.4074 18.6798C18.3617 18.6341 18.2997 18.6084 18.235 18.6084H16.4763C16.4116 18.6084 16.3496 18.6341 16.3038 18.6798C16.2581 18.7255 16.2324 18.7876 16.2324 18.8522Z" fill="#FFC91D"/>
<path d="M18.235 18.6084H17.8692V23.4053C17.8692 23.567 17.805 23.7221 17.6907 23.8364C17.5764 23.9507 17.4213 24.015 17.2596 24.015H16.2324V24.6246H18.4789V18.8522C18.4789 18.7876 18.4532 18.7255 18.4074 18.6798C18.3617 18.6341 18.2997 18.6084 18.235 18.6084Z" fill="#FFA91A"/>
<path d="M22.9647 24.8683H11.7478C11.6831 24.8683 11.6211 24.8426 11.5753 24.7969C11.5296 24.7512 11.5039 24.6891 11.5039 24.6245C11.5039 24.5598 11.5296 24.4978 11.5753 24.452C11.6211 24.4063 11.6831 24.3806 11.7478 24.3806H22.9647C23.0293 24.3806 23.0914 24.4063 23.1371 24.452C23.1828 24.4978 23.2085 24.5598 23.2085 24.6245C23.2085 24.6891 23.1828 24.7512 23.1371 24.7969C23.0914 24.8426 23.0293 24.8683 22.9647 24.8683ZM22.9647 27.3068H11.7478C11.6831 27.3068 11.6211 27.2811 11.5753 27.2353C11.5296 27.1896 11.5039 27.1276 11.5039 27.0629C11.5039 26.9983 11.5296 26.9362 11.5753 26.8905C11.6211 26.8448 11.6831 26.8191 11.7478 26.8191H22.9647C23.0293 26.8191 23.0914 26.8448 23.1371 26.8905C23.1828 26.9362 23.2085 26.9983 23.2085 27.0629C23.2085 27.1276 23.1828 27.1896 23.1371 27.2353C23.0914 27.2811 23.0293 27.3068 22.9647 27.3068Z" fill="#414042"/>
</svg>
