<svg width="30" height="30" viewBox="0 0 30 30" fill="none" xmlns="http://www.w3.org/2000/svg">
<g clip-path="url(#clip0_153_9115)">
<path fill-rule="evenodd" clip-rule="evenodd" d="M15 0C6.7214 0 0 6.7214 0 15C0 23.2786 6.7214 30 15 30C23.2786 30 30 23.2786 30 15C30 6.7214 23.2786 0 15 0ZM15 2.09302C22.1233 2.09302 27.907 7.87674 27.907 15C27.907 22.1233 22.1233 27.907 15 27.907C7.87674 27.907 2.09302 22.1233 2.09302 15C2.09302 7.87674 7.87674 2.09302 15 2.09302Z" fill="#464646"/>
<path fill-rule="evenodd" clip-rule="evenodd" d="M3.21323 24.2748C5.96206 27.7604 10.2207 30 14.9997 30C19.7788 30 24.0374 27.7604 26.7863 24.2748L25.6783 23.3065C24.2847 21.8892 22.6226 20.764 20.7891 19.9966C18.9555 19.2292 16.9874 18.8351 14.9997 18.8372C10.8165 18.8372 7.02951 20.5534 4.30857 23.3204L3.21323 24.2748Z" fill="#464646"/>
<path d="M14.9998 17.4418C18.2749 17.4418 20.93 14.7867 20.93 11.5115C20.93 8.23635 18.2749 5.5813 14.9998 5.5813C11.7246 5.5813 9.06952 8.23635 9.06952 11.5115C9.06952 14.7867 11.7246 17.4418 14.9998 17.4418Z" fill="#464646"/>
</g>
<defs>
<clipPath id="clip0_153_9115">
<rect width="30" height="30" fill="white"/>
</clipPath>
</defs>
</svg>
